<?xml version="1.0" encoding="utf-8"?>
<!-- Generator: Adobe Illustrator 22.1.0, SVG Export Plug-In . SVG Version: 6.00 Build 0)  -->
<svg version="1.1" id="Warstwa_1" xmlns="http://www.w3.org/2000/svg" xmlns:xlink="http://www.w3.org/1999/xlink" x="0px" y="0px"
	 width="441.1px" height="570.7px" viewBox="0 0 441.1 570.7" style="enable-background:new 0 0 441.1 570.7;" xml:space="preserve"
	>
<style type="text/css">
	.st0{fill:#412F3D;}
	.st1{fill:#FFFFFF;}
	.st2{fill:#DEE1E0;}
	.st3{fill:#D4D1CC;}
	.st4{opacity:0.2;fill:#A39D96;enable-background:new    ;}
	.st5{fill:none;stroke:#FFFFFF;stroke-width:1.4916;stroke-miterlimit:10;}
	.st6{fill:none;stroke:#0C2A31;stroke-width:1.4916;stroke-miterlimit:10;}
	.st7{fill:#89837C;}
	.st8{fill:#B5B1AC;}
	.st9{fill:#251C2F;}
	.st10{fill:#251A2A;}
	.st11{fill:none;stroke:#251A2A;stroke-width:1.3808;stroke-miterlimit:10;}
	.st12{fill:#1E1826;}
	.st13{fill:none;stroke:#FFFFFF;stroke-width:2.3774;stroke-miterlimit:10;}
	.st14{fill:none;stroke:#FFFFFF;stroke-width:2.4007;stroke-miterlimit:10;}
</style>
<g id="Warstwa_3">
	<g id="Warstwa_4">
		<g>
			<g>
				<rect x="0.5" y="77" class="st0" width="440" height="450.8"/>
				<rect x="41.8" y="118.3" class="st1" width="357.7" height="368.6"/>
				<rect x="72.6" y="149" class="st2" width="296.1" height="307"/>
				<polygon class="st3" points="399.2,130.1 41.8,125.6 41.8,118.3 399.2,118.3 				"/>
				<rect x="0.5" y="527.8" class="st4" width="440" height="42.9"/>
				<line class="st5" x1="0.5" y1="77" x2="41.8" y2="118.3"/>
				<line class="st5" x1="399.2" y1="118.3" x2="440.5" y2="77"/>
				<line class="st5" x1="399.2" y1="486.8" x2="440.5" y2="527.8"/>
				<line class="st5" x1="41.8" y1="486.8" x2="0.5" y2="527.8"/>
				<path class="st6" d="M141.4,78.6l72.9-75.3c3.4-3.4,8.8-3.4,12.1,0l73,75.3"/>
			</g>
			<g>
				<path class="st7" d="M285,230.7c0,0-6.8,64.1-6.5,74.8c0.6,10.5,15.3,39,15.3,39s-28.5,24-44.1,29.4s-19.8,3.1-19.8,3.1
					s30-133.6,28.9-137c-1.1-3.4,11-22.3,11-22.3"/>
				<path class="st8" d="M182,177.8c0,0-32.8,16.9-34.5,35c-2,18.1,6.5,64.4,9.6,72.5c3.1,8.2,36.8,68.7,43.3,60.7
					c6.5-7.9,46.1-58.8,49.2-74.3c3.1-15.8,16.7-48.3,16.1-58.8s-8.5-22-14.1-26c-4.2-2.9-19.8-9.6-34.5-9.3
					C202.4,178.4,182,177.8,182,177.8z"/>
				<path class="st0" d="M278.6,295.7l13.4,37.8c0,0,32.8,33.9,50.4,47.2c17.8,13.3,26,75.7,26,75.7H155.1c0,0,8.5-18.4,13.9-36.4
					c7.4-24.9,11.9-60.2,11.9-60.2"/>
				<path class="st0" d="M267.2,286c0,0-3.1,13.3-3.6,23.8c-0.6,10.5-6.8,33-5.1,37.3c1.7,4,8.8,16.9,8.8,16.9s-24.6,17.3-30.8,16.4
					s9.6-71.2,11-77.7s10.1-16.6,10.1-16.6"/>
				<path class="st8" d="M258.4,252.5c0,0,19.5-8.5,23.2-2.9c3.6,5.6-2.3,27.4-5.6,34.2c-3.4,6.8-20.4,9.6-20.4,9.6"/>
				<path class="st9" d="M261.5,256.3c0,0,11.9-9,15.5-4s0,9.9,0,9.9s-10.1-7.4-11-3.1c-0.9,4.2,4,6.8,3.4,12.4s-13.6,11-13.6,11"/>
				<path class="st1" d="M149.5,246.5c0.6,0.6-2,57.9,0,65.5s11,31,10.5,37.5c-0.6,6.5,10.1,30.9,10.1,30.9s12.7,17.7,20.1,19.6
					c15.5,4,42.7-8.7,46.3-14.4c3.6-5.9,21.8-46.3,21.8-59.3s-1.1-56.2,0-62.2c1.1-5.9-6.8-4.2-6.8-4.2s-14.1,27.4-18.6,32.2
					c-4.5,4.8-8.2,7.6-13,4.8c-4.8-2.9-17.5-3.4-17.5-3.4s-20.1-0.6-26-0.3c-15,0.3-18.1-26.3-18.1-26.3L149.5,246.5z"/>
				<path class="st10" d="M198.1,243.7c0,0,12.1,0.6,14.4,0c2.5-0.6,8.2-4.8,9.6-3.6c1.4,1.2,14.1,10.5,14.1,10.5
					s-12.4-2.9-17.5-2.9s-7.4,2.9-7.4,2.9l16.1,4.8l0.3,3.4c0,0-15.9,1.4-17.5,2.5c-1.7,1.1-3.6,3.6-3.6,3.6s9.9,5.9,13.9,4.2
					c3.6-1.7,8.2-1.7,8.2-1.7s-7.6,8.5-18.1,4.2c-10.5-4-10.5-8.5-10.5-8.5l3.4-11l-7.9-4.8L198.1,243.7z"/>
				<path class="st11" d="M163.6,226.2l22.9,7.6c11.3-0.6,37.6-7.6,37.6-7.6"/>
				<line class="st11" x1="169" y1="212.9" x2="207.8" y2="212.9"/>
				<line class="st11" x1="186.6" y1="233.8" x2="193.9" y2="246.5"/>
				<path class="st10" d="M181.2,235.5l7.4,14.1c0,0-1.1,3.6-3.6,4.8c-2.5,1.1-3.6,8.2-3.6,8.2s-0.6,5.1-5.6,5.9
					c-5.1,1.1-6.5,1.1-6.5,1.1s8.2-5.6,8.2-6.5s-6.5,0-7.1-0.9s-0.6-10.1-2.3-9.6c-1.7,0.6-3.6,3.6-5.1,5.1
					c-1.4,1.4-3.1,1.4-3.1,1.4l3.6-12.7h17.8l-3.1-11L181.2,235.5L181.2,235.5z"/>
				<path class="st2" d="M147.2,319l7.9,9.5c0,0,18.5-11.9,21.4-13c3-1.1,4.6-8.1,4.6-8.1"/>
				<path class="st1" d="M177.3,180.7c0,0,21.5,11,30.5,11s30.5-5.1,33.9-5.6c3.4-0.6,8.2,8.8,9,9.9c0.9,1.1,4.5,13.5,2.9,16.9
					c-1.7,3.4-10.8,13-10.8,13l8.8,33.9l6.8,4.2c0,0,3.6-15.3,6.5-17.5c2.9-2.3,21.8-6.2,20.1-15.8c-1.7-9.6,7.4-21.1-5.9-29.4
					c-13.3-8.2-30.5-23.4-39-27.4c-8.8-3.6-31.6-15.5-37.9-13.5S177.3,180.7,177.3,180.7z"/>
				<path class="st8" d="M170.1,317.9c0,0,17.3-6.8,19.2-6.8c2,0,27.7,5.1,27.7,5.1s-10.1,12.9-23.4,12.3
					C180.4,328.2,170.1,317.9,170.1,317.9z"/>
				<path class="st10" d="M181.2,315.1c0,0,5.4-9,13.6-7.6c8.2,1.4,16.4,11,16.4,11h-30"/>
				<path class="st12" d="M178.1,291.4c0,0,5.4,9.3,11.9,9c6.8-0.6,17.8-8.8,17.8-8.8l-7.4-2.9c0,0-12.1,4.2-15,2.3
					c-2.9-2-7.4-3.4-7.4-3.4"/>
			</g>
		</g>
		<ellipse class="st0" cx="223.2" cy="14.4" rx="6.6" ry="6.6"/>
		<ellipse class="st8" cx="220.3" cy="9.2" rx="6.6" ry="6.6"/>
	</g>
	<path class="st1" d="M174.2,295.7c0,0-1.8,0.8-19.1,8.5s-35.3,4-35.3,4s17,16.7,38.6,11.6c21.6-5,34.5-11.5,34.5-11.5"/>
	<path class="st2" d="M259.7,315.5c0,0-14.7,13.8-23.4,11.2c-8.7-2.6-22.5-10.1-25.6-11.2s-4.9-8.1-4.9-8.1"/>
	<path class="st1" d="M213.2,295.7c0,0,1.8,0.8,20,8.5s37.1,4,37.1,4s-17.9,16.7-40.6,11.6c-22.7-5-43.2-12.4-43.2-12.4"/>
	<ellipse class="st13" cx="215.5" cy="263.5" rx="18.6" ry="18.6"/>
	<line class="st14" x1="234.1" y1="264.5" x2="234.1" y2="300.7"/>
</g>
</svg>
