<?xml version="1.0" encoding="utf-8"?>
<!-- Generator: Adobe Illustrator 22.1.0, SVG Export Plug-In . SVG Version: 6.00 Build 0)  -->
<svg version="1.1" xmlns="http://www.w3.org/2000/svg" xmlns:xlink="http://www.w3.org/1999/xlink" x="0px" y="0px" width="72.8px"
	 height="174.3px" viewBox="0 0 72.8 174.3" style="enable-background:new 0 0 72.8 174.3;" xml:space="preserve">
<style type="text/css">
	.st0{fill-rule:evenodd;clip-rule:evenodd;fill:#AFACA7;}
	.st1{fill-rule:evenodd;clip-rule:evenodd;fill:#412F3D;}
</style>
<g id="Warstwa_1_kopia">
</g>
<g id="Warstwa_5">
	<g>
		<path class="st0" d="M32.3,150.3l-4.3-1l-4.6-1.1l-2.5-0.6l-0.9-0.2L37,72.2c3.4-1.1,6.1-4,7-7.8c0.3-1.4,0.3-2.8,0.1-4.1
			c1.2,0.5,2.4,0.9,3.6,1.2c11.1,2.5,22.1-4.5,24.6-15.5c2.5-11.1-4.5-22.1-15.5-24.6c-0.8-0.2-1.6-0.3-2.4-0.4
			c0.7-1.1,1.2-2.3,1.5-3.6c1.4-6.4-2.6-12.7-9-14.2c-6.4-1.4-12.7,2.6-14.2,8.9c-0.3,1.3-0.3,2.6-0.2,3.9c-0.7-0.3-1.5-0.5-2.3-0.7
			C19.2,12.9,8.2,19.8,5.7,30.9c-2.5,11,4.5,22,15.5,24.6c1.2,0.3,2.5,0.4,3.7,0.5c-0.8,1.1-1.4,2.4-1.7,3.8c-0.9,3.8,0.4,7.5,3,10
			L3.8,168.5c-0.3,1.4,0.6,2.7,2,3.1l2.9,0.7l2.9,0.7c1.4,0.3,2.7-0.5,3.1-1.9l0.4-1.6l0.9,0.2l2.5,0.6l0.6-2.6l0.6,0.1l2.9,0.7
			l1.1,0.3l-0.6,2.6l4.3,1l0.8-3.6l0.4,0.1l2.9,0.7l1.3,0.3l-0.8,3.6l5.1,1.2l4.9-21.8l-5.1-1.2L32.3,150.3z M40.2,33
			c3,0.7,4.9,3.6,4.2,6.6c-0.7,3-3.6,4.8-6.6,4.2c-3-0.7-4.8-3.7-4.2-6.6C34.2,34.2,37.2,32.3,40.2,33z M66.1,44.6
			c-1.7,7.7-9.4,12.5-17,10.7c-3.3-0.7-6.1-2.6-8.1-5.2c4.6-0.8,8.5-4.2,9.6-9c1.1-4.8-0.9-9.6-4.7-12.3c2.9-1.5,6.3-1.9,9.6-1.2
			C63,29.2,67.9,36.9,66.1,44.6z M45.5,9.4c3,0.7,4.9,3.7,4.2,6.6c-0.7,3-3.6,4.9-6.6,4.2c-3-0.7-4.8-3.7-4.2-6.6
			C39.6,10.6,42.6,8.7,45.5,9.4z M11.8,32.3c1.7-7.7,9.4-12.5,17.1-10.8c3.3,0.7,6.1,2.6,8.1,5.2c-4.6,0.8-8.5,4.2-9.6,9.1
			c-1.1,4.8,1,9.6,4.8,12.3c-2.9,1.5-6.3,2-9.6,1.2C14.9,47.5,10.1,39.9,11.8,32.3z"/>
		<path class="st1" d="M28.6,147.4l-4.3-1l-4.6-1.1l-2.5-0.6l-0.9-0.2l17.1-75.4c3.4-1.1,6.1-4,7-7.8c0.3-1.4,0.3-2.8,0.1-4.1
			c1.2,0.5,2.4,0.9,3.6,1.2C55,61,66,54,68.5,43C71,31.9,64.1,20.9,53,18.4c-0.8-0.2-1.6-0.3-2.4-0.4c0.7-1.1,1.2-2.3,1.5-3.6
			c1.4-6.4-2.6-12.7-9-14.2c-6.4-1.4-12.7,2.6-14.2,8.9c-0.3,1.3-0.3,2.6-0.2,3.9c-0.7-0.3-1.5-0.5-2.3-0.7
			C15.4,9.9,4.4,16.9,1.9,27.9c-2.5,11,4.5,22,15.5,24.6c1.2,0.3,2.5,0.4,3.7,0.5c-0.8,1.1-1.4,2.4-1.7,3.8c-0.9,3.8,0.4,7.5,3,10
			L0.1,165.5c-0.3,1.4,0.6,2.7,2,3.1l2.9,0.7l2.9,0.7c1.4,0.3,2.7-0.5,3.1-1.9l0.4-1.6l0.9,0.2l2.5,0.6l0.6-2.6l0.6,0.1l2.9,0.7
			l1.1,0.3l-0.6,2.6l4.3,1l0.8-3.6l0.4,0.1l2.9,0.7l1.3,0.3l-0.8,3.6l5.1,1.2l4.9-21.8l-5.1-1.2L28.6,147.4z M36.4,30
			c3,0.7,4.9,3.6,4.2,6.6c-0.7,3-3.6,4.8-6.6,4.2c-3-0.7-4.8-3.7-4.2-6.6C30.4,31.2,33.4,29.4,36.4,30z M62.4,41.6
			c-1.7,7.7-9.4,12.5-17,10.7c-3.3-0.7-6.1-2.6-8.1-5.2c4.6-0.8,8.5-4.2,9.6-9c1.1-4.8-0.9-9.6-4.7-12.3c2.9-1.5,6.3-1.9,9.6-1.2
			C59.3,26.3,64.1,34,62.4,41.6z M41.7,6.4c3,0.7,4.9,3.7,4.2,6.6c-0.7,3-3.6,4.9-6.6,4.2c-3-0.7-4.8-3.7-4.2-6.6
			C35.8,7.6,38.8,5.8,41.7,6.4z M8,29.3c1.7-7.7,9.4-12.5,17.1-10.8c3.3,0.7,6.1,2.6,8.1,5.2c-4.6,0.8-8.5,4.2-9.6,9.1
			c-1.1,4.8,1,9.6,4.8,12.3c-2.9,1.5-6.3,2-9.6,1.2C11.1,44.6,6.3,37,8,29.3z"/>
	</g>
</g>
</svg>
