<?xml version="1.0" encoding="utf-8"?>
<!-- Generator: Adobe Illustrator 22.1.0, SVG Export Plug-In . SVG Version: 6.00 Build 0)  -->
<svg version="1.1" xmlns="http://www.w3.org/2000/svg" xmlns:xlink="http://www.w3.org/1999/xlink" x="0px" y="0px" width="390.7px"
	 height="442.2px" viewBox="0 0 390.7 442.2" style="enable-background:new 0 0 390.7 442.2;" xml:space="preserve">
<style type="text/css">
	.st0{fill:#412F3D;}
	.st1{fill:#F4F4F4;}
	.st2{fill:#DEE1E0;}
	.st3{fill:#D4D1CC;}
	.st4{fill:none;stroke:#8D9CA9;stroke-width:1.3224;stroke-miterlimit:10;}
	.st5{fill:none;stroke:#0C2A31;stroke-width:1.3224;stroke-miterlimit:10;}
	.st6{clip-path:url(#SVGID_2_);}
	.st7{fill:#C1C0BE;}
	.st8{fill:#0C2A31;}
	.st9{fill:#00465A;}
	.st10{clip-path:url(#SVGID_2_);fill:#412F3D;}
</style>
<g id="Warstwa_1_kopia">
</g>
<g id="Warstwa_5">
	<g>
		<g>
			<rect x="0.5" y="68.4" class="st0" width="389.8" height="359.9"/>
			<rect x="36.9" y="104.8" class="st1" width="316.9" height="287.1"/>
			<rect x="64.2" y="132.1" class="st2" width="262.3" height="232.4"/>
			<polygon class="st2" points="353.8,115.4 36.9,111.3 36.9,104.8 353.8,104.8 			"/>
			<rect x="0.5" y="428.3" class="st3" width="389.8" height="13.9"/>
			<line class="st4" x1="0.5" y1="68.4" x2="36.9" y2="104.8"/>
			<line class="st4" x1="353.8" y1="104.8" x2="390.2" y2="68.4"/>
			<line class="st4" x1="353.8" y1="391.9" x2="390.2" y2="428.3"/>
			<line class="st4" x1="36.9" y1="391.9" x2="0.5" y2="428.3"/>
			<path class="st5" d="M124.5,68.4L190,2.9c2.9-2.9,7.7-2.9,10.7,0l65.5,65.5"/>
		</g>
		<g>
			<defs>
				<rect id="SVGID_1_" x="64.2" y="142.7" width="267.4" height="221.8"/>
			</defs>
			<clipPath id="SVGID_2_">
				<use xlink:href="#SVGID_1_"  style="overflow:visible;"/>
			</clipPath>
			<g class="st6">
				<g>
					<g>
						<g>
							<g>
								<g>
									<g>
										<g>
											<path class="st7" d="M331.6,434.6l-14-97.3c-1.8-12.5-9.2-23.5-20.1-29.8L225,265.2h-53.5l-69.1,42.2
												c-10.5,6.4-17.6,17.2-19.4,29.4l-14.1,97.8"/>
										</g>
									</g>
								</g>
								<polygon class="st1" points="161.6,271.1 198.2,375 234.9,270.8 225,263.6 171.5,263.6 								"/>
								<polygon class="st7" points="197.9,276.4 225,263.6 222.1,223.8 174.3,223.8 171.5,263.6 								"/>
								<path class="st7" d="M163.1,187.9l1.1,20.1c0,13.8-0.3,23.2,7.4,31.3c8.2,8.7,16.8,15.4,26.7,15.4c0.3,0-0.3,0,0,0
									c9.9,0,17.8-6.1,26.7-15.4c7.7-8,7.4-17.5,7.4-31.3l1.1-20.1c0-10.6,0-37.9-35.2-37.9S163.1,177.3,163.1,187.9z"/>
								<g>
									<g>
										<path class="st7" d="M153.5,204.9c0,6.8,4.2,12.9,10,12.9c5.8,0,10.5-6.2,10.5-12.9s-4.7-12.3-10.5-12.3
											C157.7,192.6,153.5,198.1,153.5,204.9z"/>
										<path class="st7" d="M222.5,204.9c0,6.8,4.2,12.9,10,12.9c5.8,0,10.5-6.2,10.5-12.9s-4.7-12.3-10.5-12.3
											C226.7,192.6,222.5,198.1,222.5,204.9z"/>
									</g>
								</g>
							</g>
							<path class="st8" d="M198.2,157.4C198.3,157.4,198.2,157.4,198.2,157.4C198.3,157.4,198.2,157.4,198.2,157.4"/>
							<path class="st1" d="M173.2,253"/>
							<path class="st0" d="M232,206.1c0,0-2-23.4-2-32.2c0-2.8-0.7-7.6,3-3.9C243.3,180.4,232,206.1,232,206.1z"/>
							<path class="st0" d="M164.6,206.2c0,0,5-28.6,5.9-39.4c0.3-3.5,1.7-9.3-3.7-5.1C151.9,173.4,164.6,206.2,164.6,206.2z"/>
						</g>
					</g>
				</g>
				<g>
					<g>
						<g>
							<path class="st9" d="M197.4,314.1C197.4,314.1,197.4,314.1,197.4,314.1C197.4,314.2,197.4,314.2,197.4,314.1z"/>
						</g>
					</g>
				</g>
			</g>
			<g class="st6">
				<path class="st0" d="M170.6,165.1c11.9-6.9,19.9-6.1,26.1-3.1c3.7,1.8,11.5,7.5,14.7,10.2c5.1,4.2,12.5,8.9,17.1,9.5
					c5.2,0.7,3.2-5.3,4.7-7.4c1.2-1.7,1.5-4.1,1.1-6.2s-1.4-4.1-2.4-5.9c-2.5-4.2-5.9-7.6-9.9-9.6c-7.5-3.8-16.6-6.2-26.6-6.1
					c-15.2,0.1-25.7,8.3-27.3,15"/>
			</g>
			<path class="st10" d="M232.2,205.2c0,0-0.3,17.4-2.9,21.1c-2.9,4.1-5.5-1.7-11.8-6c-6.1-4.3-11.3-5.4-19.1-5.4
				c-7.8,0-13,1.1-19.1,5.4c-6.2,4.4-7.9,10.1-10.8,6c-2.6-3.7-3.8-21.1-3.8-21.1c-0.2,0.4-1,7.8-0.7,18.4
				c0.1,6.2,4.2,13.7,4.8,14.5c0,0,4.7,7,9.5,11c5.8,4.8,20.8,11,20.9,11c0.8,0,16.4-6.4,22-11c4.8-4,8.4-9.8,8.4-9.8
				c0.2-0.3,2.5-5.5,2.7-5.9C236.9,220.5,232.4,205.8,232.2,205.2z M215.5,245.4c-4,2.7-8.7,2.2-10.3,1.4l-1.4-4.5
				c-1.6-5-0.8-7.8-4.8-7.8s-3.4,3.5-5,8l-1.5,4.4c-1.5,0.9-4.4,1.4-8.7-1.5c-4.9-3.3-10.8-8.6-6.5-10.3s12.7-13.4,21.5-13.4
				c8.8,0,17.5,11.3,21.2,13.4C223.7,237.3,219.6,242.7,215.5,245.4z"/>
		</g>
	</g>
</g>
</svg>
