<?xml version="1.0" encoding="utf-8"?>
<!-- Generator: Adobe Illustrator 22.1.0, SVG Export Plug-In . SVG Version: 6.00 Build 0)  -->
<svg version="1.1" xmlns="http://www.w3.org/2000/svg" xmlns:xlink="http://www.w3.org/1999/xlink" x="0px" y="0px" width="1600px"
	 height="900px" viewBox="0 0 1600 900" style="enable-background:new 0 0 1600 900;" xml:space="preserve">
<style type="text/css">
	.st0{fill:#D4D1CC;}
	.st1{fill:#FFFFFF;}
	.st2{fill:#C1B9AC;}
	.st3{fill:#C6C1BA;}
	.st4{fill:none;stroke:#AAA0AB;stroke-miterlimit:10;}
	.st5{fill:#412F3D;}
	.st6{fill:none;stroke:#BCB8B3;stroke-miterlimit:10;}
	.st7{fill:#C1C0BE;}
	.st8{fill:none;stroke:#584A5B;stroke-width:2;stroke-miterlimit:10;}
	.st9{fill:#968B7C;}
	.st10{fill:#66555C;}
	.st11{fill:none;stroke:#412F3D;stroke-miterlimit:10;}
	.st12{clip-path:url(#SVGID_2_);}
</style>
<g id="Warstwa_1">
	<polygon class="st0" points="1125,91 245,91 0,0 1600,0 	"/>
	<polygon class="st1" points="1125,627 245,677 245,91 1125,91 	"/>
</g>
<g id="Warstwa_1_kopia">
	<polygon class="st2" points="1600,901 1125,627 1125,91 1600,1 	"/>
	<polygon class="st3" points="245,677 0,901 0,1 245,91 	"/>
	<polyline class="st4" points="0,812 245,614 1125,564 1600,788 	"/>
	<polygon class="st5" points="1600,900 1125,627 245,677 0,900 	"/>
	<polyline points="536.2,660.5 536.2,235.5 759.9,229.5 759.9,650.8 	"/>
	<polygon class="st5" points="593.5,500.4 628,500.4 771.5,677 540.3,672 	"/>
</g>
<g id="Warstwa_5">
	<g>
		<g>
			<line class="st6" x1="789.2" y1="514.1" x2="861.5" y2="514.1"/>
			<line class="st6" x1="771.5" y1="485.2" x2="867.9" y2="485.2"/>
			<line class="st6" x1="826.1" y1="457.9" x2="826.1" y2="485.2"/>
			<line class="st6" x1="806.8" y1="486.8" x2="806.8" y2="514.1"/>
			<line class="st6" x1="847" y1="485.2" x2="847" y2="512.5"/>
		</g>
	</g>
</g>
<g id="Warstwa_4">
	<g>
		<g>
			<path d="M934.3,162.8c-26.9-18.1-25.5-29.4-68.3-29.4s-38.4,11.8-65.3,29.9L934.3,162.8z"/>
			<ellipse class="st7" cx="867.9" cy="164.3" rx="68.1" ry="8.3"/>
		</g>
		<path class="st1" d="M882.2,156c-4.7,0-9.5-0.1-14.4-0.1c-5.2,0-10.3,0-15.3,0.1c0.4,7.8,6.9,14.1,14.8,14.1
			C875.4,170.1,881.8,163.8,882.2,156z"/>
		<line class="st8" x1="866" y1="133.3" x2="866" y2="1"/>
	</g>
</g>
<g id="Warstwa_7">
	<g>
		<polygon class="st9" points="1419.9,450 1419.9,402 1284.3,384 1284.3,406.2 		"/>
		<polygon class="st5" points="1419.9,231 1419.9,402 1355.4,415.5 1355.4,223.5 		"/>
		<polygon class="st10" points="1249.9,240 1355.4,223.5 1355.4,415.5 1249.9,384 		"/>
		<line class="st11" x1="1299" y1="232.8" x2="1299" y2="397.5"/>
		<ellipse class="st5" cx="1289.8" cy="371.1" rx="3.3" ry="6.8"/>
		<ellipse class="st5" cx="1308.7" cy="371.9" rx="3.6" ry="7.5"/>
	</g>
	<g>
		<polygon class="st9" points="808.2,337.5 474.6,454.5 469.6,452 460.5,411 803.2,335 		"/>
		
			<rect x="465.9" y="375" transform="matrix(0.9763 -0.2164 0.2164 0.9763 -70.5076 148.2105)" class="st2" width="351" height="42"/>
		<g>
			<defs>
				
					<rect id="SVGID_1_" x="465.9" y="375" transform="matrix(0.9763 -0.2164 0.2164 0.9763 -70.5076 148.2105)" width="351" height="42"/>
			</defs>
			<clipPath id="SVGID_2_">
				<use xlink:href="#SVGID_1_"  style="overflow:visible;"/>
			</clipPath>
			<g class="st12">
				<g>
					<g>
						<path class="st9" d="M565.1,421.3c10.3-2.3,20.7-4.6,31-6.9c5.2-1.2,10.3-2.4,15.5-3.6c3.4-0.8,7-1.4,10-3.2
							c3.6-2.1,5.6-6.2,2.8-9.9c-4.2-5.6-12.4-3-17.9-1.8c-10.1,2.1-20.2,4.4-30.2,6.7c-8,1.8-16.3,3.4-23.5,7.4
							c-4.1,2.3-11.5,7.2-11.9,12.6c-0.4,5.8,7.8,2.2,10.6,1.6c0.8-0.2,0.5-1.4-0.3-1.2c-1.4,0.3-2.9,0.6-4.3,1
							c-0.9,0.2-1.7,0.4-2.6,0.6c-0.5-1.2-1-2.5-1.5-3.7c0.1-2.3,5.2-6.1,6.8-7.3c4.9-3.6,10.6-5.6,16.4-7.2
							c12.5-3.4,25.3-5.9,38-8.6c3.3-0.7,6.8-1.7,10.2-2c2.3-0.2,5.5-0.5,7.4,1.1c3.2,2.6,3.5,6.3,0.3,9c-4.4,3.6-12.1,4.1-17.4,5.3
							c-13.2,3-26.4,6-39.7,8.9C563.9,420.3,564.3,421.5,565.1,421.3L565.1,421.3z"/>
					</g>
				</g>
				<g>
					<g>
						<path class="st9" d="M562.2,431.2c21.5-4.4,42.6-10.9,62.8-19.5c6.3-2.7,40.1-14.1,24.3-25.4c-6.8-4.9-18.6-2.3-26.2-1.2
							c-10.9,1.6-21.7,3.8-32.5,6c-11.2,2.2-22.4,4.7-33.4,7.8c-8.5,2.4-18.1,4.6-25.2,10.2c-3.6,2.8-5.7,6.2-7.6,10.3
							c-1,2.3-2,4.6-3.5,6.7c-1.2,1.7-2.7,3.3-3.4,5.3c-2.9,8.4,7.6,9.8,13.3,9.2c0.8-0.1,0.8-1.3,0-1.3c-1.6,0.2-3.2,0.4-4.8,0.3
							c-1.4-0.1-5.2-0.8-6.1-2.4c-0.6-1-0.7-6.1-0.2-7.1c1.3-3,3.9-5.6,5.3-8.7c3.7-8.1,8.6-12.9,16.9-16.3
							c15.3-6.2,32.1-9.4,48.3-12.6c8.1-1.6,16.2-3.2,24.2-4.6c8.6-1.6,17.6-3.3,26.4-2.7c3.1,0.2,6.7,0.8,9,3.1
							c2.6,2.7,2.7,7,0.1,9.7c-2.7,2.7-6.8,4.3-10.2,5.9c-7.9,3.8-16,7.3-24.2,10.5c-17.4,6.7-35.2,11.9-53.5,15.7
							C561,430.2,561.4,431.4,562.2,431.2L562.2,431.2z"/>
					</g>
				</g>
				<g>
					<g>
						<path class="st9" d="M530,395.8c-11.2,7.1-22.5,13.9-33.6,21.2c-6.5,4.3-14.6,10.5-14.1,19.3c0.6,9.1,9.5,14.2,17.6,15.4
							c11.6,1.7,24.3-0.5,35.8-2.4c25.1-4.1,50.5-10,74.9-17.1c22.2-6.5,47.3-14.7,62.9-32.7c3.9-4.5,7.4-9.4,10.8-14.3
							c2.6-3.7,5.4-7.9,4.4-12.6c-2.5-11.6-16.8-11.4-25.8-10.5c-0.8,0.1-0.8,1.3,0,1.3c5.2-0.5,10.9-1.2,16,0.6
							c7.6,2.8,10.7,10,6.6,17.2c-4.5,8-10.8,16.1-17.5,22.4c-15,14.1-36.7,21.2-56,27c-19.9,5.9-40.3,10.4-60.5,14.6
							c-11,2.3-22,4.2-33.1,5.2c-10.4,0.9-24,2.4-31.5-6.5c-9.6-11.5,4.1-21.8,13.1-27.4c10.2-6.5,20.5-12.9,30.8-19.4
							C531.3,396.4,530.7,395.3,530,395.8L530,395.8z"/>
					</g>
				</g>
				<g>
					<g>
						<path class="st9" d="M739.4,335.5c-6.3,3.8-12.3,8-18,12.7c-3.9,3.2-10.2,7.7-10.4,13.4c-0.3,11.6,17.1,6,22.8,4.7
							c16.5-3.9,33-7.8,49.5-11.7c15.3-3.6,31.5-6.3,45.4-13.9c0.7-0.4,0.1-1.5-0.6-1.1c-11.4,6.2-24.1,8.7-36.6,11.7
							c-13,3.1-26,6.2-39,9.3c-6.3,1.5-12.7,3-19,4.5c-5.1,1.2-11.7,3.9-17,2.1c-6.6-2.2-3.4-9.6,0-13.1c2.2-2.2,4.7-4.2,7.1-6.2
							c5.2-4.2,10.7-7.9,16.4-11.4C740.7,336.2,740.1,335.1,739.4,335.5L739.4,335.5z"/>
					</g>
				</g>
				<g>
					<g>
						<path class="st9" d="M691.6,413.4c18.6-14.8,39.3-26.9,61.5-35.5c10.3-4,20.9-7.3,31.7-9.8c12.4-2.9,25-4.7,37-9
							c0.8-0.3,0.4-1.5-0.3-1.2c-12.3,4.4-25.2,6.2-37.9,9.2c-11.6,2.7-23,6.3-34.1,10.8c-21.2,8.6-41,20.3-58.8,34.5
							C690.1,413,691,413.9,691.6,413.4L691.6,413.4z"/>
					</g>
				</g>
				<g>
					<g>
						<path class="st9" d="M821.3,346.9c-8,3.9-16.6,5.1-25.2,6.8c-8.5,1.7-16.8,4.2-24.9,7.2c-13.8,5.1-27.4,11-40.4,17.9
							c-25.4,13.4-48.7,31.1-65.3,54.9c-0.5,0.7,0.6,1.3,1.1,0.6c17.1-24.5,41.4-42.4,67.7-55.9c13.7-7,28-13.2,42.5-18.1
							c7.6-2.6,15.2-4.5,23.1-6c7.6-1.4,15.1-2.9,22-6.3C822.7,347.6,822.1,346.5,821.3,346.9L821.3,346.9z"/>
					</g>
				</g>
				<g>
					<g>
						<path class="st9" d="M488.6,395.9c-0.2,5.5-1.3,10.8-3.8,15.7c-0.7,1.5-1.6,2.9-2.5,4.3c-1.9,2.8-3.6,3.7-6.5,5.3
							c-7.5,4.3-13.2,11.5-19.3,17.5c-0.6,0.6,0.3,1.5,0.9,0.9c4.1-4.1,8.2-8.3,12.4-12.4c2.3-2.1,4.6-3.9,7.4-5.3
							c1.8-0.9,3-1.5,4.3-3c5.5-6.2,8-15,8.3-23.1C489.9,395.1,488.6,395.1,488.6,395.9L488.6,395.9z"/>
					</g>
				</g>
				<g>
					<g>
						<path class="st9" d="M745.6,398c13.3-8.4,27.7-14.6,42.6-19.7c15.1-5.1,31.7-11.5,47.8-9.7c0.8,0.1,0.8-1.2,0-1.3
							c-16.3-1.8-33,4.6-48.1,9.7c-15,5.1-29.5,11.4-42.9,19.8C744.3,397.4,744.9,398.4,745.6,398L745.6,398z"/>
					</g>
				</g>
				<g>
					<g>
						<path class="st9" d="M675.5,350.8c9,3.9,16.5,11.9,18.1,21.8c2,12.3-7.6,22.1-15.3,30.5c-14.4,15.7-31.8,29.1-53,33.3
							c-0.8,0.2-0.5,1.4,0.3,1.2c24.1-4.8,43.4-21.3,58.9-39.7c6.6-7.8,12.5-16.3,10.1-27c-2.2-9.6-9.5-17.4-18.4-21.3
							C675.4,349.4,674.8,350.5,675.5,350.8L675.5,350.8z"/>
					</g>
				</g>
			</g>
		</g>
	</g>
	<g>
		<g>
			<path class="st1" d="M687.8,231.3c-8.6,13.8-18.7,26.6-30.7,37.7c-6,5.5-12.4,10.6-19.4,14.9c-6.9,4.3-14.3,7.9-22.1,10.4
				l0.5-0.4c-2.1,4.6-4.4,9-6.9,13.3c-2.5,4.3-5.1,8.6-7.9,12.7c-5.6,8.3-11.8,16.2-18.7,23.4c-6.9,7.2-14.6,13.8-23.1,19.1
				c-8.5,5.3-18,9.1-27.9,10.6c-0.3,0-0.5-0.1-0.6-0.4c0-0.3,0.1-0.5,0.4-0.6c9.8-1.6,19-5.5,27.4-10.8c8.4-5.2,15.9-11.8,22.8-19
				c6.8-7.2,12.9-15.1,18.4-23.3c5.5-8.2,10.5-16.9,14.7-25.8l0,0c0.1-0.2,0.3-0.3,0.5-0.4c7.6-2.5,15-5.9,21.8-10.1
				c6.9-4.2,13.3-9.2,19.2-14.6c6-5.4,11.5-11.4,16.6-17.6c5.1-6.2,9.9-12.8,14.3-19.6c0.1-0.2,0.4-0.3,0.6-0.1
				C687.9,230.8,687.9,231.1,687.8,231.3z"/>
		</g>
		<g>
			<path class="st1" d="M523.4,283.2c7.5,2.5,14.9,5,22.5,7.2c7.6,2.2,15.2,4.1,23,5.3c7.8,1.2,15.6,1.7,23.4,1.3
				c7.8-0.4,15.6-1.9,22.9-4.6l-0.1,1.4c-12.5-7-24-15.6-34.3-25.5c-5.1-4.9-10-10.2-14.5-15.7c-4.5-5.5-8.7-11.3-12.6-17.3
				c-0.1-0.2-0.1-0.5,0.1-0.7c0.2-0.1,0.5-0.1,0.7,0.1c3.9,5.9,8.2,11.6,12.7,17c4.5,5.4,9.4,10.6,14.5,15.5
				c10.3,9.8,21.7,18.3,34.1,25.1c0.4,0.2,0.5,0.7,0.3,1.1c-0.1,0.2-0.3,0.3-0.4,0.4c-7.5,2.8-15.4,4.2-23.4,4.6
				c-7.9,0.4-15.9-0.2-23.7-1.4c-7.8-1.3-15.5-3.2-23.1-5.5c-7.6-2.3-15-4.9-22.5-7.6c-0.2-0.1-0.4-0.3-0.3-0.6
				C522.9,283.3,523.2,283.2,523.4,283.2z"/>
		</g>
		<g>
			<path class="st1" d="M614.7,292.9c2.6-2.5,5.1-5,7.4-7.8c2.3-2.7,4.5-5.6,6.6-8.5c2-3,4-6,5.8-9.1c1.8-3.1,3.5-6.3,5.1-9.5
				c3.2-6.4,6.1-13,8.7-19.7c1.3-3.3,2.6-6.7,3.9-10.1c1.3-3.4,2.4-6.8,3.6-10.2c0.1-0.3,0.4-0.4,0.6-0.3c0.3,0.1,0.4,0.4,0.3,0.6
				c-1,3.5-2.1,6.9-3.3,10.3c-1.2,3.4-2.4,6.8-3.7,10.2c-2.6,6.7-5.5,13.4-8.7,19.9c-3.3,6.5-6.9,12.8-11.1,18.7
				c-2.1,2.9-4.4,5.8-6.8,8.5c-2.4,2.7-5,5.2-7.8,7.6c-0.2,0.2-0.5,0.1-0.6,0C614.5,293.4,614.5,293.1,614.7,292.9L614.7,292.9z"/>
		</g>
		<g>
			<path class="st1" d="M614.8,292.4c0.4-3.1,0.7-6.2,0.8-9.3c0.1-3.1,0.1-6.2,0-9.3c-0.3-6.2-1-12.4-2.1-18.6
				c-1.1-6.1-2.6-12.2-4.2-18.3c-0.8-3-1.7-6-2.6-9c-0.9-3-1.8-6-2.8-9c-0.1-0.3,0.1-0.5,0.3-0.6c0.3-0.1,0.5,0.1,0.6,0.3
				c1.1,3,2.1,5.9,3.1,8.9c1,3,1.9,6,2.8,9c1.8,6,3.2,12.2,4.4,18.4c1.1,6.2,1.8,12.5,2,18.8c0.2,6.3-0.2,12.6-1.3,18.9
				c0,0.2-0.3,0.4-0.5,0.4C615,292.9,614.8,292.7,614.8,292.4z"/>
		</g>
		<g>
			<path class="st1" d="M631.2,367.2c0.8-4.7,2.1-9.1,3.3-13.7c1.2-4.5,2.5-9,3.8-13.5c2.6-9,5.2-17.9,8-26.8
				c2.7-8.9,5.6-17.8,8.5-26.7c2.9-8.9,5.9-17.7,9.3-26.4l0.5,0.9c-8.6-1.6-15.8-8.4-18-16.9l1,0.5c-11.6,5.8-26.1,4.9-36.9-2.3
				l1.1-0.3c-1,2-2.4,3.7-4.1,5.1c-1.7,1.4-3.6,2.5-5.5,3.3c-3.9,1.7-8.1,2.5-12.3,3c-8.4,0.9-17,0-25-2.7l1.1-0.8
				c0.2,4.3-0.4,8.7-1.7,12.9c-1.4,4.1-3.5,8-6.1,11.4c-5.3,6.9-12.6,12.1-20.8,14.9l0.4-1.2c8.2,10.9,13.8,23.5,17,36.6
				c3.1,13.2,3.7,27,1.1,40.3l-1-0.7c6.2-2.9,12.7-5,19.3-6.7c6.6-1.7,13.4-2.8,20.2-3.1c6.8-0.3,13.7,0.2,20.3,2.1
				c6.6,1.9,12.8,5.4,17.5,10.5c0.2,0.2,0.2,0.5,0,0.7c-0.2,0.2-0.5,0.2-0.7,0c-4.6-4.9-10.6-8.2-17.1-10.1
				c-6.4-1.9-13.3-2.3-20-1.9c-6.7,0.3-13.4,1.5-19.9,3.2c-6.5,1.7-13,3.8-19,6.6l0,0c-0.3,0.2-0.7,0-0.9-0.3
				c-0.1-0.1-0.1-0.3-0.1-0.4c2.6-13.1,1.9-26.8-1.2-39.7c-3.1-13-8.8-25.4-16.8-36.1c-0.3-0.3-0.2-0.8,0.1-1.1
				c0.1,0,0.1-0.1,0.2-0.1c7.9-2.7,15-7.8,20-14.4c2.5-3.3,4.5-7,5.8-11c1.3-4,1.9-8.1,1.6-12.3c0-0.4,0.3-0.8,0.8-0.8
				c0.1,0,0.2,0,0.3,0c7.8,2.7,16.1,3.6,24.3,2.7c4.1-0.5,8.2-1.3,11.9-2.9c3.7-1.6,7.1-4.1,8.9-7.6c0.2-0.4,0.6-0.5,1-0.3
				c0,0,0.1,0,0.1,0c10.3,6.9,24.3,7.8,35.4,2.2c0.3-0.2,0.8,0,0.9,0.3c0,0,0,0.1,0.1,0.1c2,7.9,8.9,14.4,16.9,15.9
				c0.4,0.1,0.6,0.4,0.5,0.8c0,0,0,0.1,0,0.1c-3.4,8.7-6.4,17.5-9.3,26.3c-2.9,8.9-5.8,17.7-8.5,26.6c-2.8,8.9-5.5,17.8-8.1,26.8
				c-1.3,4.5-2.6,9-3.8,13.5c-1.2,4.5-2.5,9-3.3,13.5l0,0c0,0.2-0.3,0.4-0.5,0.4C631.3,367.7,631.2,367.4,631.2,367.2z"/>
		</g>
		<g>
			<path class="st1" d="M630.5,346.7c0.6-3.5,1.6-6.8,2.5-10.1c1-3.3,2-6.6,3-9.9c2.1-6.6,4.2-13.2,6.4-19.7
				c2.2-6.6,4.4-13.1,6.8-19.6c2.3-6.5,4.7-13,7.2-19.5l0.5,0.9c-1.9-0.4-3.7-1.2-5.3-2.4c-1.6-1.1-2.9-2.5-4.1-4
				c-2.3-3-3.9-6.5-4.9-10.2l1.1,0.4c-2.2,1.6-4.6,2.9-7.1,3.8c-2.5,0.9-5.3,1.4-8,1.4c-2.7,0-5.4-0.5-8-1.3c-2.6-0.9-5-2.1-7.2-3.6
				l1-0.2c-2,3.5-5.1,6.2-8.8,7.9c-3.6,1.6-7.6,2.3-11.5,2.4c-3.9,0.1-7.8-0.3-11.6-1c-3.8-0.7-7.6-1.7-11.3-2.9l1.1-0.8
				c0.4,7.5-1.9,14.9-6.1,21c-4.2,6.1-10.3,11-17.3,13.3l0.4-1.2c6.9,9.2,12.9,19.2,17,30.1c2,5.4,3.6,11,4.3,16.8
				c0.8,5.8,0.7,11.6-0.4,17.4l-1-0.7c2.5-1.2,4.9-2.6,7.3-4c2.4-1.4,4.9-2.7,7.4-3.9c5-2.5,10.2-4.7,15.6-6.3
				c5.4-1.6,11.1-2.5,16.8-1.8c2.8,0.3,5.6,1.1,8.2,2.4c2.6,1.3,4.9,3,6.8,5.1c0.2,0.2,0.2,0.5,0,0.7c-0.2,0.2-0.5,0.2-0.7,0l0,0
				c-1.9-2-4.1-3.6-6.6-4.9c-2.4-1.2-5.1-1.9-7.8-2.3c-5.5-0.6-11,0.3-16.3,1.9c-5.3,1.6-10.4,3.8-15.4,6.3
				c-2.5,1.3-4.9,2.6-7.4,3.9c-2.4,1.3-4.8,2.8-7.4,4c-0.3,0.2-0.7,0-0.9-0.3c-0.1-0.1-0.1-0.3-0.1-0.4l0,0
				c1.1-5.6,1.1-11.3,0.4-16.9c-0.8-5.6-2.3-11.2-4.3-16.5c-4-10.7-10-20.6-16.8-29.7c-0.3-0.3-0.2-0.8,0.1-1.1
				c0.1,0,0.1-0.1,0.2-0.1c6.7-2.3,12.6-6.9,16.5-12.8c4-5.8,6.2-13,5.8-20c0-0.4,0.3-0.8,0.8-0.8c0.1,0,0.2,0,0.3,0
				c3.6,1.2,7.3,2.2,11,2.9c3.7,0.7,7.5,1.1,11.3,1c3.8-0.1,7.5-0.7,10.9-2.3c3.4-1.5,6.3-4,8.1-7.2c0.2-0.4,0.7-0.5,1-0.3
				c0,0,0,0,0,0c4.3,2.9,9.3,4.7,14.4,4.7c2.5,0,5.1-0.5,7.5-1.3c2.4-0.9,4.7-2.1,6.8-3.6c0.3-0.2,0.7-0.2,1,0.2
				c0.1,0.1,0.1,0.2,0.1,0.2c0.9,3.5,2.5,6.9,4.7,9.7c1.1,1.4,2.3,2.7,3.8,3.8c1.4,1,3,1.8,4.8,2.2c0.4,0.1,0.6,0.4,0.5,0.8
				c0,0,0,0.1,0,0.1c-5,12.8-9.6,25.9-14,38.9c-2.2,6.5-4.4,13.1-6.5,19.7c-1,3.3-2.1,6.6-3.1,9.9c-1,3.3-2,6.6-2.6,10l0,0
				c0,0.2-0.3,0.4-0.5,0.4C630.6,347.2,630.5,347,630.5,346.7z"/>
		</g>
		<g>
			<path class="st1" d="M628,333.1c0.4-2.5,1-4.9,1.7-7.3c0.6-2.4,1.3-4.8,2-7.2c1.4-4.8,2.8-9.5,4.3-14.2c1.5-4.7,3.1-9.4,4.7-14.1
				c1.6-4.7,3.3-9.3,5.1-14l0.4,0.9c-1.5-0.5-3.1-1.1-4.5-2.1c-1.4-1-2.5-2.4-3.1-3.9c-0.6-1.6-0.8-3.2-0.9-4.8
				c-0.1-1.6,0-3.2,0.1-4.8l1.1,0.6c-1.7,1.3-3.6,2.3-5.6,3.1c-2,0.8-4.1,1.2-6.3,1.3c-2.2,0.1-4.3-0.3-6.4-1c-2-0.7-4-1.7-5.7-2.8
				l1-0.2c-1.7,3-4.6,5.2-7.7,6.5c-3.1,1.3-6.5,1.7-9.8,1.8c-3.3,0.1-6.6-0.2-9.8-0.8c-3.2-0.6-6.4-1.3-9.6-2.4l1-0.8
				c0.2,3.1-0.3,6.2-1.2,9.1c-0.9,2.9-2.4,5.7-4.1,8.1c-3.5,4.9-8.5,8.9-14.3,10.9l0.4-1.2c5.7,7.5,11.2,15.3,15.4,23.9
				c2.1,4.3,3.8,8.8,4.9,13.4c1,4.7,1.3,9.6,0.4,14.3l-1-0.7c1.9-1,3.7-2.3,5.6-3.5c1.8-1.3,3.7-2.5,5.6-3.8
				c3.7-2.5,7.6-4.8,11.7-6.7c4.1-1.8,8.5-3.3,13.2-3.3c2.3,0,4.6,0.4,6.7,1.4c2.1,0.9,4,2.3,5.6,4c0.2,0.2,0.2,0.5,0,0.7
				c-0.2,0.2-0.5,0.2-0.7,0l0,0c-1.5-1.6-3.3-2.9-5.3-3.7c-2-0.9-4.2-1.2-6.3-1.2c-4.4,0-8.6,1.5-12.6,3.3c-4,1.9-7.8,4.2-11.5,6.7
				c-1.9,1.2-3.7,2.5-5.5,3.8c-1.9,1.3-3.7,2.6-5.7,3.7c-0.3,0.2-0.7,0-0.9-0.3c-0.1-0.1-0.1-0.3-0.1-0.4l0,0
				c0.9-4.5,0.6-9.2-0.4-13.8c-1-4.5-2.7-8.9-4.8-13.1c-4.1-8.4-9.6-16.1-15.3-23.6c-0.3-0.3-0.2-0.8,0.1-1.1c0.1,0,0.1-0.1,0.2-0.1
				c5.5-1.9,10.2-5.7,13.5-10.4c3.3-4.7,5.3-10.5,5-16.2c0-0.4,0.3-0.8,0.8-0.8c0.1,0,0.2,0,0.3,0c3,1,6.2,1.8,9.3,2.3
				c3.2,0.5,6.4,0.9,9.6,0.8c3.2-0.1,6.4-0.5,9.3-1.7c2.9-1.1,5.4-3.1,7-5.8c0.2-0.3,0.6-0.5,1-0.3c0,0,0,0,0,0
				c3.3,2.2,7.3,3.7,11.3,3.6c2,0,4-0.4,5.8-1.2c1.9-0.7,3.6-1.7,5.3-2.9l0,0c0.3-0.2,0.7-0.2,1,0.2c0.1,0.1,0.1,0.3,0.1,0.4
				c-0.1,1.6-0.1,3.1-0.1,4.6c0.1,1.5,0.3,3,0.8,4.4c0.5,1.4,1.4,2.5,2.6,3.4c1.2,0.9,2.6,1.4,4,1.9l0,0c0.3,0.1,0.5,0.5,0.4,0.8
				l0,0c-1.8,4.6-3.5,9.2-5.1,13.9c-1.6,4.7-3.2,9.4-4.8,14.1c-1.5,4.7-3,9.4-4.5,14.2c-0.7,2.4-1.4,4.7-2.1,7.1
				c-0.6,2.4-1.3,4.8-1.7,7.2l0,0c0,0.2-0.3,0.4-0.5,0.4C628.2,333.6,628,333.3,628,333.1z"/>
		</g>
		<g>
			<path class="st1" d="M624.7,320.8c0.8-6.1,1.8-12.1,3.1-18.1c1.3-6,2.8-11.9,5-17.7l0.4,0.9c-1.1-0.3-2.3-0.8-3.3-1.6
				c-1-0.9-1.6-2.3-1.5-3.5c0-1.3,0.4-2.4,0.7-3.5c0.4-1.1,0.9-2.2,1.3-3.2l1,0.8c-1.1,0.8-2.4,1.5-3.7,2c-1.3,0.5-2.8,0.7-4.2,0.5
				c-1.4-0.1-2.8-0.5-4.1-1.1c-1.3-0.6-2.5-1.3-3.6-2l1-0.2c-0.6,1.1-1.5,2.1-2.6,2.8c-1,0.7-2.2,1.2-3.4,1.6
				c-2.4,0.7-4.9,0.8-7.3,0.7c-2.4-0.1-4.8-0.5-7.1-1c-2.3-0.5-4.6-1.1-6.9-1.9l1-0.8c0.1,2.5-0.4,4.8-1.2,7.1
				c-0.8,2.2-1.9,4.3-3.2,6.3c-1.3,1.9-2.9,3.8-4.6,5.3c-1.8,1.6-3.8,3-6.1,3.8l0.4-1.2c4,5.2,8.3,10.2,11.9,15.8
				c1.8,2.8,3.4,5.7,4.6,8.9c1.1,3.2,1.7,6.7,1,10.1l-1-0.7c1.3-0.6,2.5-1.6,3.7-2.5l3.7-2.8c2.5-1.9,5.1-3.7,7.9-5.2
				c2.8-1.5,5.7-2.8,9-3.1c1.6-0.1,3.3,0,4.8,0.6c1.5,0.6,2.9,1.6,4,2.7c0.2,0.2,0.2,0.5,0,0.7c-0.2,0.2-0.5,0.2-0.7,0l0,0
				c-1-1.1-2.3-1.9-3.6-2.4c-1.4-0.5-2.9-0.6-4.4-0.5c-3,0.3-5.8,1.6-8.5,3.1c-2.7,1.5-5.2,3.3-7.7,5.1l-3.7,2.8
				c-1.3,0.9-2.5,1.9-4,2.7c-0.3,0.2-0.7,0-0.9-0.3c-0.1-0.1-0.1-0.3-0.1-0.4l0,0c0.6-3.1,0.1-6.3-1-9.3c-1.1-3-2.7-5.9-4.4-8.6
				c-3.6-5.5-7.9-10.4-12-15.6c-0.3-0.3-0.2-0.8,0.1-1.1c0.1,0,0.1-0.1,0.2-0.1l0,0c2-0.7,3.9-2,5.5-3.5c1.6-1.5,3.1-3.2,4.3-5.1
				c1.2-1.9,2.3-3.9,3-5.9c0.8-2.1,1.2-4.3,1.2-6.4l0,0c0-0.4,0.3-0.8,0.8-0.8c0.1,0,0.2,0,0.3,0c2.2,0.8,4.5,1.4,6.7,1.9
				c2.3,0.5,4.6,0.8,6.9,1c2.3,0.1,4.6,0,6.8-0.6c2.1-0.6,4.1-1.8,5.2-3.7c0.2-0.3,0.6-0.5,1-0.3l0,0l0,0c2.2,1.4,4.5,2.7,7,2.9
				c1.2,0.1,2.5,0,3.7-0.5c1.2-0.4,2.3-1,3.3-1.8c0.3-0.2,0.7-0.2,1,0.2c0.1,0.2,0.2,0.5,0.1,0.7c-0.5,1-0.9,2-1.3,3.1
				c-0.4,1-0.7,2.1-0.7,3.1c-0.1,1,0.3,1.9,1,2.5c0.7,0.6,1.7,1,2.8,1.4l0,0c0.3,0.1,0.5,0.5,0.4,0.8l0,0c-1.1,2.8-2,5.7-2.8,8.6
				c-0.8,2.9-1.6,5.9-2.2,8.8c-1.3,5.9-2.4,11.9-3.3,17.9c0,0.2-0.3,0.4-0.5,0.4C624.8,321.3,624.6,321,624.7,320.8z"/>
		</g>
		<g>
			<path class="st1" d="M622,312.5c0.6-4,1.3-8,2-12c0.4-2,0.7-4,1.1-6c0.4-2,0.8-3.9,1.5-6l0.4,0.9c-0.8-0.3-1.6-0.5-2.4-1.3
				c-0.4-0.4-0.6-0.9-0.7-1.4c-0.1-0.5-0.1-1,0-1.4c0.1-0.9,0.4-1.7,0.7-2.4c0.3-0.8,0.6-1.5,1-2.2l1,0.9c-0.8,0.6-1.6,1.1-2.5,1.4
				c-0.9,0.4-1.9,0.5-2.9,0.4c-1-0.1-2-0.4-2.8-0.8c-0.9-0.4-1.7-0.9-2.4-1.4l1.1-0.2c-1,1.8-2.7,3.2-4.5,3.9
				c-1.9,0.8-3.9,0.9-5.9,0.7c-3.9-0.4-7.5-2.2-10.7-4.3l1.2-0.7c0.1,2.1-0.6,3.9-1.4,5.7c-0.8,1.7-1.8,3.4-2.9,4.9
				c-1.1,1.5-2.4,2.9-3.8,4.2c-1.4,1.3-2.9,2.5-4.9,3.2l0.4-1.2c1.5,1.9,3.1,3.8,4.7,5.7c1.6,1.9,3.2,3.8,4.7,5.8
				c1.5,2,2.9,4.1,4,6.5c1,2.3,1.7,5,1.2,7.7l-1.3-0.4c0.3-0.7,0.7-1.2,1.1-1.7c0.4-0.5,0.8-1,1.2-1.4c0.8-0.9,1.7-1.7,2.6-2.6
				c1.8-1.6,3.8-3.1,5.9-4.3c2.1-1.2,4.4-2.3,6.9-2.7c1.2-0.2,2.5-0.2,3.8,0.1c1.3,0.3,2.4,1.1,3.3,2c0.2,0.2,0.2,0.5,0,0.7
				c-0.2,0.2-0.5,0.2-0.7,0c-0.8-0.8-1.7-1.4-2.8-1.7c-1.1-0.3-2.2-0.3-3.3-0.1c-2.3,0.4-4.4,1.4-6.4,2.7c-2,1.2-3.9,2.7-5.6,4.3
				c-0.9,0.8-1.7,1.6-2.5,2.5c-0.4,0.4-0.8,0.9-1.1,1.3c-0.3,0.4-0.7,0.9-0.9,1.4c-0.2,0.4-0.6,0.5-0.9,0.4
				c-0.3-0.1-0.5-0.5-0.4-0.8c0.4-2.3-0.2-4.6-1.2-6.8c-1-2.2-2.4-4.2-3.8-6.2c-1.5-2-3.1-3.9-4.7-5.7c-1.6-1.9-3.3-3.7-4.8-5.8
				c-0.3-0.3-0.2-0.8,0.1-1.1c0.1,0,0.1-0.1,0.2-0.1l0,0c1.5-0.6,3-1.6,4.3-2.8c1.3-1.2,2.5-2.6,3.5-4c1-1.4,2-3,2.7-4.6
				c0.7-1.6,1.3-3.3,1.2-4.9l0,0c0-0.4,0.3-0.8,0.8-0.8c0.2,0,0.3,0,0.5,0.1c3,2.1,6.4,3.7,9.9,4.1c1.8,0.2,3.6,0,5.2-0.6
				c1.6-0.6,2.9-1.8,3.8-3.3c0.2-0.4,0.7-0.5,1-0.3l0,0c1.5,1,3,1.9,4.5,2c1.6,0.2,3.1-0.5,4.5-1.5c0.3-0.2,0.7-0.2,1,0.1
				c0.2,0.2,0.2,0.5,0.1,0.7c-0.3,0.7-0.7,1.4-1,2.1c-0.3,0.7-0.6,1.4-0.7,2.1c-0.1,0.3-0.1,0.7,0,0.9c0.1,0.3,0.2,0.5,0.4,0.7
				c0.4,0.4,1.1,0.7,1.8,0.9c0.3,0.1,0.5,0.5,0.4,0.8l0,0l0,0c-0.6,1.8-1,3.8-1.5,5.8c-0.4,2-0.8,3.9-1.2,5.9
				c-0.8,4-1.5,7.9-2.2,11.9l0,0c0,0.2-0.3,0.4-0.5,0.4C622.1,313,621.9,312.7,622,312.5z"/>
		</g>
		<g>
			<path class="st1" d="M619.8,306.3l1-7.8l0.6-3.9c0.2-1.3,0.4-2.6,0.8-4l0.8,0.9c-0.5,0.1-1,0.3-1.6,0.4c-0.3,0-0.6,0.1-0.9,0.1
				c-0.3,0-0.7,0-1.1-0.3c-0.4-0.3-0.6-0.9-0.5-1.2c0-0.4,0.1-0.6,0.2-0.9c0.2-0.5,0.4-1,0.6-1.5l1,0.8c-0.5,0.3-1,0.6-1.6,0.8
				c-0.6,0.2-1.4,0.2-2-0.2c-0.6-0.3-1.1-0.9-1.3-1.5c-0.3-0.6-0.4-1.2-0.4-1.8l1.3,0.4c-0.6,0.9-1.2,1.9-2.1,2.6
				c-0.9,0.8-2.1,1.2-3.3,1.2c-1.2,0-2.3-0.4-3.3-0.8c-1-0.5-1.9-1.1-2.8-1.7l1.2-0.5c-0.4,1.7-1.1,3.3-2.2,4.6
				c-1.1,1.4-2.4,2.4-3.9,3.3c-1.5,0.8-3,1.5-4.6,2c-1.6,0.5-3.2,0.9-4.6,1.3l-0.1-1.5c2,0.5,4,1.3,5.8,2.4c1.8,1.2,3.3,2.7,4.4,4.4
				c1.2,1.7,2,3.7,2.5,5.7c0.5,2,0.7,4.2,0.3,6.3l-1.3-0.4c0.3-0.5,0.5-0.9,0.8-1.3c0.3-0.4,0.6-0.7,0.9-1.1c0.6-0.7,1.2-1.3,1.9-2
				c1.3-1.3,2.6-2.4,4.1-3.5c1.5-1.1,3-2,4.8-2.6c0.9-0.3,1.8-0.5,2.8-0.4c1,0.1,2,0.6,2.6,1.3l0,0c0.2,0.2,0.2,0.5,0,0.7
				c-0.2,0.2-0.5,0.2-0.7,0c-1.1-1.2-2.8-1.1-4.4-0.6c-1.6,0.6-3.1,1.5-4.4,2.5c-1.4,1-2.7,2.2-3.9,3.5c-0.6,0.6-1.2,1.3-1.8,1.9
				c-0.3,0.3-0.5,0.7-0.8,1c-0.2,0.3-0.5,0.7-0.6,1c-0.2,0.4-0.6,0.5-0.9,0.3c-0.3-0.1-0.5-0.5-0.4-0.8l0,0c0.3-1.8,0.1-3.8-0.3-5.6
				c-0.5-1.9-1.3-3.6-2.4-5.2c-1.1-1.6-2.4-3-4-4c-1.6-1.1-3.4-1.8-5.2-2.2l0,0c-0.4-0.1-0.7-0.5-0.6-0.9c0.1-0.3,0.3-0.5,0.5-0.6
				c1.6-0.5,3.1-0.9,4.6-1.4c1.5-0.5,2.9-1.1,4.3-1.8c1.3-0.8,2.5-1.7,3.4-2.9c0.9-1.2,1.6-2.5,1.9-4l0,0c0.1-0.4,0.5-0.7,0.9-0.6
				c0.1,0,0.2,0.1,0.3,0.1c0.8,0.6,1.7,1.1,2.6,1.5c0.9,0.4,1.8,0.7,2.7,0.7c0.9,0,1.7-0.3,2.4-0.9c0.7-0.6,1.3-1.4,1.8-2.2l0,0
				c0.2-0.3,0.6-0.5,1-0.2c0.2,0.1,0.4,0.4,0.3,0.6c0,0.8,0.3,1.7,0.9,2c0.3,0.2,0.6,0.2,1,0.1c0.4-0.1,0.8-0.3,1.1-0.6l0,0
				c0.3-0.2,0.7-0.1,0.9,0.2c0.1,0.2,0.2,0.5,0.1,0.7c-0.2,0.4-0.4,0.9-0.6,1.3c-0.1,0.2-0.1,0.4-0.1,0.6c0,0.2,0,0.1,0,0.1
				c0,0,0.1,0.1,0.4,0.1c0.2,0,0.4,0,0.7-0.1c0.5-0.1,1-0.2,1.4-0.3c0.3-0.1,0.7,0.1,0.8,0.5c0,0.1,0,0.2,0,0.4l0,0
				c-0.4,1.1-0.6,2.5-0.8,3.7l-0.6,3.9l-1.2,7.8c0,0.2-0.3,0.4-0.5,0.4C619.9,306.8,619.7,306.6,619.8,306.3z"/>
		</g>
		<g>
			<path class="st1" d="M615.9,293.5c2.8,7.1,5.6,14.2,8.1,21.4c2.5,7.2,4.6,14.6,6.2,22.1c1.5,7.5,2.5,15.1,2.5,22.8
				c0,3.8-0.2,7.7-0.7,11.5c-0.5,3.8-1.3,7.6-2.4,11.2c-0.1,0.3-0.4,0.4-0.6,0.3c-0.3-0.1-0.4-0.3-0.3-0.6c1-3.7,1.7-7.4,2.1-11.1
				c0.4-3.7,0.6-7.5,0.6-11.3c-0.1-7.6-1-15.1-2.5-22.5c-1.5-7.4-3.6-14.7-6-21.9c-2.4-7.2-5-14.4-7.6-21.5c-0.1-0.2,0-0.5,0.3-0.6
				C615.6,293.2,615.8,293.3,615.9,293.5z"/>
		</g>
	</g>
</g>
<g id="Warstwa_6">
</g>
</svg>
