<?xml version="1.0" encoding="utf-8"?>
<!-- Generator: Adobe Illustrator 22.1.0, SVG Export Plug-In . SVG Version: 6.00 Build 0)  -->
<svg version="1.1" id="Warstwa_1" xmlns="http://www.w3.org/2000/svg" xmlns:xlink="http://www.w3.org/1999/xlink" x="0px" y="0px"
	 width="1600px" height="900px" viewBox="0 0 1600 900" style="enable-background:new 0 0 1600 900;" xml:space="preserve">
<style type="text/css">
	.st0{fill:#FFFFFF;}
	.st1{fill:#D4D1CC;}
	.st2{fill:#FFFBF0;}
	.st3{fill:#412F3D;}
	.st4{fill:#DEE1E0;}
	.st5{fill:none;stroke:#FFFFFF;stroke-width:1.9677;stroke-miterlimit:10;}
	.st6{fill:none;stroke:#0C2A31;stroke-width:1.9677;stroke-miterlimit:10;}
	.st7{fill:#89837C;}
	.st8{fill:#B5B1AC;}
	.st9{fill:#251C2F;}
	.st10{fill:#251A2A;}
	.st11{fill:none;stroke:#251A2A;stroke-width:1.8215;stroke-miterlimit:10;}
	.st12{fill:#1E1826;}
</style>
<g id="Warstwa_1_1_">
	<g>
		<rect x="266.3" class="st0" width="1068.5" height="900"/>
		<rect x="1334.8" class="st1" width="265.2" height="900"/>
		<rect class="st2" width="266.3" height="900"/>
	</g>
</g>
<path class="st0" d="M1600,147c-26.5-2.3-53.4,1.6-78,11.6c3.6-8.4,7.3-16.7,11.1-25c0.4-0.1,0.8-0.2,1.2-0.4
	c9.3-7.1,19.8-12.3,30.6-16.4c10.8-3.7,22.7-6,33.9-6c0.4,0,0.9,0,1.3,0v-7.1c-0.6,0-1.1,0-1.7,0c-12.3,0-25,2.2-36.2,6.3
	c-8.1,3-15.9,6.9-23.5,11.5c2.9-6.1,5.9-12.2,8.9-18.2c2.6-5.1,5.2-10.2,7.9-15.2c6.7-4.5,13.6-8.6,21.2-11.2
	c7.3-3.3,15.3-5.2,23.3-5.5v-6.8c-8.1,0.7-16.2,2.5-23.7,5.7c-5.3,2.2-10.4,4.6-15.3,7.5c3.1-5.8,6.4-11.6,9.7-17.2
	c5.7-9.7,11.9-19.3,18.1-28.8c3.4-2.8,7.1-5,11.2-6.7v-6.4c-1.2,0.5-2.3,0.9-3.5,1.5c0.1-0.2,0.2-0.3,0.3-0.5
	c1.1-1.4,2.1-2.8,3.2-4.2V4.1c-1,1.3-2,2.5-2.9,3.8c0.5-2.3,0.9-4.7,0.9-7.3c0-0.2,0-0.4,0-0.6h-5.2c0,4.8-1.1,9.6-3,14
	c-1.2,3.3-2.3,6.2-3.6,9.1c-10.8,15.6-20.6,31.8-29.8,48.5c0-2.1,0-4.1-0.1-6.2c-0.4-7.1-1.5-14.5-4.1-21.6c-3-6.7-7.8-13-14.2-17.5
	c-4.9-3.7-10.7-6.1-16.4-8c8.6-6.3,17.4-12.4,26.4-18.2h-11.6c-3.9,2.7-7.8,5.4-11.7,8.2c1-2.7,2.1-5.4,3.1-8.2h-7.1
	c-1.9,5.2-3.9,10.3-5.9,15.5c-12.9,9.8-25.3,20.1-37.4,30.8c5.8-15.5,11.6-30.9,17.2-46.3h-5.9c-6.8,18.4-13.7,36.7-20.8,54.9
	c-8.7,8.1-17.2,16.4-25.4,24.8c10.2-26.4,19.4-52.9,28.4-79.8h-4.8c-10,29.4-20.3,58.9-31.6,88.1c-37.5,39.6-70.4,83-99.7,129.1v6.9
	c19.3-29.6,40.2-58.4,62.6-85.5c11.9-14.4,24.2-28.6,37.1-42.3c0.2,0.1,0.4,0.1,0.6,0.2c35.9,6.7,67,35.3,76.2,70.7
	c-3.1,7.6-6.2,15.2-9.1,22.8c-6,15.3-11.2,30.6-16.8,45.9c-5.6,15.7-10.4,30.9-14.9,46.6c-0.4,0.7,0,2.2,1.5,2.6
	c0.7,0.4,2.2,0,2.6-1.5c5.6-15.3,10.4-30.6,16.4-45.9c6-15.3,11.6-30.6,17.5-45.5c3-7.8,6-15.5,9.2-23.2
	c25.5-12.3,54.2-17.2,82.3-14.9V147z M1515.3,22.9c6.3,2.2,12.2,4.5,17.8,8.5c5.2,4.1,9.3,8.9,11.6,15.3c2.2,6.3,3.4,13,3.7,19.8
	c0,6.6,0,13.6-0.4,20.5c-2.3,4.3-4.5,8.7-6.7,13c-3.1,6.5-6.2,13-9.2,19.6c-4.4-13-10.7-25.6-19.1-36.4c-5.6-6.7-11.6-13-18.6-17.9
	c-5.6-4.1-12-7.3-18.6-9.4C1488.3,44.4,1501.5,33.4,1515.3,22.9z M1514.2,160c-11.1-33.8-40-61-74.6-69.2
	c9.8-10.2,19.9-20.1,30.4-29.6c7.9,1.9,14.8,5.5,20.9,9.9c6.7,4.8,12.3,10.8,17.1,17.1c9.2,11.6,15.9,25.5,20.2,39.7
	C1523.4,138.5,1518.7,149.2,1514.2,160z"/>
<g id="Warstwa_4">
	<g>
		<g>
			<rect x="504.9" y="145.2" class="st3" width="580.1" height="595"/>
			<rect x="559.3" y="199.6" class="st0" width="471.6" height="486.5"/>
			<rect x="600" y="240.3" class="st4" width="390.3" height="405.2"/>
			<polygon class="st1" points="1030.6,215.3 559.3,209.3 559.3,199.6 1030.6,199.6 			"/>
			<rect x="504.9" y="740.2" class="st1" width="580.1" height="56.7"/>
			<line class="st5" x1="504.9" y1="145.2" x2="559.3" y2="199.6"/>
			<line class="st5" x1="1030.6" y1="199.6" x2="1085" y2="145.2"/>
			<line class="st5" x1="1030.6" y1="686.1" x2="1085" y2="740.2"/>
			<line class="st5" x1="559.3" y1="686.1" x2="504.9" y2="740.2"/>
			<path class="st6" d="M689.4,145.2l97.3-97.3c4.5-4.5,11.6-4.5,16,0l97.3,97.3"/>
		</g>
		<g>
			<path class="st7" d="M879.9,348c0,0-8.9,84.6-8.6,98.8c0.7,13.8,20.1,51.4,20.1,51.4s-37.7,31.7-58.2,38.8
				c-20.5,7.1-26.1,4.1-26.1,4.1s39.5-176.3,38-180.8c-1.5-4.5,14.5-29.5,14.5-29.5"/>
			<path class="st8" d="M744.2,278.3c0,0-43.2,22.4-45.5,46.2c-2.6,23.9,8.6,85,12.7,95.8c4.1,10.8,48.5,90.6,57,80.2
				c8.6-10.4,60.8-77.5,64.9-98c4.1-20.9,22-63.7,21.2-77.5c-0.7-13.8-11.2-29.1-18.6-34.3c-5.6-3.7-26.1-12.7-45.5-12.3
				C771.1,279,744.2,278.3,744.2,278.3z"/>
			<path class="st3" d="M881.8,431.9l7.5,51.8c0,0,43.2,44.7,66.4,62.3c23.5,17.5,34.3,99.9,34.3,99.9H708.8
				c0,0,11.2-24.2,18.3-48.1c9.7-32.8,15.7-79.4,15.7-79.4"/>
			<path class="st3" d="M856.5,421.1c0,0-4.1,17.5-4.8,31.3c-0.7,13.8-8.9,43.6-6.7,49.2c2.2,5.2,11.6,22.4,11.6,22.4
				s-32.4,22.7-40.6,21.6c-8.2-1.1,12.7-93.9,14.5-102.5s13.4-22,13.4-22"/>
			<path class="st8" d="M844.9,376.7c0,0,25.7-11.2,30.6-3.7s-3,36.2-7.5,45.1c-4.5,8.9-26.8,12.7-26.8,12.7"/>
			<path class="st9" d="M849,381.9c0,0,15.7-11.9,20.5-5.2c4.8,6.7,0,13,0,13s-13.4-9.7-14.5-4.1c-1.1,5.6,5.2,8.9,4.5,16.4
				c-0.7,7.5-17.9,14.5-17.9,14.5"/>
			<path class="st0" d="M701.4,368.9c0.7,0.7-2.6,76.4,0,86.5s14.5,41,13.8,49.6c-0.7,8.6,2.2,36.2,2.2,36.2s16.8,24.6,26.8,24.6
				s67.1-5.6,72-13c4.8-7.8,28.7-61.1,28.7-78.3s-1.5-74.2,0-82c1.5-7.8-8.9-5.6-8.9-5.6s-18.6,36.2-24.6,42.5
				c-6,6.3-10.8,10.1-17.1,6.3c-6.3-3.7-23.1-4.5-23.1-4.5s-26.5-0.7-34.3-0.4c-19.8,0.4-23.9-34.7-23.9-34.7L701.4,368.9z"/>
			<path class="st10" d="M765.5,365.2c0,0,16,0.7,19,0c3.4-0.7,10.8-6.3,12.7-4.8s18.6,13.8,18.6,13.8s-16.4-3.7-23.1-3.7
				c-6.7,0-9.7,3.7-9.7,3.7l21.2,6.3l0.4,4.5c0,0-20.9,1.9-23.1,3.4c-2.2,1.5-4.8,4.8-4.8,4.8s13,7.8,18.3,5.6
				c4.8-2.2,10.8-2.2,10.8-2.2s-10.1,11.2-23.9,5.6c-13.8-5.2-13.8-11.2-13.8-11.2l4.5-14.5l-10.4-6.3L765.5,365.2z"/>
			<path class="st11" d="M720,342c0,0,17.1,3.7,32.4,2.6c14.9-0.7,47.3-2.6,47.3-2.6"/>
			<line class="st11" x1="727.1" y1="324.5" x2="778.2" y2="324.5"/>
			<line class="st11" x1="750.2" y1="352.1" x2="759.9" y2="368.9"/>
			<path class="st10" d="M743.1,354.3l9.7,18.6c0,0-1.5,4.8-4.8,6.3c-3.4,1.5-4.8,10.8-4.8,10.8s-0.7,6.7-7.5,7.8
				c-6.7,1.5-8.6,1.5-8.6,1.5s10.8-7.5,10.8-8.6c0-1.1-8.6,0-9.3-1.1c-0.7-1.1-0.7-13.4-3-12.7c-2.2,0.7-4.8,4.8-6.7,6.7
				s-4.1,1.9-4.1,1.9l4.8-16.8h23.5l-4.1-14.5H743.1z"/>
			<path class="st0" d="M737.9,282c0,0,28.3,14.5,40.3,14.5c11.9,0,40.3-6.7,44.7-7.5c4.5-0.7,10.8,11.6,11.9,13
				c1.1,1.5,6,17.9,3.7,22.4c-2.2,4.5-14.2,17.1-14.2,17.1l11.6,44.7l8.9,5.6c0,0,4.8-20.1,8.6-23.1c3.7-3,28.7-8.2,26.5-20.9
				c-2.2-12.7,9.7-28-7.8-38.8s-40.3-30.9-51.4-36.2c-11.6-4.8-41.8-20.5-50-17.9C762.5,257.8,737.9,282,737.9,282z"/>
			<path class="st8" d="M728.6,463.2c0,0,22.7-8.9,25.4-8.9c2.6,0,36.5,6.7,36.5,6.7s-6.7,26.1-24.2,25.4
				C748.7,485.9,728.6,463.2,728.6,463.2z"/>
			<path class="st10" d="M743.1,462.8c0,0,7.1-11.9,17.9-10.1c10.8,1.9,21.6,14.5,21.6,14.5h-39.5"/>
			<path class="st12" d="M739,428.2c0,0,7.1,12.3,15.7,11.9c8.9-0.7,23.5-11.6,23.5-11.6l-9.7-3.7c0,0-16,5.6-19.8,3
				c-3.7-2.6-9.7-4.5-9.7-4.5"/>
		</g>
	</g>
	<path class="st1" d="M126.5,622.4c-33.6-21.2-1.9-102.1-38.8-88C62,544.1,75.1,636.2,62.4,690.2C49.7,744.3,26.6,802.5,30,846.4
		c1.5,21.4,9.2,39.1,19.7,53.6h123.8c1.6-46.8,8.7-119,17.2-164.3C200,683.9,160.1,642.5,126.5,622.4z"/>
</g>
</svg>
