<?xml version="1.0" encoding="utf-8"?>
<!-- Generator: Adobe Illustrator 22.1.0, SVG Export Plug-In . SVG Version: 6.00 Build 0)  -->
<svg version="1.1" id="Warstwa_1" xmlns="http://www.w3.org/2000/svg" xmlns:xlink="http://www.w3.org/1999/xlink" x="0px" y="0px"
	 width="234px" height="88px" viewBox="0 0 234 88" style="enable-background:new 0 0 234 88;" xml:space="preserve">
<style type="text/css">
	.st0{fill:#FFFFFF;}
	.st1{fill:#41303D;}
</style>
<rect class="st0" width="234" height="88"/>
<g>
	<path class="st1" d="M32.3,25.6h2.6l0.5,0.5l0.5-0.5h2.6l1.6,0.5l2.6-0.5h3.7c4.5,0,7.1,2.9,7.9,8.8h-0.5l0.5,0.5v0.5
		c0,3.5-1.9,5.9-5.8,7.3v0.5c4.9,0,7.4,4.3,7.4,12.9c0,3.9-1.9,7.6-5.8,10.8H35.4l-3.1,0.5l-2.1-0.5v-0.5c2.5,0,3.7-1.2,3.7-3.6
		h-0.5l0.5-0.5V55l0.5-11.4h-0.5l0.5-0.5v-15c0-1-1.1-1.5-3.2-1.5L32.3,25.6z M37,31.8v3.6h0.5v-3.6H37z M38.6,26.6l0.5,1.5l1,15.5
		l-0.5,0.5h0.5c6.7-1.4,10-4,10-7.8v-3.1c-0.6-4.5-2.6-6.7-5.8-6.7H38.6z M40.2,45.2V52l0.6,5.2h-0.6l0.6,0.5v7.2c0,0.7,0.5,1,1.6,1
		c4,0,6.6-1.9,7.9-5.7c0.8-0.2,1.5-2.6,2.1-7.2c0-4.8-2.8-7.6-8.4-8.3L40.2,45.2z M50.2,64.9l-0.5,0.5v0.5l1.6-0.5v-0.5H50.2z"/>
	<path class="st1" d="M68.5,57.9c-1.2,1-1.8,3.7-1.8,8.1h2.6v1h-1.5l-6.2,0.5v-1c2.8,0,4.5-2.1,5.2-6.4l10.3-34l0.5-0.6h1L78,26.2
		v0.5h0.5l0.5-0.5C84.9,48,89.2,60.8,92,64.5l3.6,1.1v1l-11.3,0.5l-0.5-0.5v-1c1,0,1.5-0.4,1.5-1.1c-0.9-4.6-1.8-6.9-2.6-6.9h-0.2
		l0.8-0.2c-2.1-5.6-4.4-13.6-6.9-24h-0.5l-7.4,24.6H68.5z M69.3,57.6l1.5,0.4h-2.2C68.8,57.8,69,57.6,69.3,57.6z M73,57.9l-0.7,0.1
		h-1l-0.6-0.1H73z M75,57.6l0.4,0.4H73L75,57.6z M75.6,57.9l-0.1,0.1l-0.1-0.1H75.6z M76,57.6h6.5l-1.8,0.4h-5.1L76,57.6z"/>
	<path class="st1" d="M125.5,25h0.5l1,1l-0.5,0.5l0.5,0.5v5.6l-1,1c0-4.5-3.4-7-10.2-7.6c-2.9,1.1-4.4,2.3-4.4,3.5
		c-3.9,3.8-5.9,8.9-5.9,15.2v2.5l0.5,2l-0.5,2c1.8,8.8,4.4,13.1,7.8,13.1l1.5,1.5h3.4c5.1,0,8.2-3.4,9.3-10.1l0.5,0.5h0.5l-0.5,0.5
		l0.5,5.1v3h-1c0-1.4-0.3-2-1-2c-2.7,2.7-5.6,4-8.8,4c-8,0-12.9-2-14.7-6c-1.3-1.9-2-5.4-2-10.6v-3c0-9.8,2.9-16.6,8.8-20.2
		c1.2-1,3.5-1.5,6.8-1.5h2.9l5.4,2L125.5,25z"/>
	<path class="st1" d="M143,24.9v0.5c-1.3,1.2-2,2.4-2,3.6v1.5l0.5,0.5l-0.5,0.5l0.5,7.2l-0.5,7.8c0.9,0,2.7-2.6,5.5-7.8h0.5v1
		l-1.5,3.1c5.2,6,9.6,12.2,13.1,18.7c0.8,2.1,2,3.1,3.5,3.1l2.5,2.1l-6.5,0.5c-3-0.3-4.5-0.8-4.5-1.5h1v-0.5c-0.8-3-4-8.2-9.6-15.5
		l-1.5-2.6h-1l-1,3.6v8.8l0.5,2.6h-0.5c0,2.4,1,3.6,3,3.6v1c-1.7,0-2.5,0.3-2.5,1l-0.5-0.5H136v-0.5c0.8,0,1.6-0.7,2.5-2.1l-0.5-3.1
		l-1-34.2c-2-0.4-3-1-3-1.5l0.5-0.5h0.5l0.5,0.5L143,24.9z M158.7,23.9l0.5,2.1c-2,0-3,0.5-3,1.5h1c0,0.7-1,1.2-3,1.6
		c-1.5,1.2-3.9,4.5-7,9.8v-1l5-9.9h-0.5l-2-0.5h-1.5v-1C148.1,25.4,151.6,24.6,158.7,23.9z"/>
</g>
<polygon class="st1" points="187.5,33 187.5,55 207.5,44 "/>
</svg>
