<?xml version="1.0" encoding="utf-8"?>
<!-- Generator: Adobe Illustrator 28.0.0, SVG Export Plug-In . SVG Version: 6.00 Build 0)  -->
<svg version="1.1" id="Layer_1" xmlns="http://www.w3.org/2000/svg" xmlns:xlink="http://www.w3.org/1999/xlink" x="0px" y="0px"
	 viewBox="0 0 358 216.8" style="enable-background:new 0 0 358 216.8;" xml:space="preserve">
<style type="text/css">
	.st0{fill:#968B7C;}
	.st1{fill:#C1B9AC;}
	.st2{fill:#C6C1BA;}
	.st3{fill:#FFFFFF;}
</style>
<g>
	<g>
		<polygon class="st0" points="268.6,124.5 264.7,131.6 267.7,136.5 264.7,141.1 269.2,146 263.4,150 266.3,157.4 269.2,160.5 
			289.2,136.5 280.1,123.4 		"/>
		<polygon class="st0" points="348.9,99.8 265.3,123.9 261.8,122.6 263.3,115.2 343.9,97.3 		"/>
		<polygon class="st1" points="348.9,99.8 266.4,118.1 265.3,123.9 273,128 268.1,133.2 270.6,137 267.4,141.9 272.5,145.5 
			266.4,151.4 269.2,160.5 358,140.8 		"/>
		<g>
			<path class="st0" d="M355.8,131c-9.3,2-18.5,5.3-27.2,8.3c-12.8,4.4-25.2,9.6-36.9,16.2l4.5-1c10.4-5.6,21.4-10.1,32.7-13.9
				c8.7-2.9,17.9-6.3,27.2-8.3L355.8,131z"/>
			<path class="st0" d="M274.5,128.6c16.5-3.9,33-7.8,49.5-11.7c9-2.1,18.3-3.9,27.2-6.6l-0.3-1.4c-6.2,1.8-12.5,3.1-18.7,4.6
				c-13,3.1-26,6.2-39,9.3c-6.3,1.5-12.7,3-19,4.5c-0.5,0.1-1.1,0.3-1.6,0.4l0.4,0.2l-1.2,1.3C272.8,129,273.8,128.8,274.5,128.6z"
				/>
			<path class="st0" d="M275,140.7c13.7-7,28-13.2,42.5-18.1c7.6-2.6,15.2-4.5,23.1-6c3.9-0.7,7.7-1.5,11.5-2.5l-0.3-1.3
				c-4.9,1.3-9.9,2.1-15,3.1c-8.5,1.7-16.8,4.2-24.9,7.2c-13.8,5.1-27.4,11-40.4,17.9c-1,0.5-2,1.1-2.9,1.6l1.1,0.8
				C271.5,142.5,273.2,141.6,275,140.7z"/>
			<path class="st0" d="M293.8,140.2c10.3-4,20.9-7.3,31.7-9.8c9.6-2.2,19.3-3.8,28.7-6.4l-0.3-1.2c-9.8,2.7-19.8,4.3-29.7,6.6
				c-11.6,2.7-23,6.3-34.1,10.8c-8.1,3.3-16.1,7.1-23.8,11.3l0.4,1.3C275.5,148,284.5,143.8,293.8,140.2z"/>
		</g>
	</g>
	<g>
		<polygon class="st0" points="125.1,189.1 117.5,180.5 125.9,171.7 124.7,168.6 113.8,163.9 112.5,160.8 106.3,157 114.9,151.4 
			110.6,148.8 0,173.3 9.1,214.3 14.1,216.8 21.3,212.1 126.3,192.2 		"/>
		<polygon class="st2" points="6.2,175.8 15.3,216.8 126.3,192.2 118.7,183.6 125.3,178.4 125.9,171.7 112.3,167.2 113.8,163.9 
			107.1,159.8 116.1,151.4 		"/>
		<g>
			<path class="st0" d="M125.4,178c-6.6,1.5-13.2,3-19.8,4.4c-0.9,0.2-0.5,1.4,0.3,1.2c6-1.3,11.9-2.7,17.9-4l1.6-1.2L125.4,178z"/>
			<path class="st0" d="M27.6,206.2c-9.6-11.5,4.1-21.8,13.1-27.4c8.6-5.5,17.3-10.9,26.1-16.4l-4.4,1c-8.4,5.3-16.9,10.5-25.2,15.9
				c-6.5,4.3-14.6,10.5-14.1,19.3c0.5,6.9,5.7,11.5,11.8,13.9l2-0.4C33.3,211,30.1,209.2,27.6,206.2z"/>
			<path class="st0" d="M22.2,181.2c2.6-2.9,4.5-6.5,5.9-10.2l-1.4,0.3c-0.4,0.9-0.7,1.8-1.2,2.6c-0.7,1.5-1.6,2.9-2.5,4.3
				c-1.9,2.8-3.6,3.7-6.5,5.3c-2.7,1.5-5.1,3.4-7.4,5.5l0.3,1.6c0.3-0.3,0.7-0.7,1-1c2.3-2.1,4.6-3.9,7.4-5.3
				C19.7,183.3,20.9,182.7,22.2,181.2z"/>
			<path class="st0" d="M97.9,161.2c-8.5,2.4-18.1,4.6-25.2,10.2c-3.6,2.8-5.7,6.2-7.6,10.3c-1,2.3-2,4.6-3.5,6.7
				c-1.2,1.7-2.7,3.3-3.4,5.3c-2.9,8.4,7.6,9.8,13.3,9.2c0.8-0.1,0.8-1.3,0-1.3c-1.6,0.2-3.2,0.4-4.8,0.3c-1.4-0.1-5.2-0.8-6.1-2.4
				c-0.6-1-0.7-6.1-0.2-7.1c1.3-3,3.9-5.6,5.3-8.7c3.7-8.1,8.6-12.9,16.9-16.3c7.9-3.2,16.1-5.6,24.5-7.6l0,0l1.5-1.4
				C105,159.3,101.5,160.2,97.9,161.2z"/>
			<path class="st0" d="M93.5,172.3c-4.1,2.3-11.5,7.2-11.9,12.6c-0.4,5.8,7.8,2.2,10.6,1.6c0.8-0.2,0.5-1.4-0.3-1.2
				c-1.4,0.3-2.9,0.6-4.3,1c-0.9,0.2-1.7,0.4-2.6,0.6c-0.5-1.2-1-2.5-1.5-3.7c0.1-2.3,5.2-6.1,6.8-7.3c4.9-3.6,10.6-5.6,16.4-7.2
				c1.9-0.5,3.7-1,5.6-1.5l0,0l0.6-1.4C106.2,167.3,99.5,169,93.5,172.3z"/>
			<path class="st0" d="M102.7,192.4c-1,0.1-0.6,1.3,0.2,1.1c6.8-1.4,13.6-3,20.3-4.8l-0.8-0.9C115.9,189.4,109.3,191,102.7,192.4z"
				/>
		</g>
	</g>
	<path class="st3" d="M196.6,43.4c8.6-9.1,16.1-19.1,22.7-29.7c0.1-0.2,0.1-0.5-0.1-0.6c-0.2-0.2-0.5-0.1-0.6,0.1
		c-4.4,6.8-9.2,13.4-14.3,19.6c-2.6,3.1-5.3,6.2-8,9.2c-8-1.5-14.9-8-16.9-15.9c-0.1,0-0.1-0.1-0.1-0.1l0,0c0.7-1.6,1.3-3.2,1.9-4.8
		c1.3-3.4,2.5-6.8,3.7-10.2s2.3-6.8,3.3-10.3c0.1-0.2,0-0.5-0.3-0.6c-0.2-0.1-0.5,0-0.6,0.3c-1.2,3.4-2.3,6.8-3.6,10.2
		s-2.6,6.8-3.9,10.1c-0.7,1.8-1.4,3.6-2.2,5.3c-10.8,5.1-24.1,4.2-34.1-2.2c-0.4-1.7-0.9-3.3-1.4-5c-0.9-3-1.8-6-2.8-9
		s-2-5.9-3.1-8.9c-0.1-0.2-0.3-0.4-0.6-0.3c-0.2,0.1-0.4,0.3-0.3,0.6c1,3,1.9,6,2.8,9c0.9,3,1.8,6,2.6,9c0.4,1.5,0.8,3,1.1,4.4
		c0,0,0,0,0,0.1c-1.8,3.5-5.2,6-8.9,7.6s-7.8,2.4-11.9,2.9c-8.2,0.9-16.5,0-24.3-2.7h-0.1C93,26.9,89.4,22,86,17
		c-0.2-0.2-0.5-0.2-0.7-0.1c-0.2,0.2-0.2,0.5-0.1,0.7c3.3,5.1,6.8,10,10.5,14.7l0,0c0.3,4.2-0.3,8.3-1.6,12.3s-3.3,7.7-5.8,11
		c-5,6.6-12,11.6-19.9,14.3c-4.5-1.4-9-2.9-13.5-4.4c-0.2,0-0.5,0.1-0.7,0.1c-0.1,0.3,0.1,0.5,0.3,0.6c4.5,1.6,8.9,3.2,13.3,4.7
		c0,0.1,0.1,0.2,0.2,0.3c8,10.7,13.7,23.1,16.8,36.1c3,12.5,3.7,25.7,1.4,38.4c0,0.1,0,0.1-0.1,0.2c-7.3,4-15,7-23.3,8.4
		c-0.3,0.1-0.4,0.3-0.4,0.6c0.1,0.3,0.3,0.4,0.6,0.4c7.8-1.2,15.4-3.8,22.4-7.5c-1.7,4.7-4.5,11.3-4.6,11.4c-0.1,0.3,0,0.7,0.3,0.9
		c0.1,0,0.2,0.1,0.3,0.1c0.3,0,0.5-0.1,0.6-0.4c0.2-0.4,3.5-8.1,5.1-12.8c1.3-0.7,2.5-1.4,3.8-2.2c3.3-2,6.4-4.3,9.5-6.7
		c-0.3,2.2-0.7,5.1-1.3,6.7c-1.2,3.6-2,8.1-2.1,12.4c0,0.4,0.3,0.7,0.6,0.7l0,0c0.4,0,0.6-0.3,0.6-0.6c0.1-4.2,0.8-8.6,2-12.1
		c0.7-2.1,1.3-6,1.6-8.3c3.6-2.9,7-6,10.2-9.2c-0.2,2.2-0.7,5.2-1.5,8.2c-1.8,6.5-1.9,12.2-1.5,15.1c0,0.3,0.3,0.6,0.6,0.6h0.1
		c0.4,0,0.6-0.4,0.6-0.7c-0.4-2.8-0.2-8.3,1.5-14.6c1-3.8,1.5-7.7,1.7-10c0.2-0.2,0.4-0.4,0.6-0.6c3.5-3.7,6.9-7.6,10.1-11.6
		c0.3,1.7,0.6,4.1,0.8,5.2c0.2,1.7-0.8,7.7-2.1,14.2c-0.1,0.4,0.2,0.7,0.5,0.8h0.1c0.3,0,0.6-0.2,0.6-0.5c1.5-8.3,2.3-12.9,2.1-14.6
		c-0.2-1.5-0.8-5.2-1-6.5c1.8-2.3,3.5-4.7,5.2-7.1c1.4,2.1,3,5.4,2.4,9.1c-0.2,1.1-0.6,2.2-1,3.3c-0.5,1.4-1,2.9-1.1,4.4
		c0,0.4,0.2,0.7,0.6,0.7l0,0c0.3,0,0.6-0.3,0.6-0.6c0.1-1.4,0.6-2.7,1-4.1c0.4-1.1,0.8-2.3,1-3.5c0.5-3.3-0.5-7-2.9-10.4
		c0.5-0.7,1-1.5,1.5-2.2c1.1-1.6,2.1-3.2,3.2-4.8c2.1,1.4,5,3.9,5.9,7.6c0.3,1.1,0.3,2.3,0.4,3.5c0.1,1.5,0.2,3,0.7,4.5
		c0.1,0.2,0.3,0.3,0.5,0.3c0.1,0,0.1,0,0.2,0c0.3-0.1,0.4-0.4,0.3-0.6c-0.5-1.3-0.5-2.7-0.6-4.2c-0.1-1.2-0.1-2.4-0.4-3.6
		c-0.7-3.1-3-6-6.3-8.2c1.4-2.3,2.8-4.7,4.2-7c2.4-4.2,4.7-8.5,6.8-13c2-0.6,4-1.4,5.9-2.2c-0.2,0.9-0.3,1.7-0.5,2.6l-0.3,1.8
		c-0.1,0.1-0.1,0.2-0.1,0.3c-0.1,0.2-1.5,5.8-1.4,9.1c0.1,3.3,0.1,8.8,0,9.3c-0.1,0.3,0.1,0.7,0.5,0.8c0.1,0,0.1,0,0.1,0
		c0.3,0,0.6-0.2,0.6-0.5c0.1-0.6,0.1-6.8,0-9.7c-0.1-2.1,0.6-5.4,1-7.3h0.2l0.6-3.9c0.2-1,0.3-2.1,0.6-3.1c0.9-0.4,1.9-0.8,2.8-1.2
		c-0.4,1.5-0.7,2.9-1,4.3c-0.2,1.2-0.4,2.3-0.6,3.5c-0.2,0.1-0.3,0.3-0.3,0.5S155,85,155,85.7c0,0.2-0.1,0.7-0.2,1.5
		c-0.3,1.9-0.8,5.1-0.8,6.8c0,0.4,0.3,0.6,0.6,0.6s0.6-0.3,0.6-0.6c0-1.5,0.5-4.7,0.8-6.6c0.1-0.8,0.2-1.4,0.2-1.6
		c0-0.5,0.3-3,0.5-4c0.3-1.5,0.6-3,0.9-4.5c0.4-1.8,0.8-3.5,1.3-5.1c1.5-0.7,3-1.5,4.4-2.3c-1.4,4-2.5,8.1-3.5,12.3
		c-0.2,0.1-0.3,0.2-0.3,0.4c-0.1,0.7-0.3,1.5-0.4,2.4c-0.6,3.4-1.4,7.6-1.3,10.7c0,0.4,0.3,0.6,0.6,0.6l0,0c0.4,0,0.6-0.3,0.6-0.7
		c-0.1-3,0.7-7.1,1.3-10.5c0.2-0.9,0.3-1.7,0.4-2.4c0-0.1,0-0.2-0.1-0.4c0.5-1.8,0.9-3.7,1.4-5.5c0.7-2.7,1.6-5.3,2.5-7.9
		c1.4-0.8,2.9-1.6,4.3-2.5c2.4-1.5,4.7-3.1,7-4.7c-1.2,3.1-2.3,6.3-3.4,9.4c-0.1,0.1-0.1,0.1-0.1,0.2c-1.4,3.9-1.3,7.1-1,13
		c0,0.9,0.1,1.9,0.1,2.9c0,0.4,0.3,0.6,0.6,0.6l0,0c0.4,0,0.6-0.3,0.6-0.7c0-1-0.1-2-0.1-2.9c-0.2-4.9-0.3-7.9,0.5-11h0.1
		c1.5-4.4,3.1-8.7,4.8-13c3-2.3,5.9-4.7,8.6-7.1c-0.8,2-1.6,4.1-2.3,6.1l0,0c-0.3-0.1-0.7,0-0.8,0.4c-0.9,2.5-1.6,5.2-2.2,7.8
		c-0.3,0.8-0.6,1.7-0.9,2.5l0.8-1.7c-0.8,4.7-1.1,9.3-1,12.9c0,0.4,0.3,0.6,0.6,0.6l0,0c0.4,0,0.6-0.3,0.6-0.7
		c-0.1-5.3,0.6-13.2,2.8-19.9l4.4-10c1.8-1.7,3.6-3.5,5.4-5.3c-2.5,6.7-4.8,13.4-7.1,20.1c-0.1,0.1-0.1,0.1-0.1,0.2
		c-0.1,0.3-0.2,0.6-0.3,1c-0.2,0.6-0.4,1.2-0.6,1.8L186,69c-0.9,5.5-0.5,11.9-0.3,14.6v0.6c0,0.3,0.2,0.5,0.5,0.5l0,0
		c0.3,0,0.5-0.3,0.5-0.5v-0.6c-0.2-2.7-0.6-9,0.3-14.3C190.4,60.5,193.3,51.9,196.6,43.4z M176.9,27.9c-0.8,1.9-1.7,3.9-2.6,5.8
		c0,0,0,0-0.1,0c-2.1,1.5-4.4,2.7-6.8,3.6c-2.4,0.8-5,1.3-7.5,1.3c-4.9,0-9.7-1.7-13.9-4.4c-0.6-2.8-1.2-5.7-1.9-8.5
		C154,31.5,166.4,32.3,176.9,27.9z M178.2,58.3c-1.4-0.5-2.8-1-4-1.9s-2.1-2-2.6-3.4s-0.7-2.9-0.8-4.4c0-1.5,0-3,0.1-4.5
		c0.5-1,1.1-2,1.6-3.1c0.8-1.5,1.5-3.1,2.2-4.6c1,3,2.4,5.8,4.3,8.3c1.2,1.5,2.5,2.9,4.1,4c1.3,0.9,2.6,1.6,4.1,2.1
		C184.3,53.4,181.3,55.9,178.2,58.3z M161.4,66.6c0.6,0.5,1.4,0.9,2.1,1.2c-1.6,0.9-3.2,1.7-4.8,2.4c-0.6-0.2-1.2-0.5-1.6-0.8
		c-0.2-0.2-0.3-0.4-0.4-0.7c-0.1-0.2-0.1-0.6,0-0.9c0.1-0.7,0.4-1.4,0.7-2.1s0.6-1.3,0.9-2c0.6-0.8,1.2-1.5,1.8-2.3
		c-0.1,0.5-0.2,1.1-0.2,1.7C159.8,64.3,160.4,65.7,161.4,66.6z M154.2,72.2L154.2,72.2c-0.4,0.1-0.9,0.2-1.4,0.3
		c-0.3,0.1-0.5,0.1-0.7,0.1c-0.3,0-0.4-0.1-0.4-0.1s0,0,0-0.1c0-0.2,0-0.4,0.1-0.6s0.2-0.3,0.2-0.5c0.1,0,0.1-0.1,0.2-0.1l-0.1-0.1
		c0.1-0.2,0.2-0.4,0.2-0.5c0.8-0.8,1.5-1.6,2.2-2.4c0.3-0.3,0.6-0.7,0.9-1c0,0.1-0.1,0.3-0.1,0.4c-0.1,0.4-0.1,0.9,0,1.4
		s0.3,1,0.7,1.4c0.3,0.3,0.5,0.5,0.8,0.6C156.1,71.5,155.2,71.9,154.2,72.2z M118.5,79.5c0.8-0.5,1.5-1.1,2.1-1.7
		c1.4-1.3,2.7-2.7,3.8-4.2c1.1-1.5,2.1-3.2,2.9-4.9c0.6-1.3,1.1-2.7,1.3-4.2c2.5,1.8,5,3.6,7.6,5.3c-0.4,1.2-1,2.3-1.7,3.3
		c-0.9,1.2-2.1,2.1-3.4,2.9c-1.4,0.7-2.8,1.3-4.3,1.8s-3,0.9-4.6,1.4c-0.1,0-0.1,0.1-0.2,0.2C120.9,79.4,119.7,79.5,118.5,79.5z
		 M129.8,103.8c0,0.1-0.1,0.1-0.1,0.2c-1.5,2.1-3,4.3-4.6,6.3c-0.1-2.2-0.6-4.4-1.3-6.5c-1.2-3.2-2.8-6.1-4.6-8.9
		c-3.3-5.2-7.2-9.8-11-14.6c2.3,0.2,4.6,0.4,7,0.5c1.5,2,3.1,3.8,4.7,5.6c1.6,1.8,3.2,3.7,4.7,5.7c1.4,2,2.8,4,3.8,6.2
		C129.2,100.1,129.8,101.9,129.8,103.8z M82.5,74.1c6.1-2.5,11.5-7,15.3-12.5c4-5.8,6.2-12.7,6.1-19.7c2.1,2.4,4.4,4.7,6.6,6.9
		c-0.2,0.2-0.3,0.4-0.3,0.6c0.3,5.7-1.7,11.5-5,16.2s-8,8.5-13.5,10.4c-0.1,0-0.1,0.1-0.2,0.1c-0.1,0.1-0.1,0.1-0.1,0.2
		C88.4,75.7,85.4,74.9,82.5,74.1z M169.4,43.8c-1.5,1.1-3.1,2-4.8,2.6c-1.8,0.8-3.8,1.2-5.8,1.2c-3.9,0.1-7.8-1.3-11.1-3.5
		c-0.3-2.3-0.6-4.6-1-6.8c-0.1-0.4-0.1-0.7-0.2-1.1c1.8,1.1,3.7,2,5.7,2.7c2.6,0.8,5.3,1.3,8,1.3s5.5-0.5,8-1.4
		c1.7-0.6,3.4-1.4,4.9-2.4c-0.6,1.3-1.3,2.7-1.9,4C170.6,41.5,170,42.6,169.4,43.8z M160.2,58.9c-0.9,1.3-1.9,2.6-2.9,3.9
		c-1.4,1-2.9,1.7-4.5,1.5c-1.4-0.1-2.8-0.9-4.2-1.8c0.1-1.7,0.1-3.4,0-5.1c0.7,0.4,1.5,0.8,2.3,1.2c1.3,0.6,2.7,1,4.1,1.1
		c1.4,0.2,2.9,0,4.2-0.5c0.4-0.1,0.8-0.3,1.1-0.5C160.3,58.8,160.3,58.9,160.2,58.9z M135.5,67.4c0.9,0.2,1.8,0.4,2.7,0.5
		c2,0.2,4,0.1,5.9-0.7c1.1-0.4,2.1-1.1,3-2c0,0.1,0,0.1,0,0.2c0,0.8-0.1,1.7-0.1,2.5c-0.5,0.7-1,1.5-1.7,2c-0.7,0.6-1.5,0.9-2.4,0.9
		s-1.8-0.3-2.7-0.7c-0.9-0.4-1.8-0.9-2.6-1.5c-0.1,0-0.2-0.1-0.3-0.1s-0.1,0-0.1,0C136.6,68.2,136.1,67.8,135.5,67.4z M125.9,68
		c-0.7,1.6-1.7,3.2-2.7,4.6s-2.2,2.8-3.5,4s-2.8,2.2-4.3,2.8c-2-0.1-4-0.2-5.9-0.3c1.3-0.7,2.4-1.6,3.5-2.6c1.7-1.5,3.3-3.4,4.6-5.3
		c1.3-2,2.4-4.1,3.2-6.3c0.6-1.9,1.1-3.7,1.2-5.7c1.7,1.4,3.4,2.8,5.1,4.1C127.2,64.9,126.6,66.5,125.9,68z M115.2,51.4
		c1.6,0.4,3.3,0.7,4.9,1.1c3.2,0.6,6.5,0.9,9.8,0.8c3.3-0.1,6.7-0.5,9.8-1.8c2.5-1.1,4.9-2.7,6.6-4.9c0.4,3.1,0.6,6.1,0.8,9.2
		c-0.1,0.1-0.1,0.1-0.2,0.2c-1.1,1.9-3.1,3.1-5.2,3.7c-2.2,0.6-4.5,0.7-6.8,0.6c-2.3-0.2-4.6-0.5-6.9-1c-1.8-0.4-3.7-0.9-5.5-1.5
		C120,55.7,117.6,53.6,115.2,51.4z M125.1,59.9c0.9,0.2,1.9,0.5,2.8,0.7c2.3,0.5,4.7,0.9,7.1,1s4.9,0,7.3-0.7
		c1.2-0.4,2.4-0.9,3.4-1.6c0.5-0.3,1-0.8,1.4-1.2c0,1.6,0,3.2,0,4.8c-0.9,1.4-2.1,2.5-3.6,3.1c-1.6,0.6-3.4,0.8-5.2,0.6
		c-3.4-0.4-6.6-1.9-9.5-3.8C127.6,61.8,126.3,60.8,125.1,59.9z M146.1,71.5c0.2-0.2,0.4-0.4,0.6-0.6c-0.1,1.1-0.2,2.1-0.3,3.2
		c-0.9-0.5-1.7-1-2.6-1.5C144.7,72.5,145.5,72.1,146.1,71.5z M147.5,74c0.2-0.9,0.3-1.8,0.4-2.8c0.2,0.2,0.5,0.4,0.7,0.6
		s0.5,0.2,0.8,0.3C148.8,72.8,148.1,73.4,147.5,74z M151.8,69.5c-0.1,0-0.3,0-0.4,0.1c-0.3,0.3-0.7,0.5-1.1,0.6
		c-0.4,0.1-0.7,0.1-1-0.1c-0.6-0.3-0.9-1.2-0.9-2c0.1-0.1,0-0.3-0.1-0.5c0.1-1.2,0.2-2.3,0.2-3.5c0.4,0.3,0.9,0.5,1.4,0.8
		c0.8,0.4,1.8,0.7,2.8,0.8c0.9,0.1,1.7,0,2.5-0.3c-0.5,0.7-1.1,1.3-1.6,2C153.1,68.2,152.4,68.9,151.8,69.5z M145,37.5
		c0.4,2.4,0.8,4.8,1.1,7.2c-1.6,2.4-4,4.3-6.7,5.3c-2.9,1.2-6.1,1.6-9.3,1.7c-3.2,0.1-6.4-0.3-9.6-0.8c-2.6-0.4-5.2-1-7.7-1.8
		c-2.2-2.2-4.4-4.4-6.6-6.6c2.6,0.7,5.2,1.4,7.8,1.8c3.8,0.7,7.7,1.1,11.6,1s7.9-0.8,11.5-2.4c3.1-1.4,5.8-3.6,7.7-6.3
		C144.9,37,145,37.2,145,37.5z M106.2,66.4c1.7-2.4,3.2-5.2,4.1-8.1c0.8-2.5,1.3-5.3,1.2-8c0.2,0.1,0.5,0.1,0.7,0.2c0,0,0,0,0.1,0.1
		c2.6,2.5,5.2,4.9,8,7.2c0,0.1-0.1,0.2-0.1,0.3c0,2.1-0.4,4.3-1.2,6.4c-0.7,2-1.8,4-3,5.9s-2.7,3.6-4.3,5.1c-1.5,1.4-3.2,2.6-5,3.3
		c-2.1-0.2-4.2-0.5-6.3-0.8c-2.4-0.4-4.7-0.8-7.1-1.3C98.6,74.6,103,70.9,106.2,66.4z M131.8,77.6c1.5-0.9,2.8-1.9,3.9-3.3
		c0.9-1,1.5-2.2,1.9-3.5c0.6,0.4,1.2,0.8,1.9,1.1c0.1,0,0.1,0,0.2,0.1c1.8,1.1,3.6,2.2,5.5,3.3c-5.1,1.8-10.5,3-15.9,3.6
		C130.2,78.5,131,78.1,131.8,77.6z M150.5,72.5c0,0.1,0,0.2,0,0.3c-0.1,0.2,0,0.5,0.2,0.8c-0.7,0.3-1.5,0.5-2.2,0.8
		C149.1,73.8,149.8,73.2,150.5,72.5z M162.1,56.2c0,0-0.1,0-0.1,0.1c-1,0.8-2.1,1.4-3.3,1.8c-1.2,0.5-2.5,0.6-3.7,0.5
		c-2.2-0.2-4.3-1.2-6.3-2.5l0,0c-0.1-3.4-0.4-6.7-0.7-10c1.3,0.8,2.8,1.4,4.2,1.9c2.1,0.7,4.2,1.1,6.4,1s4.3-0.5,6.3-1.3
		c1.1-0.5,2.3-1,3.3-1.6c-0.7,1.3-1.4,2.5-2.1,3.8C164.8,52,163.4,54.1,162.1,56.2z M121.4,35.7c4.2-0.5,8.4-1.3,12.3-3
		c1.9-0.8,3.8-1.9,5.5-3.3c1.3-1.1,2.4-2.3,3.2-3.7c0.7,2.9,1.4,5.8,1.9,8.7c-1.8,3.1-4.7,5.6-8,7c-3.4,1.6-7.1,2.2-10.9,2.3
		c-3.8,0.1-7.6-0.3-11.3-1c-3.4-0.6-6.8-1.6-10.2-2.6c-1.8-2-3.6-4-5.3-6.1c-0.1-0.1-0.2-0.3-0.3-0.4
		C105.8,35.8,113.7,36.6,121.4,35.7z M89.7,56.5c2.6-3.4,4.7-7.3,6.1-11.4c1.1-3.4,1.6-7,1.7-10.6c0.1,0.1,0.2,0.2,0.3,0.4
		c1.4,1.8,2.9,3.5,4.5,5.2c-0.1,0.1-0.2,0.3-0.2,0.5c0.4,7-1.8,14.2-5.8,20c-3.9,5.9-9.8,10.5-16.5,12.8c-0.8-0.2-1.6-0.5-2.4-0.7
		c-2.2-0.6-4.5-1.3-6.7-2C78.2,67.8,84.8,62.9,89.7,56.5z M90.3,143.5c-0.8,0.5-1.7,1-2.5,1.5c0.1-0.2,0.1-0.4,0.1-0.6
		c0-0.1,0-0.2,0-0.3c2-12.4,1.3-25.1-1.6-37.4c-3-12.4-8.3-24.4-15.9-35c2.2,0.7,4.4,1.4,6.6,2.1c0.8,0.2,1.6,0.5,2.4,0.7
		c0,0,0,0.1,0.1,0.1c6.8,9.1,12.8,19,16.8,29.7c2,5.3,3.5,10.9,4.3,16.5c0.6,5.1,0.7,10.3-0.2,15.4
		C97.3,138.9,93.9,141.3,90.3,143.5z M102.2,134.8c0.6-4.7,0.6-9.5-0.1-14.2c-0.7-5.8-2.3-11.4-4.3-16.8C94,93.5,88.4,84,81.9,75.2
		c3.2,0.9,6.5,1.7,9.7,2.4c5.6,7.4,11,14.9,15,23.2c2.1,4.2,3.8,8.6,4.8,13.1c0.8,3.6,1.1,7.3,0.8,10.9l0.1-0.1c0,0.2,0,0.4,0,0.7
		C109.1,128.7,105.8,131.9,102.2,134.8z M113.7,123.9c0-0.2-0.1-0.3-0.2-0.4l0,0c0.2-3.4-0.2-6.8-0.9-10.1
		c-1.1-4.6-2.8-9.1-4.9-13.4c-3.8-7.8-8.7-15-13.9-21.9c2.1,0.4,4.2,0.8,6.3,1.2c1.9,0.3,3.8,0.5,5.7,0.8c0,0,0,0.1,0.1,0.1
		c4.1,5.2,8.4,10.1,12,15.6c1.7,2.7,3.3,5.6,4.4,8.6c0.9,2.6,1.4,5.3,1.2,7.9C120.4,116.4,117.2,120.2,113.7,123.9z M131.5,101.2
		c-0.2,0.4-0.5,0.7-0.7,1.1c-0.2-1.6-0.7-3.2-1.3-4.6c-1.1-2.4-2.5-4.5-4-6.5s-3.1-3.9-4.7-5.8c-1.3-1.5-2.6-3.1-3.8-4.6
		c1.8,0,3.7,0,5.5-0.1h0.1v0.1c0.1,0,0.1,0,0.2-0.1c1.6,0.4,3.2,1.1,4.7,2.1c1.6,1,2.9,2.4,4,4s1.9,3.3,2.4,5.2
		c0.3,1.6,0.5,3.2,0.4,4.8C133.4,98.4,132.5,99.8,131.5,101.2z M135.7,94.8c-0.1-1-0.2-1.9-0.4-2.9c-0.5-2-1.3-4-2.5-5.7
		c-1.1-1.7-2.6-3.2-4.4-4.4c-0.8-0.5-1.6-0.9-2.4-1.2c6.7-0.5,13.4-1.7,19.7-3.9C142.7,82.9,139.3,88.9,135.7,94.8z M168.5,64.9
		c-1.3,0.8-2.5,1.5-3.8,2.2c-1-0.4-2-0.8-2.7-1.3c-0.7-0.6-1.1-1.5-1-2.5c0-1,0.3-2.1,0.7-3.1c0.3-0.8,0.6-1.6,1-2.4
		c2.3-3.4,4.5-6.9,6.5-10.6c0,0.5,0,1,0,1.5c0.1,1.6,0.3,3.2,0.9,4.8c0.6,1.5,1.7,2.9,3.1,3.9c1.2,0.8,2.4,1.4,3.7,1.8
		C174.2,61.3,171.4,63.2,168.5,64.9z M188.4,49.8c-1.7-0.4-3.2-1.2-4.5-2.1c-1.5-1.1-2.7-2.4-3.8-3.8c-2.1-2.6-3.6-5.8-4.5-9.1
		c1.1-2.3,2.1-4.6,3-7c2.5,7.5,8.9,13.5,16.6,15.3C193,45.4,190.7,47.6,188.4,49.8z"/>
</g>
</svg>
