<?xml version="1.0" encoding="utf-8"?>
<!-- Generator: Adobe Illustrator 28.0.0, SVG Export Plug-In . SVG Version: 6.00 Build 0)  -->
<svg version="1.1" id="Layer_1" xmlns="http://www.w3.org/2000/svg" xmlns:xlink="http://www.w3.org/1999/xlink" x="0px" y="0px"
	 viewBox="0 0 357.3 73.6" style="enable-background:new 0 0 357.3 73.6;" xml:space="preserve">
<style type="text/css">
	.st0{fill:#968B7C;}
	.st1{fill:#C1B9AC;}
	.st2{clip-path:url(#SVGID_00000168100808730125434850000006497855678675974313_);}
</style>
<g>
	<polygon class="st0" points="357.3,31.7 4,45.7 0,41.9 3.3,0 353.2,27.8 	"/>
	
		<rect x="159.6" y="-136.7" transform="matrix(7.933981e-02 -0.9968 0.9968 7.933981e-02 127.6477 215.7508)" class="st1" width="42" height="351"/>
	<g>
		<g>
			<defs>
				
					<rect id="SVGID_1_" x="159.6" y="-136.7" transform="matrix(7.933981e-02 -0.9968 0.9968 7.933981e-02 127.6477 215.7508)" width="42" height="351"/>
			</defs>
			<clipPath id="SVGID_00000030458986590788975590000009595910176216555960_">
				<use xlink:href="#SVGID_1_"  style="overflow:visible;"/>
			</clipPath>
			<g style="clip-path:url(#SVGID_00000030458986590788975590000009595910176216555960_);">
				<g>
					<g>
						<path class="st0" d="M263.6,58.7c-16.5-0.9-33-3.3-49.1-7.5c-5-1.3-31.5-6-21-16.2c4.5-4.4,13.6-3.8,19.4-3.9
							c8.3,0,16.6,0.4,24.9,0.8c8.6,0.4,17.3,1,25.8,2c6.6,0.8,14,1.4,20,4.8c3,1.7,5,4,6.8,6.8c1,1.6,2,3.2,3.4,4.6
							c1.1,1.1,2.4,2.2,3.1,3.6c3.1,6-4.6,8.2-8.9,8.4c-0.6,0-0.7-0.9-0.1-1c1.2,0,2.4-0.1,3.6-0.3c1-0.2,3.8-1.2,4.3-2.5
							c0.3-0.8-0.2-4.6-0.7-5.3c-1.3-2.1-3.5-3.7-4.9-5.9c-3.7-5.6-7.9-8.7-14.5-10.3c-12.1-2.9-25-3.4-37.5-3.9
							c-6.2-0.3-12.5-0.6-18.6-0.7c-6.6-0.2-13.5-0.5-20,1c-2.3,0.5-4.9,1.4-6.4,3.3c-1.6,2.3-1.2,5.5,1,7.3
							c2.3,1.7,5.6,2.4,8.3,3.3c6.3,1.9,12.8,3.6,19.3,5.1c13.7,3,27.6,4.9,41.7,5.7C264.4,57.8,264.2,58.7,263.6,58.7L263.6,58.7z"
							/>
					</g>
				</g>
				<g>
					<g>
						<path class="st0" d="M287,26c10,4.4,20,8.5,29.9,13.1c5.8,2.7,13.2,6.8,13.9,14c0.6,7.5-6,12.7-12.4,14.7
							c-9.2,2.8-19.8,2.6-29.4,2.5c-20.9-0.2-42.3-1.9-63-4.7c-18.9-2.6-40.3-6.1-55.2-18.9c-3.7-3.2-7.2-6.7-10.5-10.3
							c-2.6-2.7-5.4-5.8-5.1-9.7c0.6-9.8,12.2-11.4,19.7-11.7c0.7,0,0.8,1,0.2,1.1c-4.3,0.2-9,0.4-12.9,2.5
							c-5.8,3.2-7.5,9.5-3.2,14.8c4.6,6,10.8,11.8,17,16.1c13.9,9.6,32.5,12.7,48.9,15.1c16.9,2.3,34,3.5,51,4.4
							c9.2,0.5,18.4,0.7,27.6,0.1c8.6-0.6,19.8-1,24.8-9.2c6.4-10.6-6-17.3-14-20.7c-9.1-4-18.3-8-27.4-12
							C286,26.7,286.3,25.7,287,26L287,26z"/>
					</g>
				</g>
				<g>
					<g>
						<path class="st0" d="M80.7-5.6c6.8,2.8,13.3,6.1,19.7,9.9c4.3,2.6,11.2,6.1,12.3,11.7c2,11.4-16,8.5-21.8,8.1
							C74,22.7,57.2,21.3,40.3,20c-15.6-1.3-32-1.5-46.9-6.9c-0.8-0.3-0.3-1.5,0.4-1.2c12.2,4.4,25.1,5,37.9,6.1
							c13.3,1.1,26.6,2.2,39.9,3.4c6.4,0.5,13,1.1,19.4,1.6c5.2,0.4,12.1,2.1,17.1-0.5c6.2-3.2,1.9-10-2-13
							c-2.5-1.8-5.3-3.4-7.9-5.1c-5.9-3.5-11.8-6.4-18-9C79.5-4.8,79.9-5.9,80.7-5.6L80.7-5.6z"/>
					</g>
				</g>
				<g>
					<g>
						<path class="st0" d="M130.1,68.5c-20.6-11.8-42.8-20.7-66-25.9c-10.8-2.4-21.7-4.1-32.7-4.9c-12.7-1-25.4-0.9-37.9-3.4
							c-0.8-0.2-0.6-1.4,0.1-1.2c12.8,2.5,25.8,2.4,38.8,3.4c11.9,0.9,23.6,2.8,35.3,5.6c22.2,5.3,43.5,13.9,63.2,25.3
							C131.5,67.9,130.8,68.9,130.1,68.5L130.1,68.5z"/>
					</g>
				</g>
				<g>
					<g>
						<path class="st0" d="M-7.1,23.4c8.5,2.7,17.1,2.6,25.9,3c8.6,0.4,17.2,1.6,25.6,3.4c14.4,3,28.7,6.8,42.5,11.6
							c27.1,9.4,52.7,23.4,72.7,44.5c0.6,0.6-0.4,1.4-1,0.8C138.1,65,111.4,51,83.5,41.6C68.9,36.7,53.9,32.7,38.8,30
							c-7.9-1.4-15.7-2.2-23.7-2.5C7.4,27.3-0.2,27-7.5,24.6C-8.4,24.4-8,23.2-7.1,23.4L-7.1,23.4z"/>
					</g>
				</g>
				<g>
					<g>
						<path class="st0" d="M337.2,16.5c1,5.4,2.9,10.5,6.1,15c0.9,1.4,2,2.6,3.1,3.9c2.3,2.5,4.1,3.1,7.2,4.3
							c8,3.1,14.8,9.4,21.7,14.4c0.7,0.5-0.1,1.5-0.8,1c-4.7-3.4-9.3-7-14.1-10.4c-2.6-1.7-5.1-3.2-8.1-4.1c-1.9-0.6-3.2-1-4.7-2.3
							c-6.4-5.3-10.1-13.6-11.7-21.6C335.8,15.9,337.1,15.7,337.2,16.5L337.2,16.5z"/>
					</g>
				</g>
				<g>
					<g>
						<path class="st0" d="M328.6,23.6c1,5.4,2.9,10.5,6.1,15c0.9,1.4,2,2.6,3.1,3.9c2.3,2.5,4.1,3.1,7.2,4.3
							c8,3.1,14.8,9.4,21.7,14.4c0.7,0.5-0.1,1.5-0.8,1c-4.7-3.4-9.3-7-14.1-10.4c-2.6-1.7-5.1-3.2-8.1-4.1c-1.9-0.6-3.2-1-4.7-2.3
							c-6.4-5.3-10.1-13.6-11.7-21.6C327.2,23,328.5,22.8,328.6,23.6L328.6,23.6z"/>
					</g>
				</g>
				<g>
					<g>
						<path class="st0" d="M83.9,57.1c-14.4-6.3-29.5-10.3-45-13.1c-15.7-2.8-33-6.6-48.6-2.4c-0.8,0.2-1-1.1-0.2-1.3
							c15.8-4.2,33.2-0.4,48.9,2.4c15.6,2.8,30.8,6.8,45.3,13.1C85.1,56.3,84.7,57.4,83.9,57.1L83.9,57.1z"/>
					</g>
				</g>
				<g>
					<g>
						<path class="st0" d="M157.1,0.1c-8.3,5.2-14.5,14.2-14.6,24.3c-0.1,12.5,10.8,20.7,19.7,27.9c16.6,13.4,35.7,24,57.3,25
							c0.8,0.1,0.7,1.3-0.1,1.2c-24.5-1.1-46-14.6-64.1-30.4c-7.7-6.7-14.8-14.2-14-25.2c0.7-9.8,6.8-18.6,15-23.8
							C157-1.3,157.8-0.3,157.1,0.1L157.1,0.1z"/>
					</g>
				</g>
				<g>
					<g>
						<path class="st0" d="M145,0.1c-8.3,5.2-14.5,14.2-14.6,24.3c-0.1,12.5,10.8,20.7,19.7,27.9c16.6,13.4,35.7,24,57.3,25
							c0.8,0.1,0.7,1.3-0.1,1.2c-24.5-1.1-46-14.6-64.1-30.4c-7.7-6.7-14.8-14.2-14-25.2c0.7-9.8,6.8-18.6,15-23.8
							C144.9-1.3,145.6-0.3,145,0.1L145,0.1z"/>
					</g>
				</g>
			</g>
		</g>
	</g>
</g>
</svg>
