<?xml version="1.0" encoding="utf-8"?>
<!-- Generator: Adobe Illustrator 28.0.0, SVG Export Plug-In . SVG Version: 6.00 Build 0)  -->
<svg version="1.1" id="Layer_1" xmlns="http://www.w3.org/2000/svg" xmlns:xlink="http://www.w3.org/1999/xlink" x="0px" y="0px"
	 viewBox="0 0 357.3 73.6" style="enable-background:new 0 0 357.3 73.6;" xml:space="preserve">
<style type="text/css">
	.st0{fill:#968B7C;}
	.st1{fill:#C1B9AC;}
</style>
<g>
	<polygon class="st0" points="108.7,11.9 4,45.7 0,41.9 3.3,0 103,7.9 	"/>
	<polygon class="st1" points="4,45.7 102.3,53.5 99.6,46.2 99.6,43.5 102.9,38.7 103.4,30.4 108,22.3 106.2,16.8 108.7,11.9 
		108.7,11.9 7.4,3.9 	"/>
	<g>
		<path class="st0" d="M32.4,36.5c-9.2-0.8-18.3-0.9-27.5-1.8L4.8,36c8.8,0.9,17.7,1,26.5,1.7c11,0.9,22,2.5,32.7,4.9
			c11.7,2.6,23.2,6.2,34.4,10.6l3.9,0.3l-0.1-0.2C91,48.7,79.5,44.9,67.6,42.1C56,39.3,44.2,37.5,32.4,36.5z"/>
		<path class="st0" d="M39,42.7c-11-2-22.9-4.4-34.4-4.2l-0.1,1.3C16,39.6,27.9,42,38.9,44c9.5,1.7,18.8,3.9,27.9,6.7l5.5,0.4
			C61.5,47.4,50.4,44.7,39,42.7z"/>
		<path class="st0" d="M87,41.4c-13.9-4.9-28.2-8.7-42.5-11.6c-8.4-1.8-17-3-25.6-3.4c-4.4-0.2-8.8-0.3-13.2-0.6L5.5,27
			c3.2,0.3,6.4,0.4,9.6,0.5c8,0.3,15.8,1,23.7,2.5c15,2.7,30.1,6.7,44.6,11.5c5.6,1.9,11.2,4,16.7,6.3l-0.6-1.6
			C95.4,44.5,91.2,42.9,87,41.4z"/>
		<path class="st0" d="M6.4,16.4c11.1,2.1,22.7,2.5,33.8,3.4c16.9,1.4,33.7,2.8,50.6,4.1c3,0.2,9.3,1.1,14.4,0.3l2.8-2
			c-5,2.6-11.9,0.9-17.1,0.5c-6.4-0.5-13-1.1-19.4-1.6c-13.3-1.1-26.6-2.2-39.9-3.4c-8.4-0.7-16.9-1.2-25.1-2.7L6.4,16.4z"/>
	</g>
</g>
<g>
	<polygon class="st0" points="357.3,31.7 353.2,27.8 257.3,20.2 264.2,35.4 257.7,41.9 264.2,45.7 259.9,51.2 258.8,63.6 
		262.5,66.3 299.6,47.8 287.9,38.8 	"/>
	<polygon class="st1" points="357.3,31.7 262.5,24.2 262.5,24.2 267.5,34.4 267.5,38.7 262.5,44.1 267.5,47.8 262.5,53.5 
		262.5,57.7 262.5,66.3 262.5,66.3 353.9,73.6 	"/>
	<g>
		<path class="st0" d="M303.1,69.1c-1.2,0.1-2.4,0.1-3.6,0.2l8,0.6c3.7-0.4,7.3-1,10.8-2c6.4-2,13-7.2,12.4-14.7
			c-0.7-7.2-8-11.3-13.9-14c-9.8-4.5-19.8-8.6-29.7-13l-0.8-0.1c-0.3,0.2-0.3,0.8,0,1.1c9.2,4,18.3,8,27.4,12
			c8,3.5,20.4,10.1,14,20.7C322.9,68.1,311.7,68.5,303.1,69.1z"/>
		<path class="st0" d="M263.6,57.8c-0.4,0-0.8-0.1-1.1-0.1v0v0.8c0.4,0,0.7,0.1,1.1,0.1C264.2,58.7,264.4,57.8,263.6,57.8z"/>
		<path class="st0" d="M293.9,50.2c-1.4-1.4-2.4-3-3.4-4.6c-1.9-2.9-3.8-5.2-6.8-6.8c-4.8-2.7-10.6-3.6-16.1-4.3v0v0.8
			c2.8,0.4,5.6,1,8.3,1.6c6.6,1.6,10.8,4.6,14.5,10.3c1.4,2.2,3.6,3.8,4.9,5.9c0.5,0.7,1,4.5,0.7,5.3c-0.5,1.3-3.2,2.3-4.3,2.5
			c-1.2,0.3-2.4,0.3-3.6,0.3c-0.6,0.1-0.5,1,0.1,1c4.3-0.2,12-2.4,8.9-8.4C296.3,52.3,295,51.3,293.9,50.2z"/>
		<path class="st0" d="M355.6,52.7c-3.3-2.4-6.8-4.5-10.6-6c-3.1-1.1-4.9-1.8-7.2-4.3c-1.1-1.2-2.2-2.5-3.1-3.9
			c-2-2.8-3.5-5.8-4.6-9l-1.2-0.1c2,6,5.3,11.8,10.2,15.8c1.5,1.3,2.8,1.7,4.7,2.3c3,1,5.5,2.4,8.1,4.1c1.2,0.9,2.4,1.8,3.6,2.7
			L355.6,52.7z"/>
		<path class="st0" d="M346.4,35.3c-1.1-1.2-2.2-2.5-3.1-3.9c-0.2-0.3-0.4-0.6-0.6-0.9l-1.5-0.1c1.8,2.9,3.9,5.6,6.5,7.7
			c1.5,1.3,2.8,1.7,4.7,2.3c1.5,0.5,2.8,1.1,4.1,1.7l0.1-1.3c-1-0.5-1.9-0.9-2.9-1.3C350.5,38.4,348.7,37.8,346.4,35.3z"/>
	</g>
</g>
</svg>
