<?xml version="1.0" encoding="utf-8"?>
<!-- Generator: Adobe Illustrator 28.0.0, SVG Export Plug-In . SVG Version: 6.00 Build 0)  -->
<svg version="1.1" id="Layer_1" xmlns="http://www.w3.org/2000/svg" xmlns:xlink="http://www.w3.org/1999/xlink" x="0px" y="0px"
	 viewBox="0 0 41.8 56" style="enable-background:new 0 0 41.8 56;" xml:space="preserve">
<style type="text/css">
	.st0{enable-background:new    ;}
	.st1{fill:#C1B9AC;}
</style>
<g class="st0">
	<path class="st1" d="M11.3,53.6l-1.6-1.9l4-3.4h4.9l2,2.4l2.9-2.4h4.9l2.8,3.4l-2.3,1.9H11.3z M14.5,7.8l2.3-1.9l2.8,3.4L17,23.8
		l-4,3.4l-1.6-2L14.5,7.8z M24.6,28.2l-2.9,2.4h-5.9l-2-2.4l2.9-2.4h5.8L24.6,28.2z M20.2,2.9h17.5l1.6,2l-4,3.4h-4.9l-2-2.4
		l-2.9,2.4h-4.9L18,4.9L20.2,2.9z M35.3,28.2l-2.9,2.4h-5.9l-2-2.4l2.9-2.4h5.8L35.3,28.2z M34.6,48.7l-2.3,2l-2.8-3.4L32,32.6
		l4-3.4l1.6,2L34.6,48.7z"/>
</g>
</svg>
