<?xml version="1.0" encoding="utf-8"?>
<!-- Generator: Adobe Illustrator 28.0.0, SVG Export Plug-In . SVG Version: 6.00 Build 0)  -->
<svg version="1.1" id="Layer_1" xmlns="http://www.w3.org/2000/svg" xmlns:xlink="http://www.w3.org/1999/xlink" x="0px" y="0px"
	 viewBox="0 0 291.2 101.5" style="enable-background:new 0 0 291.2 101.5;" xml:space="preserve">
<style type="text/css">
	.st0{stroke:#000000;stroke-miterlimit:10;}
	.st1{fill:#282725;stroke:#000000;stroke-miterlimit:10;}
	.st2{fill:#968B7C;}
</style>
<g>
	<g>
		
			<ellipse transform="matrix(0.1213 -0.9926 0.9926 0.1213 175.7893 348.8554)" class="st0" cx="284.9" cy="75.1" rx="18.8" ry="5.4"/>
		
			<rect x="199.9" y="0.3" transform="matrix(0.1213 -0.9926 0.9926 0.1213 125.6256 275.993)" class="st0" width="37.7" height="133.5"/>
	</g>
	<g>
		
			<ellipse transform="matrix(9.328697e-02 -0.9956 0.9956 9.328697e-02 175.023 338.5598)" class="st0" cx="273.4" cy="73.2" rx="27.9" ry="7.9"/>
		
			<rect x="147" y="-35" transform="matrix(9.328697e-02 -0.9956 0.9956 9.328697e-02 94.8991 232.1194)" class="st0" width="55.8" height="197.9"/>
	</g>
	<g>
		
			<ellipse transform="matrix(9.328697e-02 -0.9956 0.9956 9.328697e-02 -34.1873 60.6349)" class="st0" cx="16.2" cy="49.1" rx="48.7" ry="15.1"/>
		<path class="st0" d="M77.1,13.2L20.7,0.6l-2.3,42.3l-6.8,54.7l57.7-1.9c7.1,0.7,14.5-17.3,16.7-40.1
			C88.1,32.8,84.1,13.8,77.1,13.2z"/>
		<path class="st1" d="M79.1,13.2l-6.8-1.5c6,4.3,9.2,22.8,7.2,44.4c-1.7,18.2-6.6,33.5-12.1,39.8l4-0.1
			c7.1,0.7,14.5-17.3,16.7-40.1C90.2,32.8,86.2,13.8,79.1,13.2z"/>
		<path class="st2" d="M10.5,48.6c-1.9,20.4,0.7,37.9,5.9,44c6.3-5,12.1-21.8,14-42.1s-0.7-37.9-5.9-44
			C18.2,11.4,12.4,28.2,10.5,48.6z"/>
	</g>
</g>
</svg>
