<?xml version="1.0" encoding="utf-8"?>
<!-- Generator: Adobe Illustrator 28.0.0, SVG Export Plug-In . SVG Version: 6.00 Build 0)  -->
<svg version="1.1" id="Layer_1" xmlns="http://www.w3.org/2000/svg" xmlns:xlink="http://www.w3.org/1999/xlink" x="0px" y="0px"
	 viewBox="0 0 161.7 435.1" style="enable-background:new 0 0 161.7 435.1;" xml:space="preserve">
<style type="text/css">
	.st0{fill:#F27050;}
	.st1{fill:none;stroke:#BC3026;stroke-width:1.3;stroke-miterlimit:10;}
	.st2{fill:#FFFFFF;}
	.st3{fill:#C1B9AC;}
	.st4{fill:#412F3D;}
</style>
<g id="door_left_open">
	<polygon points="161.7,0 0,0 0,8.1 128.4,8.1 	"/>
	<polygon points="128.4,6.1 75.7,6.1 75.7,348.1 128.4,349.1 	"/>
	<polygon class="st0" points="102.1,8.1 0,8.1 0,407.9 102.1,345.4 	"/>
	<g>
		<polygon class="st1" points="89.3,157.6 3.6,181 3.6,24.7 89.3,23.7 		"/>
		<polygon class="st1" points="90.1,332.5 4.4,381.3 4.4,211.7 90.1,183.5 		"/>
	</g>
	<g>
		<ellipse cx="90.2" cy="172.1" rx="5.4" ry="9.4"/>
		<circle class="st2" cx="92.2" cy="167.9" r="6.1"/>
	</g>
	<polygon class="st3" points="161.7,353 128.4,348.4 128.4,8.1 161.7,0 	"/>
	<polygon class="st4" points="0,407.9 0,435.1 161.7,353 102.1,345 	"/>
</g>
</svg>
