<?xml version="1.0" encoding="utf-8"?>
<!-- Generator: Adobe Illustrator 28.0.0, SVG Export Plug-In . SVG Version: 6.00 Build 0)  -->
<svg version="1.1" id="Layer_1" xmlns="http://www.w3.org/2000/svg" xmlns:xlink="http://www.w3.org/1999/xlink" x="0px" y="0px"
	 viewBox="0 0 161.7 435.1" style="enable-background:new 0 0 161.7 435.1;" xml:space="preserve">
<style type="text/css">
	.st0{fill:#D6523C;}
	.st1{fill:none;stroke:#A52320;stroke-width:1.3;stroke-miterlimit:10;}
	.st2{fill:#FFFFFF;}
	.st3{fill:#968B7C;}
	.st4{fill:#412F3D;}
</style>
<g id="door_right_open">
	<polygon points="0,0 161.7,0 161.7,8.1 33.3,8.1 	"/>
	<polygon points="33.3,6.1 86,6.1 86,348.1 33.3,349.1 	"/>
	<polygon class="st0" points="59.6,8.1 161.7,8.1 161.7,407.9 59.6,345.4 	"/>
	<g>
		<polygon class="st1" points="72.3,157.6 158.1,181 158.1,24.7 72.3,23.7 		"/>
		<polygon class="st1" points="71.5,332.5 157.3,381.3 157.3,211.7 71.5,183.5 		"/>
	</g>
	<g>
		<ellipse cx="71.5" cy="172.1" rx="5.4" ry="9.4"/>
		<circle class="st2" cx="69.5" cy="167.9" r="6.1"/>
	</g>
	<polygon class="st3" points="0,353 33.3,348.4 33.3,8.1 0,0 	"/>
	<polygon class="st4" points="161.7,407.9 161.7,435.1 0,353 59.6,345 	"/>
</g>
</svg>
