<?xml version="1.0" encoding="utf-8"?>
<!-- Generator: Adobe Illustrator 28.0.0, SVG Export Plug-In . SVG Version: 6.00 Build 0)  -->
<svg version="1.1" id="Layer_1" xmlns="http://www.w3.org/2000/svg" xmlns:xlink="http://www.w3.org/1999/xlink" x="0px" y="0px"
	 viewBox="0 0 161.7 435.1" style="enable-background:new 0 0 161.7 435.1;" xml:space="preserve">
<style type="text/css">
	.st0{fill:#D6523C;}
	.st1{fill:none;stroke:#A52320;stroke-width:1.3;stroke-miterlimit:10;}
	.st2{fill:#FFFFFF;}
	.st3{fill:#968B7C;}
	.st4{fill:#412F3D;}
</style>
<g id="door_right_close">
	<polygon points="0,0 161.7,0 161.7,8.1 33.3,8.1 	"/>
	<rect x="33.2" y="6" width="52.7" height="342.1"/>
	<polygon class="st0" points="33.3,8.1 161.7,8.1 161.7,407.9 33.3,348.4 	"/>
	<g>
		<polygon class="st1" points="49.3,157.6 157.2,181 157.2,24.7 49.3,23.7 		"/>
		<polygon class="st1" points="48.3,334.5 156.2,381.3 156.2,211.7 48.3,183.5 		"/>
	</g>
	<g>
		<ellipse cx="47.5" cy="172.1" rx="5.4" ry="9.4"/>
		<circle class="st2" cx="45.5" cy="167.9" r="6.1"/>
	</g>
	<polygon class="st3" points="0,353 33.3,348.4 33.3,8.1 0,0 	"/>
	<polygon class="st4" points="161.7,407.9 161.7,435.1 0,353 33.3,348.4 	"/>
</g>
</svg>
