<?xml version="1.0" encoding="utf-8"?>
<!-- Generator: Adobe Illustrator 28.0.0, SVG Export Plug-In . SVG Version: 6.00 Build 0)  -->
<svg version="1.1" xmlns="http://www.w3.org/2000/svg" xmlns:xlink="http://www.w3.org/1999/xlink" x="0px" y="0px"
	 viewBox="0 0 1600.5 900" style="enable-background:new 0 0 1600.5 900;" xml:space="preserve">
<style type="text/css">
	.st0{fill:#D4D1CC;}
	.st1{fill:#FFFFFF;}
	.st2{fill:#C1B9AC;}
	.st3{fill:#C6C1BA;}
	.st4{fill:none;stroke:#AAA0AB;stroke-miterlimit:10;}
	.st5{fill:#412F3D;}
	.st6{fill:none;stroke:#BCB8B3;stroke-miterlimit:10;}
	.st7{fill:#C1C0BE;}
	.st8{fill:#807684;}
	.st9{fill:#66555C;}
	.st10{fill:#968B7C;}
	.st11{fill:#F27050;}
	.st12{fill:none;stroke:#BC3026;stroke-miterlimit:10;}
	.st13{fill:none;stroke:#66555C;stroke-miterlimit:10;}
	.st14{fill:#D1C14A;}
	.st15{fill:#1D1E1C;stroke:#1D1E1C;stroke-linecap:round;stroke-linejoin:round;stroke-miterlimit:10;}
	.st16{fill:none;stroke:#968B7C;stroke-miterlimit:10;}
	.st17{fill:#1D1E1C;}
	.st18{fill:none;stroke:#412F3D;stroke-miterlimit:10;}
</style>
<g id="Layer_1">
	<g id="Warstwa_1">
		<polygon class="st0" points="1125.1,162.8 245.3,162.8 0,0 1600,0 		"/>
		<polygon class="st1" points="1125.1,626.3 245.3,676.2 245.3,90.9 1125.1,90.9 		"/>
	</g>
	<g id="Warstwa_1_kopia">
		<polygon class="st2" points="1600,900 1125.1,626.3 1125.1,90.9 1600,0 		"/>
		<polygon class="st3" points="245,676.4 0,900 0,0 245,91.1 		"/>
		<polyline class="st4" points="1,810.6 245.3,613.3 1125.1,563.4 1598.5,786.4 		"/>
		<polygon class="st5" points="1599.7,900 1124.8,627.3 245,677.2 0,900 		"/>
		<polyline points="536.4,659.8 536.4,235.2 760.1,229.2 760.1,650.1 		"/>
		<polygon class="st5" points="593.7,499.8 628.2,499.8 785.1,672.6 531.2,671.1 		"/>
	</g>
	<g id="Warstwa_5">
		<g>
			<g>
				<line class="st6" x1="816.7" y1="453.2" x2="888.9" y2="453.2"/>
				<line class="st6" x1="799" y1="424.3" x2="895.3" y2="424.3"/>
				<line class="st6" x1="853.5" y1="397.1" x2="853.5" y2="424.3"/>
				<line class="st6" x1="834.3" y1="425.9" x2="834.3" y2="453.2"/>
				<line class="st6" x1="874.4" y1="424.3" x2="874.4" y2="451.6"/>
			</g>
		</g>
	</g>
	<g id="Warstwa_4">
		<g>
			<g>
				<path d="M934.4,161.6c-26.9-18.1-25.5-29.4-68.3-29.4c-42.8,0-38.4,11.8-65.3,29.9L934.4,161.6z"/>
				<ellipse class="st7" cx="868" cy="163.1" rx="68.1" ry="8.3"/>
			</g>
			<path class="st1" d="M882.3,154.8c-4.7,0-9.5-0.1-14.4-0.1c-5.2,0-10.3,0-15.3,0.1c0.4,7.8,6.9,14.1,14.8,14.1
				C875.5,168.9,881.9,162.6,882.3,154.8z"/>
			<g>
				<rect x="865.6" y="1" class="st8" width="1.1" height="131.2"/>
			</g>
		</g>
	</g>
	<g>
		<path class="st9" d="M392,589.1c0,0-112.1-17.5-113.5-17.7c-1.5-0.2-7.3,1.7-7.3,1.7l-0.5,4.3l6,3.3c0,0,81.3,14.1,85.2,15.6
			c3.9,1.5,10.3,6.9,8.6,22.4s-4.9,57.2-5.9,63.6s-3.4,10.3-9.9,11.4c-6.4,1.1-79.5,3.6-83.9,4.4s-8.5,3.2-8.5,3.2l-0.3,2.8
			c0,0,3.3,1.9,6.3,2c3,0.1,88.5,0.2,110.4,0.4c22,0.1,86.1,5.5,90.1,5.7c4,0.2,7.1-4.7,2.2-8.4c-1.6-1.2-20-10.9-22.7-11.9
			s-6.5-0.7-9.8,2s-5.8,4.1-14,3.4c-8.3-0.7-30.9-1.9-34.4-2.3s-10-0.9-9.2-17.2s5.8-74.1,5.8-74.1l7-6.3
			C393.9,597.4,395.2,589.6,392,589.1z"/>
		<polygon class="st9" points="371.6,590.4 339.8,611.3 360.6,620.8 370.6,612 		"/>
		<path class="st9" d="M358.7,676.4c-0.6,2.3-13.4,10.3-13.4,10.3l-4.7,31.4l14.9-13.4L358.7,676.4z"/>
		<line class="st10" x1="366.7" y1="605.7" x2="358.4" y2="611.2"/>
		<path class="st11" d="M478.9,707.3c-9-5.1-21-12.6-26.3-15.6c-5.2-3-16.9-3.1-19.6,5.9s-3.2,12.9-6.6,17.6
			c-3.4,4.7-5.9,8.4-5.9,8.4s-4.8-1.9-7.4,4c-2.6,5.9-1,8.6-1,8.6s51.2,29.6,52.9,30.6c1.6,1.1,3.6,1.6,8.1-7.2
			c4.5-8.8,10.5-25.7,12-31.2C486.5,723,486.4,711.6,478.9,707.3z"/>
		<path class="st10" d="M358.4,611.2c0,0-129.3-20.2-131-20.4s-8.4,1.9-8.4,1.9l-0.6,4.9l6.9,3.8c0,0,93.9,16.2,98.3,17.9
			c4.5,1.7,11.9,8,9.9,25.8s-5.7,66-6.8,73.4c-1.1,7.4-4,11.9-11.4,13.2c-7.4,1.3-91.8,4.2-96.8,5.1c-5.1,0.9-9.8,3.7-9.8,3.7
			l-0.4,3.3c0,0,3.8,2.2,7.3,2.3c3.5,0.1,102.1,0.3,127.4,0.4s99.3,6.3,104,6.5c4.6,0.2,8.2-5.4,2.5-9.7
			c-1.9-1.4-23.1-12.5-26.2-13.8c-3.1-1.2-7.5-0.8-11.3,2.3c-3.9,3.2-6.7,4.7-16.2,3.9c-9.5-0.8-35.6-2.2-39.7-2.6
			s-11.6-1-10.6-19.9c1-18.9,6.7-85.5,6.7-85.5l8.1-7.2C360.6,620.8,362.2,611.8,358.4,611.2z"/>
		<path class="st11" d="M400.2,634.6c-2,14.2-4.5,29.9-9.9,41.7c-5.4,11.8-12.9,21.2-19.6,29.5c-6.8,8.3-8.3,8.7-12.2,10.4
			c-4,1.7-8.8,0.8-8.2-7.8c0.7-8.7,8-42.8,10.4-61.8s1.7-31.2,4.4-42c2.7-10.9,6.3-25.2,13-27.5c6.7-2.3,18,0.8,22.1,8.2
			S401.1,627.8,400.2,634.6z"/>
		<path class="st12" d="M459.6,736.8c0,0-14.6-7.7-22.8-10.4c-8.2-2.7-13.4-2.9-13.4-2.9"/>
		<path class="st12" d="M376.7,591c-1.1,10.2,1.1,13.9,0.2,29.7c-0.9,15.9-4.9,59.3-9.5,75.3c-4.5,16.1-8.9,18.9-8.9,18.9"/>
		<path class="st13" d="M418.5,731c0,0,29,13.8,31.4,16.5c2.4,2.7,0.7,4.7,0.7,4.7"/>
		<path class="st10" d="M355,613c0,0,2.3,1.5,2.4,4.5c0.1,3.5-0.2,6.4-0.2,6.4"/>
		
			<ellipse transform="matrix(0.1145 -0.9934 0.9934 0.1145 -362.5713 1071.5978)" class="st5" cx="419.8" cy="739.2" rx="2.3" ry="2.2"/>
		
			<ellipse transform="matrix(0.1145 -0.9934 0.9934 0.1145 -354.2725 1095.934)" class="st5" cx="437.6" cy="746.7" rx="2.3" ry="2.2"/>
	</g>
	<g>
		<g>
			<path class="st14" d="M254.6,754.2c0,0,1.8-5,1.7-6.5c-0.1-1.4-0.4-3.9-0.4-3.9s4.3-12.8,15.5-13.3c7.3-0.4,12.1-1.3,14.8-1.9
				c1.5-0.4,3.1,0.3,3.9,1.7l5.3,9.1"/>
			<path class="st14" d="M291.1,734.7c0,0,5.9,5.1,8.5,12s2.9,13.3,2.9,13.3s-40.9,9.7-49.2,11.5s-39.2,2.2-39.2,2.2s-1.1-6,0.8-8.4
				c1.9-2.4,23-8.4,32.9-11.9c9.9-3.5,11.8-10.3,11.8-10.3"/>
		</g>
		<g>
			<path class="st15" d="M213.7,769.7c3.3-3.3,16.5-5.8,28.2-6.8c11.6-1,37.7-6.8,37.7-6.8s10.7-4,14.2-5c4.9-1.4,6.9,2.6,6.9,2.6
				l1.8,4.8l-14.7,7l-5.5,0.6l-0.7-2.8l-4.1,11.1l-2.3-5l-0.1,0.3c0,0-21.6,9.2-29.8,10.2c-8.2,1-18.2,0.5-23.3-1.3
				C216.6,776.8,210.4,773.1,213.7,769.7z"/>
		</g>
		<path class="st3" d="M280.1,758.4c0,0-26,5.7-37.7,6.8c-11.6,1-24.9,3.5-28.2,6.8c-3.3,3.3,2.8,7,8,8.8s15.1,2.3,23.3,1.3
			c8.2-1,29.8-10.2,29.8-10.2L280.1,758.4z"/>
		<g>
			<path class="st10" d="M302.9,760.8l-1.8-4.8c0,0-2-4-6.9-2.6c-3.6,1-14.2,5-14.2,5l2.6,10l5.5-0.6"/>
			<path class="st3" d="M282.7,763.4l-5,13.3c0,0,12.3-2.7,16.8-4.4c4.5-1.7,7.7-7.5,8.4-9.8c0.6-2.3-1.6-5-5.9-4.5
				C292.7,758.6,282.7,763.4,282.7,763.4z"/>
			<polygon class="st10" points="280.1,758.4 282.7,763.4 277.8,776.7 275.4,771.5 			"/>
		</g>
		<path class="st16" d="M265.9,738.8c0,0-2.8,4.3-4.1,6.4c-1.4,2.1-4.2,3.9-4.2,3.9"/>
		<path class="st10" d="M237.1,769c-3.2,1.2-9.2,2.8-11.9,3.2s-4.3,4.4,1.6,5.5c5.9,1.1,11.5,1.4,15.8-1.1c4.3-2.5,13.4-5.5,8.1-6.5
			S237.1,769,237.1,769z"/>
		<path class="st17" d="M237.1,769c-3.2,1.2-9.2,2.8-11.9,3.2c-0.9,0.1-1.7,0.7-2.1,1.3c0.5,0.8,1.6,1.5,3.7,1.9
			c5.9,1.1,11.5,1.4,15.8-1.1c2.4-1.4,6.3-3,8.3-4.2c-0.1,0-0.1,0-0.2-0.1C245.4,769.1,237.1,769,237.1,769z"/>
	</g>
</g>
<g id="Layer_2">
	<g>
		<polygon class="st10" points="1419.9,450 1419.9,402 1284.3,384 1284.3,406.2 		"/>
		<polygon class="st5" points="1419.9,231 1419.9,402 1355.4,415.5 1355.4,223.5 		"/>
		<polygon class="st9" points="1249.9,240 1355.4,223.5 1355.4,415.5 1249.9,384 		"/>
		<line class="st18" x1="1299" y1="232.8" x2="1299" y2="397.5"/>
		<ellipse cx="1289.8" cy="373" rx="3.3" ry="6.8"/>
		<ellipse cx="1308.3" cy="376.3" rx="3.6" ry="7.5"/>
		<circle class="st2" cx="1287.4" cy="368.8" r="4.1"/>
		<circle class="st2" cx="1307.2" cy="371.3" r="4.1"/>
	</g>
	<g>
		<path d="M1321.8,363.1l-10.6-1.6c-1.3-0.3-2.3-1.5-2.3-2.7v-17.5c0-1.2,1-2.3,2.3-2.3l10.9-4.4c1.7-0.1,2.9,5.4,2.9,6.9v19.7
			C1324.9,362.6,1323.5,363.5,1321.8,363.1z"/>
		<path class="st9" d="M1318.9,358.2l-9.2-1.7c-1.3-0.3-2.3-1.5-2.3-2.7v-17.5c0-1.2,1-2.3,2.3-2.3l10.6,0c1.7-0.1,3.1,1,3.1,2.5
			v20.7C1323.5,358.7,1320.6,358.5,1318.9,358.2z"/>
		<path class="st10" d="M1318.4,358.1l-10.6-1.6c-1.3-0.3-2.3-1.5-2.3-2.7v-17.5c0-1.2,1-2.3,2.3-2.3l10.6,0c1.7-0.1,3.1,1,3.1,2.5
			v19.7C1321.5,357.6,1320,358.5,1318.4,358.1z"/>
		<polygon class="st11" points="1312,354.2 1312,355.7 1318.9,356.8 1318.9,355.1 		"/>
	</g>
</g>
</svg>
