<?xml version="1.0" encoding="utf-8"?>
<!-- Generator: Adobe Illustrator 28.0.0, SVG Export Plug-In . SVG Version: 6.00 Build 0)  -->
<svg version="1.1" id="Layer_1" xmlns="http://www.w3.org/2000/svg" xmlns:xlink="http://www.w3.org/1999/xlink" x="0px" y="0px"
	 viewBox="0 0 1600 900" style="enable-background:new 0 0 1600 900;" xml:space="preserve">
<style type="text/css">
	.st0{fill:#412F3D;}
	.st1{fill:#D4D1CC;}
	.st2{fill:#FFFFFF;}
	.st3{fill:#C6C1BA;}
	.st4{fill:#FFFBF0;}
	.st5{fill:none;stroke:#AAA0AB;stroke-width:0.9994;stroke-miterlimit:10;}
	.st6{fill:none;stroke:#BCB8B3;stroke-width:0.9994;stroke-miterlimit:10;}
	.st7{fill:none;stroke:#A59F98;stroke-width:0.9994;stroke-miterlimit:10;}
	.st8{fill:#C1C0BE;}
	.st9{fill:none;stroke:#584A5B;stroke-width:1.9989;stroke-miterlimit:10;}
	.st10{fill:#9C8F9E;}
</style>
<g>
	<rect id="BG_00000178179355788133500280000014586988869328080536_" x="0" class="st0" width="1600" height="900"/>
	<rect id="BG_00000028298552363086037740000017587048996709976479_" x="0" class="st1" width="1600" height="592.6"/>
	<polygon class="st1" points="995,80.9 615,80.9 0,0 1600,0 	"/>
	<rect x="661.7" y="80.9" class="st2" width="286.6" height="511.7"/>
	<polygon class="st3" points="1600,900 948.3,592.6 948.3,80.9 1600,1 	"/>
	<polygon class="st4" points="0,1 0,900 662.7,592.6 662.7,80.9 	"/>
	<polyline class="st5" points="0,821.1 661.7,553.4 948.3,553.4 1600,797.1 	"/>
	<g>
		<g>
			<line class="st6" x1="851.1" y1="513.5" x2="923.4" y2="513.5"/>
			<line class="st6" x1="833.4" y1="484.7" x2="929.8" y2="484.7"/>
			<line class="st6" x1="888" y1="457.4" x2="888" y2="484.7"/>
			<line class="st6" x1="868.7" y1="486.3" x2="868.7" y2="513.5"/>
			<line class="st6" x1="908.9" y1="484.7" x2="908.9" y2="511.9"/>
		</g>
	</g>
	<g>
		<g>
			<g>
				<line class="st6" x1="171.8" y1="141" x2="240.8" y2="144.7"/>
				<line class="st6" x1="153.4" y1="112.2" x2="246.5" y2="119.5"/>
				<line class="st6" x1="208.2" y1="91.6" x2="208.2" y2="116.5"/>
				<line class="st6" x1="189.5" y1="116.5" x2="189.5" y2="142"/>
				<line class="st6" x1="227.7" y1="118.1" x2="227.7" y2="142.5"/>
			</g>
		</g>
		<g>
			<g>
				<line class="st6" x1="135" y1="195.7" x2="208.8" y2="195.7"/>
				<line class="st6" x1="115.3" y1="166.8" x2="214.8" y2="169.4"/>
				<line class="st6" x1="174" y1="142.6" x2="174" y2="168.4"/>
				<line class="st6" x1="154" y1="169.4" x2="154" y2="195.7"/>
				<line class="st6" x1="194.8" y1="168.9" x2="194.8" y2="194.2"/>
			</g>
		</g>
	</g>
	<g>
		<g>
			<g>
				<line class="st7" x1="1334.5" y1="184" x2="1265.6" y2="187.7"/>
				<line class="st7" x1="1352.9" y1="155.2" x2="1259.9" y2="162.6"/>
				<line class="st7" x1="1316.8" y1="159.5" x2="1316.8" y2="185"/>
				<line class="st7" x1="1278.6" y1="161.1" x2="1278.6" y2="185.5"/>
			</g>
		</g>
		<g>
			<g>
				<line class="st7" x1="1391.1" y1="209.8" x2="1291.5" y2="212.4"/>
				<line class="st7" x1="1332.4" y1="185.6" x2="1332.4" y2="211.4"/>
				<line class="st7" x1="1352.4" y1="212.4" x2="1352.4" y2="238.7"/>
				<line class="st7" x1="1311.5" y1="211.9" x2="1311.5" y2="237.2"/>
			</g>
		</g>
	</g>
	<g>
		<g>
			<path d="M911.8,138.3c-26.9-18.1-65.5-29.4-108.3-29.4c-42.9,0-78.4,11.8-105.3,29.9L911.8,138.3z"/>
			<ellipse class="st8" cx="805.3" cy="139.8" rx="108.1" ry="8.3"/>
		</g>
		<path class="st2" d="M819.7,131.6c-4.7,0-9.5-0.1-14.4-0.1c-5.2,0-10.3,0-15.3,0.1c0.4,7.8,6.9,14.1,14.8,14.1
			C812.8,145.6,819.3,139.4,819.7,131.6z"/>
		<line class="st9" x1="803.5" y1="108.9" x2="803.5" y2="0"/>
	</g>
	<path class="st10" d="M1329.9,34.8l-124,15c0,0,0,10.1,0,21.5s10.2,12.3,15.1,4.2c4.9-8.1,12.2-14,22.7-10.5
		c10.4,3.4,13.5,45.4,26.6,45.8c13,0.4,5.5-30.8,20.3-38.3c14.8-7.4,20,3.5,31.5,0.8C1333.4,70.5,1329.9,34.8,1329.9,34.8z"/>
	<path class="st3" d="M613.8,338.9c-6.9,2.6-3.4,27.3-6.8,41.8s-9.6,30.1-8.7,41.9c0.8,11.8,8.7,19.4,15.5,23.8
		c6.8,4.4,2.8,14.1,8.7,20.6c5.9,6.5,14.2-13.3,14.2-25.1c0-11.8,2.1-35.1,4.7-49c2.5-13.9-8.2-25-17.2-30.4
		C615.2,356.8,623.7,335.1,613.8,338.9z"/>
	<g>
		<g>
			<path class="st2" d="M947.1,255.7c10.4-16.7,22.6-32.2,37.1-45.6c7.3-6.7,15-12.8,23.5-18c8.3-5.2,17.3-9.6,26.7-12.6l-0.6,0.5
				c2.5-5.6,5.3-10.9,8.3-16.1c3-5.2,6.2-10.4,9.6-15.4c6.8-10,14.3-19.6,22.6-28.3c8.3-8.7,17.7-16.7,28-23.1
				c10.3-6.4,21.8-11,33.8-12.8c0.4,0,0.6,0.1,0.7,0.5c0,0.4-0.1,0.6-0.5,0.7c-11.9,1.9-23,6.7-33.2,13.1
				c-10.2,6.3-19.2,14.3-27.6,23c-8.2,8.7-15.6,18.3-22.3,28.2c-6.7,9.9-12.7,20.4-17.8,31.2l0,0c-0.1,0.2-0.4,0.4-0.6,0.5
				c-9.2,3-18.2,7.1-26.4,12.2c-8.3,5.1-16.1,11.1-23.2,17.7c-7.3,6.5-13.9,13.8-20.1,21.3s-12,15.5-17.3,23.7
				c-0.1,0.2-0.5,0.4-0.7,0.1C947,256.3,947,255.9,947.1,255.7z"/>
		</g>
		<g>
			<path class="st2" d="M1146.1,192.9c-9.1-3-18-6.1-27.2-8.7s-18.4-5-27.8-6.4c-9.4-1.5-18.9-2.1-28.3-1.6
				c-9.4,0.5-18.9,2.3-27.7,5.6l0.1-1.7c15.1,8.5,29,18.9,41.5,30.9c6.2,5.9,12.1,12.3,17.5,19c5.4,6.7,10.5,13.7,15.2,20.9
				c0.1,0.2,0.1,0.6-0.1,0.8c-0.2,0.1-0.6,0.1-0.8-0.1c-4.7-7.1-9.9-14-15.4-20.6c-5.4-6.5-11.4-12.8-17.5-18.8
				c-12.5-11.9-26.3-22.1-41.3-30.4c-0.5-0.2-0.6-0.8-0.4-1.3c0.1-0.2,0.4-0.4,0.5-0.5c9.1-3.4,18.6-5.1,28.3-5.6
				c9.6-0.5,19.2,0.2,28.7,1.7c9.4,1.6,18.8,3.9,28,6.7c9.2,2.8,18.2,5.9,27.2,9.2c0.2,0.1,0.5,0.4,0.4,0.7
				C1146.7,192.8,1146.3,192.9,1146.1,192.9z"/>
		</g>
		<g>
			<path class="st2" d="M1035.6,181.1c-3.1,3-6.2,6.1-9,9.4c-2.8,3.3-5.4,6.8-8,10.3c-2.4,3.6-4.8,7.3-7,11s-4.2,7.6-6.2,11.5
				c-3.9,7.7-7.4,15.7-10.5,23.8c-1.6,4-3.1,8.1-4.7,12.2c-1.6,4.1-2.9,8.2-4.4,12.3c-0.1,0.4-0.5,0.5-0.7,0.4
				c-0.4-0.1-0.5-0.5-0.4-0.7c1.2-4.2,2.5-8.3,4-12.5c1.5-4.1,2.9-8.2,4.5-12.3c3.1-8.1,6.7-16.2,10.5-24.1
				c4-7.9,8.3-15.5,13.4-22.6c2.5-3.5,5.3-7,8.2-10.3c2.9-3.3,6.1-6.3,9.4-9.2c0.2-0.2,0.6-0.1,0.7,0
				C1035.8,180.5,1035.8,180.9,1035.6,181.1L1035.6,181.1z"/>
		</g>
		<g>
			<path class="st2" d="M1035.5,181.8c-0.5,3.8-0.8,7.5-1,11.3c-0.1,3.8-0.1,7.5,0,11.3c0.4,7.5,1.2,15,2.5,22.5
				c1.3,7.4,3.1,14.8,5.1,22.1c1,3.6,2.1,7.3,3.1,10.9c1.1,3.6,2.2,7.3,3.4,10.9c0.1,0.4-0.1,0.6-0.4,0.7c-0.4,0.1-0.6-0.1-0.7-0.4
				c-1.3-3.6-2.5-7.1-3.8-10.8c-1.2-3.6-2.3-7.3-3.4-10.9c-2.2-7.3-3.9-14.8-5.3-22.3c-1.3-7.5-2.2-15.1-2.4-22.7
				c-0.2-7.6,0.2-15.2,1.6-22.9c0-0.2,0.4-0.5,0.6-0.5C1035.2,181.1,1035.5,181.4,1035.5,181.8z"/>
		</g>
		<g>
			<path class="st2" d="M1015.6,91.2c-1,5.7-2.5,11-4,16.6c-1.5,5.4-3,10.9-4.6,16.3c-3.1,10.9-6.3,21.7-9.7,32.4
				c-3.3,10.8-6.8,21.5-10.3,32.3c-3.5,10.8-7.1,21.4-11.3,31.9l-0.6-1.1c10.4,1.9,19.1,10.2,21.8,20.4l-1.2-0.6
				c14-7,31.6-5.9,44.7,2.8l-1.3,0.4c1.2-2.4,2.9-4.5,5-6.2c2.1-1.7,4.4-3,6.7-4c4.7-2.1,9.8-3,14.9-3.6c10.2-1.1,20.6,0,30.3,3.3
				l-1.3,1c-0.2-5.2,0.5-10.5,2.1-15.6c1.7-5,4.2-9.7,7.4-13.8c6.4-8.3,15.2-14.6,25.2-18l-0.5,1.5c-9.9-13.2-16.7-28.4-20.6-44.3
				c-3.8-16-4.5-32.7-1.3-48.8l1.2,0.8c-7.5,3.5-15.4,6.1-23.4,8.1c-8,2.1-16.2,3.4-24.4,3.8c-8.2,0.4-16.6-0.2-24.6-2.5
				c-8-2.3-15.5-6.5-21.2-12.7c-0.2-0.2-0.2-0.6,0-0.8s0.6-0.2,0.8,0c5.6,5.9,12.8,9.9,20.7,12.2c7.7,2.3,16.1,2.8,24.2,2.3
				c8.1-0.4,16.2-1.8,24.1-3.9s15.7-4.6,23-8l0,0c0.4-0.2,0.8,0,1.1,0.4c0.1,0.1,0.1,0.4,0.1,0.5c-3.1,15.9-2.3,32.4,1.5,48
				c3.8,15.7,10.6,30.7,20.3,43.7c0.4,0.4,0.2,1-0.1,1.3c-0.1,0-0.1,0.1-0.2,0.1c-9.6,3.3-18.2,9.4-24.2,17.4c-3,4-5.4,8.5-7,13.3
				c-1.6,4.8-2.3,9.8-1.9,14.9c0,0.5-0.4,1-1,1c-0.1,0-0.2,0-0.4,0c-9.4-3.3-19.5-4.4-29.4-3.3c-5,0.6-9.9,1.6-14.4,3.5
				c-4.5,1.9-8.6,5-10.8,9.2c-0.2,0.5-0.7,0.6-1.2,0.4h-0.1c-12.5-8.3-29.4-9.4-42.8-2.7c-0.4,0.2-1,0-1.1-0.4c0,0,0-0.1-0.1-0.1
				c-2.4-9.6-10.8-17.4-20.5-19.2c-0.5-0.1-0.7-0.5-0.6-1v-0.1c4.1-10.5,7.7-21.2,11.3-31.8c3.5-10.8,7-21.4,10.3-32.2
				c3.4-10.8,6.7-21.5,9.8-32.4c1.6-5.4,3.1-10.9,4.6-16.3c1.5-5.4,3-10.9,4-16.3l0,0c0-0.2,0.4-0.5,0.6-0.5
				C1015.5,90.6,1015.6,91,1015.6,91.2z"/>
		</g>
		<g>
			<path class="st2" d="M1016.5,116c-0.7,4.2-1.9,8.2-3,12.2c-1.2,4-2.4,8-3.6,12c-2.5,8-5.1,16-7.7,23.8c-2.7,8-5.3,15.9-8.2,23.7
				c-2.8,7.9-5.7,15.7-8.7,23.6l-0.6-1.1c2.3,0.5,4.5,1.5,6.4,2.9c1.9,1.3,3.5,3,5,4.8c2.8,3.6,4.7,7.9,5.9,12.3l-1.3-0.5
				c2.7-1.9,5.6-3.5,8.6-4.6s6.4-1.7,9.7-1.7c3.3,0,6.5,0.6,9.7,1.6c3.1,1.1,6.1,2.5,8.7,4.4l-1.2,0.2c2.4-4.2,6.2-7.5,10.6-9.6
				c4.4-1.9,9.2-2.8,13.9-2.9c4.7-0.1,9.4,0.4,14,1.2c4.6,0.8,9.2,2.1,13.7,3.5l-1.3,1c-0.5-9.1,2.3-18,7.4-25.4
				c5.1-7.4,12.5-13.3,20.9-16.1l-0.5,1.5c-8.3-11.1-15.6-23.2-20.6-36.4c-2.4-6.5-4.4-13.3-5.2-20.3c-1-7-0.8-14,0.5-21.1l1.2,0.8
				c-3,1.5-5.9,3.1-8.8,4.8c-2.9,1.7-5.9,3.3-9,4.7c-6.1,3-12.3,5.7-18.9,7.6c-6.5,1.9-13.4,3-20.3,2.2c-3.4-0.4-6.8-1.3-9.9-2.9
				c-3.1-1.6-5.9-3.6-8.2-6.2c-0.2-0.2-0.2-0.6,0-0.8c0.2-0.2,0.6-0.2,0.8,0l0,0c2.3,2.4,5,4.4,8,5.9c2.9,1.5,6.2,2.3,9.4,2.8
				c6.7,0.7,13.3-0.4,19.7-2.3c6.4-1.9,12.6-4.6,18.6-7.6c3-1.6,5.9-3.1,9-4.7c2.9-1.6,5.8-3.4,9-4.8c0.4-0.2,0.8,0,1.1,0.4
				c0.1,0.1,0.1,0.4,0.1,0.5l0,0c-1.3,6.8-1.3,13.7-0.5,20.4c1,6.8,2.8,13.6,5.2,20c4.8,12.9,12.1,24.9,20.3,35.9
				c0.4,0.4,0.2,1-0.1,1.3c-0.1,0-0.1,0.1-0.2,0.1c-8.1,2.8-15.2,8.3-20,15.5c-4.8,7-7.5,15.7-7,24.2c0,0.5-0.4,1-1,1
				c-0.1,0-0.2,0-0.4,0c-4.4-1.5-8.8-2.7-13.3-3.5c-4.5-0.8-9.1-1.3-13.7-1.2c-4.6,0.1-9.1,0.8-13.2,2.8c-4.1,1.8-7.6,4.8-9.8,8.7
				c-0.2,0.5-0.8,0.6-1.2,0.4l0,0c-5.2-3.5-11.3-5.7-17.4-5.7c-3,0-6.2,0.6-9.1,1.6c-2.9,1.1-5.7,2.5-8.2,4.4
				c-0.4,0.2-0.8,0.2-1.2-0.2c-0.1-0.1-0.1-0.2-0.1-0.2c-1.1-4.2-3-8.3-5.7-11.7c-1.3-1.7-2.8-3.3-4.6-4.6c-1.7-1.2-3.6-2.2-5.8-2.7
				c-0.5-0.1-0.7-0.5-0.6-1v-0.1c6.1-15.5,11.6-31.3,16.9-47.1c2.7-7.9,5.3-15.9,7.9-23.8c1.2-4,2.5-8,3.8-12c1.2-4,2.4-8,3.1-12.1
				l0,0c0-0.2,0.4-0.5,0.6-0.5C1016.4,115.4,1016.5,115.7,1016.5,116z"/>
		</g>
		<g>
			<path class="st2" d="M1019.5,132.5c-0.5,3-1.2,5.9-2.1,8.8c-0.7,2.9-1.6,5.8-2.4,8.7c-1.7,5.8-3.4,11.5-5.2,17.2
				c-1.8,5.7-3.8,11.4-5.7,17.1c-1.9,5.7-4,11.3-6.2,16.9l-0.5-1.1c1.8,0.6,3.8,1.3,5.4,2.5c1.7,1.2,3,2.9,3.8,4.7
				c0.7,1.9,1,3.9,1.1,5.8c0.1,1.9,0,3.9-0.1,5.8l-1.3-0.7c2.1-1.6,4.4-2.8,6.8-3.8c2.4-1,5-1.5,7.6-1.6c2.7-0.1,5.2,0.4,7.7,1.2
				c2.4,0.8,4.8,2.1,6.9,3.4l-1.2,0.2c2.1-3.6,5.6-6.3,9.3-7.9c3.8-1.6,7.9-2.1,11.9-2.2c4-0.1,8,0.2,11.9,1
				c3.9,0.7,7.7,1.6,11.6,2.9l-1.2,1c-0.2-3.8,0.4-7.5,1.5-11c1.1-3.5,2.9-6.9,5-9.8c4.2-5.9,10.3-10.8,17.3-13.2l-0.5,1.5
				c-6.9-9.1-13.6-18.5-18.6-28.9c-2.5-5.2-4.6-10.6-5.9-16.2c-1.2-5.7-1.6-11.6-0.5-17.3l1.2,0.8c-2.3,1.2-4.5,2.8-6.8,4.2
				c-2.2,1.6-4.5,3-6.8,4.6c-4.5,3-9.2,5.8-14.2,8.1c-5,2.2-10.3,4-16,4c-2.8,0-5.6-0.5-8.1-1.7c-2.5-1.1-4.8-2.8-6.8-4.8
				c-0.2-0.2-0.2-0.6,0-0.8c0.2-0.2,0.6-0.2,0.8,0l0,0c1.8,1.9,4,3.5,6.4,4.5c2.4,1.1,5.1,1.5,7.6,1.5c5.3,0,10.4-1.8,15.2-4
				c4.8-2.3,9.4-5.1,13.9-8.1c2.3-1.5,4.5-3,6.7-4.6c2.3-1.6,4.5-3.1,6.9-4.5c0.4-0.2,0.8,0,1.1,0.4c0.1,0.1,0.1,0.4,0.1,0.5l0,0
				c-1.1,5.4-0.7,11.1,0.5,16.7c1.2,5.4,3.3,10.8,5.8,15.9c5,10.2,11.6,19.5,18.5,28.6c0.4,0.4,0.2,1-0.1,1.3
				c-0.1,0-0.1,0.1-0.2,0.1c-6.7,2.3-12.3,6.9-16.3,12.6c-4,5.7-6.4,12.7-6.1,19.6c0,0.5-0.4,1-1,1c-0.1,0-0.2,0-0.4,0
				c-3.6-1.2-7.5-2.2-11.3-2.8c-3.9-0.6-7.7-1.1-11.6-1c-3.9,0.1-7.7,0.6-11.3,2.1c-3.5,1.3-6.5,3.8-8.5,7c-0.2,0.4-0.7,0.6-1.2,0.4
				l0,0c-4-2.7-8.8-4.5-13.7-4.4c-2.4,0-4.8,0.5-7,1.5c-2.3,0.8-4.4,2.1-6.4,3.5l0,0c-0.4,0.2-0.8,0.2-1.2-0.2
				c-0.1-0.1-0.1-0.4-0.1-0.5c0.1-1.9,0.1-3.8,0.1-5.6c-0.1-1.8-0.4-3.6-1-5.3c-0.6-1.7-1.7-3-3.1-4.1c-1.5-1.1-3.1-1.7-4.8-2.3l0,0
				c-0.4-0.1-0.6-0.6-0.5-1l0,0c2.2-5.6,4.2-11.1,6.2-16.8c1.9-5.7,3.9-11.4,5.8-17.1c1.8-5.7,3.6-11.4,5.4-17.2
				c0.8-2.9,1.7-5.7,2.5-8.6c0.7-2.9,1.6-5.8,2.1-8.7l0,0c0-0.2,0.4-0.5,0.6-0.5C1019.3,131.9,1019.5,132.3,1019.5,132.5z"/>
		</g>
		<g>
			<path class="st2" d="M1023.5,147.4c-1,7.4-2.2,14.6-3.8,21.9s-3.4,14.4-6.1,21.4l-0.5-1.1c1.3,0.4,2.8,1,4,1.9
				c1.2,1.1,1.9,2.8,1.8,4.2c0,1.6-0.5,2.9-0.8,4.2c-0.5,1.3-1.1,2.7-1.6,3.9l-1.2-1c1.3-1,2.9-1.8,4.5-2.4s3.4-0.8,5.1-0.6
				c1.7,0.1,3.4,0.6,5,1.3c1.6,0.7,3,1.6,4.4,2.4l-1.2,0.2c0.7-1.3,1.8-2.5,3.1-3.4c1.2-0.8,2.7-1.5,4.1-1.9c2.9-0.8,5.9-1,8.8-0.8
				c2.9,0.1,5.8,0.6,8.6,1.2c2.8,0.6,5.6,1.3,8.3,2.3l-1.2,1c-0.1-3,0.5-5.8,1.5-8.6c1-2.7,2.3-5.2,3.9-7.6c1.6-2.3,3.5-4.6,5.6-6.4
				c2.2-1.9,4.6-3.6,7.4-4.6l-0.5,1.5c-4.8-6.3-10-12.3-14.4-19.1c-2.2-3.4-4.1-6.9-5.6-10.8c-1.3-3.9-2.1-8.1-1.2-12.2l1.2,0.8
				c-1.6,0.7-3,1.9-4.5,3l-4.5,3.4c-3,2.3-6.2,4.5-9.6,6.3c-3.4,1.8-6.9,3.4-10.9,3.8c-1.9,0.1-4,0-5.8-0.7s-3.5-1.9-4.8-3.3
				c-0.2-0.2-0.2-0.6,0-0.8c0.2-0.2,0.6-0.2,0.8,0l0,0c1.2,1.3,2.8,2.3,4.4,2.9c1.7,0.6,3.5,0.7,5.3,0.6c3.6-0.4,7-1.9,10.3-3.8
				c3.3-1.8,6.3-4,9.3-6.2l4.5-3.4c1.6-1.1,3-2.3,4.8-3.3c0.4-0.2,0.8,0,1.1,0.4c0.1,0.1,0.1,0.4,0.1,0.5l0,0
				c-0.7,3.8-0.1,7.6,1.2,11.3c1.3,3.6,3.3,7.1,5.3,10.4c4.4,6.7,9.6,12.6,14.5,18.9c0.4,0.4,0.2,1-0.1,1.3c-0.1,0-0.1,0.1-0.2,0.1
				l0,0c-2.4,0.8-4.7,2.4-6.7,4.2c-1.9,1.8-3.8,3.9-5.2,6.2c-1.5,2.3-2.8,4.7-3.6,7.1c-1,2.5-1.5,5.2-1.5,7.7l0,0c0,0.5-0.4,1-1,1
				c-0.1,0-0.2,0-0.4,0c-2.7-1-5.4-1.7-8.1-2.3c-2.8-0.6-5.6-1-8.3-1.2c-2.8-0.1-5.6,0-8.2,0.7c-2.5,0.7-5,2.2-6.3,4.5
				c-0.2,0.4-0.7,0.6-1.2,0.4l0,0l0,0c-2.7-1.7-5.4-3.3-8.5-3.5c-1.5-0.1-3,0-4.5,0.6c-1.5,0.5-2.8,1.2-4,2.2
				c-0.4,0.2-0.8,0.2-1.2-0.2c-0.1-0.2-0.2-0.6-0.1-0.8c0.6-1.2,1.1-2.4,1.6-3.8c0.5-1.2,0.8-2.5,0.8-3.8c0.1-1.2-0.4-2.3-1.2-3
				c-0.8-0.7-2.1-1.2-3.4-1.7l0,0c-0.4-0.1-0.6-0.6-0.5-1l0,0c1.3-3.4,2.4-6.9,3.4-10.4c1-3.5,1.9-7.1,2.7-10.6
				c1.6-7.1,2.9-14.4,4-21.7c0-0.2,0.4-0.5,0.6-0.5C1023.4,146.8,1023.6,147.1,1023.5,147.4z"/>
		</g>
		<g>
			<path class="st2" d="M1026.8,157.4c-0.7,4.8-1.6,9.7-2.4,14.5c-0.5,2.4-0.8,4.8-1.3,7.3s-1,4.7-1.8,7.3l-0.5-1.1
				c1,0.4,1.9,0.6,2.9,1.6c0.5,0.5,0.7,1.1,0.8,1.7c0.1,0.6,0.1,1.2,0,1.7c-0.1,1.1-0.5,2.1-0.8,2.9c-0.4,1-0.7,1.8-1.2,2.7
				l-1.2-1.1c1-0.7,1.9-1.3,3-1.7c1.1-0.5,2.3-0.6,3.5-0.5s2.4,0.5,3.4,1c1.1,0.5,2.1,1.1,2.9,1.7l-1.3,0.2c1.2-2.2,3.3-3.9,5.4-4.7
				c2.3-1,4.7-1.1,7.1-0.8c4.7,0.5,9.1,2.7,12.9,5.2l-1.5,0.8c-0.1-2.5,0.7-4.7,1.7-6.9c1-2.1,2.2-4.1,3.5-5.9
				c1.3-1.8,2.9-3.5,4.6-5.1c1.7-1.6,3.5-3,5.9-3.9l-0.5,1.5c-1.8-2.3-3.8-4.6-5.7-6.9c-1.9-2.3-3.9-4.6-5.7-7s-3.5-5-4.8-7.9
				c-1.2-2.8-2.1-6.1-1.5-9.3l1.6,0.5c-0.4,0.8-0.8,1.5-1.3,2.1s-1,1.2-1.5,1.7c-1,1.1-2.1,2.1-3.1,3.1c-2.2,1.9-4.6,3.8-7.1,5.2
				c-2.5,1.5-5.3,2.8-8.3,3.3c-1.5,0.2-3,0.2-4.6-0.1c-1.6-0.4-2.9-1.3-4-2.4c-0.2-0.2-0.2-0.6,0-0.8c0.2-0.2,0.6-0.2,0.8,0
				c1,1,2.1,1.7,3.4,2.1c1.3,0.4,2.7,0.4,4,0.1c2.8-0.5,5.3-1.7,7.7-3.3c2.4-1.5,4.7-3.3,6.8-5.2c1.1-1,2.1-1.9,3-3
				c0.5-0.5,1-1.1,1.3-1.6c0.4-0.5,0.8-1.1,1.1-1.7c0.2-0.5,0.7-0.6,1.1-0.5s0.6,0.6,0.5,1c-0.5,2.8,0.2,5.6,1.5,8.2
				c1.2,2.7,2.9,5.1,4.6,7.5c1.8,2.4,3.8,4.7,5.7,6.9c1.9,2.3,4,4.5,5.8,7c0.4,0.4,0.2,1-0.1,1.3c-0.1,0-0.1,0.1-0.2,0.1l0,0
				c-1.8,0.7-3.6,1.9-5.2,3.4c-1.6,1.5-3,3.1-4.2,4.8c-1.2,1.7-2.4,3.6-3.3,5.6s-1.6,4-1.5,5.9l0,0c0,0.5-0.4,1-1,1
				c-0.2,0-0.4,0-0.6-0.1c-3.6-2.5-7.7-4.5-12-5c-2.2-0.2-4.4,0-6.3,0.7s-3.5,2.2-4.6,4c-0.2,0.5-0.8,0.6-1.2,0.4l0,0
				c-1.8-1.2-3.6-2.3-5.4-2.4c-1.9-0.2-3.8,0.6-5.4,1.8c-0.4,0.2-0.8,0.2-1.2-0.1c-0.2-0.2-0.2-0.6-0.1-0.8c0.4-0.8,0.8-1.7,1.2-2.5
				c0.4-0.8,0.7-1.7,0.8-2.5c0.1-0.4,0.1-0.8,0-1.1c-0.1-0.4-0.2-0.6-0.5-0.8c-0.5-0.5-1.3-0.8-2.2-1.1c-0.4-0.1-0.6-0.6-0.5-1l0,0
				l0,0c0.7-2.2,1.2-4.6,1.8-7c0.5-2.4,1-4.7,1.5-7.1c1-4.8,1.8-9.6,2.7-14.4l0,0c0-0.2,0.4-0.5,0.6-0.5
				C1026.6,156.8,1026.9,157.2,1026.8,157.4z"/>
		</g>
		<g>
			<path class="st2" d="M1029.4,164.9l-1.2,9.4l-0.7,4.7c-0.2,1.6-0.5,3.1-1,4.8l-1-1.1c0.6-0.1,1.2-0.4,1.9-0.5
				c0.4,0,0.7-0.1,1.1-0.1s0.8,0,1.3,0.4c0.5,0.4,0.7,1.1,0.6,1.5c0,0.5-0.1,0.7-0.2,1.1c-0.2,0.6-0.5,1.2-0.7,1.8l-1.2-1
				c0.6-0.4,1.2-0.7,1.9-1c0.7-0.2,1.7-0.2,2.4,0.2c0.7,0.4,1.3,1.1,1.6,1.8c0.4,0.7,0.5,1.5,0.5,2.2l-1.6-0.5
				c0.7-1.1,1.5-2.3,2.5-3.1c1.1-1,2.5-1.5,4-1.5c1.5,0,2.8,0.5,4,1c1.2,0.6,2.3,1.3,3.4,2.1l-1.5,0.6c0.5-2.1,1.3-4,2.7-5.6
				c1.3-1.7,2.9-2.9,4.7-4c1.8-1,3.6-1.8,5.6-2.4c1.9-0.6,3.9-1.1,5.6-1.6l0.1,1.8c-2.4-0.6-4.8-1.6-7-2.9c-2.2-1.5-4-3.3-5.3-5.3
				c-1.5-2.1-2.4-4.5-3-6.9c-0.6-2.4-0.8-5.1-0.4-7.6l1.6,0.5c-0.4,0.6-0.6,1.1-1,1.6c-0.4,0.5-0.7,0.8-1.1,1.3
				c-0.7,0.8-1.5,1.6-2.3,2.4c-1.6,1.6-3.1,2.9-5,4.2s-3.6,2.4-5.8,3.1c-1.1,0.4-2.2,0.6-3.4,0.5c-1.2-0.1-2.4-0.7-3.1-1.6l0,0
				c-0.2-0.2-0.2-0.6,0-0.8c0.2-0.2,0.6-0.2,0.8,0c1.3,1.5,3.4,1.3,5.3,0.7c1.9-0.7,3.8-1.8,5.3-3c1.7-1.2,3.3-2.7,4.7-4.2
				c0.7-0.7,1.5-1.6,2.2-2.3c0.4-0.4,0.6-0.8,1-1.2c0.2-0.4,0.6-0.8,0.7-1.2c0.2-0.5,0.7-0.6,1.1-0.4c0.4,0.1,0.6,0.6,0.5,1l0,0
				c-0.4,2.2-0.1,4.6,0.4,6.8c0.6,2.3,1.6,4.4,2.9,6.3c1.3,1.9,2.9,3.6,4.8,4.8c1.9,1.3,4.1,2.2,6.3,2.7l0,0
				c0.5,0.1,0.8,0.6,0.7,1.1c-0.1,0.4-0.4,0.6-0.6,0.7c-1.9,0.6-3.8,1.1-5.6,1.7c-1.8,0.6-3.5,1.3-5.2,2.2c-1.6,1-3,2.1-4.1,3.5
				c-1.1,1.5-1.9,3-2.3,4.8l0,0c-0.1,0.5-0.6,0.8-1.1,0.7c-0.1,0-0.2-0.1-0.4-0.1c-1-0.7-2.1-1.3-3.1-1.8c-1.1-0.5-2.2-0.8-3.3-0.8
				c-1.1,0-2.1,0.4-2.9,1.1s-1.6,1.7-2.2,2.7l0,0c-0.2,0.4-0.7,0.6-1.2,0.2c-0.2-0.1-0.5-0.5-0.4-0.7c0-1-0.4-2.1-1.1-2.4
				c-0.4-0.2-0.7-0.2-1.2-0.1c-0.5,0.1-1,0.4-1.3,0.7l0,0c-0.4,0.2-0.8,0.1-1.1-0.2c-0.1-0.2-0.2-0.6-0.1-0.8
				c0.2-0.5,0.5-1.1,0.7-1.6c0.1-0.2,0.1-0.5,0.1-0.7c0-0.2,0-0.1,0-0.1s-0.1-0.1-0.5-0.1c-0.2,0-0.5,0-0.8,0.1
				c-0.6,0.1-1.2,0.2-1.7,0.4c-0.4,0.1-0.8-0.1-1-0.6c0-0.1,0-0.2,0-0.5l0,0c0.5-1.3,0.7-3,1-4.5l0.7-4.7l1.5-9.4
				c0-0.2,0.4-0.5,0.6-0.5C1029.3,164.3,1029.5,164.6,1029.4,164.9z"/>
		</g>
		<g>
			<path class="st2" d="M1034.1,180.4c-3.4-8.6-6.8-17.2-9.8-25.9c-3-8.7-5.6-17.7-7.5-26.7c-1.8-9.1-3-18.3-3-27.6
				c0-4.6,0.2-9.3,0.8-13.9s1.6-9.2,2.9-13.6c0.1-0.4,0.5-0.5,0.7-0.4c0.4,0.1,0.5,0.4,0.4,0.7c-1.2,4.5-2.1,9-2.5,13.4
				c-0.5,4.5-0.7,9.1-0.7,13.7c0.1,9.2,1.2,18.3,3,27.2c1.8,9,4.4,17.8,7.3,26.5c2.9,8.7,6.1,17.4,9.2,26c0.1,0.2,0,0.6-0.4,0.7
				C1034.5,180.8,1034.3,180.7,1034.1,180.4z"/>
		</g>
	</g>
</g>
</svg>
