<?xml version="1.0" encoding="utf-8"?>
<!-- Generator: Adobe Illustrator 22.1.0, SVG Export Plug-In . SVG Version: 6.00 Build 0)  -->
<svg version="1.1" id="Warstwa_1" xmlns="http://www.w3.org/2000/svg" xmlns:xlink="http://www.w3.org/1999/xlink" x="0px" y="0px"
	 width="1600px" height="900px" viewBox="0 0 1600 900" style="enable-background:new 0 0 1600 900;" xml:space="preserve">
<style type="text/css">
	.st0{fill:#FFFFFF;}
	.st1{fill:#D4D1CC;}
	.st2{fill:#FFFBF0;}
	.st3{fill:#EDEDED;}
</style>
<g id="BG">
	<rect class="st0" width="1600" height="900"/>
	<rect x="1456.1" class="st1" width="143.9" height="900"/>
	<rect class="st2" width="138.9" height="900"/>
	<g>
		<path class="st3" d="M1306.2,258.2c0.5-1.6-0.2-1.9,0-3.2c0.3-2,2.8-2.1,0.4-6.1c-1.4-2.5-1.4-4.3,1.7-5c3.9-1,11.1,5.5,7.5,10.8
			c-2.4,3.8-6.2,8.2-10.6,8.6C1302,263.6,1305.6,259.8,1306.2,258.2z M1197.2,274.4c3-2.7,4.5-5.4,5.3-7.5
			C1204.8,260.9,1199.8,259.5,1197.2,274.4z M1276.1,250.8c-1.8,3.5,0.2,5.3,4.4,9.7c7.6,8,13.9-1.8,13.3-7.2
			C1293.3,247.4,1281.5,240.5,1276.1,250.8z M1196.7,267c1-5.5-4.5-5.6-4.5,4.9c0.6,0.4,1.2,0.9,1.6,1.3
			C1195.5,271,1196.3,268.8,1196.7,267z M1290.5,198.6c-8-6.9-6,1.3-6.9,9.4c-0.2,1.5-0.6,2.7-0.8,4.3c-0.7,4.8,2.7,9.2,6.3,11.8
			c4.2,2.9,4.3,0,5.8-3.5c1.9-4.6,5.4-12.7,1.3-17.1C1294.1,201.4,1292.7,200.5,1290.5,198.6z M1303.4,233.4
			c-0.1,3,10.7,10.3,13.1,9.7c1.1-0.3,12-9.2,12.5-11.4c0.5-1.7-1.7-2.1-2.5-2.5c-1.3-0.5-2.2-1.4-3.4-2.1c-4-2.6-3.7-1.4-7-1.1
			c-3.5,0.3-6.9,4.4-9.9,5.5C1305.6,231.7,1303.5,231.7,1303.4,233.4z M1291.5,265.3c1.7,4.2,8.9-1.2,10.7-4.5
			c1.1-1.9,4.6-8,1.4-9.8c-1.4-0.8-3.4,1.2-4.5,2.1c-2.4,1.9-1.9,2.5-3.1,4.8C1293.6,262.9,1290.5,263,1291.5,265.3z M1309.1,208.4
			c-3.8,0.6-6.9,1.4-9.2,5.5c-1.7,3.3-1.8,4.1-2.6,7.2c-0.6,2.5-1.8,4.8,0.1,7.1c1.8,2.3,4.7,2.5,6.5,1.3s4.8-3.2,5.9-5.3
			C1310.1,223.8,1315.7,207.3,1309.1,208.4z M1233.6,188.3c-2.8-1.8-8.5-2.6-11.7-1.8c-8.9,2.4-15.3,16.9-8.5,17.6
			c4.4,0.5,11.6-6.2,14.7-9.3c1-1,2-1.7,3.1-2.3c0.7-0.4,1.5-0.2,2.3-0.6C1235,191,1234.8,189,1233.6,188.3z M1270.3,237.8
			c-0.9-2.4-2.8-3.3-4.3-0.8c-2.1,3.6-1.8,9.4-2.2,13.3c-0.6,5.6,3.2,5.7,5.7,7.5c1.4,0.9,1.6,1.7,2.7,0.5c1.7-1.9-1.7-5.7-2.1-9.5
			c0-2.6,0.7-5.6,0.7-8.2C1270.7,239.4,1270.6,238.6,1270.3,237.8z M1252.8,246.4c-1.6,1-1.4,1.2-1.5,2.8c-0.7,6.2-8.6,3.2-1.2,11
			c2.6,2.8,17.6,8.2,17.5,1.7c0-2-3.2-4.5-4.5-5.9C1260.5,253.4,1261.4,241.4,1252.8,246.4z M1232.6,208.3c-1.4,0-2.8-0.1-4.3,1.6
			c-2.6,2.9-2.1,6.1,0.1,9.1c2.5,3.3,5.8,4.8,7.9,0.6C1238,216.1,1238.5,208.2,1232.6,208.3z M1234.3,194.3c-2.9-0.1-5.5,1.5-7,4.3
			c-0.9,1.7-1.4,4.3,0.1,5.8c0.7,0.8,1.5,1.4,2.5,1.6c2.8,0.6,5.3-0.3,7.3-2.5C1241.3,199.3,1238.3,194.4,1234.3,194.3z
			 M1213.3,287.4c1,0.6,1.8,1.3,2.8,1.9c7.4-4.2,13.3-6.1,18.3-9.9c4.1-3.1,10.3-11.4,10.4-17.1c0.1-2.4,0.1-4.8-0.6-7.1
			c-2.1-7.6-8.1-12.1-14.5-10.9c-1.8,0.3-3.8,1.2-5.6,2.5c-3.7,2.7-5.9,8.4-4.3,13.1c1.7,5.5,9.2,9.5,14,4.3c2.2-2.5,3.2-6.1,1.7-9
			c-0.8-1.4-1.5-2.7-2.8-3.4c-2.1-1.4-3.9-1.3-5.8,0.4c-1.9,1.6-3,4-2.3,6.7c0.9,3.6,4.2,2.9,5.6,0.6c0.8-1.2,0.7-2.7,0.1-3.8
			c1-0.4,1.9-0.2,2.6,0.5c2.2,2.6-1,8.2-5.7,7.4c-5.4-1-6.8-8.4-3.3-12.6c0.9-1.1,1.9-2.1,3.1-2.8c1.4-0.6,2.6-1,3.8-1.1
			c6.3-0.5,10.4,5.4,10.7,13.1C1242,275.9,1224.4,281.1,1213.3,287.4z M1241.9,208.1c1.1-1.2,0.9-2.9-0.9-3.2c-1-0.2-1.9,0.5-2,1.5
			C1238.9,208.1,1240.9,209.3,1241.9,208.1z M1326.8,196.3c0.7-0.8,0.6-1.9-0.1-2.7s-1.7-0.6-2.4,0.1c-0.7,0.8-0.6,1.9,0.1,2.7
			C1325.2,197.2,1326.3,197.2,1326.8,196.3z M1139.2,195c0.5,0.3,1,0.8,1.4,1.1c3.2,3,10.4,9.5,14.9,9c6.8-1,0-15.2-8.9-17.4
			c-2.4-0.5-6.2-0.1-9.1,0.9C1138,190.8,1138.6,192.9,1139.2,195z M1315.6,206.1c-0.2,10.4,15.5,10.1,21.4,7.9
			c5.5-2.9,10.8-3,3.3-8.2c-5.3-3.6-12-8.5-18.4-5.5C1320.2,201.2,1315.7,203.1,1315.6,206.1z M1263.8,212.1
			c0.3,1.9,0.2,2.8,1.4,4.7c1.2,1.8,2.6,3.1,3.9,4.9c0.8,1.1,4.2,10,5.9,6.4c1.5-3.3,1.6-7.8,2.3-9.9c0.9-2.8,1.7-7.1,1.8-9.9
			c0-3.3-1.9-5.9-1.7-9.8C1277.8,181.9,1262,201.6,1263.8,212.1z M1153.7,160.4c2.9,2.3,6.6-9.8,6.7-12c0.5-9.3-5.7-14.9-11.5-20.1
			c-3.8,11.7-7.1,10.6-1.8,21.5C1147.8,151.3,1152.7,159.7,1153.7,160.4z M1421.1,261.8c-1.1-1.2-2.3-2.3-3.4-2
			c-1.5,1.6-0.3,1.9,0.1,3.9c2.1,11.4-0.5,23.6-7.8,32.1c-1.1,1.2-3.8,3.4-4.9,3.4c-1.4-0.5,0.8-6.3-5.9-4.9c-1.7,0.3-6.8,4.6-8.4,6
			c-3,2.5-5.7,4.4-8.3,6c-6.5,4-12.7,5.4-22.8,4.2c-5.5-0.6-11.3-2.8-16.1-1.9c-8.1,1.6,8.9,9.4,11.5,10.7
			c11.6,5.5,33.3,12.8,35.6,6.7c0.1-2.4-1.4-1.9-1.8-4.2c1.7-2.5,4.9,0.8,7.2,1.7c5.5,2.6,10.3,3.4,14.6-4c3.1-5.5-1.6-4.8-2.7-7.3
			c1.4-4.2,13.1-8.2,17.4-29.7c1.3-6.4,0.6-11.5-2.8-18.5C1422.2,263.4,1421.7,262.5,1421.1,261.8z M1343.9,316.9
			c0.6,4.8,4,5.6,6.6,14.8c2.4,8.3,3.9,16.1,2.4,24c-1.5,8-6,16-12.4,20.2c-1.4,1-3.2,1.5-4.4,2.5c-3.2,2.4-1.9,3.2-3.4,5
			c-0.8,1-5.8,3.2-8,8.6c2.2,4.8,6.2,1.1,8.7,4c-0.2,5.1-8,2.9-10.7,3.4c-1.3,0.2-2.8,0.8-4.2,1.5c0,5.6,0.2,11,1,16.4
			c0.1,0.4,0.1,0.9,0.2,1.4c3.4-4.6,9-8.5,12.2-10.8c15.6-11.9,28.6-29.5,30.8-51c1-9.4-0.8-18.7-5.2-27.1
			C1355.6,326.5,1348.6,315.7,1343.9,316.9z M1135,142c0.1,6-0.2,13,0.9,18.9c0.5,2.6,4.4,15.2,8.5,12.8c4.5-2.8,3.6-12.6,1.7-17.2
			c-1-2.4-2.3-4.4-3.8-6.4C1140.2,147.2,1137.6,144.6,1135,142z M1330.2,277.4c7.3-0.1-0.6-9.1-1.4-10.8s-0.8-2.7-2.4-4.3
			c-2.1-2.3-7-1.7-9.5-1.3c-2.3,0.9-8.9,1.9-7.1,6.1c0.9,2,3.4,5.9,5,7.7C1320.3,280.6,1327.4,277.5,1330.2,277.4z M1299.2,236.4
			c1.6-2.3-2.7-4.7-4.6-5.6c-2.8-1.3-4.6-2-7.1,0.9c-1.5,2.5-2.3,3.9,1.4,5C1291.9,237.7,1296.7,239.9,1299.2,236.4z M1284.4,239.8
			c-2.1,3.3,3.1,4.6,6.3,6c0.5,0.2,0.9,0.3,1.4,0.5c1.2,0.3,2,0.6,1.7-1.3C1293.1,241,1286.3,237,1284.4,239.8z M1293.1,283.2
			c-0.8-0.6-1-1.2-1.5-0.5c-0.8,1-0.9,3.1-0.6,4C1292.3,290.4,1298.8,287.7,1293.1,283.2z M1299.5,281c1.9,0.4,2.2,1.5,4.2,0
			c4-2.9,8.7-6.3,3.2-12.2c-4.2-4.5-5.2,0-7.8,1.2c-1.6,0.8-1.3-0.6-3.7,0c-2,0.6-1.6,0.3-3.8-1.4c-2,1.4-2.3,1.7-2.1,4
			c0.1,1.5,0.6,3.3,1.5,4.7c1.7,2.6,2.3,2.9,4.2,3.3C1299.4,281.5,1297.7,280.6,1299.5,281z M1252.4,282.6c3.2-1.8,3.3-5.1,4.8-7.4
			c1.2-1.7,2.4-3.6,4.1-4.7c0.8-0.5,1.5-1,2.2-1.5c-6.4-6.8-17.2,3.3-18.1,9.4C1244.9,282.9,1250.3,283.7,1252.4,282.6z
			 M1295.5,242.7c-0.1,1.3,1,1.6,1.3,5.6c0.2,1.9,0.3,2.4,2.6,1.6c4.3-1.4,6.1-9,1.8-10.5C1300.5,239.1,1295.6,240.1,1295.5,242.7z
			 M1317.5,286.5c-0.3,0.3-0.3,0.9,0,1.2c0.3,0.3,0.8,0.3,1.1,0c0.3-0.3,0.3-0.9,0-1.3C1318.2,286.1,1317.8,286.1,1317.5,286.5z
			 M1210.7,262.8c-7.7,6-5.1,3.9-9.8,12.3C1205.4,271,1206.8,269.9,1210.7,262.8z M1337.5,338.7c4.4-2.1,8.4-11.3,6.1-15.4
			c-1.4-2.5-1.7,1.4-1.8,1.9c-0.9,3.2-4.2,5.5-6.2,4.9c-2.4-0.5-3.4-5.3-7-2.6c-5.5,4.2-9.4,6.3,0,11.2
			C1331.4,340.3,1334.6,340.2,1337.5,338.7z M1355.5,298.9c3.5-2.9,7.4-7.9,5.8-11.7c-1.8,0.6-2.8,2.8-4.6,4.6
			c-7.5,7.4-15.1,7.5-23.5,5.5c-4.6-1.1-9.3-2.1-13.9-3.2c-14.6-2.1-34.1-4.3-47.3,4.9c-4.1,2.8-8.1,7.1-4.2,11.2
			c4.4,4.6,9.9,3,15.3,1.2c9.3-3.3,17-4.2,26.7-3.4c6,0.4,13.6,4.9,19.1,9.9c3,2.7,9.4,13.9,10.6,3.5c1.4-11.2-6.5-14.4-14.5-17.7
			c-11.1-4.6-24.6-5.5-36.4-3c-2.3,0.5-4.2,1-5.5,1.2c-3.9,0.5-1.9-3.5,5.9-4.6c6.7-1,12.3-1.3,17.7-0.9c7,0.5,13.5,2.3,21.4,5.6
			c5.6,2.4,10.3,4.7,16.5,2.8C1348.2,303.3,1351.8,301.9,1355.5,298.9z M1364.2,285.6c3.7-3.8-1.3-14.1-4.1-17.1
			c-6.3-6.7-11.8-5.7-16.2,0.8c-1.5,2.1-4.8,7.5,0.1,7.6c1.6,0,3.5-0.9,4-0.8c1,1.4,0.3,7.2,5.1,5.7c0.8-0.2,4.9-2.7,8,0.6
			C1362.5,283.7,1363.2,284.9,1364.2,285.6z M1329.4,192.5c7.6,8.4,20.7,3.8,28.1-2.5c1.4-1.2,2.6-3.1,2.1-4.5
			C1358.5,181.8,1334.8,178.4,1329.4,192.5z M1141.4,200c-0.3-0.6-0.7-1.1-1.2-1.6c0.6,1.9,1.3,3.8,1.9,5.7
			C1142.5,202.6,1142,201,1141.4,200z M1324,435c0.3-0.5,0.5-1.1,0.7-1.7c-0.6-0.4-1.2-0.6-1.6-0.8
			C1323.5,433.3,1323.7,434.1,1324,435z M1177.9,259.6c12.7-0.3,25.3-0.6,38-1c-2-2.3-4-4.4-6-6.7c-12.8,0.3-25.6,0.8-38.4,1.1
			C1173.7,255.3,1175.8,257.5,1177.9,259.6z M1388.3,260c2.7,0.9,8.5-10.4,15.3-10.4c8.4-0.1,11.4,5.3,15.9,6.5
			c0.4-2.4-4.4-7.5-9.2-10.7c-15.2-10.4-35.1-0.2-35.4,19.4c-0.2,9.2,6.5,16.9,13.3,21c11.7,7,24.8-3.3,22.7-15
			c-0.8-4.6-5.4-10.9-9.8-9.7c-10.5,3.1,2.9,5.8,1.4,11.7c-0.5,2.1-1.4,3.2-3,3.3c-0.8-1.6,0.4-3.1-0.8-5.7
			c-0.7-1.6-3.5-3.1-4.8-2.7c-2.1,0.6-0.7,2.7-2.2,5c-2.9,4.4-7.1,2.5-9.7-1.3c-2.3-3.6-2.8-7-1-11
			C1386,250.3,1386.1,259.3,1388.3,260z M1317.9,167.8c-2.4-2.4-7.8,7.7-9.2,10c-4.1,6.5,0.5,17.4,2,23.8c0.6,2.5,1,2.9,3.1,1.3
			c5-3.5,11.3-11.3,10.8-18.5C1324.5,179.4,1321.2,171,1317.9,167.8z M1137.1,180.9c0.3-4.5-1.2-8-3.4-11.2
			c0.7,4.8,1.5,9.5,2.6,14.3C1136.8,182.9,1137.1,181.8,1137.1,180.9z M1251,176.9c-1.6,2-2.5,3.4-3.7,5.9c-2.7,5.9,2.9,8.2,7.4,5.8
			c15.5-8.2,9.3-11.2,10.3-15.1c0.4-1.3,1-2.6,0.8-3.9c-0.7-6-7.2-0.3-9.1,1.3C1254.7,172.6,1252.8,174.8,1251,176.9z M1145.6,179.6
			c6.6,0.3,9.7,1,16.1-1.5c2-0.8,4.2-1.7,5.6-3.5c2.4-3.3,3.3-10.4,4-14.6c-3.5,0.6-7,1.2-10.5,1.8
			C1156.4,162.3,1148.8,175.1,1145.6,179.6z M1167.8,220.5c-3.4,3.8-5.6,7.3-6.7,11.4c-0.7,2.5-0.7,5.5-0.2,8.2
			c1.9,2.7,4,5.4,6.1,7.9c0.7,0.9,1.4,1.7,2.1,2.5c2.6,0.8,5.1,0.1,7.2-1.3c4.1-2.8,5.9-8.6,0.6-12.6c-2.4-1.8-5.6-1.5-7.6,6
			c1.5-1.4,3-3.9,4.7-3.4c5.7,1.6-0.7,12.3-6.2,6.5c-3-3.2-4.3-7.5-3.4-12.1c0.8-3.8,3.1-7.1,5.5-10.2c1.1-1.3,2.1-2.6,3.1-3.8
			c3.7-4.4,7.6-8.6,11.5-12.9c3.9,4.1,7.8,8.2,11.6,12.3c1.1,1.2,2.1,2.4,3.2,3.6c2.5,3,4.8,6.3,5.7,10c1.1,4.5-0.2,8.9-3.1,12.1
			c-5.3,6-11.9-4.5-6.3-6.3c1.7-0.5,3.2,1.9,4.8,3.3c-2.2-7.4-5.4-7.6-7.8-5.8c-5.2,4.2-3.3,9.9,0.9,12.6c3.5,2.3,8.2,2.1,12.1-2.3
			c3.2-3.8,4.3-10.5,2.8-15.4c-1.2-4-3.6-7.5-7-11.2c-1-1.1-2-2.1-3.1-3.3c-4.3-4.6-9.5-9.4-12.7-13.3c-1.2-1.4-1.3-1.1-2.4,0.3
			c-3.3,4-8.1,8.9-12.4,13.5C1169.7,218.2,1168.7,219.4,1167.8,220.5z M1258,213.4c-0.1,0.3-1.9,6.7-2.7,8.8c-0.5,1.3,1.5,2,2.8,2.7
			c3.6,1.9,10.2,9.3,12.5,9c0.9-0.1,1.6-1.1,1.7-2c0.1-0.6-0.4-1.5-1.2-2.6c-2.7-3.6-5.6-6.7-8.5-10.7
			C1260.6,215.7,1258.3,212.7,1258,213.4z M1279.8,231.8c-2.9-1.8-2.9,1.3-3.8,4c-1.4,4.3-6.2,9.4-2.3,14.6c1.4-2,1.1-3.6,3.8-5.4
			c2.4-1.5,2.6,0.6,3.5-3.8C1281.7,237.8,1282.8,233.8,1279.8,231.8z M1249.3,311.7c2.8,1.9,5.6,3.8,8.4,5.7c3.3-1.5,6.5-2.1,7-4.5
			c0.2-1-0.8-2.1-1.4-3.4C1260.4,303.6,1253.7,308.1,1249.3,311.7z M1286.3,278c1.4-1.9,2.4-5.8,1.7-8.2c-0.2-0.8-0.6-1.6-1.2-2
			c-3-2.3-4-0.4-8.8-5.5c-0.7-0.6-1.3-1.5-2-1.9c-0.5-0.2-1.2-0.2-1.6,0c-1.9,0.9-5.9,5.9-5.6,7.9c0.6,4.3,11.6,10.9,14.9,11
			C1284.5,279.3,1285.7,278.8,1286.3,278z M1275.7,282.9c0.1-1.2-0.4-2.5-1-3.4c-2.1-3.2-7-9.9-10.7-7c-1,0.8-1.7,1.8-2.4,2.8
			c-1.3,1.8-3.9,6.1-4.5,8.2c-1.3,4-1.7,9.7,3.6,8.8c2.6-0.4,6.9-2.7,9.3-4.1C1271.8,287.2,1275.5,285.2,1275.7,282.9z M1273,327.7
			c4.1,2.7,8.1,5.5,12.1,8.2c0.2-1.1,0.6-2.5,1.4-4.6c0.5-1.6,1-3.2,1.4-4.8c0.6-1.8,0.9-2.9,0.5-4.8c-0.4-1.5-1.1-3.8-2.8-4.1
			C1282.7,317.2,1276.2,322.9,1273,327.7z M1310.1,322c3.3-3.6,4.5-4.8,0.2-6.7c-9.9-4.3-22.9,11.9-20.3,18.1c1.4-0.2,2.7-0.3,4-0.5
			C1301.6,331.7,1305.1,327.6,1310.1,322z M1286.9,311.1c-0.7,0.8-0.6,1.9,0.1,2.7c0.7,0.8,1.7,0.6,2.4-0.1s0.6-1.9-0.1-2.7
			C1288.7,310.3,1287.6,310.3,1286.9,311.1z M1186,266.9c1.2,1.1,2.4,2,3.7,3c0.4-1.2,0.6-2.4,0.7-3.3
			C1190.5,262.3,1186.7,261.8,1186,266.9z M1231.2,179.4c0.6,6.2,10.3,17.8,12.4,6.3c1.5-8.4-0.5-17.1-3.3-24.8
			C1235.7,166.2,1230.5,171.1,1231.2,179.4z M1225.3,148.8c-1.4,2-2.7,4.2-3.7,6.5c-1.7,4.6-2.5,14.4,2.1,17.1
			c4.1,2.4,7.7-10.3,8.2-13c1-5.9,0.6-12.9,0.5-19C1230,143.1,1227.4,145.8,1225.3,148.8z M1196.6,159.3c0.9,4.2,1.8,11.3,4.3,14.5
			c1.4,1.8,3.7,2.7,5.7,3.4c6.6,2.4,9.7,1.6,16.2,1.1c-3.3-4.4-11.2-16.9-15.5-17.5C1203.6,160.3,1200,159.8,1196.6,159.3z
			 M1207.3,147.5c0.2,2.3,4.1,14.3,7,11.9c1-0.8,5.6-9.3,6.4-10.8c5.1-11,1.7-9.8-2.3-21.5C1212.6,132.4,1206.5,138.2,1207.3,147.5z
			 M1239.1,233.2c-0.5,1.2,0.1,2.8,0.9,3.8c5.5,6.7,18.1,4.9,23.7-0.5c0.5-0.4,1-1.2,0.8-1.8c-1.8-5.1-6-7.2-10.1-7.5
			C1250.9,226.9,1240.4,230.1,1239.1,233.2z M1251.2,209c-0.6-0.1-4.4,0-5,0.1c-1.3,0.2-3.8,1.3-4.9,2.8c-3.5,4-1,11,5.5,10.1
			c4.5-0.6,7-3.6,7.8-8.7C1254.9,211.1,1253.1,209.4,1251.2,209z M1245.5,205.9c1,0.6,2.4,0.6,3.6,0.3c3.6-1.1,7.7-6.2,4.1-10.3
			C1245.3,187.2,1236.7,200,1245.5,205.9z M875.3,607.2c0.2-1-0.7-2.1-1.3-3.4c-3.3-6.9-11.8,0-16,3.4c-3.4,2.8-12,10.5-12.8,15.3
			c-0.2,1-2.5,8.6,1.2,4.5c1.8-2,2.6-2.9,4.9-4.7c5.1-3.9,13.6-9.3,16.7-10.7C871.3,610.1,874.7,609.6,875.3,607.2z M867.7,570.9
			c-3.5,1.3-6.9,2.6-10.3,4c1.4,2.1,4.7,2.5,6.3,1.6C866.1,575.2,866.9,573,867.7,570.9z M902.8,577.8c-0.8,0.9-1,3-0.7,4
			c1.3,3.6,7.8,1.2,2.2-3.4C903.7,577.7,903.4,577.1,902.8,577.8z M887,577.5c0.2-1.2-0.3-2.5-0.9-3.4c-1.4-2.3-4.1-6.1-6.9-7.5
			c-1.8,0.8-3.8,1.4-5.6,2.1c-0.2,0.2-0.4,0.5-0.6,0.8c-1.4,1.7-4,6-4.7,8c-1.4,3.9-2,9.5,3.4,8.9c2.6-0.3,7-2.5,9.4-3.8
			C882.9,581.6,886.8,579.8,887,577.5z M800,610c0.6-2.8,5.3-6.5,6.8-15.8c-6.1,2.4-12.2,4.8-18.2,7.6c0.7,2.4,1.7,3.3,4,7.5
			c2.7,4.8,2.7,12,3.7,17.6C797.5,621.2,798.8,615.5,800,610z M815,591c-1,0.4-2,0.8-3,1.2c-0.9,1.7-1.7,3.6-2.5,5.9
			C812.2,594.7,813.7,592.6,815,591z M900.2,628.5c1.4-0.1,2.7-0.2,4-0.4c7.6-1.2,11.2-5.1,16.3-10.5c3.3-3.5,4.6-4.6,0.4-6.7
			C911.2,606.3,897.7,622.2,900.2,628.5z M900.4,636.9c-5.1-0.8-15.4,7-17,12.1c1.1,1.3,4.9,1.2,6.8,1.4c6.7,0.9,6.4,3.1,14.1-1.8
			c1.5-1,1.9-1,3.6-1.7C914.2,644.2,905.4,637.6,900.4,636.9z M897.7,572.8c1.4-1.8,2.5-5.7,1.9-8.2c-0.2-0.8-0.6-1.6-1.2-2
			c-1.5-1.2-2.6-1.3-4-1.9c-2.2,0.9-4.4,1.7-6.7,2.6c-2,0.8-4,1.5-6,2.3c3.2,4,10.5,8.4,13.1,8.6
			C895.9,574.1,897.1,573.7,897.7,572.8z M900.7,673.8c1.8-3.8-9-3.8-12.9-4.4c-8.9-1.4-8.4,2.5-11,3.4c-2.2,0.9-4.6,1.8-3.2,4.7
			c1.2,2.1,2.6,2.8,5,4.2C886.5,686.2,896.8,681.5,900.7,673.8z M889.3,655.5c0,0-1.4,7.4-1.2,8.4c0.6,2.6,5.9,2.3,6.6,0.5
			c0.6-2.8,1.1-5.6,1.6-8.4C895.8,654.2,890.5,653,889.3,655.5z M898.7,616.7c-0.3-1.5-1-3.8-2.7-4.2c-3.8-0.8-13.9,9-14.8,13.6
			c-0.8,4-0.5,9.9-0.6,15.1c-0.1,3.4-0.3,6.3,2.9,1.9c0.9-1.1,2.2-2.7,4.8-4.7c8.4-6.7,5.2-4.5,8.2-12.3c0.5-1.6,1.1-3.2,1.5-4.7
			C898.8,619.6,899.1,618.5,898.7,616.7z M796.4,746.6c0.5-2.4-1-7-3.1-4.5c-1.3,1.5-2,4.3-0.5,5.9
			C794.4,749.9,795.9,748.9,796.4,746.6z M731.8,664c1.5,0.6,3.5,1.2,4.1,1.2c7.7,0.1,5.3-10.1,6.1-11.6c1.4-2.9,4-3.9,2-6.9
			c-4.3-7-14.9,1.6-15.8,9.1C727.8,659.1,728.9,662.9,731.8,664z M740.9,671.7c1.3,1.3,2.5,2.1,3.7,0.3s-0.6-5-3.1-5
			C738.5,666.9,739.3,669.9,740.9,671.7z M918.6,564.2c-4.2-4.6-5.2-0.1-7.9,1c-1.6,0.6-1.3-0.8-3.7-0.1c-2,0.5-1.6,0.2-3.8-1.5
			c-2,1.3-2.3,1.7-2.2,3.9c0.1,1.5,0.5,3.3,1.4,4.7c1.7,2.7,2.2,3,4.1,3.4c4.2,1.1,2.4,0.2,4.2,0.6c1.9,0.4,2.2,1.5,4.2,0.1
			C919.2,573.5,924,570.2,918.6,564.2z M914,556.1c0.4-0.6,1.1-1.8,1.7-3.1c-3.5,1.2-7,2.5-10.4,3.8c-1.5,1.6-2.7,2-2,3.6
			C904.9,564.5,912.1,559.4,914,556.1z M872.9,685.5c0.6-2,0.6-2.9-0.8-4.7c-1.3-1.6-2.4-3.3-4.2-3.3c-1.2,0-3.3,1-4.3,2.1
			c-1,2.4,0.1,2.5,0.4,4.6c0.4,2.9-4,4.6,3.3,7.1C870.5,692.4,871.6,690.1,872.9,685.5z M877.7,650.4c-10,1.7-16.6,15.6-10.7,23.4
			c4.5-0.6,8.5-4.1,11.7-9.2C880.4,661.8,879.8,652.9,877.7,650.4z M885.8,696.5c-0.9-2.1-2.2-8.2-4.2-9.9c-4.9-4.3-6.2,1.9-7.2,3.4
			c-1.5,2.1-2.9,2.4-1.6,4.8C874.1,697.9,881.6,701.7,885.8,696.5z M849.7,668.6c-2.5-0.1-4.3,3.1-3.2,4.9c1.2,1.8,2.4,1.1,3.7-0.2
			C851.8,671.8,852.7,668.8,849.7,668.6z M877.8,629.9c-1.1-3.6-3-8.4-8.1-8c-2.9,0.2-5.6,0.1-4.3,4.3c1.1,3.3,0.2,8.5,0.8,12.1
			c1,6.2,5.2,9.8,8.1,9.7c1.2,0,2.1-0.6,2.6-1.9c0.2-2.7,0.5-5.4,0.7-8C877.8,636.4,878.6,632.6,877.8,629.9z M795.3,720.8
			c5-30.6,4.6-64.5,10.5-91.9c2.3-10.8,4.9-17.7,10.5-26.8c-18.7,8.3-16.8,32.3-18.9,49.8c-0.2,1.7-0.1,4.4-1.6,4.8
			c-3.8,1.3-2.9-7.1-2.7-9c0.7-8.4,1-16.8-1.4-26.1c-1.4-5.6-3.8-11.7-8.7-17.2c-0.9,0.4-1.8,1-2.7,1.4c8.9,21,8.4,41.1,10.2,65.4
			C791.8,687.7,793.7,705,795.3,720.8z M833.3,602.4c0.5-4.9-4.2-9.8-8.4-10c-2.4-0.1-6.4,0.6-8.9,2.6c-1.1,0.9-1.9,1.9-2.2,3.2
			c1.8,1.4,3.7-0.6,5.8,1.5c1,1,1,2.3,1.7,3.3c1.4,1.6,1.9,0.8,3.1,1.1c2.4,0.5,1.4,5,4.5,3.9C830.9,607.1,833.1,604.9,833.3,602.4z
			 M972.5,579.4c1.3,1.4,1.9,2.6,2.9,3.2c3.8-3.6-0.9-14.2-3.7-17.2c-6.2-6.9-11.7-6-16.2,0.3c-1.5,2.1-5,7.4,0,7.6
			c1.6,0.1,3.5-0.8,4.1-0.6c1,1.4,0.2,7.2,4.9,5.9C965.3,578.3,969.4,576.1,972.5,579.4z M972.5,584.1c-1.8,0.5-2.9,2.8-4.7,4.4
			c-7.7,7.2-15.3,7.1-23.6,4.8c-4.6-1.3-9.2-2.5-13.8-3.6c-14.5-2.6-34-5.3-47.4,3.5c-4.2,2.7-8.2,6.9-4.4,11
			c4.3,4.7,9.9,3.3,15.2,1.6c9.4-3,17.1-3.6,26.8-2.7c6,0.6,13.5,5.4,18.8,10.4c2.9,2.8,9.1,14.2,10.5,3.9
			c1.6-11.2-6.1-14.5-14.1-18.1c-11-4.9-24.5-6.2-36.4-4c-2.3,0.4-4.2,0.9-5.6,1c-3.9,0.4-1.8-3.5,6-4.5c6.7-0.8,12.3-1,17.7-0.4
			c7,0.8,13.5,2.7,21.3,6.2c5.5,2.5,10.2,4.9,16.4,3.2c3.6-1,7.3-2.4,11-5.3C969.9,592.9,974.1,588,972.5,584.1z M926.3,570.5
			c5.4,6,12.6,3,15.4,3.1c7.3,0-0.4-9.1-1.2-10.9c-0.8-1.7-0.7-2.7-2.2-4.4c-2-2.3-7-1.8-9.5-1.5c-2.3,0.9-9,1.7-7.3,5.9
			C922.2,564.8,924.6,568.8,926.3,570.5z M928.7,582.3c-0.3,0.3-0.3,0.9,0,1.2s0.8,0.3,1.1,0s0.3-0.9,0-1.2
			C929.4,582,929,582,928.7,582.3z M728.8,674.5c0.7,1.5,1.7,2.9,3.3,3.3c3.4,0.9,2.3,1.4,3.8,1.8c0.6,0.1,6.5-1.2,2.9-6.4
			c-1.7-2.6-4.2-6.8-7-6.3C730,667,726.6,670.1,728.8,674.5z M836.4,772.6c0.8,1.6-1.4,6.1,1.4,9.4c3.3-2.4,7-10.1,6.7-12.9
			c-1.2-7.8-8.5-12.9-12.3-17.1c-7.2-8-11.9,11.6-4,16C830.6,769.3,835.1,769.8,836.4,772.6z M711.5,744.4c-1.3-1.7-1.1-5.3-3.3-6.9
			c-1.1-0.9-1.7,0-3.1,0.5c-2.4,1.1-8.2,1.5-8.8,3.8c-0.7,2.6,4.3,9.8,9.2,11.5c2.6,1,3.8-0.8,6.3-1c3-0.3,3,0.6,5.7-3.5
			C716,746.7,713.7,747.4,711.5,744.4z M717.4,697.1c-0.9,2.6-1.5,7.2-1.1,9.2c0.4,1.6,0.6,1.7,0.8,3.2c0.2,2,0.4,4.1,1.9,5.9
			c3.1-0.3,8.6-6.3,9.3-9.5c0.5-2.7-1.6-3.9-3.4-6.2c-1.7-2.3-0.7-3.2-2.5-6C720.9,693.9,718,695.1,717.4,697.1z M802.3,807.5
			c8,4.4,7.6-17.5-1.4-12.7c-2.1,1.2-2,1.9-1.5,3.9C800.3,802.3,798.1,805.2,802.3,807.5z M729.9,682.4c-0.5,1,0,2.1,1.1,2.9
			c1.1,0.6,1.6,0.3,2.3-0.9c0.9-1.4-0.1-2.6-1.1-3C731.4,681.1,730.4,681.5,729.9,682.4z M802.6,810.2c-0.7,0.8-0.7,1.9,0,2.7
			s1.7,0.8,2.4,0s0.7-1.9,0-2.7C804.4,809.5,803.3,809.5,802.6,810.2z M819.5,672.5c3.9-5.9,7.4-11.3,12.2-16.8
			c5.7-6.8,12.7-14.1,19.1-14.5c2.8-0.2,7.7,3.5,7.7-2.3c0-6-10.7-12.3-25.2,3.8c-7.4,8.3-12.2,18.1-17.1,28.1
			c-0.4,0.9-0.9,1.7-1.4,2.6c-1.7,2.9-3.5,4.1-1.3-2c7-15.8,10.7-21.3,21-34.8c14.9-19.3,4.3-30.3,0.2-23.9c3,10.1-4.2,19.8-8.8,28
			c-7.9,14.4-15.4,25.7-20.4,42.1c-2.7,11.6-4.7,22.2-6.8,33.9c-0.5,2.7-0.9,5.5-1,8.3c-0.2,11.8,4,5.7,4.6,0.8
			c1.3-8.6,3.2-20.1,6-28C811.8,688.3,814.1,680.9,819.5,672.5z M897.7,606c-0.7,0.8-0.7,1.9,0,2.7s1.7,0.8,2.4,0s0.7-1.9,0-2.7
			S898.3,605.2,897.7,606z M839.3,675.9c1.4-1.3,2.6-2.4,3.7-3.9c6.4-9.7-5.9-11-8.7-5.4c-0.1,0.2-1.4,4.4-1.4,4.5
			c-0.1,1.5,1.4,3.3,2.4,4.6C837.1,678,837.5,677.8,839.3,675.9z M840.1,685.8c0.9-1.8,0.9-2-0.2-3.8c-3-4.9-7.9-3.9-9.7,0.8
			C828.6,687.6,836.8,693.1,840.1,685.8z M858.6,683.3c-1,0.4-1.9,1.6-1.1,3c0.7,1.2,1.2,1.5,2.2,0.9c1.1-0.6,1.5-1.8,1.2-2.8
			C860.5,683.6,859.4,683,858.6,683.3z M751.7,674.5c1.7,1.8,2.1,2.1,4.1,0c1.1-1.3,2.6-3,2.5-4.5c0-0.1-1.2-4.3-1.3-4.5
			c-2.7-5.8-15.1-4.6-8.9,5.1C749,672.1,750.4,673.2,751.7,674.5z M855.1,681.5c1.5-0.3,0.5-0.9,3.8-1.7c1.5-0.3,2.6-1.7,3.3-3.2
			c2.2-4.3-1.1-7.5-2.8-7.8c-2.7-0.5-5.3,3.6-7,6.1C848.7,680.1,854.5,681.6,855.1,681.5z M740.9,639.5c6.4,0.6,13.2,8.2,18.7,15
			c4.5,5.7,8.1,11.2,11.8,17.2c5.2,8.4,7.3,16,10.5,25.4c2.7,8,4.2,19.6,5.3,28.2c0.6,4.9,4.6,11.2,4.6-0.6c0-2.7-0.4-5.6-0.8-8.3
			c-1.7-11.7-3.6-22.4-6-34c-4.5-16.5-11.8-28.1-19.4-42.6c-2.9-5.6-7-11.9-8.5-18.3c-1.8,1.5-3.7,3.1-5.5,4.7
			c1.2,2.8,2.9,5.9,5.3,9.3c10,13.7,13.6,19.3,20.2,35.4c2.1,6.1,0.3,4.9-1.4,2c-0.5-0.9-1-1.7-1.4-2.7
			c-4.7-10.2-9.3-20.1-16.5-28.5c-4.5-5.4-8.8-8.4-12.5-9.8c-2.7,2.6-5.3,5.4-7.8,8C739.1,639.6,740.2,639.4,740.9,639.5z
			 M750.9,680.7c-1.2,1.7-1.1,1.9-0.3,3.8c3.2,7.3,11.5,2.1,9.9-2.7C758.9,677,754.1,675.7,750.9,680.7z M773.5,717.7
			c-4.2-2.7-9.4-3.3-12.7,1.3c-1.7,2.4-1.2,6.3,1.6,7.6c6.2,2.8,7.4-1.9,10.4-4.2C773.4,722.1,778,720.6,773.5,717.7z M772.5,703.5
			c0.5,1.5,2.1,2.1,3.2,1.3c1.1-0.9,0.8-2.6,0.9-3.5c0.3-4.3,0.5-3,0.1-7.7c-0.5-4.9-4.2-10-7.3-15.3c-2.5-4.1-4.2,0.2-5,2.8
			c-0.9,2.8-1.4,5,0.9,7.7C772.3,696.9,769.8,696,772.5,703.5z M776.5,711.4c0.1,0.3,0.1,0.8,0.1,1.4c-0.3,2.4-2.3,1.7,2.3,6.8
			c1.8,2,3.8,1.9,3.5-1.3c-0.3-2.6-1.9-5.3-3.2-7C778.3,710.3,776,708.4,776.5,711.4z M863.2,657.9c-0.8-7.5-11-16.3-15.6-9.5
			c-1.9,2.9,0.5,4,1.9,6.9c0.7,1.5-1.9,11.6,5.8,11.7c0.6,0,2.5-0.5,4.1-1.1C862.4,664.9,863.6,661.1,863.2,657.9z M733.9,699.9
			c3.3-1.5,2.5-9.9-1-10.9c-6.7-2-7.1,4.6-6,7.5C728.2,699.8,731.8,700.9,733.9,699.9z M951.9,621.7c-1,3.2-4.2,5.4-6.3,4.8
			c-2.4-0.6-3.3-5.4-7-2.8c-5.6,4-9.6,6.1-0.2,11.2c2.9,1.5,6,1.5,9,0.2c4.5-2,8.7-10.9,6.4-15.2
			C952.5,617.3,952.1,621.1,951.9,621.7z M744.1,705.9c0.7-3-1-7.5-4.2-8.8c-1.5,1.2-2.5,3.4-4.9,5.4c-2.9,2.4-3.2,2.3-3,5.5
			c0.4,6.2,7.7,8.3,9,7.4C741.6,714.9,743.9,706.6,744.1,705.9z M746.6,684.2c-3.4-5.9-9.6-2.9-10.2,1.3c-0.3,1.6,1,2.7,1.8,4.4
			C743,699.4,749.5,689.2,746.6,684.2z M724,671.7c3.5-4.4,3-10.8,0-15.9c-1.9,2.3-3.8,4.5-5.7,6.7c-1,1.2-2,2.4-3,3.5
			C717.9,669.1,720.8,671.1,724,671.7z M718.7,678.4c-1.4,1.7-1.4,2.7-0.9,4.7c1.3,4.6,2.2,7,5.6,5.9c7.3-2.3,3-4.1,3.5-7
			c0.3-2.1,1.4-2.1,0.5-4.6c-1.1-1.2-3.2-2.1-4.3-2.3C721.2,675.1,720.1,676.8,718.7,678.4z M761.8,707.9c2.2,0.1,3.5,0.6,5.4,1.3
			c1.6,0.5,3.8,1.7,5.1,1.6c1.2-2.5-1.1-4.6-1.7-7.2c-1.5-5.8-10.8-15.2-16.7-13.1c-1.5,0.5-5.3,1.3-5.9,3.4
			C746.6,698.8,756.2,707.8,761.8,707.9z M748,677.8c0.6-0.6,0.6-1.7,0.1-2.4c-0.6-0.6-1.5-0.6-2.1,0s-0.6,1.7,0,2.4
			C746.4,678.4,747.4,678.4,748,677.8z M771.6,799.6c2-0.8,11.3-2.7,6.1-7.4c-2.7-1.8-6.7-4.4-10.4-5.5c-4.6-1.4-6.4,0.8-9.5,0.2
			c-5.7-0.4-14.9-12-6.6,6.8C755,803.5,763.7,802.5,771.6,799.6z M750.7,780.6c2.9-3.2,0.9-7.7,1.7-9.4c1.4-2.8,5.9-3.2,8.1-4.3
			c8-4.1,3.9-23.9-3.6-16.1c-3.9,4.1-11.3,8.9-12.7,16.6C743.8,770.3,747.4,778.2,750.7,780.6z M927.6,550.5
			c0.4-0.6,0.7-1.2,0.9-1.8c-3.5,1.1-6.9,2.3-10.3,3.4c0.1,0.4,0.1,0.9-0.2,1.5c-0.5,1.6-4.2,5.3-1.2,5
			C921.3,558.6,925.1,554.2,927.6,550.5z M750.4,730.3c-0.6,3.6-2.4,3-0.5,6.4c1.6,2.9,7.6,5.4,10.8,8.6c1,1,1.8,2.1,2.8,1.5
			c2.4-1.8-6.9-20.9-10.9-21.9c-1.2-0.3-2.1,0.8-2.1,2.1C750.4,728.7,750.8,728.3,750.4,730.3z M1036.6,581.1
			c1.4-6.3,0.9-11.5-2.4-18.5c-0.3-0.6-0.8-1.5-1.4-2.3c-1-1.3-2.3-2.4-3.3-2.1c-1.5,1.5-0.3,1.9,0,3.9c1.8,11.5-1.1,23.5-8.5,31.9
			c-1.1,1.2-3.8,3.3-5,3.3c-1.4-0.6,1-6.2-5.8-5.1c-1.7,0.3-6.9,4.5-8.6,5.8c-3.1,2.4-5.8,4.3-8.5,5.8c-6.6,3.8-12.9,5-22.9,3.5
			c-5.5-0.9-11.3-3.1-16-2.4c-8.2,1.4,8.7,9.7,11.3,11c11.5,5.8,33,13.6,35.4,7.6c0.1-2.4-1.4-1.9-1.7-4.3c1.7-2.5,4.9,0.9,7.1,1.9
			c5.4,2.7,10.2,3.8,14.7-3.5c3.3-5.4-1.5-4.8-2.5-7.4C1020,606.1,1031.9,602.5,1036.6,581.1z M698.2,711.4
			c-4,6.3-9.7,17.9-3.5,24.8c1.5,1.6,6.4,0.5,7.6-0.1c5.3-2.7,0.1-3.8,0.7-7.4c0.4-2.7,4.6-3.1,5.8-7.8c0.9-3.4,4.4-4.9,3.6-8.2
			c-2.2-3-3.8,1.1-6.4,0.3c-1.3-1-0.7-6.5-4.9-10.3C700,705.9,700.4,707.8,698.2,711.4z M804.4,845.8c1.4-1.2,1.6-2.6,2.2-4.2
			c2.2-5.8-2.4-4.7-5.8-5.7c-2-0.4-4.2-0.9-6.2-1.3c-3.3-1.1-21.1-2-14.3,8.4c1.4,2.8,6.1,5.5,7.9,4.8
			C797,845.1,798.7,850.5,804.4,845.8z M745.3,733.7c4-2.8,5.3-13.8-6.2-12.1c-17.5,2.6-13,14.8-16.5,24.8c-0.9,2.5-2,4.7-2,5.5
			c2.1,2,8-2.7,9.3-6.3c1.4-4.3,1.4-8,5.1-11C739.9,730.7,741.3,736.3,745.3,733.7z M712.7,669.1c-3.2,3.9-6.5,7.6-9.7,11.5
			c3.1,0.6,6.3,0.3,9.2-1.3c2.4-1.3,4-1.9,5.1-4.1c1.5-2.8-0.9-4-3-4.8C713.6,670,713.2,669.6,712.7,669.1z M673.7,715.7
			c0-0.2,0-0.3,0-0.5c-4.1,4.9-7.9,10.1-11.7,15.2c4.2,0.8,9.6-4.5,11.9-10.2C674.9,718.1,673.7,717.9,673.7,715.7z M940.2,703.8
			c15.8-11.5,29.3-28.6,32-50.1c1.2-9.3-0.3-18.7-4.6-27.2c-1.5-3.1-8.4-14.2-13-13.1c0.5,4.8,3.9,5.7,6.3,14.9
			c2.2,8.4,3.6,16.2,1.8,24.1c-1.7,7.9-6.3,15.9-12.8,19.7c-1.5,1-3.3,1.5-4.5,2.4c-3.3,2.3-2,3.2-3.5,4.9c-0.8,1-5.9,3-8.2,8.4
			c2.1,4.8,6.1,1.2,8.6,4.2c-0.3,5.1-8.1,2.7-10.7,3.1c-3.8,0.6-9,3.5-12.2,6c-1.7,1.3-4.1,6.4-2.2,9.3c1,1.4,1.6,2.1,0.6,4.4
			c-1.5,3.2-1.3,1.3-1.3,4.5c0,2.1-1.2,2.3-0.3,4.5c3.3,8.5,12.7,16.1,16.6,5.3c-2.9-2.3-4.5,1.1-7-4.3
			C921.6,716,934.8,707.7,940.2,703.8z M781.3,816c-3.1-2.7-2.2-3.9-6.3-2c-4.9,2.3-8.8,3.6-8.4,11.4c0.3,6.2,2.1,7.5,5.8,10.5
			c5.1,4.3,1.1-6.9,9.3-14.1C786.5,817.8,783.3,817.9,781.3,816z M986.6,562.2c-0.4,9.2,6.1,17.1,12.8,21.3
			c11.6,7.3,24.8-2.7,23.1-14.4c-0.7-4.6-5.1-11.2-9.5-10c-10.6,2.9,2.8,5.9,1.2,11.7c-0.6,2.1-1.4,3.1-3,3.2
			c-0.7-1.6,0.5-3.1-0.6-5.7c-0.7-1.6-3.5-3.2-4.7-2.8c-2.1,0.6-0.8,2.7-2.4,4.9c-3,4.3-7.2,2.3-9.7-1.6c-2.3-3.6-2.6-7.1-0.7-11
			c4.8-10,4.6-1,7-0.1c2.7,1,8.8-10.1,15.5-10c8.4,0.1,11.3,5.6,15.7,7c0.4-2.4-4.2-7.6-8.9-10.9
			C1007.6,532.9,987.5,542.6,986.6,562.2z M818.6,817.1c-2.7-3-8.4-5.8-12.3-2.3c-1.9,1.7-2.3,1.5-4,2.5c0.2,5.9,5.6,6,7.9,9.4
			c2,3-1.7,7.5,0.3,11.7C814.8,837.3,824.2,823.3,818.6,817.1z M836.9,795.1c8.8-18.5-0.7-7.2-6.4-7c-3.2,0.4-4.7-1.8-9.5-0.5
			c-3.8,1.1-7.7,3.4-10.5,5.3c-5.3,4.6,3.9,6.8,5.9,7.6C824.4,803.6,833.1,804.8,836.9,795.1z M859.5,747.4c1.2,3.8,7,8.6,9.1,6.7
			c0-0.9-1.2-3.1-1.9-5.6c-3.3-10.1,1.4-22.1-15.9-25.2c-11.4-2-10.3,9.1-6.4,12c3.9,2.9,5.5-2.9,10.2,1.1
			C858.5,739.3,858.3,743.1,859.5,747.4z M717.9,692.7c1.3-2.5-0.1-2.6-1.5-4.8c-1.1-1.6-2.2-7.8-7.2-3.6c-1.9,1.6-3.5,7.6-4.3,9.7
			C708.8,699,716.4,695.5,717.9,692.7z M863.6,698.5c1.2-2.8,0.9-9.4-5.9-7.6c-3.5,1-4.4,9.3-1.2,10.9
			C858.7,702.9,862.2,701.8,863.6,698.5z M852.5,691.7c0.9-1.6,2.1-2.8,1.9-4.3c-0.6-4.2-6.7-7.4-10.1-1.6
			C841.2,690.7,847.5,701,852.5,691.7z M858.3,709.8c0.3-3.2-0.1-3.1-2.9-5.6c-2.4-2-3.3-4.2-4.7-5.5c-3.3,1.2-5,5.6-4.3,8.7
			c0.2,0.8,2.2,9.1,2.9,9.5C850.4,717.9,857.8,716.1,858.3,709.8z M842.6,695.6c-0.6-2.3-4.3-3-5.8-3.6c-5.9-2.3-15.4,6.9-17.1,12.6
			c-0.8,2.6-3,4.7-1.9,7.1c1.4,0.2,3.5-1,5.1-1.4c2-0.6,3.3-1.2,5.5-1.2C834,709.1,843.9,700.4,842.6,695.6z M842.9,679.3
			c0.6,0.6,1.5,0.6,2.1,0s0.6-1.7,0-2.4c-0.6-0.6-1.5-0.6-2.1,0C842.3,677.7,842.3,678.6,842.9,679.3z M916,694.6
			c-2.8-1.1-10.4-7-12.4-9.1c-1-1.1-1.4-2.3-2.6-3.1c-1.3-0.9-2.9-0.5-4.3,0.5c-2.3,1.6-2,2.6-0.6,4.9c3.3,5.5,12.1,11.4,16.8,12.8
			C915.1,701.2,923.2,697.3,916,694.6z M941.5,661.1c1.9-5.4,0.4-13.7-2.2-17.8c-4.2-6.7-11.2-10.2-18.2-11.2
			c-3.9-0.5-10.9,0.2-13.3,3c0.3,4.6,6.1,4.4,9.3,4.3c7.2-0.4,15.9,2.9,18,11.6c2,8.8-5.8,18-9.1,15.3c-1.8-1.5,2.1-3,3.3-4.5
			c4.2-5.8-1.9-13.6-7.7-13.5c-2.7,0-4.6,1.1-6.1,2.7c-3.7,4-5,10.6-2.5,15.8c1.4,2.9,3.9,5,6.7,6.3
			C928.9,677.7,937.9,671.3,941.5,661.1z M839.6,738.3c2-3.4,0.2-2.8-0.3-6.4c-0.3-2,0.1-1.6,0-3.2c0-1.4-0.9-2.4-2.1-2.1
			c-4.2,0.9-13.8,19.7-11.4,21.6c1,0.8,1.7-0.4,2.8-1.4C831.9,743.4,838,741.1,839.6,738.3z M893.1,744.7c-0.6-2.3-6.4-2.9-8.7-4
			c-1.4-0.6-2-1.4-3.1-0.6c-2.2,1.5-2.1,5-3.5,6.8c-2.2,2.9-4.5,2.3-6,4.3c2.7,4.3,2.6,3.2,5.6,3.6c2.5,0.3,3.6,2,6.2,1.2
			C888.6,754.5,893.7,747.3,893.1,744.7z M785.2,813.4c0.7-0.8,0.7-1.9,0-2.7s-1.7-0.8-2.4,0s-0.7,1.9,0,2.7
			S784.5,814.1,785.2,813.4z M871.1,717.8c1.6-1.7,1.8-3.9,2.1-5.8c0.2-1.5,0.4-1.6,0.9-3.2c0.6-2,0-6.7-0.9-9.2
			c-0.6-2-3.4-3.3-4.9-3.6c-1.9,2.8-1,3.8-2.7,6c-1.8,2.3-4,3.4-3.5,6.1C862.6,711.2,868,717.3,871.1,717.8z M894.9,739.2
			c6.4-6.7,0.9-18.5-2.9-24.9c-2.1-3.6-1.7-5.6-2.8-8.6c-4.3,3.6-4,9.2-5.2,10.2c-2.6,0.6-4.1-3.4-6.3-0.5c-1,3.1,2.5,4.7,3.4,8.2
			c1.1,4.6,5.3,5.3,5.7,7.9c0.5,3.6-4.7,4.6,0.5,7.4C888.5,739.7,893.3,740.8,894.9,739.2z M803,789.5c-0.7,0.8-0.7,1.9,0,2.7
			s1.7,0.8,2.4,0s0.7-1.9,0-2.7C804.8,788.8,803.7,788.8,803,789.5z M796.1,784.1c1.1-1.2,1.1-3.1,0-4.3s-2.8-1.2-3.9,0
			c-1.1,1.2-1.1,3.1,0,4.3C793.3,785.3,795,785.3,796.1,784.1z M792.3,799.3c-1.1,1.2-1.1,3,0,4.1c1.1,1.2,2.7,1.2,3.7,0
			c1.1-1.2,1-3,0-4.1C794.9,798.2,793.3,798.2,792.3,799.3z M787,807.9c2.1-1.1,2-1.9,1.5-3.9c-1-3.6,1.4-6.4-2.9-8.8
			C777.6,790.8,778,812.7,787,807.9z M800,809.2c-1.1-2.4-1.7-2.3-3.5-1.7c-3.3,1.1-5.8-1.5-7.9,3.2
			C784.7,819.6,804.4,819.2,800,809.2z M813.6,713.6c-0.1-0.6,0-1.1,0.1-1.4c0.6-3-1.7-1.3-2.6-0.1c-1.4,1.7-3.1,4.3-3.4,6.9
			c-0.4,3.2,1.4,3.3,3.4,1.4C815.9,715.3,813.8,716,813.6,713.6z M814.6,705.5c1.1,1,2.7,0.2,3.3-1.2c2.9-7.4,0.3-6.7,7.7-14.6
			c2.4-2.6,1.9-4.9,1.1-7.7c-0.8-2.6-2.3-7-4.9-2.9c-3.4,5.3-7.1,10.2-7.7,15.1c-0.5,4.6-0.3,3.3-0.1,7.7
			C813.9,702.9,813.6,704.6,814.6,705.5z M827.4,727.6c2.9-1.2,3.6-5.1,1.8-7.6c-3.3-4.7-8.5-4.3-12.7-1.7c-4.5,2.8,0.1,4.4,0.5,4.7
			C819.9,725.5,821.1,730.2,827.4,727.6z M813.8,725.4c-4.8-5.3-8.4,7.5-11.8,8.9c-3,1.3-2.1,3.4-2.4,7.5c-0.2,2.3-0.6,3.2-0.5,5.3
			c0.2,6.1-2,2.6-2.5,6.7c-0.2,1.5,0.3,3,0.3,4.5c0,1.6,1.3,6.7-0.1,9c-1.3,2.3-7,3.5-5.8-7c0.5-4.2,1.5-6.8,0.1-8.7
			c-2.9-3.8-1-2.8-1.3-9c-0.1-1.5-0.6-2.8-1.1-4.5c-0.7-3-0.9-1.6-2.6-3.2c-1.7-1.5-3.7-12.7-9.7-9.2c8.8,20.2,4.6,28.6,9.1,45.8
			c1.8,7,15.9,8.8,18.2-3.4c0.5-2.7,0.3-5.6,0-8.4C802.6,743.1,808.1,737.4,813.8,725.4z M783.2,790.1c-0.7,0.8-0.7,1.9,0,2.7
			s1.7,0.8,2.4,0s0.7-1.9,0-2.7C785,789.3,783.9,789.3,783.2,790.1z M791.7,796.1c3.3-1.1,5.8,1.5,7.9-3.2c4-8.9-15.7-8.5-11.4,1.5
			C789.3,796.6,790,796.6,791.7,796.1z M411.5,284c-0.4,0.4-0.4,1.2,0,1.6s1.1,0.4,1.4,0c0.4-0.4,0.4-1.2,0-1.6
			C412.6,283.5,411.9,283.5,411.5,284z M408.3,283.7c-0.4,0.4-0.4,1.2,0,1.6s1.1,0.4,1.4,0c0.4-0.4,0.4-1.2,0-1.6
			C409.3,283.3,408.7,283.3,408.3,283.7z M348.8,277.3c1.5,2.3,1.7,5.6,5,7.3c2.1,1.2,7.4,0.1,6.8-4.4c-1-6.2-12-15.9-18.3-9
			c0.8,0.5,1.5,1,2.3,1.4C346.3,273.8,347.6,275.6,348.8,277.3z M392.6,300.6c-4.2,0.2-8.9,5-8.4,10c0.3,2.5,2.3,4.6,4.3,5.4
			c3.1,1.2,2.1-3.3,4.5-3.9c1.2-0.3,1.7,0.5,3.1-1.1c0.9-1.1,0.9-2.3,1.7-3.3c2.1-2.1,3.9-0.1,5.8-1.5c-0.3-1.3-1.1-2.4-2.2-3.2
			C399.1,301.2,395,300.4,392.6,300.6z M354.2,251.2c-0.2-1.6,0.1-1.8-1.5-2.7c-8.7-4.7-7.5,7.2-10,9.9c-1.4,1.5-4.4,4.1-4.4,6.1
			c0.1,6.3,14.9,0.6,17.4-2.3C362.9,254.1,354.9,257.5,354.2,251.2z M418.5,284c-0.4,0.4-0.4,1.2,0,1.6s1.1,0.4,1.4,0
			c0.4-0.4,0.4-1.2,0-1.6C419.5,283.5,418.9,283.5,418.5,284z M396.8,290.6c-10.4-7.4-32.8-11-32.7-28.5c0.1-7.7,4.2-13.8,10.3-13.4
			c1.2,0.1,2.4,0.4,3.8,1c1.3,0.5,2.2,1.6,3.2,2.7c3.6,4.2,2.4,11.6-3,12.7c-4.7,1-8-4.6-5.8-7.2c0.7-0.8,1.6-1.1,2.6-0.6
			c-0.6,1.1-0.6,2.6,0.2,3.8c1.4,2.1,4.7,2.8,5.6-0.9c0.6-2.7-0.6-5-2.5-6.5c-1.9-1.6-3.7-1.6-5.8-0.2c-1.3,0.9-2,2.1-2.7,3.5
			c-1.4,2.9-0.4,6.5,1.9,8.9c4.9,5.1,12.3,0.9,13.9-4.6c1.4-4.7-1-10.3-4.7-13c-1.8-1.3-3.8-2-5.6-2.4c-6.4-1-12.3,3.6-14.2,11.4
			c-0.6,2.3-0.5,4.7-0.4,7.1c0.3,5.7,6.8,13.7,10.8,16.7c5.5,4,12.1,5.7,20.7,10.5c9.5,5.4,8.6,6,15.5,14.6
			C405.5,299,402.7,294.9,396.8,290.6z M367,205.1c2.1,2,4.6,2.9,7.3,2.3c1-0.2,1.7-1,2.5-1.6c1.4-1.5,1-4.1,0-5.8
			c-1.5-2.8-4.2-4.3-7-4.1C366,196.1,363,201.1,367,205.1z M365.9,234.9c-1.3-3.1-11.9-6-15.3-5.7c-4.2,0.4-8.3,2.6-10,7.7
			c-0.2,0.6,0.4,1.4,0.8,1.8c5.7,5.3,18.3,6.7,23.7-0.1C365.9,237.7,366.3,236.1,365.9,234.9z M419.3,278.3c-4.2,0-8.3,0-12.5,0
			c-1.1,1.1-2.1,2.3-3.2,3.3c5.5,0,11.1,0,16.6,0C419.9,280.5,419.6,279.5,419.3,278.3z M370.6,193.4c0.7,0.3,1.5,0.2,2.3,0.5
			c0.2,0.1,0.4,0.2,0.6,0.3c-1.2-1.3-2.4-2.6-3.6-3.9C369.2,191.3,369.3,192.8,370.6,193.4z M367.3,381.5c1.3,1.3,2.5,2,3.7,0.2
			s-0.8-4.9-3.2-4.9C364.8,376.9,365.7,379.9,367.3,381.5z M333.5,261.1c1.1,1.1,1.4,0.3,2.7-0.6c2.5-1.8,6.3-2,5.5-7.6
			c-0.5-3.9-0.3-9.7-2.5-13.2c-1.5-2.6-3.5-1.5-4.3,0.9c-0.3,0.8-0.4,1.6-0.3,2.9c0.1,2.6,0.8,5.5,0.9,8.2
			C335.1,255.4,331.7,259.3,333.5,261.1z M548.7,352.8c1.3,2.6,2.6,5.1,3.8,7.8c0.9,1.8,1.7,3.8,2.6,5.6c0.1-0.1,0.1-0.1,0.2-0.2
			C559,360.7,554.1,353.8,548.7,352.8z M336.3,290.8c2.4,1.3,6.8,3.4,9.4,3.8c5.4,0.8,4.7-4.9,3.4-8.9c-0.7-2-3.4-6.3-4.7-8
			c-0.8-1-1.5-2-2.5-2.8c-3.8-2.8-8.5,4-10.5,7.3c-0.6,1-1.1,2.3-0.9,3.4C330.8,287.9,334.6,289.9,336.3,290.8z M329.6,263
			c-0.8,0.4-1.4,1.3-2,2c-4.6,5.1-5.7,3.4-8.7,5.8c-0.6,0.4-1,1.3-1.2,2c-0.6,2.5,0.6,6.2,1.9,8.2c0.6,0.9,1.7,1.4,2.7,1.3
			c3.2-0.2,14.1-7.2,14.6-11.5c0.3-2-3.8-7-5.8-7.7C330.8,262.8,330.2,262.7,329.6,263z M358,374.2c1.5,0.5,3.6,1.1,4.1,1.1
			c7.7-0.1,5.1-10.3,5.8-11.7c1.4-2.9,3.9-4,1.9-6.9c-4.5-6.8-14.8,2-15.6,9.5C353.9,369.3,355.1,373,358,374.2z M371.8,209.9
			c-5.9,0.1-5.2,7.8-3.4,11.5c2.2,4.2,5.5,2.6,7.9-0.9c2.1-3,2.5-6.2-0.2-9.1C374.6,209.7,373.3,209.8,371.8,209.9z M565,347.3
			c-4.3-6.5-11.4-9.9-18.4-10.7c-1.7-0.2-4-0.1-6.2,0.2c1.3,2.4,2.5,4.7,3.8,7.1c7-0.1,14.7,3.1,16.7,11.2
			c1.4,5.8-1.4,11.8-4.3,14.5c1,2.3,1.9,4.6,2.9,6.9c3.7-2.5,6.6-6.5,8.2-11.5C569.4,359.6,567.7,351.3,565,347.3z M424.7,456.2
			c1.4-1.6,0.8-4.5-0.5-5.9c-2.1-2.5-3.7,2.1-3.1,4.5C421.6,457,423,458,424.7,456.2z M426.9,379.4c1.4-19,1.4-35.4,5.7-51.7
			c-0.8-3.1-1.5-6.2-2.3-9.3c-2.2,3.8-3.5,7.7-4.4,11.4c-2.4,9.2-2.1,17.7-1.4,26.1c0.2,1.9,1.1,10.3-2.7,9
			c-1.4-0.5-1.4-3.2-1.6-4.8c-2.1-17.6-0.2-41.6-18.9-49.8c5.7,9.1,8.2,16,10.5,26.8c6,27.5,5.5,61.4,10.5,91.9
			C423.8,413.1,425.6,395.8,426.9,379.4z M334.6,236.5c2.1,0.2,8.6-7.4,12.3-9.4c1.2-0.6,3.3-1.5,2.7-2.8c-0.9-2.1-2.8-8.5-2.9-8.8
			c-0.3-0.5-2.5,2.5-4.4,5.4c-2.8,4.2-5.7,7.2-8.3,10.9c-0.8,1.1-1.3,2-1.1,2.6C332.9,235.5,333.8,236.4,334.6,236.5z M358.3,211
			c-0.6-0.1-4.4-0.1-5,0c-1.9,0.4-3.7,2.3-3.3,4.5c0.9,4.9,3.5,7.9,8,8.5c6.5,0.8,8.8-6.3,5.2-10.3
			C362.1,212.3,359.6,211.2,358.3,211z M351.1,198c-3.6,4.2,0.8,9.2,4.3,10.1c1.2,0.3,2.5,0.3,3.6-0.4
			C367.6,201.6,358.7,189,351.1,198z M363.3,206.6c-1.7,0.4-1.8,2.1-0.8,3.3c1.1,1.2,3.1,0,2.8-1.8
			C365.2,207,364.3,206.4,363.3,206.6z M422.1,287.7c-4.2,0-8.5,0-12.8,0c-1,1-1.9,2-2.9,3c5.5,0,11,0,16.5,0
			C422.6,289.8,422.4,288.8,422.1,287.7z M421.2,335c1-5.6,1-12.8,3.7-17.6c1.8-3.3,2.8-4.6,3.5-6.2c-1.4-5.7-2.9-11.3-4.4-16.8
			c-4.5,0-9.1,0-13.6,0c-0.7,15.2,6.4,20.3,7.1,23.7C418.7,323.8,419.9,329.3,421.2,335z M346.8,173c-1.8-1.6-8.5-7-9.1-1
			c-0.1,1.3,0.5,2.6,0.9,3.9c1.2,4-5,7.1,10.7,14.8c4.5,2.3,10.1-0.2,7.2-6c-1.2-2.4-2.1-3.8-3.8-5.8C351,176.8,349,174.9,346.8,173
			z M360.4,187.5c1.4,6.9,5.4,5.4,8.4,1.7c-3.1-3.3-6.1-6.7-9.1-10.1C359.7,181.9,359.8,184.7,360.4,187.5z M499.6,257.1
			c1,2.3,1.9,4.5,2.9,6.7c0.4-0.4,0.6-1.1,0.6-1.8C503,260.4,501.1,258.5,499.6,257.1z M579.5,316.9c0.6,4.8,4,5.6,6.6,14.8
			c2.4,8.3,3.9,16.1,2.4,24c-1.5,8-6,16-12.4,20.2c-1.4,1-3.2,1.5-4.4,2.5c-3.2,2.4-1.9,3.2-3.4,5c-0.5,0.6-2.6,1.7-4.6,3.6
			c1,2.6,1.8,5,2.8,7.6c1,0.1,1.8,0.3,2.6,1.2c0,1.3-0.6,2-1.3,2.6c0.8,2.4,1.5,4.7,2.3,7.1c14.4-11.8,26-28.5,28.1-48.8
			c1-9.4-0.8-18.7-5.2-27.1C591.2,326.5,584.1,315.7,579.5,316.9z M428.8,518.8c-2-4.7-4.6-2.1-7.9-3.2c-1.7-0.5-2.5-0.6-3.5,1.7
			C413.1,527.3,432.8,527.8,428.8,518.8z M434.2,500.9c0.7-0.8,0.7-1.9,0-2.7c-0.7-0.8-1.7-0.8-2.4,0c-0.7,0.8-0.7,1.9,0,2.7
			C432.5,501.6,433.6,501.6,434.2,500.9z M431.2,443c-1.8,1.6-1.9,0.2-2.6,3.2c-0.4,1.7-1,3.1-1.1,4.5c-0.4,6.3,1.5,5.4-1.3,9
			c-1.4,1.9-0.4,4.5,0.1,8.7c1.2,10.5-4.5,9.2-5.8,7c-1.4-2.4-0.1-7.4-0.1-9c0-1.5,0.5-3,0.3-4.5c-0.5-4-2.7-0.5-2.5-6.7
			c0.1-2.1-0.3-3.1-0.5-5.3c-0.3-4.1,0.6-6.2-2.4-7.5c-3.4-1.4-7-14.2-11.8-8.9c5.7,11.9,11.2,17.7,10,34.3c-0.2,2.8-0.4,5.7,0,8.4
			c2.2,12.3,16.3,10.4,18.2,3.4c4.4-17.2,0.2-25.6,9.1-45.8C434.9,430.5,433,441.5,431.2,443z M421.5,507.4c-1.1,1.2-1.1,3,0,4.1
			c1.1,1.2,2.7,1.1,3.7,0c1.1-1.2,1.1-3,0-4.1C424.2,506.3,422.5,506.3,421.5,507.4z M300.5,347.7c3.1,0.2,8.9,0.3,9.3-4.3
			c-2.3-2.9-9.5-3.6-13.3-3c-7,1-13.9,4.5-18.2,11.2c-2.6,4.1-4.2,12.4-2.2,17.8c3.6,10.2,12.7,16.5,22.2,12
			c2.8-1.3,5.2-3.5,6.7-6.3c2.5-5.1,1.2-11.8-2.5-15.8c-1.5-1.6-3.5-2.7-6.1-2.7c-5.9-0.1-12.1,7.7-7.7,13.5c1.1,1.5,5.1,3,3.3,4.5
			c-3.3,2.6-11.1-6.5-9.1-15.3C284.4,350.6,293.1,347.3,300.5,347.7z M425.3,492.2c1.1-1.2,1.1-3.1,0-4.3c-1.1-1.2-2.8-1.2-3.9,0
			s-1.1,3.1,0,4.3C422.4,493.4,424.2,493.4,425.3,492.2z M553,286.5c-0.3,0.3-0.3,0.9,0,1.2c0.3,0.3,0.8,0.3,1.1,0s0.3-0.9,0-1.3
			C553.8,286.1,553.3,286.1,553,286.5z M528.6,283.2c-0.8-0.6-1-1.2-1.5-0.5c-0.8,1-0.9,3.1-0.6,4
			C527.8,290.4,534.4,287.7,528.6,283.2z M565.8,277.4c7.3-0.1-0.6-9.1-1.4-10.8c-0.9-1.7-0.8-2.7-2.4-4.3c-2.1-2.3-7-1.7-9.5-1.3
			c-2.3,0.9-8.9,1.9-7.1,6.1c0.9,2,3.4,5.9,5,7.7C555.8,280.6,563,277.5,565.8,277.4z M535,281c1.9,0.4,2.2,1.5,4.2,0
			c4-2.9,8.7-6.3,3.2-12.2c-4.2-4.5-5.2,0-7.8,1.2c-1.6,0.8-1.3-0.6-3.7,0c-2,0.6-1.6,0.3-3.8-1.4c-2,1.4-2.3,1.7-2.1,4
			c0.1,1.5,0.6,3.3,1.5,4.7c1.7,2.6,2.3,2.9,4.2,3.3C534.9,281.5,533.2,280.6,535,281z M579.5,269.2c-1.5,2.1-4.8,7.5,0.1,7.6
			c1.6,0,3.5-0.9,4-0.8c1,1.4,0.3,7.2,5.1,5.7c0.8-0.2,4.9-2.7,8,0.6c1.3,1.4,1.9,2.5,3,3.1c3.7-3.8-1.3-14.1-4.1-17.1
			C589.4,261.9,583.9,262.8,579.5,269.2z M431.8,503.4c-4.2,2.3-1.9,5.1-2.9,8.8c-0.5,1.9-0.6,2.8,1.5,3.9
			C439.5,520.8,439.9,498.9,431.8,503.4z M327.5,221.1c0.8,2,0.9,6.5,2.5,9.9c1.7,3.4,5.1-5.6,5.8-6.7c1.2-1.8,2.7-3.1,3.8-5
			c1.2-2,1-2.9,1.3-4.7c1.5-10.5-14.7-29.7-13.8-13c0.2,3.9-1.6,6.5-1.5,9.8C325.6,214.1,326.6,218.3,327.5,221.1z M623.8,285.8
			c11.7,7,24.8-3.3,22.7-15c-0.8-4.6-5.4-10.9-9.8-9.7c-10.5,3.1,2.9,5.8,1.4,11.7c-0.5,2.1-1.4,3.2-3,3.3c-0.8-1.6,0.4-3.1-0.8-5.7
			c-0.7-1.6-3.5-3.1-4.8-2.7c-2.1,0.6-0.7,2.7-2.2,5c-2.9,4.4-7.1,2.5-9.7-1.3c-2.3-3.6-2.8-7-1-11c4.6-10.1,4.6-1.1,7-0.3
			c2.7,0.9,8.5-10.4,15.3-10.4c8.4-0.1,11.4,5.3,15.9,6.5c0.4-2.4-4.4-7.5-9.2-10.7c-15.2-10.4-35.1-0.2-35.4,19.4
			C610.3,274.1,616.9,281.7,623.8,285.8z M418.1,506.9c0.5-1.9,0.6-2.8-1.5-3.9c-9-4.8-9.4,17.1-1.4,12.7
			C419.5,513.3,417.2,510.5,418.1,506.9z M432.3,518.9c-0.7,0.8-0.7,1.9,0,2.7s1.7,0.8,2.4,0s0.7-1.9,0-2.7
			C434,518.1,433,518.1,432.3,518.9z M412.5,518.4c-0.7,0.8-0.7,1.9,0,2.7s1.7,0.8,2.4,0c0.7-0.8,0.7-1.9,0-2.7
			C414.2,517.6,413.2,517.6,412.5,518.4z M414.4,500.4c0.7-0.8,0.7-1.9,0-2.7c-0.7-0.8-1.7-0.8-2.4,0c-0.7,0.8-0.7,1.9,0,2.7
			C412.7,501.1,413.8,501.1,414.4,500.4z M417.8,501c2,4.7,4.6,2.1,7.9,3.2c1.7,0.5,2.5,0.6,3.5-1.7
			C433.6,492.5,413.9,492.1,417.8,501z M545.9,315.4c-4.8-2.1-10.5,0.8-14.7,4.9c1.8,3.3,3.7,6.7,5.5,10c3.3-2,5.8-4.8,8.9-8.3
			C548.9,318.4,550.1,317.2,545.9,315.4z M382.2,383.9c1.1-1.3,2.5-3.1,2.4-4.6c0-0.1-1.3-4.3-1.4-4.5c-2.9-5.7-15.2-4.2-8.7,5.4
			c1,1.5,2.3,2.5,3.7,3.9C380,385.9,380.3,386.1,382.2,383.9z M508.4,276.8c1,2,1.9,4.1,2.9,6c0.1-1.2-0.4-2.4-1-3.3
			C509.8,278.7,509.2,277.7,508.4,276.8z M365.2,383.1c-1.7-2.5-4.3-6.7-7-6.1c-1.7,0.3-5,3.5-2.8,7.8c0.8,1.5,1.7,2.9,3.3,3.2
			c3.4,0.9,2.3,1.4,3.8,1.7C363,389.7,368.9,388.2,365.2,383.1z M387.2,391c-1.7-4.6-6.6-5.7-9.7-0.8c-1.1,1.8-1.1,1.9-0.2,3.8
			C380.7,401.2,388.9,395.7,387.2,391z M409,405.8c2.8,8,4.7,19.4,6,28c0.7,4.9,4.8,10.9,4.6-0.8c-0.1-2.7-0.5-5.6-1-8.3
			c-2-11.7-4.1-22.3-6.8-33.9c-4.9-16.3-12.4-27.8-20.4-42.1c-4.5-8.2-11.8-17.9-8.8-28c-4.2-6.3-14.7,4.6,0.2,23.9
			c10.3,13.4,14,19,21,34.8c2.2,6.1,0.4,4.9-1.3,2c-0.5-0.9-1-1.7-1.4-2.6c-5-10-9.8-19.8-17.1-28.1c-14.5-16.2-25.2-9.9-25.2-3.8
			c0,5.8,4.9,2,7.7,2.3c6.5,0.4,13.4,7.8,19.1,14.5c4.7,5.6,8.3,10.9,12.2,16.8C403.3,389,405.6,396.4,409,405.8z M371.2,335.2
			c3.7,4.1,1.4-3.6,1.2-4.5c-1-4.8-9.5-12.6-12.8-15.3c-4.2-3.4-12.7-10.3-16-3.4c-0.6,1.3-1.5,2.5-1.3,3.4c0.6,2.5,4,2.9,7.3,4.4
			c3.1,1.4,11.6,6.9,16.7,10.7C368.6,332.2,369.3,333.1,371.2,335.2z M338.7,372.7c3.2,5.1,7.1,8.6,11.7,9.2
			c6-7.8-0.7-21.7-10.7-23.4C337.7,361,337.1,370,338.7,372.7z M347.8,330.1c-5.2-0.4-7,4.4-8.1,8c-0.8,2.7,0.1,6.4,0.2,8.2
			c0.2,2.7,0.5,5.4,0.7,8c0.5,1.3,1.4,1.9,2.6,1.9c2.9,0.1,7.1-3.4,8.1-9.7c0.6-3.6-0.3-8.9,0.8-12.1
			C353.5,330.2,350.7,330.3,347.8,330.1z M356.6,392.6c-0.4,1,0.1,2.1,1.2,2.8s1.6,0.2,2.2-0.9c0.8-1.4-0.1-2.6-1.1-3
			C358,391.1,357.1,391.7,356.6,392.6z M575.9,205.9c-5.3-3.6-12-8.5-18.4-5.5c-1.8,0.9-6.4,2.7-6.4,5.7
			c-0.2,10.4,15.5,10.1,21.4,7.9C578.2,211.2,583.4,211,575.9,205.9z M538.9,233.4c-0.1,3,10.7,10.3,13.1,9.7
			c1.1-0.3,12-9.2,12.5-11.4c0.5-1.7-1.7-2.1-2.5-2.5c-1.3-0.5-2.2-1.4-3.4-2.1c-4-2.6-3.7-1.4-7-1.1c-3.5,0.3-6.9,4.4-9.9,5.5
			C541.1,231.7,539,231.7,538.9,233.4z M540.6,263.4c4.5-0.3,8.2-4.8,10.6-8.6c3.6-5.5-3.7-11.8-7.5-10.8c-3.1,0.8-3.2,2.6-1.7,5
			c2.4,4-0.1,4.1-0.4,6.1c-0.2,1.2,0.5,1.6,0,3.2C541.1,259.8,537.6,263.6,540.6,263.4z M539.2,251c-1.4-0.8-3.4,1.2-4.5,2.1
			c-2.4,1.9-1.9,2.5-3.1,4.8c-2.5,4.9-5.6,5-4.5,7.3c1.7,4.2,8.9-1.2,10.7-4.5C538.8,258.9,542.4,252.7,539.2,251z M536.8,239.4
			c-0.8-0.3-5.6,0.6-5.7,3.2c-0.1,1.3,1,1.6,1.3,5.6c0.2,1.9,0.3,2.4,2.6,1.6C539.2,248.5,541,240.9,536.8,239.4z M511.7,250.8
			c-1.8,3.5,0.2,5.3,4.4,9.7c7.6,8,13.9-1.8,13.3-7.2C528.9,247.4,517.1,240.5,511.7,250.8z M509.8,260.4c-1.8,0.9-5.3,5.1-5.6,7.4
			c0.5,1.1,1,2.3,1.5,3.3c3.3,3.9,10.7,8.2,13.3,8.3c1,0,2.1-0.4,2.7-1.4c1.4-1.9,2.4-5.8,1.7-8.2c-0.2-0.8-0.6-1.6-1.2-2
			c-3-2.3-4-0.4-8.8-5.5c-0.7-0.6-1.3-1.5-2-1.9C511,260,510.3,260.1,509.8,260.4z M530.1,230.9c-2.8-1.3-4.6-2-7.1,0.9
			c-1.5,2.5-2.3,3.9,1.4,5c3.1,1.1,7.9,3.1,10.4-0.3C536.4,234.2,532,231.7,530.1,230.9z M526.2,245.8c0.5,0.2,0.9,0.3,1.4,0.5
			c1.2,0.3,2,0.6,1.7-1.3c-0.7-3.9-7.5-8-9.5-5.3C517.8,243.1,523.1,244.4,526.2,245.8z M415,284.1c-0.4,0.4-0.4,1.2,0,1.6
			s1.1,0.4,1.4,0c0.4-0.4,0.4-1.2,0-1.6C416.1,283.5,415.4,283.5,415,284.1z M490.2,188.6c15.5-8.2,9.3-11.2,10.3-15.1
			c0.4-1.3,1-2.6,0.8-3.9c-0.7-6-7.2-0.3-9.1,1.3c-2.1,1.8-4.1,3.9-5.9,6.1c-1.6,2-2.5,3.4-3.7,5.9
			C480.2,188.7,485.7,191,490.2,188.6z M499.3,212.1c0.3,1.9,0.2,2.8,1.4,4.7c1.2,1.8,2.6,3.1,3.9,4.9c0.8,1.1,4.2,10,5.9,6.4
			c1.5-3.3,1.6-7.8,2.3-9.9c0.9-2.8,1.7-7.1,1.8-9.9c0-3.3-1.9-5.9-1.7-9.8C513.3,181.9,497.6,201.6,499.3,212.1z M511.6,235.8
			c-1.4,4.3-6.2,9.4-2.3,14.6c1.4-2,1.1-3.6,3.8-5.4c2.4-1.5,2.6,0.6,3.5-3.8c0.8-3.4,1.7-7.5-1.2-9.4S512.5,233,511.6,235.8z
			 M524.7,224.1c4.2,2.9,4.3,0,5.8-3.5c1.9-4.6,5.4-12.7,1.3-17.1c-2.1-2.3-3.5-3.1-5.7-5c-8-6.9-6,1.3-6.9,9.4
			c-0.2,1.5-0.6,2.7-0.8,4.3C517.8,217.1,521,221.5,524.7,224.1z M290.4,206.6c2.2,1.5,2.5,1.1,3.1-1.4c1.4-6.4,5.7-17.4,1.5-23.8
			c-1.4-2.1-7-12.1-9.4-9.7c-3.2,3.3-6.3,11.8-6.5,16.7C278.8,195.7,285.3,203.2,290.4,206.6z M295.1,228.1c1.2,1.9,4.2,4,6.1,5
			c1.7,1.1,4.6,0.8,6.4-1.5c1.8-2.4,0.6-4.7-0.1-7.1c-0.9-3.1-0.9-3.9-2.8-7.2c-2.3-4.1-5.4-4.7-9.3-5.3
			C288.8,211.1,294.7,227.4,295.1,228.1z M315.6,227.2c3.6-2.7,6.8-7.2,6.1-12c-0.3-1.5-0.7-2.7-0.9-4.2c-1-8.2,0.8-16.4-7-9.3
			c-2.2,1.9-3.5,2.9-5.6,5.3c-4.1,4.5-0.4,12.4,1.6,16.9C311.4,227.4,311.6,230.3,315.6,227.2z M549.5,202.8
			c5-3.5,11.3-11.3,10.8-18.5c-0.3-4.9-3.6-13.4-6.9-16.6c-2.4-2.4-7.8,7.7-9.2,10c-4.1,6.5,0.5,17.4,2,23.8
			C547,203.9,547.3,204.4,549.5,202.8z M577.2,325.3c-0.9,3.2-4.2,5.5-6.2,4.9c-2.4-0.5-3.4-5.3-7-2.6c-5.5,4.2-9.4,6.3,0,11.2
			c2.9,1.5,6.1,1.4,9-0.1c4.4-2.1,8.4-11.3,6.1-15.4C577.6,320.8,577.3,324.7,577.2,325.3z M456.7,453.6c3.2-3.2,9.2-5.8,10.8-8.6
			c1.9-3.4,0.2-2.8-0.5-6.4c-0.4-2,0-1.6,0-3.2c0-1.4-1-2.4-2.1-2.1c-4.1,1-13.3,20.1-10.9,21.9
			C454.9,455.8,455.8,454.6,456.7,453.6z M532.9,228.3c1.8,2.3,4.7,2.5,6.5,1.3s4.8-3.2,5.9-5.3c0.4-0.6,5.9-17.1-0.7-15.9
			c-3.8,0.6-6.9,1.4-9.2,5.5c-1.7,3.3-1.8,4.1-2.6,7.2C532.2,223.6,531.1,225.9,532.9,228.3z M444.6,430.5c3,2.3,4.2,7,10.4,4.2
			c2.9-1.3,3.5-5.3,1.6-7.6c-3.4-4.6-8.6-4-12.7-1.3C439.4,428.7,444.1,430.2,444.6,430.5z M560,196.4c0.7,0.8,1.7,0.6,2.4-0.1
			c0.7-0.8,0.6-1.9-0.1-2.7c-0.7-0.8-1.7-0.6-2.4,0.1C559.3,194.5,559.3,195.7,560,196.4z M279.8,200.6c0.7-0.8,0.7-1.9,0-2.7
			s-1.7-0.8-2.4,0c-0.7,0.8-0.7,1.9,0,2.7C278.1,201.2,279.1,201.2,279.8,200.6z M591.1,298.9c3.5-2.9,7.4-7.9,5.8-11.7
			c-1.8,0.6-2.8,2.8-4.6,4.6c-7.5,7.4-15.1,7.5-23.5,5.5c-4.6-1.1-9.3-2.1-13.9-3.2c-11.4-1.7-25.8-3.3-37.8,0.3
			c0.6,1.1,1.1,2,1.6,3.1c0.2,0.3,0.4,0.6,0.6,1c1.3-0.6,3-1.2,5.3-1.5c6.7-1,12.3-1.3,17.7-0.9c7,0.5,13.5,2.3,21.4,5.6
			c5.6,2.4,10.3,4.7,16.5,2.8C583.7,303.3,587.4,301.9,591.1,298.9z M593.1,190c1.4-1.2,2.6-3.1,2.1-4.5c-1.2-3.6-24.8-7.1-30.3,7
			C572.6,200.8,585.6,196.2,593.1,190z M246.6,195c7.6,6,20.7,10.3,28.2,1.7c-5.8-13.9-29.4-9.9-30.4-6.1
			C243.9,192,245.1,193.8,246.6,195z M415.2,525.5c-1.6-1-2.1-0.6-4-2.5c-3.9-3.5-9.7-0.8-12.3,2.3c-5.6,6.2,3.8,20.2,8.1,21.3
			c1.9-4.1-1.7-8.6,0.3-11.7C409.6,531.5,415,531.3,415.2,525.5z M422.9,542.8c-2,0.4-4.2,0.9-6.2,1.3c-3.4,1-8,0-5.8,5.7
			c0.7,1.6,0.8,3,2.2,4.2c5.7,4.7,7.3-0.8,16.2,2c1.8,0.5,6.5-2.1,7.9-4.8C444,540.7,426.2,541.7,422.9,542.8z M406.9,501
			c-2.8-1.7-6.8-4.2-10.5-5.3c-4.7-1.3-6.4,0.9-9.5,0.5c-5.7-0.3-15.2-11.6-6.4,7c3.9,9.8,12.6,8.5,20.5,5.4
			C403,507.7,412.2,505.6,406.9,501z M442.4,522.2c-4.1-1.8-3.2-0.8-6.3,2c-2.1,1.8-5.2,1.6-0.5,5.9c8.2,7.2,4.2,18.3,9.3,14.1
			c3.7-3,5.4-4.4,5.8-10.5C451.2,526,447.4,524.5,442.4,522.2z M379.6,490.1c2.9-3.3,0.8-7.8,1.4-9.4c1.4-2.8,5.9-3.3,8-4.5
			c7.9-4.3,3.3-24-4-16c-3.8,4.2-11.1,9.2-12.3,17.1C372.5,480.1,376.3,487.8,379.6,490.1z M658.1,263.9c-0.3-0.6-0.9-1.4-1.5-2.3
			c-1.1-1.2-2.3-2.3-3.4-2c-1.5,1.6-0.3,1.9,0.1,3.9c2.1,11.4-0.5,23.6-7.8,32.1c-1.1,1.2-3.8,3.4-4.9,3.4c-1.4-0.5,0.8-6.3-5.9-4.9
			c-1.7,0.3-6.8,4.6-8.4,6c-3,2.5-5.7,4.4-8.3,6c-6.5,4-12.7,5.4-22.8,4.2c-5.5-0.6-11.3-2.8-16.1-1.9c-8.1,1.6,8.9,9.4,11.5,10.7
			c11.6,5.5,33.3,12.8,35.6,6.7c0.1-2.4-1.4-1.9-1.8-4.2c1.7-2.5,4.9,0.8,7.2,1.7c5.5,2.6,10.3,3.4,14.6-4c3.1-5.5-1.6-4.8-2.7-7.3
			c1.4-4.2,13.1-8.2,17.4-29.7C662.2,275.9,661.6,270.9,658.1,263.9z M459.6,495.1c-3.1,0.5-4.8-1.6-9.5-0.2
			c-3.8,1.2-7.6,3.6-10.4,5.5c-5.2,4.7,4.1,6.7,6.1,7.4c7.9,2.9,16.7,3.9,20.3-5.9C474.5,483.1,465.3,494.6,459.6,495.1z
			 M469.7,433.6c-0.9,3,0.5,6.8,2.6,8.2c0.9,0.6,1.6,0.8,2.4,0.8C473,439.6,471.3,436.6,469.7,433.6z M460.5,459
			c-7.4-7.9-11.6,11.9-3.6,16.1c2.2,1.1,6.8,1.5,8.1,4.3c0.8,1.6-1.3,6.1,1.7,9.4c3.3-2.5,6.9-10.2,6.4-13.1
			C471.9,467.9,464.4,463.1,460.5,459z M330.2,447.1c5.2-2.9,0-3.8,0.5-7.4c0.4-2.7,4.6-3.3,5.7-7.9c0.8-3.5,4.3-5,3.4-8.2
			c-2.3-2.9-3.8,1.2-6.3,0.5c-1.3-0.9-0.8-6.5-5.2-10.2c-1.1,3-0.6,4.9-2.8,8.6c-3.8,6.4-9.3,18.2-2.9,24.9
			C324.1,448.9,329,447.8,330.2,447.1z M366.6,431.4c-17.4,3.1-12.7,15.1-15.9,25.2c-0.8,2.5-1.9,4.7-1.9,5.6c2.1,1.9,8-2.9,9.1-6.7
			c1.3-4.3,1.2-8.2,4.9-11.2c4.8-3.9,6.4,1.8,10.2-1.1C377,440.5,378,429.3,366.6,431.4z M299.9,423c-1.1-2.3-0.4-3,0.6-4.4
			c1.9-2.8-0.5-8-2.2-9.3c-3.2-2.5-8.4-5.4-12.2-6c-2.6-0.4-10.4,2-10.7-3.1c2.5-3,6.5,0.6,8.6-4.2c-2.3-5.4-7.3-7.4-8.2-8.4
			c-1.4-1.7-0.3-2.7-3.5-4.9c-1.3-0.9-3-1.4-4.5-2.4c-6.6-4-11.1-11.8-12.8-19.7c-1.7-7.9-0.3-15.8,1.8-24.1
			c2.4-9.2,5.8-10.1,6.3-14.9c-4.7-1.1-11.5,10-13,13.1c-4.3,8.6-5.8,17.9-4.6,27.2c2.7,21.5,16,38.6,32,50.1
			c5.4,3.9,18.5,12.2,14.5,21.1c-2.4,5.3-4.1,1.9-7,4.3c3.9,10.7,13.4,3.2,16.6-5.3c0.9-2.3-0.3-2.4-0.3-4.5
			C301.3,424.3,301.4,426.2,299.9,423z M201.8,256c6.8-0.1,12.8,10.9,15.5,10c2.3-0.8,2.1-9.9,7,0.1c1.9,4,1.5,7.4-0.7,11
			c-2.4,3.9-6.6,5.9-9.7,1.6c-1.6-2.3-0.2-4.3-2.4-4.9c-1.3-0.3-4.1,1.2-4.7,2.8c-1.1,2.6,0.1,4.1-0.6,5.7c-1.6-0.1-2.4-1.1-3-3.2
			c-1.5-5.9,11.8-8.9,1.2-11.7c-4.3-1.2-8.8,5.3-9.5,10c-1.7,11.8,11.5,21.7,23.1,14.4c6.8-4.3,13.2-12.1,12.8-21.3
			c-0.8-19.6-21-29.2-35.9-18.3c-4.6,3.4-9.4,8.7-8.9,10.9C190.5,261.5,193.4,256.1,201.8,256z M244.9,287.6c3.1-3.4,7.2-1.1,8-0.9
			c4.7,1.3,4.1-4.5,4.9-5.9c0.5,0,2.4,0.8,4.1,0.6c5-0.3,1.5-5.6,0-7.6c-4.5-6.2-10.1-7.1-16.2-0.3c-2.8,3.1-7.4,13.5-3.7,17.2
			C243,290.1,243.7,288.9,244.9,287.6z M199,318.4c-1,2.6-5.8,2-2.5,7.4c4.4,7.3,9.3,6.2,14.7,3.5c2.2-1.1,5.4-4.4,7.1-1.9
			c-0.4,2.4-1.8,1.8-1.7,4.3c2.4,6.1,23.9-1.8,35.4-7.6c2.6-1.3,19.5-9.7,11.3-11c-4.8-0.8-10.5,1.5-16,2.4
			c-9.9,1.5-16.3,0.2-22.9-3.5c-2.7-1.5-5.4-3.4-8.5-5.8c-1.7-1.3-6.9-5.5-8.6-5.8c-6.8-1.2-4.4,4.5-5.8,5.1c-1.3,0-4-2.1-5-3.3
			c-7.4-8.3-10.3-20.4-8.5-31.9c0.3-2,1.5-2.4,0-3.9c-1.1-0.1-2.3,1-3.3,2.1c-0.7,0.8-1.2,1.6-1.4,2.3c-3.3,7-3.9,12.1-2.4,18.5
			C185.7,310.7,197.4,314.3,199,318.4z M320.8,390.9c-1.4-1-3.1-1.4-4.3-0.5c-1.2,0.9-1.6,2.1-2.6,3.1c-1.9,2-9.6,8-12.4,9.1
			c-7.1,2.7,1,6.5,3.1,5.9c4.6-1.4,13.4-7.3,16.8-12.8C322.7,393.5,323,392.6,320.8,390.9z M355.4,416.1c0.5-2.7-1.6-3.9-3.5-6.1
			c-1.7-2.3-0.8-3.2-2.7-6c-1.5,0.2-4.2,1.6-4.9,3.6c-0.8,2.6-1.4,7.2-0.9,9.2c0.4,1.6,0.7,1.7,0.9,3.2c0.3,2,0.5,4.1,2.1,5.8
			C349.4,425.5,354.9,419.3,355.4,416.1z M339.6,455c-1.4-1.7-1.3-5.1-3.5-6.8c-1.2-0.8-1.7,0-3.1,0.6c-2.3,1.1-8.2,1.7-8.7,4
			c-0.6,2.6,4.5,9.7,9.5,11.3c2.6,0.9,3.8-0.9,6.2-1.2c3-0.4,3,0.5,5.6-3.6C344.1,457.2,341.8,458,339.6,455z M373.3,393.9
			c-3.5-5.8-9.6-2.6-10.1,1.6c-0.2,1.6,1,2.7,1.9,4.3C370,409.1,376.3,398.8,373.3,393.9z M314.3,268.5c1-2.3-2.1-2.4-4.7-7.2
			c-1.3-2.3-0.7-2.9-3.2-4.7c-1.2-0.9-3.3-2.8-4.5-2c-3.1,1.8,0.5,7.8,1.6,9.8C305.4,267.5,312.5,272.7,314.3,268.5z M311.5,248.2
			c-0.3,1.9,0.7,1.6,1.7,1.3c0.6-0.1,1-0.3,1.4-0.5c3.1-1.5,8.3-3,6.1-6.2C318.9,240,312.1,244.4,311.5,248.2z M299.5,261.9
			c-0.6-1.6,0.2-1.9-0.1-3.2c-0.4-2-2.9-2-0.6-6.1c1.4-2.5,1.3-4.3-1.8-4.9c-3.9-0.9-10.9,5.7-7.2,11c2.5,3.6,6.4,8,10.8,8.3
			C303.8,267,300.1,263.5,299.5,261.9z M287.7,290.4c-0.3,0.3-0.3,0.9,0,1.2c0.3,0.3,0.8,0.3,1.1,0c0.3-0.3,0.3-0.9,0-1.2
			C288.5,290.1,288,290.1,287.7,290.4z M310.4,234.1c-1.8,0.9-6.2,3.5-4.4,5.7c2.6,3.3,7.3,1.2,10.4,0.1c3.7-1.3,2.9-2.7,1.3-5.1
			C315.1,231.9,313.2,232.7,310.4,234.1z M298.7,235c-3.1-1.1-6.5-5-10-5.3c-3.3-0.2-3.1-1.4-7,1.3c-1.2,0.8-2.1,1.7-3.3,2.3
			c-0.9,0.3-3,0.9-2.5,2.6c0.6,2.1,11.7,10.7,12.7,10.9c2.5,0.6,13-7,12.9-10C301.6,235.3,299.4,235.4,298.7,235z M440.9,420.9
			c-0.1-0.6,0-1.1,0.1-1.4c0.6-3-1.7-1.2-2.6-0.1c-1.4,1.7-3,4.4-3.2,7c-0.3,3.2,1.5,3.3,3.5,1.3
			C443.3,422.7,441.2,423.3,440.9,420.9z M296,270.9c1.6-4.3-4.9-5.1-7.3-5.9c-2.5-0.3-7.4-0.8-9.5,1.5c-1.5,1.7-1.4,2.7-2.2,4.4
			c-0.9,1.8-8.5,10.9-1.2,10.9c2.8,0,10,2.9,15.4-3.1C292.8,276.9,295.3,272.9,296,270.9z M304,242.9c-4.2,1.6-2.3,9.1,2,10.4
			c2.3,0.6,2.4,0.3,2.5-1.7c0.3-4,1.3-4.3,1.2-5.7C309.6,243.4,304.7,242.6,304,242.9z M498.1,218.5c-1.9-2.8-4.2-5.8-4.5-5.3
			c-0.1,0.3-1.9,6.7-2.7,8.8c-0.5,1.3,1.5,2,2.8,2.7c3.6,1.9,10.2,9.3,12.5,9c0.9-0.1,1.6-1.1,1.7-2c0.1-0.6-0.4-1.5-1.2-2.6
			C504,225.6,501,222.6,498.1,218.5z M313.1,286.4c-5.6,4.6,1,7.1,2.2,3.4c0.3-0.9,0.2-3.1-0.7-4
			C314.1,285.4,313.9,285.9,313.1,286.4z M249.7,296.7c-1.8-1.7-2.9-3.9-4.7-4.4c-1.5,3.9,2.6,8.8,6.1,11.6c3.7,2.9,7.4,4.3,11,5.3
			c6.2,1.7,10.9-0.8,16.4-3.2c7.8-3.5,14.4-5.5,21.3-6.2c5.4-0.5,11-0.3,17.7,0.4c7.9,1,9.9,4.9,6,4.5c-1.3-0.1-3.2-0.5-5.6-1
			c-11.9-2.3-25.3-1-36.4,4c-7.9,3.5-15.7,7-14.1,18.1c1.5,10.3,7.6-1.1,10.5-3.9c5.3-5,12.8-9.8,18.8-10.4c9.7-1,17.4-0.3,26.8,2.7
			c5.4,1.7,10.9,3.2,15.3-1.6c3.8-4.2-0.3-8.3-4.4-11c-13.4-8.8-32.9-6.1-47.4-3.5c-4.6,1.2-9.2,2.4-13.8,3.6
			C264.9,303.8,257.4,303.9,249.7,296.7z M487.8,227.3c1.5,4.3,3.2,8.7,4.8,12.9c2.5-0.9,4.8-2.1,6.5-3.8c0.5-0.4,1-1.2,0.8-1.8
			c-1.8-5.1-6-7.2-10.1-7.5C489.3,227.1,488.6,227.2,487.8,227.3z M506.3,240.8c0-1.3-0.1-2.3-0.4-2.9c-0.9-2.4-2.8-3.3-4.3-0.8
			c-2.1,3.6-1.8,9.4-2.2,13.3c-0.6,5.6,3.2,5.7,5.7,7.5c1.4,0.9,1.6,1.7,2.7,0.5c1.7-1.9-1.7-5.7-2.1-9.5
			C505.6,246.3,506.3,243.3,506.3,240.8z M486.8,209c-0.6-0.1-4.4,0-5,0.1l0,0c1.3,4,2.6,7.8,4,11.7c2.4-1.4,4-4,4.4-7.5
			C490.4,211.1,488.7,209.4,486.8,209z M314.2,271.7c-2.1,1.7-1.7,2-3.8,1.5c-2.4-0.6-2,0.8-3.7,0.1c-2.7-1.1-3.8-5.6-7.9-1
			c-5.4,6-0.6,9.3,3.5,12.1c2.1,1.4,2.3,0.4,4.2-0.1c1.8-0.4,0.2,0.4,4.2-0.6c1.8-0.5,2.4-0.8,4.1-3.4c0.9-1.4,1.3-3.2,1.4-4.7
			C316.5,273.3,316.2,273,314.2,271.7z M311.6,256.5c-0.5,5.4,6,15,13.5,6.8c4.1-4.5,6.2-6.2,4.2-9.8
			C323.7,243.4,312.1,250.6,311.6,256.5z M477.9,196.9c0.9,2.9,1.7,5.8,2.6,8.6c0.2,0.1,0.4,0.3,0.6,0.4c1,0.6,2.4,0.6,3.6,0.3
			c3.6-1.1,7.7-6.2,4.1-10.3C484.2,190.8,479.4,193,477.9,196.9z M327.8,247.8c2.7,1.6,2.4,3.2,3.9,5.3c3.8-5.3-1.1-10.2-2.6-14.5
			c-1-2.7-1.1-5.8-3.9-3.9c-2.9,2-1.8,6-1,9.4C325.3,248.5,325.4,246.3,327.8,247.8z M282.3,204.5c-6.6-2.8-13,2.3-18.3,6
			c-7.4,5.4-2.1,5.4,3.5,8c6,1.9,21.7,1.8,21.3-8.6C288.7,206.9,284.2,205.3,282.3,204.5z M389,417.2c2.2,0,3.5,0.5,5.5,1.2
			c1.6,0.5,3.9,1.6,5.1,1.4c1.1-2.5-1.2-4.5-1.9-7.1c-1.7-5.7-11.1-14.9-17.1-12.6c-1.5,0.6-5.2,1.4-5.8,3.6
			C373.6,408.5,383.4,417.2,389,417.2z M374.5,385.1c-0.6-0.6-1.5-0.6-2.1,0s-0.6,1.7,0,2.4c0.6,0.6,1.5,0.6,2.1,0
			C375.1,386.8,375.1,385.8,374.5,385.1z M575,321.1c1.4-11.2-6.5-14.4-14.5-17.7c-11.1-4.6-24.6-5.5-36.4-3
			c-1.3,0.3-2.4,0.5-3.5,0.8c1.4,2.7,2.9,5.4,4.3,8c6.7-1.7,12.9-2,20.3-1.5c6,0.4,13.6,4.9,19.1,9.9
			C567.4,320.2,573.8,331.5,575,321.1z M368.4,425.1c0.7-0.4,2.8-8.8,2.9-9.5c0.6-3-1.2-7.4-4.3-8.7c-1.4,1.3-2.4,3.4-4.7,5.5
			c-2.8,2.4-3.2,2.4-2.9,5.6C359.8,424.3,367.2,426,368.4,425.1z M388.8,454.7c1.1,1,1.8,2.1,2.8,1.4c2.4-1.8-7.3-20.7-11.4-21.6
			c-1.2-0.2-2.1,0.8-2.1,2.1c0,1.5,0.4,1.2,0,3.2c-0.6,3.6-2.3,3.1-0.3,6.4C379.6,449.3,385.6,451.5,388.8,454.7z M403.6,410
			c0.2-4.3,0.4-3-0.1-7.7c-0.6-4.9-4.3-9.9-7.7-15.1c-2.6-4.1-4.2,0.4-4.9,2.9c-0.9,2.8-1.4,5.1,1.1,7.7c7.3,7.9,4.8,7.2,7.7,14.6
			c0.6,1.5,2.2,2.1,3.3,1.2C403.9,412.7,403.6,411,403.6,410z M406.4,428.4c1.9,1.9,3.8,1.8,3.4-1.4c-0.3-2.6-2-5.1-3.4-6.9
			c-0.9-1.1-3.2-2.9-2.6,0.1c0.1,0.3,0.2,0.8,0.1,1.4C403.6,424.1,401.6,423.5,406.4,428.4z M319.9,316.8c0.7-0.8,0.7-1.9,0-2.7
			c-0.7-0.8-1.7-0.8-2.4,0c-0.7,0.8-0.7,1.9,0,2.7C318.2,317.5,319.2,317.5,319.9,316.8z M360.9,409.9c3.2-1.6,2.3-10-1.2-10.9
			c-6.7-1.8-7,4.8-5.9,7.6C355.2,409.9,358.8,411,360.9,409.9z M400.5,431.4c0.4-0.3,5-1.9,0.5-4.7c-4.2-2.6-9.5-3-12.7,1.7
			c-1.6,2.5-1.1,6.3,1.8,7.6C396.4,438.4,397.5,433.6,400.5,431.4z M263.6,327.9c-2.2,4.3,1.9,13.2,6.4,15.2c3,1.4,6.1,1.4,9-0.2
			c9.3-5,5.4-7.1-0.2-11.2c-3.7-2.6-4.5,2.1-7,2.8c-2,0.5-5.4-1.6-6.3-4.8C265.3,329.3,264.9,325.4,263.6,327.9z M320.9,334.4
			c3,7.8-0.2,5.7,8.2,12.3c2.6,2,4,3.6,4.8,4.7c3.3,4.3,3,1.5,2.9-1.9c-0.1-5.3,0.2-11.2-0.6-15.1c-0.9-4.6-11-14.5-14.8-13.6
			c-1.7,0.3-2.3,2.6-2.7,4.2c-0.4,1.8,0,3,0.6,4.7C319.8,331.2,320.3,332.8,320.9,334.4z M309.7,355c1.6,0.6,2,0.6,3.6,1.7
			c7.7,5,7.4,2.7,14.1,1.8c1.7-0.2,5.7-0.1,6.8-1.4c-1.6-5.1-11.9-12.9-17-12.1C312.1,345.9,303.4,352.3,309.7,355z M296.6,319
			c-4.2,2-3,3.1,0.4,6.7c5.1,5.4,8.7,9.3,16.3,10.5c1.4,0.1,2.7,0.2,4,0.4C319.8,330.4,306.4,314.5,296.6,319z M344.8,403.1
			c1.3-2.5-0.1-2.6-1.6-4.8c-1.1-1.6-2.3-7.8-7.2-3.4c-1.8,1.6-3.3,7.7-4.2,9.9C335.8,409.8,343.4,406,344.8,403.1z M321.2,364.2
			c0.6,2.8,1.1,5.6,1.6,8.4c0.7,1.6,5.9,2,6.6-0.5c0.2-1-1.2-8.4-1.2-8.4C326.9,361.1,321.7,362.3,321.2,364.2z M350.2,399.4
			c7.2-2.5,2.9-4.2,3.3-7.1c0.3-2.1,1.4-2.3,0.4-4.6c-1.2-1.2-3.2-2-4.3-2.1c-1.8-0.1-2.9,1.6-4.2,3.3c-1.4,1.8-1.4,2.7-0.8,4.7
			C346,398.2,346.9,400.5,350.2,399.4z M338.8,389.9c2.4-1.4,4-2,5-4.2c1.4-2.9-1-3.9-3.2-4.7c-2.6-1-2.1-4.8-11-3.4
			c-4,0.6-14.8,0.6-12.9,4.4C320.7,389.7,331,394.5,338.8,389.9z"/>
	</g>
</g>
</svg>
