<?xml version="1.0" encoding="utf-8"?>
<!-- Generator: Adobe Illustrator 28.0.0, SVG Export Plug-In . SVG Version: 6.00 Build 0)  -->
<svg version="1.1" id="Layer_1" xmlns="http://www.w3.org/2000/svg" xmlns:xlink="http://www.w3.org/1999/xlink" x="0px" y="0px"
	 viewBox="0 0 1600 900" style="enable-background:new 0 0 1600 900;" xml:space="preserve">
<style type="text/css">
	.st0{fill:#C1B9AC;}
	.st1{fill:#968B7C;}
	.st2{fill:#412F3D;}
	.st3{fill:#66555C;}
	.st4{fill:#D4D1CC;}
	.st5{fill:none;stroke:#66555C;stroke-width:2;stroke-miterlimit:10;}
	.st6{fill:#9C8F9E;}
	.st7{stroke:#000000;stroke-width:2;stroke-linecap:round;stroke-linejoin:round;stroke-miterlimit:10;}
	.st8{fill:#D1C14A;}
	.st9{fill:#F27050;}
	.st10{fill:none;stroke:#412F3D;stroke-miterlimit:10;}
	.st11{fill:#847787;}
	.st12{fill:#DD583E;}
</style>
<rect class="st0" width="1600" height="900"/>
<rect x="493.5" y="224.8" class="st1" width="605.8" height="564.2"/>
<polygon class="st2" points="252.8,792.4 241.9,792.4 241.9,88.2 252.8,88.2 305.8,301.2 "/>
<polygon class="st3" points="410.3,719.4 252.8,792.4 252.8,88.2 410.3,139.4 "/>
<rect x="410.3" y="139.4" class="st2" width="744.1" height="580"/>
<polygon class="st3" points="1154.4,719.4 1461.4,767.2 1461.4,117.6 1154.4,139.4 "/>
<rect x="410.3" y="702.7" class="st4" width="744.1" height="16.7"/>
<polygon class="st3" points="1060.9,649.6 536.3,649.6 410.3,702.7 1154.4,702.7 "/>
<line class="st5" x1="1060.9" y1="639.4" x2="1060.9" y2="188"/>
<line class="st5" x1="536.3" y1="655.4" x2="536.3" y2="188"/>
<line class="st5" x1="1060.9" y1="655.4" x2="1060.9" y2="188"/>
<polygon class="st3" points="1066.3,378.1 536.3,378.1 410.3,404.2 1154.4,404.2 "/>
<polyline class="st5" points="1154.4,139.4 1063.5,181.7 536.3,181.7 410.3,139.4 "/>
<rect x="410.3" y="404.2" class="st6" width="743.8" height="16.8"/>
<g>
	<path class="st1" d="M410,302.8L410,302.8c-2.9,0-5.2-2.3-5.2-5.2v-74.8c0-2.9,2.3-5.2,5.2-5.2l0,0c2.9,0,5.2,2.3,5.2,5.2v74.8
		C415.2,300.4,412.9,302.8,410,302.8z"/>
	<path class="st1" d="M410,613.1L410,613.1c-2.9,0-5.2-2.3-5.2-5.2v-74.8c0-2.9,2.3-5.2,5.2-5.2l0,0c2.9,0,5.2,2.3,5.2,5.2v74.8
		C415.2,610.8,412.9,613.1,410,613.1z"/>
</g>
<g>
	<path class="st1" d="M1154.4,302.8L1154.4,302.8c-2.9,0-5.2-2.3-5.2-5.2v-74.8c0-2.9,2.3-5.2,5.2-5.2l0,0c2.9,0,5.2,2.3,5.2,5.2
		v74.8C1159.6,300.4,1157.3,302.8,1154.4,302.8z"/>
	<path class="st1" d="M1154.4,613.1L1154.4,613.1c-2.9,0-5.2-2.3-5.2-5.2v-74.8c0-2.9,2.3-5.2,5.2-5.2l0,0c2.9,0,5.2,2.3,5.2,5.2
		v74.8C1159.6,610.8,1157.3,613.1,1154.4,613.1z"/>
</g>
<rect x="410.3" y="133.9" class="st3" width="744.1" height="9"/>
<g>
	<ellipse class="st7" cx="652.8" cy="387.8" rx="53.2" ry="8.3"/>
	<path class="st8" d="M624.3,322.7c0,0-22,11.3-27.7,23.4s-5.7,35.2,23.5,44.1c29.2,8.9,47.7,5.1,52.3,4
		c4.6-1.1,23.9-10.7,34.1-28.2s10.5-30.1,3.8-32.5s-9.5,0.2-15.6,4.4c-6.1,4.2-38.6-5.5-38.6-5.5"/>
	<path class="st8" d="M625.9,333.1c0,0-7-15.3-6.4-20.4c0.5-5.1,11.8-22.4,24.8-24.4C655,286.7,664,291,668,299s10.2,23.9-6.4,40.3"
		/>
	<path class="st9" d="M617.9,320.9c3,2.7,5,7.3,8.9,7.4c3.9,0.1,8.5-4.2,6.7-8.2c-1.7-4-5.5-6.8-6-11.1c-0.5-4.3,0.7-8.9-0.8-9.3
		c-1.5-0.4-2.4,0.3-5.8,0c-3.4-0.3-6.4-1.5-9.4-2.3c-3-0.8-4.2,2-3.1,3.5s2.8,7.4,2.1,7.5c-0.7,0.1-3.6-0.1-4.2,1.7
		c-0.5,1.9-0.1,4.3,3.8,6.2C614,318.2,617.9,320.9,617.9,320.9z"/>
	<line class="st10" x1="614.1" y1="316.3" x2="610.7" y2="307.7"/>
	<ellipse transform="matrix(0.7071 -0.7071 0.7071 0.7071 -29.1859 536.5289)" class="st6" cx="633.1" cy="303.5" rx="5" ry="3.3"/>
	
		<ellipse transform="matrix(0.7071 -0.7071 0.7071 0.7071 -30.168 535.3966)" class="st7" cx="631.2" cy="304.1" rx="2.9" ry="1.9"/>
	<path class="st10" d="M679.9,371.6c-10.5,1.8-26-1.4-33.8-7.7c-7.8-6.3-13-8.6-20.2-8.3c-5.1,0.2-16.4,9.1-9.1,22.7
		C624,392,638,394.1,638,394.1"/>
	<line class="st10" x1="694.7" y1="341.5" x2="699.4" y2="349.2"/>
	<path class="st10" d="M639.1,341.5c0,0,8,7.6,16,0"/>
</g>
<g>
	<polygon class="st0" points="1036.2,369 1036.8,381.4 1022,401.2 780.8,388.1 798.5,365.6 	"/>
	<polygon class="st6" points="1036.2,369 1021.5,390.4 1002.3,397.6 780.8,388.1 798.5,365.6 	"/>
	<polygon class="st11" points="1021.5,390.4 1022,401.2 781.3,398.9 780.8,388.1 	"/>
</g>
<g>
	<polygon class="st0" points="780.8,361.5 780.1,371.5 799.5,389.4 1028.7,368.5 992.8,353.7 	"/>
	<polygon class="st9" points="780.8,361.5 800,379.4 817.5,385.1 1028.7,368.5 996.5,351.9 	"/>
	<polygon class="st12" points="799.5,378.3 799.5,389.4 1028.7,378.9 1028.7,368.5 	"/>
</g>
</svg>
