<?xml version="1.0" encoding="utf-8"?>
<!-- Generator: Adobe Illustrator 28.0.0, SVG Export Plug-In . SVG Version: 6.00 Build 0)  -->
<svg version="1.1" xmlns="http://www.w3.org/2000/svg" xmlns:xlink="http://www.w3.org/1999/xlink" x="0px" y="0px"
	 viewBox="0 0 1600 900" style="enable-background:new 0 0 1600 900;" xml:space="preserve">
<style type="text/css">
	.st0{fill:#66555C;}
	.st1{fill:#56474E;}
	.st2{fill:#D4D1CC;}
	.st3{fill:#202020;}
	.st4{fill:#C1B9AC;}
	.st5{fill:#968B7C;}
	.st6{fill:#412F3D;}
	.st7{fill:#D1C8BA;}
	.st8{fill:#D3CABC;}
	.st9{fill:#F27050;}
	.st10{fill:#D1C14A;}
</style>
<g id="Layer_1">
	<g id="Layer_1_00000074439210899897141700000001580470106988428685_">
		<rect class="st0" width="1600" height="900"/>
		<g>
			<rect x="534.2" y="1.3" width="3" height="897.8"/>
		</g>
		<g>
			<path class="st1" d="M389.1,517.1l0.1,0.4C391.9,518.2,389.4,514,389.1,517.1z"/>
			<path class="st1" d="M366.7,156.2c1.2,8,2.6,14.3,5.9,18.6c0.9,1.2,2.1,1.7,2.6-0.4c1.4-5,0.3-9.9-1.7-14.9l-0.3-0.9
				c-2.4-6.1-3.6-13-7.2-17C364,140.7,366.2,150.9,366.7,156.2z"/>
			<path class="st1" d="M380.2,300.3c0.2-2.6-1.9-12-2.9-13.8c-1.5-2.4-3.8,1.9-4,4.4v0.9c0.3,2.6,2.6,4.9,4,6.6
				C378.9,300.2,380,301.3,380.2,300.3z"/>
			<path class="st1" d="M380.1,131.2c3,4.9,4-1.6,6-8.7c1.3-4,3.2-14.7,1.3-13.2c-3.9,4.1-9,13.6-7.5,21.3L380.1,131.2z"/>
			<path class="st1" d="M363.9,87.9l0.1-0.6c0.1-2.9-2.3-6-3.7-8.3c-4.3-5.6-2.7,8.3-1.4,11.2C360.1,92.6,363.3,90.1,363.9,87.9z"/>
			<path class="st1" d="M371.8,81.6l-0.3,0.3c-3.4,5.7-2,15.8-0.2,22.7c1.1,3.8,2.5,9.1,5,10.8C384.5,119.6,379.5,75.6,371.8,81.6z"
				/>
			<path class="st1" d="M402.5,226.5h0.2c0.1-0.2-0.8-1.7-1.4-2.9s-1.1-1.6-1-1C400.1,223.6,401.8,226,402.5,226.5z"/>
			<path class="st1" d="M399.4,16.7l0.4-0.1c2-3.8,0.4-11.2-1.5-16.6h-3.4C395.1,6.5,397,17,399.4,16.7z"/>
			<path class="st1" d="M233.3,172.3c0.8,0,4.2-1,5-2.8l0.2-0.7c0.2-2.3-2.6-9.6-3.5-8.9c-1.3,2.5-1.3,7.7-1.9,10.4
				C232.9,171.6,232.9,172.2,233.3,172.3z"/>
			<path class="st1" d="M414.1,328.6l-0.1,0.6c0,1,1.2,2.2,2.6,2.7c2,1.3,5.6-3.2,3.8-5.6C419,325.4,415.1,326.7,414.1,328.6z"/>
			<path class="st1" d="M421.1,330.3c-1,5.1-0.6,11.5,0.5,14.7l0.3,0.6c1.5,2,2.6,0.7,3.4-1.4c1.1-4.6,1-12.1-0.4-16.8
				C422.9,322.1,421.8,326.2,421.1,330.3z"/>
			<path class="st1" d="M427.2,321.9c0.4-0.1,0.8-7.3-1-10.6c-1.5-3.2-2.6-2.1-1.5,1.3c0.9,2.6,1.7,6.8,2.4,9.1L427.2,321.9z"/>
			<path class="st1" d="M433.4,454.4c0.6-0.6-0.4-3.6-1.4-6.7c-1-3.2-1.7-5.3-2-4.1c-0.2,1.5-0.6,7,0.1,9l0.4,0.7
				C431.3,454.6,432.9,455.1,433.4,454.4z"/>
			<path class="st1" d="M317.4,292c0.5,0.8,1.5,2.3,1.9,3.1l0.4-0.1c1.2-0.5,0.3-8.6-1.3-8.2C317.5,287.5,316.8,290.1,317.4,292z"/>
			<path class="st1" d="M318,283.8l-0.1-0.1C318.2,286.4,319.2,287.2,318,283.8z"/>
			<path class="st1" d="M302.6,66.9c0.7-0.2,0.7-1.9,0.7-3.2c0.1-7.8-3.6-31.6-6.8-37.2c-1.3-2.8-2.5-1.1-2.5,2.2
				c0,11.6,3.6,30.3,8.4,38.1L302.6,66.9z"/>
			<path class="st1" d="M369.9,449.8c1.3,0.2,1.9-1.9,1.9-3.8l-0.2-0.3C371.5,445.4,368.7,449.5,369.9,449.8z"/>
			<path class="st1" d="M283.4,643c1.2-0.2,2.4-0.9,3.5-1.7c4.2-3.4,5.3-15.3,0.4-18.2l-0.5-0.3c-1.6-0.7-2.1,0.3-1.8,2.4
				c0.5,3.6,0.3,8.1-0.8,12.1C283.2,641.1,281.1,643,283.4,643z"/>
			<path class="st1" d="M321.3,126.4c0.5,0.1,1.4-1,1.5-2.2v-0.9c-0.2-1.2-1.7-3.8-2.2-4.9c-0.5-0.8-0.5,0-0.3,2.1
				C320.5,123.2,320.6,126.5,321.3,126.4z"/>
			<path class="st1" d="M290.9,439c-0.6-4.4-3.4-17.4-5.3-20.5c-0.9-1.5-1.5-1-1.7,1.1c-0.3,4.6,0.5,10.2,2.4,13.8l0.4,0.8
				C287.3,435.4,291,442.8,290.9,439z"/>
			<path class="st1" d="M369.6,299c-0.8,1.1-2.6,12.6-0.2,10c0.8-2.3,0.6-2.6,0.8-4c0.2-2.1,0.9-4.5-0.4-6.1L369.6,299z"/>
			<path class="st1" d="M362.6,277.1c0.5,0.2,0.7-0.5,0.6-1.7c-0.8-3.5-1.8-4.7-3.6-4.2c-1.2,0.6-1.9,1.8-1.6,2.5l0.2,0.4
				C359.2,275.1,361.8,276.3,362.6,277.1z"/>
			<path class="st1" d="M323.5,122.6l-0.4-0.1c-0.5,0.8,0.5,2.9,1.1,3.8C324.6,126.2,324.1,123.3,323.5,122.6z"/>
			<path class="st1" d="M323.6,129.3h0.1c0.2-0.2,0.6-2.7,0.4-2.4C323.9,126.6,323.6,129.1,323.6,129.3z"/>
			<path class="st1" d="M319.4,334.4L319.4,334.4C318.8,336.5,319.4,336,319.4,334.4z"/>
			<path class="st1" d="M114.1,593.9c-0.4,0.9-1.5,6.1-1.8,8l-0.2,1.2C111.5,609.5,114.2,593.9,114.1,593.9z"/>
			<path class="st1" d="M189.7,194.4l0.1-0.4C188.3,191.9,187.9,197.2,189.7,194.4z"/>
			<path class="st1" d="M182,308.8l0.1,0.5c0.4,1.1,1.2-3.3,1.5-8.5c0.4-4.6,0.5-6.1-0.2-2.5C183,301.5,181.9,305.8,182,308.8z"/>
			<path class="st1" d="M262.9,2.3L262.7,3c-0.3,1.1,0.7,4.4,1.3,6.5c0.5,1.6,1,1.2,1.3-0.5C266.2,5.5,265.4,0.6,262.9,2.3z"/>
			<path class="st1" d="M188.3,202L188.3,202c0.1-0.5,0.2-4.7,0-6.1C187.9,193.6,187.9,200.5,188.3,202z"/>
			<path class="st1" d="M206.5,328.7c1.5,7.2,3.4,14.4,5.1,19.8c2.3,6.2,9.9,23.8,12.4,13.7c1.6-17.3-2-39-7-54.4l-0.4-1.1
				c-3.7-11.7-9.5-20.3-12.6-2.9C203.3,309.4,204.5,319,206.5,328.7l-0.5,1.8C206.2,329.9,206.4,329.3,206.5,328.7z"/>
			<path class="st1" d="M249.4,15.2l0.2,0.7c1.8,5.5,6.5,5.5,10.3,5.1c2.4-0.4,8.5,0.4,5.4-5.7c-2.5-4.6-6.1-10.1-8.4-15.4H251
				C249.5,4.9,248.4,11.2,249.4,15.2z"/>
			<path class="st1" d="M200.8,175.5l0.2-0.5c3.1-6,1.3-15.8-1.3-22c-5.4-12.6-16,2.3-20.6,12.2c-1.9,4.3-2.9,10.5-3.1,15.3
				c-0.4,6.4,1.2,10.3,5.8,9.7C189,190.7,197.2,185.2,200.8,175.5z"/>
			<path class="st1" d="M284.1,572.6c-0.2,0.5,1,1.6,1.1,1.6l0.2-0.3C285.2,572.5,285,572.3,284.1,572.6z"/>
			<path class="st1" d="M134.2,723.1c2,1.3,2.6,0.6,2-2.3l-0.1-0.6c-2.5-10-9.5-24.5-14-34.4c-3.8-8.3-5.3-10.5-7.1-8.5
				c-1.9,2.6-1.6,7-1,10.8C116,701.6,125.4,717.1,134.2,723.1z"/>
			<path class="st1" d="M109.3,702.6c-2.2,4.7,1.7,24.8,6.8,20.4c4.6-5.9-1.3-24.3-6.4-20.9L109.3,702.6z"/>
			<path class="st1" d="M164.4,387.3l-0.3,0.3c-0.9,2.1-0.3,11.4-0.1,13.2C164.4,399.5,167,387.1,164.4,387.3z"/>
			<path class="st1" d="M160,798.8l0.1,1c0.3,2.7,2.9,8.6,4.8,5.8c1.5-2.6,3.8-16.1-1.1-13.3C162.2,793.4,159.9,795.7,160,798.8z"/>
			<path class="st1" d="M159.9,287.6l-0.4,0.3c-3.9,4.5-2.4,19.9,3.8,17.6C171.5,302.5,166.4,285.4,159.9,287.6z"/>
			<path class="st1" d="M111,674.4l0.1,0.2C114.4,675.4,112.1,672.8,111,674.4z"/>
			<path class="st1" d="M257.2,377.4c1.5-3,1.9-12.2-0.1-16h-0.3C255,362.7,253.3,383.9,257.2,377.4z"/>
			<path class="st1" d="M258.3,596.1c1-1,1.1-8,0.6-9.7l-0.2-0.2c-0.8,0-3,5.3-1.9,8.2C257.1,595.7,257.8,596.5,258.3,596.1z"/>
			<path class="st1" d="M257.5,680.5c1.4-2.2,4.4-10.2,4.9-13.6c0.2-2,0.6-3.7-0.4-5.1h-0.3c-2.1,2.2-3.1,9.6-4,13.6
				C257.2,679,257,681,257.5,680.5z"/>
			<path class="st1" d="M244.2,204.9c2.5,5.4,8.7,20.4,11.6,15.7l0.1-0.4c1.8-12.5-5.1-33-11.5-42.2c-4.1-6.5-11.3-10.3-9.3,2.3
				C236.5,189.2,240.9,196.9,244.2,204.9z"/>
			<path class="st1" d="M269.7,436.3c5.8,0.1,2.8-25.7,0.4-30.3l-0.4-0.9c-7.3-14.7-13.6-6-8.3,13.1
				C263.5,425.5,265.1,433.1,269.7,436.3z"/>
			<path class="st1" d="M249.4,20.3c-0.2-0.1-0.2,2.6,0,3l0.1,0.1C249.4,23,249.6,20.1,249.4,20.3z"/>
			<path class="st1" d="M261,392.6l0.1,0.4c0.4,0.3,5.1,1.7,3.8-1.7C263.8,387.3,261.7,390.7,261,392.6z"/>
			<path class="st1" d="M261,186.7l-0.2,0.5c-0.4,0.2,2.5,10.5,3.2,6.4C264.7,189.6,264.1,185.7,261,186.7z"/>
			<path class="st1" d="M264.1,197.9l0.1-0.1c-0.1-0.3-0.9-3.2-1-2.7C263.1,195.3,263.8,197.8,264.1,197.9z"/>
			<path class="st1" d="M267.8,192.6L267.8,192.6C267.8,192.6,267.8,192.5,267.8,192.6z"/>
			<path class="st1" d="M267.6,195L267.6,195c-0.7,0.6-1.8,2.7-3.2,3.6l-0.1,0.3c-0.3,0.8,1.6,1.2,2.6-1.8
				C267.4,196,267.7,195.2,267.6,195c0.1-0.3,0.3-2.4,0.2-2.4C267.8,192.9,267.7,194.6,267.6,195L267.6,195z"/>
			<path class="st1" d="M276.2,62.1c-0.6-9.5-4.4-20.2-9.3-25.6l-0.6-0.6c-6.8-7.6-9.9,5-10,13.7c-0.1,8.1,2.1,10.6,4.8,13.2
				c2.5,2,5.5,3,8.3,3.7C273.6,67.3,276.5,69.4,276.2,62.1z"/>
			<path class="st1" d="M237.9,146.4l-0.2-0.4c-1.5-0.4-5.3,2.7-6.2,3.8c-0.8,1-0.1,1.7,1.1,2.1
				C235.4,153.2,237.4,150.4,237.9,146.4z"/>
			<path class="st1" d="M511.1,321.7c-1.2,1.6-2.6,5.1-2.1,7.5l0.2,0.5C510,331.8,513.7,319.7,511.1,321.7z"/>
			<path class="st1" d="M507.7,314.6L507.7,314.6C507.9,311.7,507.6,310.7,507.7,314.6z"/>
			<path class="st1" d="M510.6,276.6c-1.3-4.6-4.8-11.5-7.9-6.9l-0.3,0.5c-1.2,2.4-1.3,7.2-0.4,13.1c1.6,10.2,4.5,22.3,7.6,31.2
				C514.1,324.9,514.7,288.8,510.6,276.6z"/>
			<path class="st1" d="M502.4,503.1c0-1.3-0.6-2.3-1.2-2.9l-0.4-0.4c-0.9-0.5-2.3-2.5-3.1-1.5c-1.7,2.7-1,12.2,0.3,13.7
				C499.2,514.2,502.7,505.5,502.4,503.1z"/>
			<path class="st1" d="M502.6,564.8c1.6-0.5,1.2-4,0.6-5.8c-1.7-0.3-2.7,3.8-3.3,5.9l0.1,0.3C500.2,565.6,501.6,565.2,502.6,564.8z
				"/>
			<path class="st1" d="M997.3,127.2l0.6,0.1c7.1-0.5,6.4-18.9-0.6-19C989.9,108.7,992.3,125.3,997.3,127.2z"/>
			<path class="st1" d="M499.7,565.1L499.7,565.1c-0.1,0.1-0.8,3.1-0.7,3C498.9,568.6,499.6,565.4,499.7,565.1z"/>
			<path class="st1" d="M469,512.8c-1.6-3.2-3.4-5.3-2.7-3.2c0.9,3.2,0.8,5.2,1.8,8.6l0.3,0.4C470.6,518.9,470.2,514.9,469,512.8z"
				/>
			<path class="st1" d="M476.4,540c0.9-0.7,1.7-1.6,2-2c0.2-0.5,0.7-0.5-0.5-1.1c-1.7-0.8-3.7-1-5.3-2.1c-0.9-0.5-1.5-0.7-1.8,0
				l-0.1,0.5C470.6,538.9,474.2,541.5,476.4,540z"/>
			<path class="st1" d="M511.1,335.5c-8.3-9.3-6,20.1-5.1,26.8l0.1,1.2c0.4,5.2,1.9,22.3,6,12.9
				C514.8,368.6,516.2,344.6,511.1,335.5z"/>
			<path class="st1" d="M511.3,508.3c-0.6,0-2,5.6-1.6,6.8l0.1,0.1C510.1,515,511.9,507.8,511.3,508.3z"/>
			<path class="st1" d="M510.4,526.3c1.6-3.2,1.9-8.5,1.1-9.2c-0.8-1.1-2,0.7-3.8,2l-0.6,0.4c-1.6,1.7-5.7-1.4-4.7,2.9
				C503.3,526.2,508.2,531.3,510.4,526.3z"/>
			<path class="st1" d="M472.6,527.8c1.4,0.7,4.6,4.3,5.6,2.4v-0.5c-0.7-2.4-2.7-4-3.8-5.1C472,522.2,467.8,524.6,472.6,527.8z"/>
			<path class="st1" d="M1013.3,234.2l0.2-0.2C1009.5,230.6,1007,234.8,1013.3,234.2z"/>
			<path class="st1" d="M1029.6,0h-1.7c0.5,0.5,1.1,0.8,1.5,0.8C1029.6,0.7,1029.6,0.4,1029.6,0z"/>
			<path class="st1" d="M1018.4,349.5l0.4,0.4c1.4,0.8,3.7-1,5.2-2.2c4.2-3,5.5-5.5,0.4-5.4C1021.6,341.9,1016.9,345,1018.4,349.5z"
				/>
			<path class="st1" d="M1015.7,433.6c9.6,10.8,28,12,25.9-10.5l-0.1-0.9c-1.7-10.4-7.9-14.9-14.8-16.3c0.6-0.3,5-3.3,4.8-3.4
				c-0.5,0-4.5,2.7-4.9,3.4l0,0c-5-1-10.3-0.5-14.4,0.6C998.6,411.4,1004.9,421.4,1015.7,433.6z"/>
			<path class="st1" d="M1068.8,598c3-7.6,2.1-14.8-3.8-15.6l-0.7-0.1c-6.1-0.6-14.5,2.8-19.8,8.7c-7,7.6,0.6,21.9,8.8,21.2
				C1059.5,612.5,1065.7,606.2,1068.8,598z"/>
			<path class="st1" d="M1054.1,613.8l0.1-0.3C1053.4,611.3,1050,616.4,1054.1,613.8z"/>
			<path class="st1" d="M1013.8,233.9l-0.1,0.2c0.1,0.5,3.2,1.6,5,2.3c1.7,0.7,2.8,0.5,2.1-0.4
				C1019.1,234.3,1015.7,233.6,1013.8,233.9z"/>
			<path class="st1" d="M1058.8,187.6c8.8-3.8-4.1-24.4-8.6-24.8l-0.4,0.1c-4,3.9-1.6,17.6,2.6,22.1
				C1054.2,187.3,1056.5,187.8,1058.8,187.6z"/>
			<path class="st1" d="M1047.6,315.7l-0.7,0.5c-4.4,3.5,0.8,12.4,3.7,11.4c0.1,0.3,0.2-1.5,0.1-1.6c-0.3-1.9,0.2-4.5,1.8-6.7
				C1055.9,314.4,1049.8,314,1047.6,315.7z"/>
			<path class="st1" d="M1055.3,347.7c1.6-1.7,5-4.6,3.6-7.5l-0.3-0.2c-7.8-1.3-19.9,9.4-27.6,13.9
				C1022,361.5,1052.4,352.8,1055.3,347.7z"/>
			<path class="st1" d="M1041.4,309.5c0.7-0.3,0.6-0.4-0.2-0.3c-1.9,0.2-6.6,1.4-6.2,1.8l0.2,0.1
				C1036.7,311.2,1040.3,310.1,1041.4,309.5z"/>
			<path class="st1" d="M1042.2,308.7v0.2c1.1,0.6,4.6-0.4,6.4-0.6c2.4-0.6,5.4-0.3,7.2-2.4C1055.7,302.4,1042.2,307.5,1042.2,308.7
				z"/>
			<path class="st1" d="M375.5,580.1l-0.3-0.1c-1.3,0-1.9,2.5-2.2,4.6c-1,6.5,0,13.7,2.5,19.7c1.7,4.2,3.5,5.9,4.2,3.9
				c1.2-4.2,0.1-9.5-0.5-14.3C378.4,589.5,377.5,581.9,375.5,580.1z"/>
			<path class="st1" d="M283.8,572.8l0.1-0.8c-0.2-3.7-4.5-9.2-5.4-3.2c0.1,2,0,3.9,1.1,5.3C280.8,575.3,283.2,575,283.8,572.8z"/>
			<path class="st1" d="M307.7,320.4l0.4,0.2c4,2.4,5.8-3.7,6.5-8.7c2-12.3,1.1-26.1-2.9-37.2c-4.2-12.7-11.7-24-21.1-23
				c-9.6,3.3-4.2,20.7-0.8,35.7C292.7,299.8,301.1,316.8,307.7,320.4z"/>
			<path class="st1" d="M296.3,452.2c-0.4-0.2-2.4,2.3-3,3.4l-0.4,1c-0.6,1.6-0.8,3.7-0.5,4C292.8,460.9,296.8,451.9,296.3,452.2z"
				/>
			<path class="st1" d="M341.8,740.6l-0.1,0.5c0.7,1.5,4.9,4.1,5.5,4.1c0.5,0,0.2-1.5-0.4-3C345.8,739.1,343,738.5,341.8,740.6z"/>
			<path class="st1" d="M345.4,595.9c0.4-1.5,1.8-7.1,1.7-8.8l-0.2-0.2c-0.7-0.2-2,3.1-1.9,6.4C345,595.1,345.2,596.5,345.4,595.9z"
				/>
			<path class="st1" d="M296.1,474.3c0.6,0.5,2-3.2,1.8-3.6c-0.1-0.5-1,1-1.6,1.2l-0.4-0.2c-0.5-0.7-0.6-3.8-0.6-2
				C295.4,470.9,295.6,474.1,296.1,474.3z"/>
			<path class="st1" d="M299.6,467.4v-0.2c-0.1,0.2-2,2.7-1.7,2.8C298.3,470.2,299.6,468.3,299.6,467.4z"/>
			<path class="st1" d="M282.6,228c0.1,0.4-0.2-4.2-0.2-4.5v0.1C282.3,224.2,282.5,227.5,282.6,228z"/>
			<path class="st1" d="M283,408.3c0.2-0.3,0.1-4.4,0.3-5.7c0.2-1.5,1.8-5.1,1.8-5.7l-0.1-0.1c-0.3,0.1-1.6,1.6-2.4,3.6
				C281.6,402.4,282.3,407.4,283,408.3z"/>
			<path class="st1" d="M467.8,530.3l0.1,0.2c0.3-0.4,2.1-4.1,1.9-4.2C469.7,525.6,467.9,529.3,467.8,530.3z"/>
			<path class="st1" d="M277.6,619.3c-0.6,1.7,0.2,8.7,0.2,11.2c0,4.3,2.7,5.5,3.8,2.1l0.2-0.9C282.3,628.3,279.2,620.5,277.6,619.3
				z"/>
			<path class="st1" d="M289,2.8c-0.6-0.1-1.9,0.6-2.4,1.9l-0.3,0.9c-0.5,1.9-0.4,5.5-0.1,6C286.4,12.7,290.2,2.8,289,2.8z"/>
			<path class="st1" d="M282.2,219.4c0,2.6,0.3,4.4,1.2,3.8c0.8-0.7,3.1-3.2,3.4-4.6l-0.1-0.5C285.3,216.4,281.8,213,282.2,219.4z"
				/>
			<path class="st1" d="M457.3,485.8c0.3,0,1-0.1,1.3-0.1c1-1.4,1.6-3.4,0.1-4.7c-0.9-0.5-3.3-0.6-4.3,0.2l-0.3,0.4
				C453.9,483.7,456.1,485.5,457.3,485.8z"/>
			<path class="st1" d="M348.2,644.8c-0.2,1-0.5,1.4-0.2,1C347.9,645.5,348.2,645.1,348.2,644.8z"/>
			<path class="st1" d="M428.9,641.6c2.5-10.7-5.3-21.3-9.8-9l-0.3,0.9c-0.3,1.9-0.9,4.4,0,6.2c0.7,1.4,2.1,2.7,3.5,3.4v0.1
				c0.1,0.6,1.1,4.2,1.2,4.1c0.1-0.2-0.9-3.7-1.1-4.1C424.9,644.5,427.8,644.4,428.9,641.6z"/>
			<path class="st1" d="M424.5,651.3c0.6-0.5-0.4-2.7-0.8-3.7l-0.1-0.1C423.8,648.1,423.9,652.1,424.5,651.3z"/>
			<path class="st1" d="M450.5,522.8l-0.1,0.6c0.2,1.3,3.6,8.9,4,1.9C455.1,520.1,451.8,521,450.5,522.8z"/>
			<path class="st1" d="M453.4,529.2c0.2,0.2,0.7,0.7,0.9,0.9l0.1-0.3C454.2,528.8,453.1,528.3,453.4,529.2z"/>
			<path class="st1" d="M443.7,476.6l-0.3,0.1c-1.9,3,0.2,9.6,2.8,10.1c1.2,0.3,2.2,0.4,2.4-0.1c0.3-1.7-0.8-2.9-1.3-4.2
				C446.2,481.2,444.8,477.1,443.7,476.6z"/>
			<path class="st1" d="M348.2,644.6c0-0.1,0.8-3,1.4-5.1c2.4,15.1,6.3,28,10.1,20.2c6.2-16.1,8.8-50.1-0.3-64l-0.3-0.4
				c-5.5-6-10.4,4.1-11.5,11.6c-1.2,3.1-0.2,18.5,2,32.2C348.9,641.5,348,645.2,348.2,644.6z"/>
			<path class="st1" d="M383.8,614c4.2-0.9,3.5-17.7-0.9-19l-0.4,0.2C379.6,598.3,379.8,615.1,383.8,614z"/>
			<path class="st1" d="M420,485.2c-0.6-17.3-18.8-121.2,7.3-86.6c9.3,10.8,3.9-6.6,1.7-14.8l-0.2-0.6
				c-4.7-20.3-12.4-40.8-21.3-57.7c-1.8-3.9-3.9-8.2-6.2-12.1c-0.1-0.7-0.2-1.4-0.2-1.9c0-0.2,0-0.4-0.1-0.7
				c4.6,6.7,9.1,13.9,12.5,16.4c4,1.4-0.7-20.1-1.1-25.5c0.1-0.8,0.2-1.9,0-2.1h-0.1c0,0.1,0,0.4-0.1,0.8
				c-2.6-20.7-7.4-42.2-11.3-61.4c-2.4-18.4-6.1-38.4-12-55.1l-0.2-0.3c-8-12.7-12.3,15.7-14.2,24.8c-2.2,10.9-4.6,20.6-7.2,30.8
				c-0.6,3-1.3,6-1.9,9c-2.1-32.8-12.9-66.9-25-94.1c-7.4-16.3-12.7-24.6-13.8-19.6c-0.5,3.3,0.1,6.3,0.6,9.7
				c6.6,34.2,15.8,68.6,25.2,100.9c4.3,15.2,10.8,22.4,12.7,12.6c0,0.2,0.1,0.4,0.1,0.6c4.3,13.4,19.9,31.3,28.5,43
				c1.8,1.9,3.8,4.5,5.7,7.3c-0.1,0.6-0.2,1.1-0.2,1.7c-2.8-4.1-6-7.2-9.5-8c-15.6-3.2-15.3,24.7-14.5,45
				c2.5,45.8,14.2,90.5,21.8,134.8c1.9,8.9,3.6,18.8,5.6,27.1c3,11.7,6.3,23.5,8.2,35.6c2.6,31.3-17-5.8-21-14
				c-10.9-21.6-21.5-55.4-31.8-80.6c-5.6-11.6-11-31.1-18.3-14.8c-1.4,2.5-2.2,5.7-4.2,5.5c-3.5-3.3-5.9-16.8-8-23.6
				c-3.5-12.7-16.8-82.3-24.7-77.1c-1.9,4.5-0.5,19.5,0.4,27.6c1.9,18.7,6.2,36.6,10.2,54.5c4.7,18.7,18.5,96.9,32.1,97.4
				c2.3-0.1,4.3-1.8,6.7-2.9c5.5-3.4,11.6-0.8,16.2,5.1c11.8,12.8,25.4,50,35.9,70.4c3.9,8.7,22.7,45.5,25.8,22.7
				C432.6,572.4,422.7,528.3,420,485.2z"/>
			<path class="st1" d="M374.6,549.1c-0.7-1.9-1-1.9-1,0.8c0.1,5.3,1.7,25.4,5.9,25l0.3-0.3C383.7,567.1,376.9,555.3,374.6,549.1z"
				/>
			<path class="st1" d="M287.1,499.9c1.2-2.7,0.5-7,0.4-10.7c-0.3-4.2-0.8-10.7-2.9-12.4l-0.4-0.1
				C280.5,476.4,285.1,501,287.1,499.9z"/>
			<path class="st1" d="M1336.8,239.3c0.1-3.3-3.5-1.3-0.2,0.2L1336.8,239.3z"/>
			<path class="st1" d="M1333.2,248.8l0.1,0.1c7.4,1.1,23-2.5,30.9-9.6c11.2-7.4,12.8-21.1-0.7-26.2c-8.3,0.3-15.4,9.3-21.5,18.9
				c-0.2-3.1-1.8-6.8-3-8.6c-1.5-2.4-5.5-3.6-5.5,0.8c0.4,4.1-0.5,11.9,3.5,12.4l0.6,0.1c0.5-0.1,1-0.2,1.5-0.3
				c-1.2,2-2.4,4.1-3.5,6C1333.8,246.1,1332.4,248.3,1333.2,248.8z"/>
			<path class="st1" d="M1333.3,233.5L1333.3,233.5C1333.4,233.5,1333.4,233.5,1333.3,233.5C1333.4,233.5,1333.4,233.5,1333.3,233.5
				z"/>
			<path class="st1" d="M1337.3,161.4c0.4,7.2,0.7,14.4,1.8,21.3c1.6,9.3,6,13.7,10.2,18c2,1.4,7.3-1.3,9.3-7.1
				c2.6-7.8-0.6-16.7-2.6-24.2c-4.8-14.5-7.9-30.4-16.4-32.1c-4.1-0.4-3.8,5.1-3.3,10.7c0.3,4.5,0.6,7.3,0.9,12.4L1337.3,161.4z"/>
			<path class="st1" d="M1320.4,74.5c0.2-2.1-1.8-8-2.7-9.8h-0.2c-0.4,1.6-0.6,5.6-0.3,7.5C1317.4,74.6,1319.7,77,1320.4,74.5z"/>
			<path class="st1" d="M1176.6,88.2c-0.2-0.1-0.4-0.2-0.7-0.3c0.2,0.2,0.4,0.3,0.6,0.5C1176.6,88.3,1176.6,88.2,1176.6,88.2z"/>
			<path class="st1" d="M1316.6,250.7c2.6-0.5,4.9-1.6,7.3-3.5c4.4-3.8,9.3-8.8,9.1-17c-1.5-9-12.5,15.7-15.9,16.4l-0.6,0.4
				C1310.9,249.7,1311,250.6,1316.6,250.7z"/>
			<path class="st1" d="M1289.5,58.2L1289.5,58.2c-0.3,0.1-2.2,0.5-1.8,0.5C1287.7,58.8,1289.5,58.4,1289.5,58.2z"/>
			<path class="st1" d="M1266.8,566.1c-0.7-1.1-3.4-1.6-4-0.6v0.2c0.4,0.2,2,0.3,3.2,0.7C1266.8,566.6,1267.2,566.5,1266.8,566.1z"
				/>
			<path class="st1" d="M1302.9,485.8c-0.6,0.3-10.3,11.5-8.9,10.4C1296.7,493.3,1300.5,488.8,1302.9,485.8L1302.9,485.8z"/>
			<path class="st1" d="M1305.9,696.1l-0.1,0.6c-0.1,4.5,2.9,6.5,5.3,6.5c2.1,1.5,16.6-13.8,9.1-14.7
				C1315.9,689,1308.5,690.8,1305.9,696.1z"/>
			<path class="st1" d="M1379.1,386.9l-0.2-0.6c-8.7-26.1-34-79.1-53.4-47.7c-7.6,12.9-9.2,30.8-13.7,46.3
				c-2.6,7.4-4.2,14.2-6.6,20.9c-3.3,9.1-8.6,20.3-7,31.8c0.8,8.4,3.8,15.7,6.2,25.3c2.1,8.9,3.3,20.1,3.9,30.6
				c0.9,17.5-6.6,36.7-6.7,54.8c0.8,12.8,9.5,9.6,15.7,6.4c5.1-2.5,10.1-5.5,15-9.2c12.1-11.3,35.8-23.4,38.7-45.2
				c0.8-10.4-3.7-20.6-6-30.4c-2.9-10.8-3.2-21.8-1.1-31.7v0.1c1.6,3.1,4.1,3,6.4,0.7c2.7-2.7,5.9-7.3,4.9-9.5
				c-1.6-2.7-3.8-2.7-6.3-1.6l-0.8,0.5c-0.6,0.4-1.2,0.8-1.8,1.4c1.3-3.4,2.9-6.6,4.9-9.5C1377.8,410.5,1384.1,402.3,1379.1,386.9z"
				/>
			<path class="st1" d="M1261.9,594.2c4.7,11.3,14.5,16,22.2,21.2c20.9,13.3,5.7-20.8-1.7-33.9l-0.5-0.9c-5.9-13.7-9.7-14.5-17.2-8
				C1260.1,576.9,1259,586.4,1261.9,594.2z"/>
			<path class="st1" d="M1245.8,93.8c0.4-0.4,3.4-3.8,3-3.7c-0.4,0.1-3.3,3.5-3.2,3.7H1245.8z"/>
			<path class="st1" d="M1211.2,55.5c0.5,0-1.4-3.2-1.8-3.4l-0.2,0.1C1208.9,52.8,1210.9,56,1211.2,55.5z"/>
			<path class="st1" d="M1206.3,134.9c0,0.3,0,0.7-0.1,1L1206.3,134.9L1206.3,134.9z"/>
			<path class="st1" d="M1277.8,87.5c-0.7,0-0.5,7.2,0.1,7.4l0.3-0.1C1278.7,94.4,1279.1,87.7,1277.8,87.5z"/>
			<path class="st1" d="M1163.8,605.4c1.7,12.1,4.6,21.3,10,23.3c9,3.1,14.2-6.6,18.1-19.7c6.5-17.8,13.9-54,3.3-69.7l-0.3-0.4
				c-7.9-9.2-16.4,2.1-22.2,12C1163.9,565.1,1160.5,588.6,1163.8,605.4z"/>
			<path class="st1" d="M1204.5,143.7c0.3-0.2,1.8-6.6,1.8-7.8v-0.2C1206.3,135.7,1204.3,144.3,1204.5,143.7z"/>
			<path class="st1" d="M1162.3,82.5c-6.9,7.6,9.3,6.5,11.5,4.2l0.7-0.4c3.8-2.5,7.8-8.1,9.4-13.9
				C1185.3,64.1,1164.1,80.3,1162.3,82.5z"/>
			<path class="st1" d="M1200.6,88.5h0.2c2.3-1.5,6.3-6.5,8.2-9.7c1.2-2,1.5-3.1,0.7-2.7C1207.7,76.9,1199.7,88.4,1200.6,88.5z"/>
			<path class="st1" d="M1269.6,109.2c0.2,0,0.3-0.1,0.4-0.1c-0.1-0.2-0.3-0.4-0.4-0.7V109.2z"/>
			<path class="st1" d="M1285.9,159.2c6.1-6.1,9.9-16.8,9.6-27.8c0.1-0.2,0.1-0.4,0-0.6c0-0.2,0-0.4,0-0.6v-1
				c0.4-14.5-12.9-33-21.1-25.1c-7.7,9.4-10.4,27.8-10.4,42.6C1264.2,169.1,1276.9,169.5,1285.9,159.2z"/>
			<path class="st1" d="M1224,108.4c3.4,4.8,6.9,10.2,9.8,15.6c2.7,5.6,4.1,12.4,7.4,17c5.2,7.5,14.3,2.1,18.6-5.2l0.3-0.6
				c7.2-12.9,0.5-29.7-8.3-36c-8.9-6.8-20.6-5.1-29.4,0.3C1219.4,101.8,1221.2,104.8,1224,108.4z"/>
			<path class="st1" d="M1246.5,83.6c-1.9-2.1-6.4-1-8.8-1.2c-1.5,0-2.1,0.2-1.3,0.7c1.9,1,11.1,5.6,10.3,0.9L1246.5,83.6z"/>
			<path class="st1" d="M1309.2,377.8c6.3-9.1,9.5-26.6,3.6-37.2l-0.2-0.4c-2.5-4.8-8.2-3-11.7-1.2c-8.7,3.9-14.1,25.9-6.6,35.8
				C1298.3,379.8,1305.1,384.8,1309.2,377.8z"/>
			<path class="st1" d="M1287.6,58.8L1287.6,58.8c-0.1-0.2-2.5-0.4-3.5-0.4C1282.4,58.6,1286.8,59.1,1287.6,58.8z"/>
			<path class="st1" d="M1496.5,402.9h-0.6c-0.6,0.2-1.3,0.8-2,1.7c-3,4-3.2,5.4,1.3,4.3c2-0.3,3.8-0.7,4.2-1.4
				C1500.2,406.3,1497.4,403,1496.5,402.9z"/>
			<path class="st1" d="M1485.9,420.5c2.9,9,10.1,10.1,16.5,6.1c7.8-3.3,15-19.8,3.1-16.2l-0.7,0.2c-5.8,1.4-13,2.8-17.9,6.2
				C1486.1,417.2,1485.3,419,1485.9,420.5z"/>
			<path class="st1" d="M1536.6,194.9c-4.8-12.3-22.9-4.9-24.4,8.1l0.1,0.4C1515.5,210.3,1538.2,207,1536.6,194.9z"/>
			<path class="st1" d="M1491.4,287l-0.6,0.4c-1.8,1.2-3.6,5.1-4.7,8c-1.2,3-2,5.1-1.4,4.8C1485.3,300.2,1497.6,285.7,1491.4,287z"
				/>
			<path class="st1" d="M1499.9,407.4l-0.2,0.1c0.4,0.3,1.8,1.8,2.2,1.6C1502.4,408.9,1500.7,407.5,1499.9,407.4z"/>
			<path class="st1" d="M1539.5,362.6c3.1-6.9,4.3-20.8-3.9-16.6l-0.5,0.3c-9.2,6.6-23.2,22.8-27,37.7
				C1516.6,389.9,1534.5,376.3,1539.5,362.6z"/>
			<path class="st1" d="M1481.1,433.7c-3.7-3.8-8.5-7.2-12.7-3.9c-10.5,7.3-4.6,29.4,6.2,28.1c5-0.7,12.2-5.6,12.4-14.3
				c-0.3-4-3.3-7.2-5.4-9.5L1481.1,433.7z"/>
			<path class="st1" d="M1447.8,476.2l-0.5-0.3c-4-1.7-10-2.1-11.6,4.4c0,3.1,5.8,4.4,11.9,9.9c3,2.6,6.7,5.5,9,9.3
				c3,5.9,2.9,13.8,4.8,20.5c1.6,6.6,1.9,12.6,4.2,8.9c2.1-3.5,3-8.4,3.6-13.2C1472.8,495.9,1457.6,481,1447.8,476.2z"/>
			<path class="st1" d="M1071.6,6c-10.2,13,5.5,30.8,13.9,24.1l0.6-0.5c5-5.7,8.2-18.9,7.6-29.5h-17C1074.6,2.3,1072.7,4.6,1071.6,6
				z"/>
			<path class="st1" d="M1561.3,334.9c-1.8,3.3,2,3.9,3.3,2.9l0.7-0.5c1.4-1,4.4-8,3.3-9.5C1567.2,328,1562.5,333.2,1561.3,334.9z"
				/>
			<path class="st1" d="M1560.7,212.4c2.1-1.9,4.9-7.4,6.8-10.3c1.1-1.8,1.4-2.5,0.7-1.6c-1.2,1.7-10,12.4-7.8,12.2L1560.7,212.4z"
				/>
			<path class="st1" d="M1459.3,325.9c-2.3-10.4-2-21.7-6.1-30.1c-8.3-21.9-17.5,2.1-18.4,17.7c-0.3,11.8,3.4,24.9,8.8,33
				c8.2,11.6,19.3-4.6,15.9-19.8L1459.3,325.9z"/>
			<path class="st1" d="M1340.4,311.9c-0.3-0.6-3.2,1.8-3.2,2.3l0.2,0.2C1337.9,314.4,1341,312.1,1340.4,311.9z"/>
			<path class="st1" d="M1246.6,593.6l-0.5,0.5c-5.3,6.5-2.6,24.8,5,21.1c5-1.6,8.7-10.6,6.3-16.2
				C1255.2,593.8,1250.2,590.4,1246.6,593.6z"/>
			<path class="st1" d="M1249.2,504.2c6.2,1.6,13.8-0.3,20.4-1.6l0.8-0.2c4.2-1.3,7.4-3.2,11-5.8c3.2-2.3,7.2-5.7,8.1-11.1
				c2-16.6-23.5,1.1-29.9,5.6C1252.2,497.3,1248.2,503,1249.2,504.2z"/>
			<path class="st1" d="M1370.7,258.1c-4.9-10.2-11.6-11.3-18.8-7.2c-3.9,1.9-7.8,4.4-11.1,7.6c-3.5,3.9-9.1,9.3-8,16.5
				c3.5,9.9,11.7,15.5,18.2,20.2c4.8,2.9,9.7,5.9,14.8,5.6c10.9-1.6,12.6-30.7,5.3-41.9L1370.7,258.1z"/>
			<path class="st1" d="M1288.1,294.1c-1.4,0.1-1.2,0.7-1.4,1.3c2,14.1,15.4,18.9,23.6,17.4c5.6-1.3,11-6.4,12.2-11
				c-1.7-1.6-5.7,0.8-8.9,0.7l-0.8,0.1C1304.4,304,1296.3,296,1288.1,294.1z"/>
			<path class="st1" d="M1331.1,325.2c0.7-0.6,0.5-0.8-0.5-0.9c-2.2-0.1-4.8-1.3-6.9,0l-0.6,0.5c-1.1,0.8-3.2,5.1-1.6,5.7
				C1323.3,330.5,1329.8,326,1331.1,325.2z"/>
			<path class="st1" d="M1414.1,385c1.1,3.1,2.3,1.1,2.9-3.8c0.8-5.8,0.3-16.3-4.4-16.9l-0.4,0.4
				C1410.2,369.7,1412.5,379.8,1414.1,385z"/>
			<path class="st1" d="M1336.8,314.5c-2-1-7.1,2.3-4.3,6c2.9,3.7,5.8-1.6,4.7-5.6L1336.8,314.5z"/>
			<path class="st1" d="M1238.1,144.7l0.1-0.1c-0.2-0.1-1.3-1.3-1.4-1C1236.4,143.6,1237.7,144.7,1238.1,144.7z"/>
			<path class="st1" d="M1432.4,148l0.1-0.1C1431,147.5,1430.2,148.2,1432.4,148z"/>
			<path class="st1" d="M1413.2,283.4c2.4,1.3,5.9,3.9,8.4,3.4l0.5-0.2c3.8-3.5-9.4-4.4-10.1-4.6
				C1411.1,282.1,1411.6,282.5,1413.2,283.4z"/>
			<path class="st1" d="M1223.8,387.2c-0.2-0.3,1.3,3.6,1.6,4h0.1C1225.4,391,1223.9,387.1,1223.8,387.2z"/>
			<path class="st1" d="M1425.7,138.2l-0.8,0.3c-4.5,2.3-9.9,9.5-1.1,9.5c4.9,0.4,9.1-0.1,7.7-5.6
				C1430.5,138.8,1428,137.8,1425.7,138.2z"/>
			<path class="st1" d="M218.8,130c0.9-3.2,2.8-13.6,3.3-16.1c0.2-1.3-0.1-0.1-0.7,2.3c-1.1,4.5-2.5,12.5-2.5,13.6L218.8,130z"/>
			<path class="st1" d="M85.7,741.5c3.1-3.8,2.5-9.1,2-16.7c-0.9-10.1-2-22.2-4-32.4l-0.2-1.3c-1.7-11.1-13.6-59.7-19.9-35.5
				c-2.2,11.2-1.4,25.2,0.8,37.4C69,714.2,77.2,745.4,85.7,741.5z"/>
			<path class="st1" d="M130.6,389.4l-0.3-0.6c-0.7-1.4-5.2-2.3-5.4-2C125.2,387.7,131.2,394.2,130.6,389.4z"/>
			<path class="st1" d="M142.5,468.1l-0.2,0.2c-0.7,2.9,1.3,8.1,2.2,11.5c1.2,3.5,2.2,7.6,3.7,10.1
				C149.6,491.4,146.5,470.1,142.5,468.1z"/>
			<path class="st1" d="M61.5,749.1c2.2,0,5.1-0.3,2.8-3.3c-1.7-2-4.2-6.1-6.2-7h-0.5C54.9,741.4,58.2,749.7,61.5,749.1z"/>
			<path class="st1" d="M58.9,244.7c-0.7,0.6-0.4,1.9-0.2,3.5c2.9,11.5,7.1,26.1,10.1,38l0.3,1.1c12,39.3,15.3,12.5,4.4-13
				C71,265.6,60.9,242.8,58.9,244.7z"/>
			<path class="st1" d="M58.8,737.5l-0.2-0.1C56,737.8,58.4,739.5,58.8,737.5z"/>
			<path class="st1" d="M196.3,131.3c0.2-2.8,0.2-8.2,0-11.1h-0.1c-0.6,2.4-1.4,6.9-1.7,9.7C194.2,133.4,195.7,135.7,196.3,131.3z"
				/>
			<path class="st1" d="M179.6,30.2l0.1-0.1c-0.1,0.2-2.6,3-2.4,2.8C177.5,32.6,179.3,30.7,179.6,30.2z"/>
			<path class="st1" d="M76,334.8c-1.6,3.8-1.9,7.2-2.9,11.3c-1.4,5.1-5,11.7-3,16.5c1.8-4.1,6.9-8.4,9.1-13.9
				c0.5,0.6,1.1,0.6,0.4-1.3c0.1-0.2,0.1-0.4,0.2-0.7l0.3-0.9c0.7-2.5,0.9-5,1.1-7.6c0.1-1.7,0.6-4-0.3-5
				C79.2,331.9,77.2,332.3,76,334.8z"/>
			<path class="st1" d="M180.7,259.8c0.4-2-0.5-8.4-2.7-8.7c-1.1-0.5-2.1-0.1-2,0.9c0.4,1.8,3.3,6.7,4.5,7.9L180.7,259.8z"/>
			<path class="st1" d="M172.7,287.5c1.9,4.7,3.3-0.7,3.7-3.7c1.7-7.4-0.6-17.5-3.8-23.2c-1.7-3.3-3.3-4.6-4.5-3.9l-0.3,0.2
				c-3.2,3.5-0.4,11.6,0.7,16.2C169.8,278,170.8,283.8,172.7,287.5z"/>
			<path class="st1" d="M158.4,453.1l0.2-0.2c2.6-8.4-2.1-21.3-4.3-30.2c-3.2-12.1-5-20.5-9.6-28.9c-6.2-11.9-4.1,8.5-2.9,15
				c1.8,11.2,6.7,27.2,10.8,36.3C155.4,451.5,157.2,454.3,158.4,453.1z"/>
			<path class="st1" d="M55.6,606.3c-0.2-0.8-0.7-6.5-2.2-5.2c-1,0.9,1.9,5.1,2.1,5.3L55.6,606.3z"/>
			<path class="st1" d="M203.2,78.6c0.2-2.8,0.5-3.9-0.7-4.3c-0.2,0.8,0.6,3.6,0.6,4.2L203.2,78.6z"/>
			<path class="st1" d="M57.7,506.7c0-0.7-0.5-1.4-0.7-1.7C57.2,505.7,57.4,506.4,57.7,506.7z"/>
			<path class="st1" d="M106.5,250.7c0.8-2.7-2-8.9-4-8.1L102,243c-1.4,1.6-2.1,5.9-0.9,7.8C102.2,253,105.7,253.2,106.5,250.7z"/>
			<path class="st1" d="M92.9,356.3c-4,1.2-6.2,7.7-7.4,13.3c-3,14.9,4.2,23.3,11.6,32.3c3.3,3,10.4,12.2,11.2,2.7v-0.7
				C109,390.6,102.1,358.8,92.9,356.3z"/>
			<path class="st1" d="M59,735.5l0.4,0.5c3.3,4,2.8-3.8,3.5-7.6c1.5-9.5,2.5-23.9-7.1-15.3c-2.6,2.3-4.2,5.7-4.1,8.7
				C52.9,727.8,55.9,731.4,59,735.5z"/>
			<path class="st1" d="M88.4,321H88c-1.9,0-3.2,3.8-4.5,8.2c-1.7,5.8-3,15-3.4,21.4c-0.1,1.9-0.2,3.5-0.2,4.8
				c-1.1,8.5,10.3,1.8,12.2-2.3C98.9,343.6,96.5,325.9,88.4,321z"/>
			<path class="st1" d="M93,614.5c2,0.5,4.3-0.1,6.4-0.9c7-1.5,11.2-16.4,6.1-25.2l-0.3-0.3c-1.2-0.9-1.8-0.3-2.8,0.5
				c-4.6,3.9-11.8,18.4-10.2,25.1C92,613.8,92.9,614.7,93,614.5z"/>
			<path class="st1" d="M77.7,412.1c-2.8-0.9-5.8-4.2-8.4-6c-0.9-0.6-1.8-0.5-1.6,1.4c1.2,7.3,5.4,15.7,10.4,16.2h0.6
				c1.1-0.4,2.5-0.7,3.4-1.9c1.7-2.4,3.1-6.3,2.9-9.9C84.5,411.1,81.5,413.3,77.7,412.1z"/>
			<path class="st1" d="M95.2,422.9l0.1,0.1C97,420.3,95.8,419.5,95.2,422.9z"/>
			<path class="st1" d="M91,432.9l-0.3,0.5c-0.4,2.9-0.5,10.1,2.5,3.7c1.2-2.2,1.8-3.3,1.1-3.6C93.6,433.3,92,432.9,91,432.9z"/>
			<path class="st1" d="M107.5,252h-0.7C106.8,252.4,107,252.4,107.5,252z"/>
			<path class="st1" d="M95.2,423.5l-0.3-0.4c-0.8-0.3-2.4,2.6-1.4,5C96.7,433.6,96.4,427.9,95.2,423.5z"/>
			<path class="st1" d="M1084.4,336.4L1084.4,336.4c0.1-0.1,6.1-2.8,6.2-3.1C1090.2,332.7,1084.4,335.6,1084.4,336.4z"/>
			<path class="st1" d="M1122.8,187.2c0.3-0.3-0.3-5.1-1.5-8c-0.9-2.6-1.4-2.6-0.9-0.1c0.6,2.3,1.4,6.4,2.2,8.1H1122.8z"/>
			<path class="st1" d="M1114.5,285.3c0-1.5-0.2-2.6-0.4-2.4l-0.1,0.5C1114.2,284.1,1114.6,287.4,1114.5,285.3z"/>
			<path class="st1" d="M1083.8,112.1c0,1.9-0.3,5.2,0.3,6.7l0.2,0.1c1.6-1.2,5.1-7.6,5.4-10.1
				C1089,105.2,1083.5,107.1,1083.8,112.1z"/>
			<path class="st1" d="M1080.5,340.6c-1.3,1.6-4.1,3.8-4.3,5.8l0.1,0.5c1,2.1,3.5,1.4,4.8,0.7c1.8-0.7,4.6-8.2,3.5-10.3
				C1083.8,336.6,1081.4,339.6,1080.5,340.6z"/>
			<path class="st1" d="M1100.8,41.2c-3-1.2-10.4,0.1-10.6,6.9c-0.3,4,2.7,17.1,5.5,13.1c1.6-2.5,2.7-6.1,3.8-9.5
				c0.8-3,2.7-7.8,1.6-10.2L1100.8,41.2z"/>
			<path class="st1" d="M1176,485.6c0.4,1.3,1.8,3.2,2.8,4l0.3-0.2c0.6-1.5,0.5-5.7-1.5-5.3C1176.5,484.1,1175.6,484.6,1176,485.6z"
				/>
			<path class="st1" d="M1122.9,606.7v0.4c0.4,3.7,3.2,5.5,5,8.2c2.4,2.5,4.7,8,7.6,7.8c2.6-1,3.7-3.8,6.6-6.9
				c3.2-4.1,7.9-8.7,9.1-14.5C1152.5,590.9,1123.6,599.6,1122.9,606.7z"/>
			<path class="st1" d="M1129.6,624.1c1.6-1-0.9-0.6-1.4-0.7c-0.4,0.4,0.8,0.5,1,0.7H1129.6z"/>
			<path class="st1" d="M1094.5,631.2c-2.9-0.4-7.1-0.4-9.6,1.7l-0.5,0.5c-2,2.7-0.7,8.4,0.9,11c1.9,3,5,1,7.8-3.7
				C1096.3,635.3,1098.1,631.6,1094.5,631.2z"/>
			<path class="st1" d="M1125.5,626.3c-1.3,1.7-1.8,4.9-0.3,6.8l0.5,0.6c3.4,3,9.2,1.2,13,0.7c1.3-0.3,2.1-0.2,1.8-1
				c-2.7-2.2-5.4-4.2-8.1-6.5C1129.9,624.6,1127.1,624,1125.5,626.3z"/>
			<path class="st1" d="M1160.5,86.9L1160.5,86.9c-2.4-0.1-8.7,1.3-10.7,2.9C1151.6,90.9,1160.6,87.5,1160.5,86.9z"/>
			<path class="st1" d="M1145,121.3c3.8-4.7-3.3-7.8-5.9-8.2c-2.9-0.8-7.7-3.2-9.8-1.2l-0.2,0.4c-0.6,1.6,2.4,5.1,6.1,7.8
				C1138.6,122.2,1141.6,123.3,1145,121.3z"/>
			<path class="st1" d="M38.1,247.6l-0.3-1.2c-2.5-10.8-7.2-25.7-14.3-29c-2.1,0.9-0.6,16,2.3,32.7c1.7,8.4,5.7,28.5,9.4,30.4
				c2,1,3.7-2.1,4.3-5C41.5,266.1,40.2,257.1,38.1,247.6z"/>
			<path class="st1" d="M193.4,231.3c0.2-0.3-1.9-6.4-2.1-6.2v0.2C191.4,226.3,193.5,232.3,193.4,231.3z"/>
			<path class="st1" d="M31.3,678.7l-0.3,1.1c-0.6,2.8-3.8,6.1,0.2,5.4c5-0.5,8.9-4.9,4.2-11.6C31.3,667.8,32.4,674.9,31.3,678.7z"
				/>
			<path class="st1" d="M149.5,619.4v-0.7c-0.9-21.5-11.6-48.3-14.2-71.9c-0.1-0.5-0.2-1.1-0.3-1.6c0.5,0.7,1,1,1.7,0.8
				c1.8-2.9,2.4-14.4-2-12.7l-0.5,0.6c-0.3,0.4-0.5,0.9-0.6,1.6c-3-22.1-4.6-43.6-13.1-63.4c-5.2-12.6-16-30.6-20.4-32.3
				c-5.4-2.7-5.9,8.6-6.3,14.7c0.1,5.2,0.4,10.5,0.7,15.9c-1.9-9.6-5.3-18.9-9-23.5c-2.8-1.7-5.3,2.7-5.1,7.3
				c0.4,11,3.9,26.9,9.9,33.4c2.7,2.9,5,3.6,5.5,1.4v-0.1c1.4,16,3.6,32,6.8,47.1c8.1,32.9,19.2,65.8,24.1,100.9
				c1.4,8.1,2.4,16.2,4.4,23c0.9,2.7,2.2,5.8,4.2,6.1C144.5,662.9,149.9,635.9,149.5,619.4z"/>
			<path class="st1" d="M206.9,267.2l0.3-0.5c2.9-6.3,3.1-10.3-0.5-17.5c-2.4-4.9-11.2-24.7-13.7-15
				C191.1,243.1,194.8,288.1,206.9,267.2z"/>
			<path class="st1" d="M18.7,702.4l-0.6-0.2c-7.5-0.3-10.6,14.5-5.8,23.6c2.2,4.8,5.2,7.3,7.4,5.7
				C24.8,726.8,24.7,705.2,18.7,702.4z"/>
			<path class="st1" d="M220.8,100c-1.8-9.9-6.9-21.2-9.7-30.6c-1.3-4.6-2.6-5.4-3.7-3.4c-1.6,2.9-2.1,15.8-2.1,22
				c-0.2,8.6,1.2,17.9,6.2,22.2c5.8,6.4,12.6,5.7,9.6-9.1L220.8,100z"/>
			<path class="st1" d="M44.1,756.1c0.9-6.9-1.9-10.3-5.4-6.5l-0.4,0.6c-1.3,3.1,1.4,8.2,2.5,10.8C42.7,764.6,43.7,761.1,44.1,756.1
				z"/>
			<path class="st1" d="M1111.3,562.4c1.8-4.4-2.1-8.9-4.6-8c-1.3,0.4-2.5,2.4-4.2,4.7l-0.6,0.8c-2.3,3.4-5.6,5.1-8.2,7.3
				C1094.6,568.6,1110.8,567.1,1111.3,562.4z"/>
			<path class="st1" d="M1070.5,430.6c0.1-0.2,0.4-0.7,0.6-0.9l0.2-0.7C1071.2,428.7,1070.6,429.8,1070.5,430.6z"/>
			<path class="st1" d="M39.1,246.9c0.4-0.3-0.7-2.7-1.1-2.4c-0.6-0.1,0.8,2.2,0.9,2.4H39.1z"/>
			<path class="st1" d="M19.5,733.4l-0.5-0.7C18.3,734.1,18.3,734.7,19.5,733.4z"/>
			<path class="st1" d="M13.1,261.4c0.2,0.7,0.5,1,1,1C13.8,262,13.3,261.7,13.1,261.4z"/>
		</g>
		<path class="st2" d="M917.4,898.6c1-6,1.6-12.2,1.6-18.4c0-59.8-48.5-108.2-108.2-108.2c-59.8,0-108.2,48.5-108.2,108.2
			c0,6.3,0.5,12.5,1.6,18.4H917.4z"/>
		<path class="st2" d="M347.5,898.6c1-6,1.6-12.2,1.6-18.4c0-59.8-48.5-108.2-108.2-108.2c-59.8,0-108.2,48.5-108.2,108.2
			c0,6.3,0.5,12.5,1.6,18.4H347.5z"/>
		<g>
			<path class="st3" d="M532.9,869.8c0,2-0.1,3.7-0.2,3c0.2,4.1,0,4.2,0.3,4.7c0.2,2.6-0.1,5.4-0.2,2.4l0.2,7.5l0.1-4.5
				c0.3,1.2-0.1,7.2,0.2,8.6v-8.1l0.1,0.4c-0.1-1.9-0.1-5.5,0-6.7c0,0.2,0.1,0.1,0.1,1.5c0-9.8-0.5-2.6-0.6-10.8
				C532.9,868.3,532.9,869,532.9,869.8z"/>
			<path class="st3" d="M533.5,861.5l-0.3-3.4l0.1-5.8c-0.1-0.1-0.2-4.3-0.3-1.4c0,0.6,0.1,1.7,0,2.5c-0.3-0.6-0.1-7.7-0.4-6
				c0.1,4.6,0,5.2,0.2,8c0,4.2-0.1,7.2-0.2,9.2c0,1.2,0.2,1.4,0.2,3c0-0.3,0-0.7,0-1.1l0.4-0.2c-0.1-1.3,0-2.6,0-4l0.4,6.7
				c0.4-2.2,0.1-8.8,0.3-11.4C533.6,861,533.8,855.1,533.5,861.5z"/>
			<path class="st3" d="M532.9,867.7c0,0,0,0.1,0,0.2C532.9,867.8,532.9,867.7,532.9,867.7z"/>
			<path class="st3" d="M530.7,364.4c0-1.4-0.1-1.9-0.1-2.1v16.1c0.1-0.5,0.2-5.1,0.3-2c0.1-1.4,0-5.6-0.1-6.2l0.2,1.2
				c-0.2-3.7,0.2-6.3,0.3-3.8v-0.3l-0.8-10.3C530.4,360.7,530.7,359.8,530.7,364.4z"/>
			<path class="st3" d="M531.1,33.2c0,2.1,0.1,2.3,0.1,2.1C531.2,34.6,531.2,33.8,531.1,33.2z"/>
			<path class="st3" d="M530.3,354.5l-0.2-3.2C530.1,352.6,530.2,353.7,530.3,354.5z"/>
			<path class="st3" d="M533.8,376.8C533.9,376.8,533.9,376.9,533.8,376.8l-0.1-1.5l0,0C533.8,375.9,533.8,376.4,533.8,376.8z"/>
			<path class="st3" d="M529.4,281.3c0-0.3,0-0.6,0-1.1C529.4,280.7,529.4,281,529.4,281.3z"/>
			<path class="st3" d="M535.2,420.5l-0.2-7.2c0.1,1,0.1-2.5,0.2-1c0-0.5-0.1-3.1-0.1-2.4v1.5c-0.3-3.8-0.4-1.5-0.7-7.8
				c-0.2,3.9,0,5.6,0.1,7.7c0,0.7,0,1.3,0,1.9l0.4,6L535.2,420.5z"/>
			<path class="st3" d="M532.9,133.1L532.9,133.1L532.9,133.1z"/>
			<path class="st3" d="M533,133.5l-0.1-0.3C533,133.6,533,135,533,133.5z"/>
			<path class="st3" d="M530.5,355.7c-0.1-0.1-0.1-0.5-0.2-1.2l0.2,2.4C530.5,356.6,530.5,356.1,530.5,355.7z"/>
			<path class="st3" d="M531.2,361.2v6l0.2,2.2C531.3,367.1,531.3,364.4,531.2,361.2z"/>
			<path class="st3" d="M529.2,290.9c0-12.5,0.4,3.1,0.5-2.7c0-3.5-0.2-4.7-0.3-6.9c0.1,9.9-0.6-1.3-0.5,8.7
				c-0.3-1.4-0.3-7.2-0.3-10.6c0.3-3.8,0.2,3.4,0.5,4.2c0-4-0.1-3.3-0.3-5c0.1-6.3-0.4-13,0-16.8c-0.1-4.6-0.2-4.3-0.4-6.9
				c-0.3-0.5-0.2,6.8-0.4,8.5c0-0.4,0.1-1,0.1-0.8l-0.1,3.9c0.1-3.7,0.3,0.5,0.4,2.5c0,1.5,0,4.4-0.1,4l-0.1-2.2
				c-0.1,2.8,0.2,6.3,0.1,9.3c-0.1,0.2-0.1-1-0.2-1.1c0.2,3.4,0.2,6.6,0.4,11.6l-0.3-2.9c0.4,4,0.3,13,0.1,19.2
				c0.1-0.7,0.1-1.9,0.2-1.2c0.1,3.7-0.1,6.4-0.3,4.7c0.3,3.6-0.2,13.6,0.1,18.5l1.6,22.4c0-0.8-0.1-1.7-0.1-2.7
				c0.3-2,0.2-3.1,0.5,0.4c-0.1-3.5-0.4-2.2-0.4-7.4c0.1,2.1,0.5,2.6,0.5-2.5c-0.3-12.6-1.1-21-1.5-32.8c0.2-0.4,0.2-9.7,0.2-14.2
				c0.2,1.7,0.3,5.1,0.3,8.5c0-2.2,0-5.9,0-8.7L529.2,290.9z"/>
			<path class="st3" d="M529.9,320.2c0-0.3,0-0.6,0-1C530,319.4,529.9,319.7,529.9,320.2z"/>
			<path class="st3" d="M529.6,301.8L529.6,301.8c0-0.3,0-0.7,0-1.1C529.6,301.1,529.6,301.5,529.6,301.8z"/>
			<path class="st3" d="M531,352.7c0.1,0.7,0.1,1.3,0.1,2.1c0-0.5,0-1-0.1-1.6C531,352.7,531,352.4,531,352.7z"/>
			<path class="st3" d="M530.6,355.3l-0.1-0.4c0,0.3,0,0.5,0,0.8C530.5,355.8,530.6,355.7,530.6,355.3z"/>
			<path class="st3" d="M531.2,243.1v-1.2C531.1,242.6,531.2,242.9,531.2,243.1z"/>
			<path class="st3" d="M529.6,276.9c0,4.4,0.3,0.5,0.3,6.7v-1.8c0.1,4.4,0.1,12.2,0.1,17.4c-0.1-0.6-0.2,3.2-0.4,2.6
				c0,3.6,0.1,7.1,0.3,9c-0.1,2.2,0.1,5.6,0,8.4c0.1-1.2,0.4,4,0.3-2.9c0,0.6,0,0.2,0.1,0.8c0.2-4.4-0.1-6.2-0.1-10
				c0.1-2.3,0.2,3.7,0.2,1.6c-0.1-4.8,0.1-15-0.3-14.6c0-3.5,0.1-3.9,0.2-5c-0.5-5.5,0.2-20.4-0.4-20.3c0,2,0,5.3,0.1,8.2
				L529.6,276.9z"/>
			<path class="st3" d="M530.9,345.4c0-0.3,0-0.6,0-0.8C530.9,344.8,530.9,345.1,530.9,345.4z"/>
			<path class="st3" d="M529.1,400.3l-0.4-1.8c-0.1-10.4,0-14.1,0-23.2c0.1-0.7,0.1,0.4,0.1,1c0-6.4,0-15.9-0.1-20.5
				c0-2,0.1-7.3,0.2-5.3c0-1-0.1-2.1-0.1-3.2c0.1-0.3,0,2.5,0.2,2.6c0-0.9,0-1.2,0-1.5c0.1,1.5,0.5-1.6,0.5,5.5
				c-0.3,2.7,0-4.9-0.4-3.3c0,2.3,0.1,2.1,0.2,2.3c0,3-0.1,2.9-0.2,2.7c0.1,1.1,0,4.9,0.1,6.5c0,5.8-0.3-0.3-0.3,3.5l0.4,2.2
				l-0.1,6.3c0.1,9.1,0.7-1.3,0.9,9.1c-0.2-1.4-0.5,2.8-0.6,7.7c0-2.9-0.3-8.3-0.1-12c-0.3,5.3,0-7.3-0.4-4.5
				c0.2,2.6,0.2,7,0.1,10.4v-1.1c0,3.6,0.4,6.3,0.2,11.3c0,2.5-0.1,2-0.2,1.6C529.2,398.5,529.2,400.3,529.1,400.3z M529.1,394.9
				v-3.3C529,392.4,529,393.6,529.1,394.9z"/>
			<path class="st3" d="M533.5,815.2c0,0.3,0,0.7,0,1C533.5,816,533.5,815.6,533.5,815.2z"/>
			<path class="st3" d="M533.6,521.4v1.9C533.6,522.5,533.7,521.9,533.6,521.4z"/>
			<path class="st3" d="M534.9,564.4l0.1,2.8C535,566.1,534.9,565.2,534.9,564.4z"/>
			<path class="st3" d="M533.5,792.3L533.5,792.3c0-0.3,0-0.4,0-0.5V792.3z"/>
			<path class="st3" d="M534,650.7c0,0.4-0.1,0.9-0.1,1.6C534,652.2,534,651.6,534,650.7z"/>
			<path class="st3" d="M534.9,563.9c0,0.1,0,0.1,0,0.2c0,0.1,0,0.2,0,0.3V563.9z"/>
			<path class="st3" d="M534.8,502.4c0-0.4,0-0.8,0-1.2C534.7,501.8,534.7,502.1,534.8,502.4z"/>
			<path class="st3" d="M533.7,505.1c0-0.4,0-0.9,0-1.2V505.1z"/>
			<path class="st3" d="M534.4,438.8l-0.1-2.6C534.4,437.5,534.4,438.3,534.4,438.8z"/>
			<path class="st3" d="M533.9,498.3c0-0.1,0-0.3-0.1-0.4C533.9,498.2,533.9,498.4,533.9,498.3z"/>
			<path class="st3" d="M532.4,831.6c0-0.1,0-0.1,0-0.2v-0.1V831.6z"/>
			<path class="st3" d="M532.9,837.9c0,0.7,0,1.5,0,2.3C532.9,839.3,532.9,838.5,532.9,837.9z"/>
			<path class="st3" d="M533.4,688.2c-0.1,0.7-0.1,2.3-0.2,1.5C533.3,691.1,533.5,691,533.4,688.2z"/>
			<path class="st3" d="M530,819c0.1,0.4,0.1,0.9,0.1,1.4C530.1,819.5,530,818.7,530,819z"/>
			<path class="st3" d="M530.1,820.5c0,0.5,0.1,1,0.1,1.4C530.2,821.4,530.2,820.9,530.1,820.5z"/>
			<path class="st3" d="M530.3,670.8c0-0.2,0-0.4,0.1-0.8C530.3,670.1,530.3,670.4,530.3,670.8z"/>
			<path class="st3" d="M532.9,842c0.1,0.4,0.3,10.3,0.3,2c0.3,0.3,0.1,5.3,0.2,7.5c0.1-1.6,0.2,0.8,0.3,0.3c0-1.1-0.1-2.4-0.1-4.2
				c0.1-0.8,0.2,1.9,0.2,4.1c0.1-2.6,0.2,3.4,0.3-0.4c-0.1-8-0.2-13.7-0.6-19.3c0.1,4.6,0.2,9.7,0,13.4l-0.2-1.6
				c0.2-4.2,0.1-6.8,0.1-11l-0.1,9.3c-0.2,4.4-0.2,1.5-0.3-2C532.9,841,532.9,841.8,532.9,842z"/>
			<path class="st3" d="M530.8,835.7v0.2c0,0.1,0,0.3,0,0.4V835.7z"/>
			<path class="st3" d="M529.5,439.3l-0.1-0.8C529.5,439.2,529.5,439.4,529.5,439.3z"/>
			<path class="st3" d="M531.9,830.1L531.9,830.1C531.9,830,531.9,830,531.9,830.1z"/>
			<path class="st3" d="M529.5,459.3v-0.1C529.5,459.2,529.5,459.2,529.5,459.3z"/>
			<path class="st3" d="M534.7,464.6c0,0,0,0,0-0.1C534.7,464,534.7,464.2,534.7,464.6z"/>
			<path class="st3" d="M529.5,459.3L529.5,459.3L529.5,459.3z"/>
			<path class="st3" d="M530.4,556.4c0,0,0-0.3,0.1-0.8C530.5,555.5,530.4,555.6,530.4,556.4z"/>
			<path class="st3" d="M530.8,537.3c0-0.1,0-0.2,0-0.4V537.3z"/>
			<path class="st3" d="M534.5,683.7c0-0.9,0-1.7,0-2.3C534.5,682.1,534.5,682.9,534.5,683.7z"/>
			<path class="st3" d="M529.5,459.2c0-0.2-0.1-0.5-0.1-1C529.4,458.7,529.4,459,529.5,459.2z"/>
			<path class="st3" d="M531.6,585.7c0-0.2,0-0.4,0-0.6v0.4V585.7z"/>
			<path class="st3" d="M531.4,595.7c0-0.3-0.1-0.5-0.1-0.7c0.1,3.6,0,10.1,0.2,10.9c0-1.2,0.1-7.5,0.3-6.4
				c-0.1-2.5,0.1-6.2,0.1-7.5c-0.1,4.1-0.2,0.4-0.3-2.3c0.1-2.5,0.2,0.5,0.3-1.7v-5.8v5.1l-0.2-1.5c0,0.2,0,0.3,0,0.5
				C531.8,594.7,531.3,586.9,531.4,595.7z"/>
			<path class="st3" d="M531.4,595c0-0.5,0-1-0.1-1.4C531.3,594.4,531.3,594.7,531.4,595z"/>
			<path class="st3" d="M531,629.9c0,0.4,0,0.9,0,1.5C531,631.2,531,630.5,531,629.9z"/>
			<path class="st3" d="M531.3,373.7c-0.1,0.1-0.2,5.1,0,5c0-1.5,0-3,0.1-4.5L531.3,373.7z"/>
			<path class="st3" d="M532.1,725.2c0-0.6,0-1.1,0-1.7c0-0.1,0-0.2,0-0.3C532,723.5,532,724.6,532.1,725.2z"/>
			<path class="st3" d="M532,601c0-0.9-0.1-1.3-0.1-1.5C531.9,600.1,531.9,600.6,532,601z"/>
			<path class="st3" d="M531.6,725.5c-0.1,0.7-0.1,1.8-0.2,1.9c0,1.4,0.1,2.5,0.1,3.9C531.5,729.7,531.5,727.7,531.6,725.5z"/>
			<path class="st3" d="M531.5,731.5L531.5,731.5C531.5,731.4,531.5,731.4,531.5,731.5z"/>
			<path class="st3" d="M531.4,370.8c0-0.4,0-0.9,0-1.3l0.1,0.7c0-1.1,0-2.3,0.1-3.4c0-0.4,0-0.9,0-1.4c0,0.2,0,0.4,0,0.5
				c0-0.4,0-0.7,0-1.1c-0.2-2.7-0.3-9.5-0.5-11.5c-0.1-2.6-0.1-5.8-0.1-7.8c0,1.8,0,4.3,0.1,3.6c0.1-3.7,0.4-5.6,0.2-12v3.8
				l-0.4-8.5c0.2-3,0.2,4.3,0.4,5.4c-0.2-6.6,0.3-12.2,0-15.2c0.2-0.4,0.6-1.2,0.6-5.5c-0.2,3.1-0.2-2.6-0.4,0
				c-0.1-1.5,0.1-4.9-0.1-5.1l0.1,0.4c0.3-7.4-0.2-9.9-0.4-13c-0.1-8.9,0.1-13,0-20.2c0.1-0.3,0.5-2.3,0.5-5.2
				c-0.2-1.4-0.3-7.9-0.5-8.6c-0.1,5.2,0.2,4.3,0.3,7.4c-0.3,2.6-0.3,0.2-0.4,3.8c0.1-2.9-0.1-12.9,0.1-16.1v1.1
				c0.2-5,0.8-6,0.4-14.3l-0.2-4c0,0.2,0.1,0.2,0.1,0.3c0-6.5,0.3-4.7,0.1-11.9c0,0.6,0,0.2,0.1,0.8c0.1-4.1-0.1-8.2-0.2-11.3
				c0.2-1.9,0.2,0.4,0.4,1.6c0.1-7.2-0.3-15-0.5-19.4l0.1-4.6c0.1,2.8,0.3,6.1,0.4,5.3c0-2.6-0.1-2.1-0.1-5.7
				c0.1,0.6,0.3,2.1,0.4,3.8c0.2-7.5-0.5-1.7-0.1-6.9c0-2.3-0.2-3.7-0.4-4l0.2-4.2c-0.2-0.5-0.2-5.7-0.2-9.2
				c-0.1-0.4-0.2,2.8-0.1,4.1c-0.2-0.3-0.2-3.9-0.2-6.3c0.4-0.9-0.1-15.4,0.5-12.6c-0.1-10.6-0.2-25.4-0.4-32.4
				c0.1-2.3,0.1-7,0.3-4.2c0-8.5-0.4-12.9-0.3-21.3c0.1-0.7,0,3.8,0.1,3.5c-0.2-5.5,0.2-10,0.1-18.6c0,1.4,0.1,1.9,0.1,2.1
				c-0.1,0.1-0.1-3.5-0.2-5.7c0-1.2,0.1,1.7,0.1,1c0.2-16.5-0.4-29.1-0.4-45.6c0,4.7,0.3,6.5,0.4,6.5v-4.6c-0.1-1.8-0.1-5.2-0.3-8.1
				c0.1-0.4,0.1-1.8,0.2-0.3c0.3-9.1-0.5-14.2-0.4-25.3l0.6,13.5l0.2-3.3l0.3,5.9c0.2-3.5-0.2-6.6,0-7.1c0.1,0.7,0,2.6,0.2,2.6
				c0.1-3.4-0.1-3.7-0.1-6.2c0.4,6.7,0.4,20,0.5,27.1c0,1.1-0.1-1-0.2-1.2c0,2.9-0.1,4.6,0,8.3c0.2,2.3,0.1-1.7,0.2-3.5
				c0.2,0.2,0.2,1.2,0.2,3.2c-0.2,0.4-0.1,11-0.3,13.6c0.1,10.7,0.6-1.7,0.5,8.7l-0.2,3.1c0.2,6.1,0.4,13.9,0.3,20.8v-1.4
				c-0.1-1-0.2,0.6-0.2,1.3c-0.1,5.2,0.2,9.9-0.1,13c0.3,5.9,0.5,15.8,0.6,22.6c-0.3,1.8-0.3-8.8-0.5-11.6v6.2
				c0-3.8-0.1-5.3-0.3-7.6c-0.1,5.4,0.2,7.2,0.3,12.3c-0.1-0.4-0.1,0.3-0.1,2.6l0.2,0.7c0,0,0,0.3,0,1l0.1,9.1
				c0.1-1.9,0.3-2,0.3-4.4c-0.1,0.8-0.2-1.2-0.1-3.5c0.1,2.1,0.1-2.3,0.2-2.2c0,4.7,0,10.5,0.1,13.6l-0.2,1c-0.1,4.5,0.1,9.2,0,12.3
				l-0.1-1c-0.1,5.4,0.1,10.7-0.1,15.5c0.2,4.8,0.4,10.9,0.7,14.8c0.3,2.1-0.3,14.1,0,19.6c0,0.4-0.2-3.7-0.3-5.6
				c0,3.6,0.3,6.5,0,7.6c0.1-8.1-0.2,0.4-0.3-3.2c0,3.8,0.1,7.8,0.2,9.7c0-6.1,0.4,2.2,0.3-4c0.2,4.8,0.3,11.4,0.2,17.1
				c-0.1-0.1-0.2,0.7-0.2,2.8l0.2,1.7c0,2.7-0.2-5.2-0.3,0.2c0.3,5.6-0.2,16.8,0.4,19.2c-0.2,4.2-0.2-8.1-0.5-1.7
				c-0.2-3.7,0-8.8-0.2-10.1c0.1,3.6-0.2,1.3-0.2,3.7l0.2,4.1v-0.9c0.3,6.8,0.1,17.6,0.2,26.3c0.3,7.4,0.7,12.5,0.6,21.3
				c-0.2-2.6-0.2,7.3-0.4,1.8c-0.1,4.1,0,8.1,0.1,8.2c0-3.6,0-1.3,0.1-4.3c0.1,2,0.1,6.8,0,8.7c0-0.9,0-0.6-0.1-0.8
				c-0.1,4.3,0.1,2.1,0.2,5.2c-0.2,1-0.1,6.9-0.2,9.7l0.3,4.1c-0.2-2.3-0.1,3.9-0.2,4.6c0.1,3,0.4,5.4,0.3,9.9
				c-0.1-1.9-0.1,4.1-0.3,4.2c-0.2,7.7,0.5,12.7,0.2,20c0-0.2-0.2-1.7-0.2,0.4c0.1,1.7,0,4.6,0.1,6.4v-0.1v0.1c0,0.9,0,1.4,0.1,1.5
				c0.2,3.1,0.4,4.7,0.5,10.7c0.2-0.4,0.1-5.6,0.1-7.8l-0.2-1.9c0.3-1.8-0.1-5.5,0.1-6.8c0.4,3.6,0.3,14.1,0.5,20.3
				c0.3-3.8,0.4-12.1,0.3-19.4l-0.1,3.2v-3.8l-0.2,3.7c0-3.6,0-6.7,0-10c0,3.8-0.3,5.3-0.2,3.1c0.2-4.2-0.1-4.4-0.1-7.7
				c0,1.8,0,4.2-0.1,2.6c0.3-6.4,0.1-8.1,0.4-13.9c-0.4,0.7,0-7.3-0.3-8.1v2.7l-0.2-5.7c0.3-5.3,0.3,4.7,0.5-3.4
				c0-7.4-0.3-7.2-0.4-13c0.2,1.9,0.4,6.5,0.4,11.2l0.1-2.8c0.1,1.5,0.1,8,0.1,11.3c-0.2-5.4-0.1,2.5-0.3,4.9c0.2,0.4,0.2-3,0.3,1.1
				c0-3.8,0-4.4,0.1-9.2c-0.1,10.5,0.7,9.4,0.5,18.6c-0.1-4.2-0.3,1.5-0.4,2c0,2,0.1,6,0.1,7.7l0.3-1.5c0.1,5.3-0.5,7.2-0.2,13.3
				c0.2,0.8,0.1-5.4,0.1-4.3c0.2,8.4-0.3,11.4-0.5,18.9c0.1,0.4,0.3,0.3,0.4,2.9c-0.2-0.8-0.3,1.1-0.4-1.8c-0.1,2.5,0.1,5.5,0.1,7.7
				c0.1-5.2,0.3,2.1,0.4,3.1c0,2.7-0.2-0.8-0.2-2.5c0,2.2-0.3,4.7,0,6c-0.2,0.1-0.5-6-0.5-10v2.7c-0.1-1.9-0.1-2.2,0-4.9
				c-0.1,2.6-0.3,2.4-0.4,1.8c0-0.3,0,0.2,0.1-0.1c0-2.2,0-3.8-0.1-3.3c-0.3-1.9-0.2,3-0.3,4.5c0,1.1,0,2.2,0.1,3.3l0.8,11.2
				c0.1,4.8-0.1,6.9-0.2,10.5l0.2,1c0,4.2-0.1,8.1-0.4,5.4c0.1-0.1,0.1-0.7,0.1-1.6c0-0.1-0.1-0.3-0.1-0.6c0-0.1,0-0.1,0-0.2
				c0.1,4.5,0.1,7.3,0.1,7.5c-0.3-7.6-0.4-0.4-0.8-1.6l0.1,7.7c0.1-4.6,0.2-0.1,0.2,1.6c-0.2,0.5,0,6.2,0,8.9v-0.2
				c-0.1,2.5-0.1,6.8,0,9.9c0.1-0.1,0.4,3.8,0.6,5.7c0.1-5.3,0.2-2.2,0.3-2.6c0,0.6,0,1.5,0,1.7c0.1,0.8,0.1-1,0.2-1.2
				c-0.1-5.7-0.1-11.5-0.4-13.8c-0.1,1.7,0.1,3,0,4.9c-0.2-2.8-0.2-6.4-0.2-11.1l0.2-1.5l-0.1-4.7c0.1,2,0.3,0.8,0.3,5.7
				c0.2-0.6,0-4.9,0-8l-0.2-1.6c0.1,0.6,0.2-5.9,0.3-1.3l0.2,7.5l0.2-2.1v6.4l-0.1-1.5c0.2,10.2-0.5,3-0.2,13.3
				c0.3,3.2,0.3,6.7,0.3,13c-0.1-4.6-0.2-0.5-0.4-2.2c-0.1,4.6,0.1,6.2,0.2,8.6c-0.2,1.2-0.3,2-0.3-2.1c-0.3-0.5,0.1,5.5-0.3,5.8
				c0,13.8,1.1,11,0.7,27.1l-0.1-0.6c0.2,10.2,0,16.1,0.1,25.6l-0.3,7.4c-0.1-1.7-0.3-6.1-0.5-4.1c0.3-3.6,0.2-7.5,0.4-11.4
				c-0.1-0.4-0.2,1.2-0.2,1.9c0-2.4,0.2-3.5,0.1-6.6c-0.1,0.2-0.2,3.5-0.2,1l0.2-4.2c-0.1-5.7-0.5-2.8-0.4-9.4
				c0.2,1.2,0.5,3.8,0.5,6.3c0-3,0.1,4,0.2,1.3c-0.3-4.4-0.1-6.5-0.2-12.3c0,0.7,0.1,0.9,0.1,2.3l0.1-8.4c-0.2,2.1-0.2-7-0.4-6.2
				c-0.1,9,0,6.4-0.1,16.6c-0.1-2.9-0.3-6.6-0.5-8.4c0-0.1,0-0.2,0-0.6c-0.2-1.6-0.3,0-0.7,0c0.3,4.7,0.1,7.8,0.2,13.3
				c0.2,1,0.3-3.2,0.2-5.9l0.2,4.9l-0.1-1l-0.1,12.3c0-2.3-0.1-3.1-0.2-4.4c0,1.6-0.1,3.2-0.1,4.8c0.2-0.4,0.4-0.1,0.4,1.4
				c-0.1,7.9-0.3,12.4-0.5,15.3c0,0.3,0,0.6,0,0.9c0.2-1.3,0.4,5.6,0.6,8.1c-0.2-0.1-0.1,4.1-0.3,6.4c0.3,1.2,0.6-0.4,0.9-3.2
				c-0.2-5.4-0.2-3-0.6-5.5l-0.2-8.6l0.2,1.9c0.1-4.3-0.2-8.4,0.1-8.1c0.2,2.3,0.1,6,0.3,8.3l0.1-2.8c0.3,5-0.3,2.6-0.1,8.6
				c0.2-2.2,0,0.6,0.2,3.2c0.2-2.1-0.1-10.7,0.3-8.9c0.2,3.2-0.5,10.6-0.1,14.8V554c-0.1,6.2,0.2,8.3,0.3,10.6
				c-0.1,2.6,0.1,6.2,0.1,9.1l-0.1-0.1v4c-0.2-1.9,0-4.7,0-8.2l-0.2,0.4c0.3-4-0.1-6.6-0.3-9.7c0.2,4.5-0.1,12.7,0.4,13.7l-0.2,2.8
				l0.1,1.3c-0.2,2.1-0.4,0-0.5-4.1c0.1-0.7,0.1-1,0.1-0.8c-0.1-1.9-0.3-3.6-0.2-8.1l0.1,2.4c0-5.6-0.1-10.7-0.3-12.6
				c-0.1,8.1-0.1,16.1-0.1,23.7c0.5,2.2,0.8,4.9,1.2,6c0.1,5.1,0.1,12,0,16.5l-0.1-0.4c0,2.2,0,4.2,0,5.8c-0.1,2.3-0.2-1.6-0.3,0
				l0.2,7.3c-0.2-0.4-0.2-6.6-0.2-9.5c0,0.6,0.1,1.7,0.1,1.3c0.1-3.4-0.3-9.7,0-11.2c-0.1-1.7,0.2,3.4,0.2-2.2
				c0.1-3.7-0.2-5-0.2-5.4c-0.1-0.1-0.2,5.9-0.3,3.8c0,2.9,0.2,4.1,0.1,7.8c0-2.9-0.3-6.8-0.1-8.4c-0.2-5.7-0.8-4.9-0.8-2.2
				c0.2-0.6,0.2,10.4,0.4,2.9c0.2,3.4,0.2,9.5,0.4,13.9v-0.2l0.1,5.5c-0.1-0.8-0.1-2.4-0.2-2.5l0.3,7.6c-0.2-4.3-0.1,2.6-0.2,4.6
				c0.2,0.8,0.3,3.8,0.4,0.9c0.1-3.2-0.1-1.9-0.1-4.8l0.3,4.1v0.4l0.2,2.5c0,5.6-0.5-2.4-0.3,4.7l0.3-0.9c0,8.3-0.4,19-0.3,24.8
				c-0.2-1.6-0.5-2.3-0.6-0.1c0.1-2.5,0-7.6,0-11.2c0.1-0.7,0.4,4.5,0.3,8.5c0.5-1.9-0.3-9.9,0.2-10.4c0.2-10-0.5-7.5-0.2-16
				c-0.2-0.1-0.1-2.4-0.3-2.9c-0.4,2.5,0,11.4-0.1,16.9c0-0.5-0.1-1.6-0.1-1.8c-0.1,4,0,5.6,0.1,8.4v-0.3c0.2,4.8-0.2,3-0.3,5.8
				c0,1.1,0,5.1,0.1,4.4l-0.2,5.1l0.3-0.2c0,2.9-0.2,3.5,0,6.2l0.2,0.1l0.1-7.2c0.1,3.7,0.2,1,0.3,5c-0.3-4.5-0.1,3.2-0.3,3.6l0.1,3
				l-0.1-0.8c-0.1,2.3,0.1,2.8,0.1,5.5c0.1-3.2,0.3-5.3,0.1-9.3c0.1,3,0.3,8.8,0.3,10.3c0.1,3.1-0.1,5.3-0.1,8.2
				c-0.1-5.6-0.7,2-0.5-9.2c0,0.2,0,1.1,0,1.5c0.3-1.5,0-6.7-0.1-9.1c-0.2,0.6-0.2-1.9-0.3,2.4c0.1-1.4,0.4,3.6,0.2,7.7l-0.4-0.7v6
				v-0.6c-0.2,2.2,0,6.4-0.1,10.5c0.1,3,0,14.3,0.4,9.4c-0.2,3.7,0.1,6.9,0.1,10.9l0.2-5c0.3,5.9,0.1,4.2,0.5,8.9
				c-0.1,0.5-0.2,1.5-0.3,0.6c0,7.9-0.1,19.3,0.2,24c0,5.6-0.5,6.5-0.3,14.3c0.1,1.7,0.3-1.3,0.2,3.9c0,0.4-0.3-5-0.2,0.8
				c0.3,4.1-0.2,9.7,0.1,15.1c-0.1,2.8-0.1,7.8-0.3,6.7c0.1-4.5,0-10.8-0.1-11.8c0.1,0.6,0.1-3.2,0.2,0.1c0.2-6.8-0.1-4.4,0-10.5
				c-0.1-0.4-0.2,3.1-0.2,4.4c-0.3,0-0.1-12-0.5-6.6c0,6.5,0.6,8.4,0.3,14.1c-0.2-2.3,0-5.8-0.4-8.7l-0.1,4.6l0.2,3.4v-0.2
				c-0.3,8.2,0.3,7.6,0.5,14.9c0.2-4.2,0.5,1,0.7-2.2c0,4.9,0,8.5-0.3,8.5c-0.3-9.2-0.3-0.5-0.6-9c-0.1,1.4-0.4-2-0.5,3
				c0.2,5.7,0.3-1.7,0.4,4c0,0.3-0.1,0.7-0.1,0.5c0.2,2.6-0.1,3,0.1,6.2l-0.1-0.7c-0.2,3.9,0.2,4.3,0,7.6c0.2-1.3,0.2,2.2,0.3,4.3
				c0.1-3.4,0.4-5.2,0.4-11.9c-0.2-0.8-0.3-0.3-0.4-3.1v4.4c0-0.9-0.1-1.7-0.1-2.5l0.1-4.2c0.1,5.3,0.3,2.9,0.5,5.1
				c-0.1,4.9,0,4,0,7.1c-0.3-0.3-0.5,9.4-0.6,15c0-0.9,0-2,0-2.6c-0.2-4.1-0.2,2.8-0.3,2.9l0.1,3c0-0.6-0.1-1.3-0.1-0.1
				c0,4,0.3,3.8,0.4,7.8c-0.1,0.3-0.4-3.1-0.4-0.6c-0.1,0.9-0.5,3.6-0.3,8.9c0.1,0.4,0.1,1.8,0.1,3.4c0-0.2,0-0.5,0-0.6l-0.2,3.5
				c-0.2-3,0.1-6.1-0.1-9.1l-0.2-0.3c0-2.4-0.1-5.5-0.2-7c0,3.6,0,4.3,0.1,8.4c-0.1,0.6-0.3-2.3-0.3-2.7l0.1,0.6
				c0.2-4.8-0.2-7.2-0.2-13.1c0-0.9,0-0.4,0.1-0.2c-0.2-4.8,0.1-9.6-0.2-14.2l0.1,1.5c-0.1-3.2-0.3-9.4-0.6-15.7l-0.1-0.1
				c-0.1,0.7-0.1-1.6,0-2.9l0,0c-0.1-3.1-0.2-6.1-0.3-8.6c-0.1,0.8-0.1,1.8-0.1,2.9c0.1,1,0,6.7,0.3,5.9c-0.1,2.6,0.1,6.9,0,8.9
				c0.2-3.5,0.2,2.5,0.4,3.1c-0.2,1.2,0,5.2-0.2,4.8c-0.1,0.7,0.1-1.7,0-3.2c-0.2-3.7-0.2,6.8-0.4,2.2c0.1,5.9,0.1,13.6,0.3,19.7
				l0.1-3.4c0,2.7,0,9.1-0.1,9.5c0-2,0-4.3-0.1-6.9c-0.2-0.1,0,6.2-0.1,6.4l0.4,7.4V832c0.1,2.1,0,8.9-0.1,13.9
				c-0.3-2.9,0-7.6-0.1-12.9c-0.1-3.9-0.3,2.4-0.4-1.3c-0.1,0.9-0.1,3.3,0,4.5l-0.1,1.4c-0.3-3.3-0.2-10.6-0.5-15.4
				c0,0.4,0.1,0.8,0.1,0.9c0.1-3.7,0.1-7.5,0-11.2c-0.1,1.9,0,2.7,0,3.8c-0.1,0.1-0.1-3.3-0.2-4.6c-0.1,3.4-0.2,0.6-0.2,2.8
				c-0.1-2.2,0-4,0-6.7c0.1-1.4,0.2,1.2,0.3,0.9c-0.1-2.8,0.3-4,0.1-8.1c-0.1,5.4-0.3-1.4-0.4-3.3v0.9c-0.2-1.7-0.2-3.2,0-4.4
				c0.1,2.2,0,4.4,0.2,3.7c0-1.5,0-2.9-0.1-4.6l0.1,1.5v-7.3c-0.2-1.1-0.4-3.1-0.6-4.1c0.1-1.7,0-4.2,0-5.8l0.1,0.8
				c0.1-3.2,0-10.3-0.1-10.9c0.1-2.3,0.9,16.2,0.7,0c0-6.1-0.4-3.8-0.6-7.3c0,0,0,0.2,0.1-0.2c0-2.7-0.1-3-0.2-5.2
				c-0.1,1.6-0.1,4,0,4.7c-0.2-0.8,0-5.6-0.1-7.7c0.3,2.7,0.1-5.2,0.2-3.1c0.2-5.4,0-11.1-0.2-13.9c0.3-3.6,0-6.4,0.1-12.3
				c0,0.9,0,2.5,0,3.8c0.2,3.4,0.1-6.1,0.3-0.9c0-1.1-0.1-0.1-0.1,1.1c0,2,0.1,3.8,0.2,3.4l0.2-4.8l0.1,1.7l0.3-7.3
				c0-0.2-0.1,0.5-0.1,0.8c0.1-8.5,0-18.1,0-25.5c-0.6-1.4-0.3-18.2-0.6-24.2c0.2,1.6,0.5,2.5,0.6,1.5c0,1.3,0.3,4.1,0.2,7.1
				c-0.1,0.5-0.2,4.2-0.3,1.8c0.1,8.4,0.3-1.1,0.5,1.3c-0.1-9.3-0.4-14.7-0.6-20.5l0.1-0.1L530,656c0,3.6-0.4,3.4-0.3-1.2v0.6
				c0.1-2.7,0-8.2,0-12.3l-0.2-2.8c0-4.2,0.4-4.3,0.6-5.7c0-6.5-0.3-10.3-0.5-14.9c0.2-2.1,0.2-11.8,0.4-6.7
				c-0.1-5.9-1-4.7-0.5-14.7l0.2,2.6c0-9.6-0.4-23.3-0.2-27.8c0.6,3.5,0.6-12,1.1-13.7c-0.1,0.5-0.2-3.1-0.2-3.7
				c0.1-0.8,0.1-2.1,0-3.5c-0.1,3.8-0.6-2.6-0.4,4.5c-0.4-3.6-0.7-8.3-0.7-16.3l0.2,0.1l-0.1,6.3c0.2-0.6,0.2,2.6,0.2,3.9
				c0.1-11.7,0.5,1.5,0.5-10.4c-0.2-1.2-0.1-0.4-0.1-3.5c0,1.5,0.2,1.7,0.2-0.6l-0.2-2.3c0.4-4.2,0.3,6.9,0.5,3.4
				c0.2,4.6,0.3,12.6,0.6,11.1c0.1-7.5-0.6-6.8-0.4-14.7l0.1-0.8c-0.1-2.8-0.3-3.2-0.4-4.7c0.1-0.1,0.1-0.8,0.1-2.6
				c-0.3-4.7-0.4-7.8-0.7-12.1c0.2,11.5-0.2,9.8,0,21.7c-0.1-1.9-0.2-10.2-0.5-10.7l0.2,0.1c-0.1-3.9-0.2-7.7-0.2-12.6l0.1,3
				c-0.2-6.4,0.4-10.7,0-15.8c0,1.8,0,3.2,0,4.4c-0.1-3.3-0.1-7.5,0-11.1l-0.4-7.4c0.1,0.1,0.1-4.6,0.3-2.4c0.2-5.4-0.2-7.9-0.2-11
				c0.2-5.5,0.1,4.8,0.4,5.3c0.1-7.6,0-15.6-0.2-19.8c0,1.5-0.1,2.3-0.1,2.2c0.1-0.2,0.1-3.3,0.1-5l-0.2-1.2c0.1-2.8,0.2-2.4,0.3,0
				c0-2.7-0.3-5.9,0-8.7c0.2,4.6,0,10.5,0.1,12.9c-0.2-9.6,0.5-9.7,0.3-21.9c0.1-0.2,0.2,1.9,0.2-0.4c-0.1-5.5-0.3-1.4-0.5-3.1
				c0.1,4.2,0,6.2-0.2,8.6l-0.1-1.1c0.1-0.2,0.1-2.8,0.1-3.6l-0.3-0.7c0.3,0.3,0.5-3.9,0.4-7.2c-0.2,3.4-0.2,2.4-0.5,3.4
				c-0.3-4.7,0.3-5.3,0-10.5c0.1,0.4,0.2,5,0.2,1c0-3.3-0.2-2.8-0.3-5c0.2,2.5,0.4,1.8,0.7,4.5c0,5.8,0,2.3,0.1,8l0.2-4.8
				c0,4.9,0.3,3.6,0.4,4c0.2-8.4-0.4-6.3-0.3-11.7c-0.2-2.6,0,5.1-0.2,1c0-5-0.2-1.2-0.3-6.8l0.1,0.9c0.1-1.7,0-3.4-0.1-5.4
				c-0.1-2.2-0.8,2.5-0.8-6.6c0.1,0.4,0.1,0.6,0.1,0.6l2,8.8c0-9.2,0.1-19.8,0.2-30.4c0.4-2.5,0.3,7.6,0.5,6.9l-0.1,4.9
				c-0.2-0.3,0-10.2-0.3-5.8c0.1,8.6-0.1,12.5,0.3,20.6c0.4-2.5-0.1-10.7,0.2-16c0,2.2,0,4.1,0.1,5.9c0.1-5,0.1-10.3,0.2-15.9
				l-0.1-1.3c0,3.8-0.1,6.4-0.1,6.8c0-5-0.2-9.3-0.5-9.6v0.9l-0.1-1.8C531.4,373.1,531.4,371.9,531.4,370.8z M531.5,43.6
				c0,0.3,0.1,0.5,0.1,0.7C531.5,44.1,531.5,44.3,531.5,43.6z M532.3,469.6c0.1-6.7,0.1-13.5,0.2-20c-0.6,11.7-1,19.9-1,0.4v-1.3
				c-0.1,2.5-0.1,6.9,0,11.1c0.1,1.7,0.3,5.2,0.5,8.3c0.1,1.5,0.2,3,0.3,4s0.1,1.7,0.2,1.7c0.2-1.2,0-2.9,0-5.1L532.3,469.6z
				 M531.4,474.4c-0.1,3.8,0.1,2.9,0.2,3.5c0-1.3,0-2.7,0-4C531.5,474.4,531.5,474.7,531.4,474.4z M531.7,477.7c0-0.4,0-0.8,0-1
				V477.7z M531.8,403.5c0,0.2,0,0.2,0,0.4c0-0.9,0-1.8,0-2.7C531.8,401.5,531.8,402.2,531.8,403.5z M531.6,411.2l0.2,0.9
				c0-0.8,0-1.7,0-2.6C531.7,409.9,531.6,410.2,531.6,411.2z M530.9,436.1c0.2,1.6,0.3,6.8,0.5,7.1c0.1,0.3,0.1-0.8,0.1-2
				c0-1.4,0-2.9,0-4.4c0-0.1-0.1-0.4-0.1-0.9c0,1.5-0.1,2.6-0.3,2c0.4-4-0.3-3.6-0.2-7.9C530.8,428.7,530.8,434.8,530.9,436.1z
				 M531.6,766.7c0,0.1-0.1,0.5-0.2,1.1l-0.1-3c0.1-5.4,0.5-9.7,0.1-14.6c0.1-2.3,0.3-3.5,0.4-4.7c0,1.1,0,2.2,0,3
				C532.3,762.2,531.3,755.7,531.6,766.7z M532.1,704.6c0,0.6,0.1,0.8,0.1,0.8c-0.5-12.1-0.7-22-0.6-28.5c-0.2,1.3-0.4,7.1-0.4,9.9
				l-0.2-2.5l0.2-1.5l-0.2-4.3c-0.2,1.2-0.1,4.6-0.2,6.9c0,0.2,0.3,7.6,0.5,9.6l0.2-5.9c-0.1,1.6,0,9.4,0,12.5c0.1,0.1,0.3-5.3,0-6
				c0.2-0.6,0.2,5.5,0.4,1.6c0.2,4.6,0,12-0.1,15.4l-0.3,0.6c-0.1,3.7,0.4,2.5,0.2,7c-0.1-5.5-0.3,0.9-0.3-3.4
				c-0.1,1.4-0.3,0-0.3,4.4c0.4,3.6-0.2,4.6,0.1,8c-0.1,2.3-0.2-2.5-0.3,2c0.2,5.2,0.3,4.9,0.6,5.2c0.1-4.8-0.4-5.4-0.3-9.4l0.5,7.9
				c0.1-1.4,0.1-2.5,0.1-3.4c0,1.6,0.1,2.9,0.2,4.1c0.1,0.7,0.1,1.3,0.1,1.8c0-4.5,0-8.4,0.1-9.1l0.1,0.6c0.1-1.6,0-4.1-0.1-5.3
				c0-4-0.2-8,0-8.8l0.1,1.5C532.1,711.3,532.1,710.7,532.1,704.6z M532.4,544c-0.5,3-0.9,6.2-0.9,20.1V563
				c-0.3,7,0.4,13.6,0.1,22.1c-0.2-4.1-0.2-3.9-0.6-8.5l0.1,4.4c-0.3-1.2-0.1,3.2-0.1,6.4l-0.3-2.9c0.1-1.9,0.1-7,0.1-6.8
				c0,1.1,0.4-6.7,0.3-10.9c-0.2,0.4-0.1,9.4-0.5,5.4c0.1,3.5-0.1,3.9,0,7.6c-0.1-3.5-0.3-0.9-0.5-3.5l0.1,6
				c-0.1,0.2-0.2-8.8-0.4-3.8c0.1,2.4,0,8.8,0.2,9l-0.1,0.1c-0.1,4.5,0.3,2,0.2,7.5c0.1,0.1,0.2-1,0.2-3c-0.1-1.7-0.2-1.9-0.2-5.4
				c0.2-1.5,0,4.2,0.3,1.8c0.2-1.2-0.1-9.1,0.2-6.6l-0.1,4.5c0.2,0.1,0.2,3.4,0.4,3.3c0.1,2.8-0.2,5.3,0,8.2
				c0.2,1.2,0.4-0.9,0.3,3.8c-0.3,3.6-0.3,14.3-0.2,18.3l0.1,3.5c0.1-0.3,0-6.7,0.2-4.5l0.1,5.5l-0.1-0.4c0,1.8,0.1,3.7,0.1,5.3
				c-0.2-1.7-0.1-5.6-0.3-4.9c0,2.6-0.1,3-0.1,5.3c0-0.5,0-1-0.1-0.9c-0.1,5.2,0.3,5,0.4,6.3c0.3,5.2,0.3-5.3,0.5-4.6l0.1,15.3
				c-0.1-1.3-0.2-2.6-0.3-2.1c-0.1,3.7-0.2,0.1-0.2,5.3c0.3-0.4,0.2,6.6,0.4,10.3c-0.1,1.7-0.2,2.1-0.2-1.7
				c-0.2,0.4-0.1,5.5-0.2,7.3c0.1,1,0.1,2.8,0.1,4c0.1-1.5,0.2-0.9,0.3,2.4v0.2c0.1-5.4,0.3-13.8,0.1-17.2l0.1,1
				c0.2-6.2-0.4-13.6,0-16.5c0.2,0.3,0-1.3,0.3-1.1l-0.2-4.6l0.1,1l-0.1-7.8v0.2c-0.2-3.7-0.4-6.6-0.5-8.9c-0.1,0-0.1,0.2-0.2-1
				c-0.1-1.2-0.1-2.2,0-3l0,0l0,0c0-1.9,0.2-3.2,0.2-5.6v7.3c0.2,0.6,0.4,0,0.5-3.6c0,1.5,0.1,2.1,0.2,0.3c0-0.2-0.1-4.8-0.2-3
				c-0.1-6.9,0.4-18.1,0.1-28.6c0.2,7.5,0.2-6,0.3,2.3c0.3-5.8-0.3-5-0.2-11c0.1-0.5,0,3.2,0.2,4.6c0.1-9.9-0.4-16.7-0.4-26.3
				l0.2-0.4C532.5,548.1,532.4,546.1,532.4,544z M532.1,525c0-1.8,0-3.7-0.1-5.6c0,0.2,0,0.4,0,0.6l-0.2-5.5
				c-0.1,3.4-0.3,5.6-0.4,0.9c0.1,0.4,0.2-1,0.3,0.7c0.1-3.2,0.3-10.2-0.1-8.4c0.3,6.1-0.4,1.4-0.2,6.2c-0.2-2.6-0.1-5.1-0.2-7.6
				c0.2,2.5,0.4-0.6,0.5-4.4c-0.1-1.7,0-6.2-0.1-8.9c-0.2,1-0.3-1.4-0.4,3.1c-0.1-1.6-0.1-4.2,0-7.1c0,1.1,0.1,3.1,0.1,3
				c0.2-1.8,0.2-4,0.3-5.2c0-1,0-1.9,0-2.8c0,0.3,0,0.5-0.1,0.7l-0.2-3.2c0.1,4.2-0.1,1.9-0.2,1.9c0.2,0.1,0-2.7,0-4.2l-0.2,3.1
				c-0.1-1.5,0.2-5.3-0.1-4.6c-0.1,6.6-0.1,9.2,0,15.2l0.2-2.4c0.1,6.8-0.3,4.2-0.3,11.8c0.2,3.2,0,11.4,0.4,11.6
				c-0.1-1-0.3,4.7-0.2,7.3c0.3,2.9,0.4,11.6,0.5,8.9c0-2.4-0.2-5.5,0-7.4l0.1,4.6l0.2-3C531.7,525.9,531.9,525.7,532.1,525z
				 M534.1,422.9c0,0,0-0.1,0-0.2C534.1,422.8,534.1,422.8,534.1,422.9L534.1,422.9z"/>
			<path class="st3" d="M532.3,834.3c0.1,1.3,0.1,4.6,0.2,3.9C532.4,838.3,532.5,832.4,532.3,834.3z"/>
			<path class="st3" d="M532.1,838.2c0,0.2,0.1,0.1,0.1,1.5v-4L532.1,838.2z"/>
			<path class="st3" d="M530.8,842.2c0.1,2.1,0.2,3.4,0.2,6.6c-0.5,1.2-0.1-5.3-0.6-6.8c0,5.9,0.4,7.8,0.4,12.7
				C531.1,852.3,531.2,842.4,530.8,842.2z"/>
			<polygon class="st3" points="530.3,839.6 530.4,842.9 530.4,842.6 530.3,839.3 			"/>
			<path class="st3" d="M534.3,767.9c0.1-0.3,0-2.4,0-3.5C534.2,765.4,534.2,766.6,534.3,767.9z"/>
			<path class="st3" d="M534.5,118l-0.1-25.2C534.4,100,534.4,106.7,534.5,118z"/>
			<path class="st3" d="M533.3,684.2c0.1,6.8,0.4,9.8,0.4,16.7c0.3-9.1-0.5-12-0.2-19.6L533.3,684.2z"/>
			<path class="st3" d="M534.5,686.6c-0.3,1.1-0.3-5.2-0.5-4.2c0.1,4.6,0.3,2.1,0.2,6.3L534.5,686.6z"/>
			<polygon class="st3" points="530,717.3 529.8,715.2 529.9,716.9 			"/>
			<polygon class="st3" points="534.3,655.7 534.3,656.5 534.4,653.1 			"/>
			<path class="st3" d="M534.4,657.2l-0.1-0.7L534.4,657.2z"/>
			<polygon class="st3" points="529.4,714.7 529.3,717.7 529.5,719.2 			"/>
			<path class="st3" d="M530.9,687.7l0.1,2.7C530.9,689.9,531.1,686.2,530.9,687.7z"/>
			<polygon class="st3" points="534.4,635 534.3,631.6 534.2,632 534.4,635.3 			"/>
			<path class="st3" d="M530.1,666.3c-0.2,1.9-0.1-5.4-0.2-1.6C529.9,668.2,530,666.8,530.1,666.3z"/>
			<path class="st3" d="M531.5,626.2c0-0.4,0-0.9,0-1.4C531.5,625.4,531.5,625.8,531.5,626.2z"/>
			<path class="st3" d="M531.5,626.2c0,1.4-0.1,2.9,0,3.9C531.6,628.3,531.6,627.6,531.5,626.2z"/>
			<path class="st3" d="M531.5,609.6v1.3c-0.1-1.3-0.1-0.7,0,0.5c0,1.4,0.1,1.3,0.1,1.5c0,0.3,0.1,0.6,0.1,0.9
				c0-0.4-0.1-0.8-0.1-1.1C531.6,610.5,531.6,609.2,531.5,609.6z"/>
			<path class="st3" d="M535,548c-0.1,4.8-0.1,6.1-0.3,5.8c-0.1,4.6,0.2,3.9,0.3,6.7C535,555.3,535.1,554.3,535,548z"/>
			<path class="st3" d="M535,560.5c0,0.6,0,1.1,0,1.8C535.1,561.6,535.1,561,535,560.5z"/>
			<polygon class="st3" points="529.7,629 529.5,626 529.5,627.1 			"/>
			<path class="st3" d="M535.1,540.8c0,0.9,0,2.3-0.1,3C535.2,544.1,535.1,539.9,535.1,540.8z"/>
			<path class="st3" d="M531.9,559.5c-0.1,0.5,0,3.6-0.1,4.9C531.9,562.6,532.2,561.1,531.9,559.5z"/>
			<path class="st3" d="M534.4,526.9c0,0.9-0.1,2.3-0.3,1.7C534.3,529.9,534.6,531.7,534.4,526.9z"/>
			<polygon class="st3" points="532,550.7 531.9,551.4 532,554.7 			"/>
			<path class="st3" d="M529.5,562.5c0.2,3.7,0.5-5.9,0.6,0.5c0.2-8.3-0.3,0.6-0.2-5.5C529.9,561.1,529.6,562.9,529.5,562.5z"/>
			<path class="st3" d="M529.9,557.5c0-0.5,0-1.1,0-1.7C529.9,556.5,529.9,557.1,529.9,557.5z"/>
			<path class="st3" d="M531.2,505c0,0.5,0,0.9,0.1,1.3C531.2,505.9,531.2,505.5,531.2,505z"/>
			<path class="st3" d="M529.8,538l0.3,5.6c-0.2-3.7-0.2-13.1-0.5-12.5c-0.1,3,0,6.7,0.1,8.2L529.8,538z"/>
			<path class="st3" d="M535,473.8l0.1,2.4v-3C535.2,474.1,534.9,472.5,535,473.8z"/>
			<path class="st3" d="M535.2,472.7v0.6C535.2,473.1,535.2,472.9,535.2,472.7z"/>
			<path class="st3" d="M531.3,515.6c0,1.8,0,3.3,0,4.9C531.4,519.8,531.5,515.3,531.3,515.6z"/>
			<polygon class="st3" points="534.6,456.8 534.7,460.8 534.7,456.5 			"/>
			<polygon class="st3" points="535.1,438.2 535.2,437.5 535.1,434.2 535,434.9 			"/>
			<path class="st3" d="M529.4,462.6c0,2.7,0.2,4.8,0.3,4.1v-5.2c-0.2,1.3,0,1.5-0.1,4.5L529.4,462.6z"/>
			<path class="st3" d="M534.7,300.1c0.2,1.2,0.1,6.9-0.1,7.2c-0.1-0.8-0.1-3.9-0.2-1.9l0.4,4.5c-0.2,6-0.5-4.6-0.6-7.6
				c0,6.1,0.2,8,0.2,14.5c0-1.9,0.1-3.1,0.2-4.2c0.3-0.2,0.1,5.9,0.2,10.2c0.1-2.8,0.2-1.2,0.3,0.9c0,0.4,0,0.6,0,0.8
				c0,0.2,0,0.5,0,0.7v-0.5c0,0,0.1-0.1,0.1-0.5c-0.1-3.7,0.1-6.4,0.1-8.8c-0.4,2.3-0.1-8-0.2-11V301v-1.3c0-0.3,0.1,0.1,0.2,2.1
				c-0.1-1.6-0.1-7-0.2-6.5v-12.4c0-0.4,0-0.8,0.1-1.1c0-0.4,0-0.5-0.1-0.4v-53.9c0,2.7-0.1,5-0.2,7.7c-0.3-4.1-0.1,4.5-0.3,3.3
				c-0.1-1.9-0.1-4.6,0-6.2c-0.1-0.6-0.3,1.7-0.4,1.4c-0.2,6.8,0.5,7.8,0.4,14.5c-0.2-0.3-0.3-2.3-0.3,2v-1.1c0.2,7-0.4,5.4,0.1,9.8
				l-0.2-0.1c0.2,3.2,0.2,9.3,0.2,12.8v-0.2c0.3,9.7,0.1,5.5,0.2,16.4l-0.3-5c-0.1,3.8,0.2,4.6,0.2,7.3c0-0.2-0.2,0.4-0.3-2.1
				l0.4,13.2C534.6,304.4,534.6,300.6,534.7,300.1z"/>
			<path class="st3" d="M534.4,316.9c0,0.7,0,1.5,0,2.4C534.3,318.4,534.4,317.6,534.4,316.9z"/>
			<path class="st3" d="M535.1,223.8v3.8C535.1,226.4,535.1,225.1,535.1,223.8z"/>
			<path class="st3" d="M534.9,335.9c0.1-2.3,0.2,1.7,0.3,2.1v-8.2c-0.1,0-0.2-0.8-0.3-0.6V335.9z"/>
			<path class="st3" d="M535.3,327.4c-0.1-0.3-0.1-1.1-0.2-2.1v4.5C535.2,329.7,535.3,329.2,535.3,327.4z"/>
			<polygon class="st3" points="530.5,328.2 530.5,326.8 530.4,324.6 			"/>
			<path class="st3" d="M530.9,305.5c-0.1,1.7,0,5,0,6.1C530.9,307.8,530.9,309.5,530.9,305.5z"/>
			<polygon class="st3" points="529.4,310.2 529.3,306.5 529.3,306.8 			"/>
			<path class="st3" d="M534.2,195.8c0-0.6,0-1.2,0-1.8C534.1,194.8,534.1,195.3,534.2,195.8z"/>
			<path class="st3" d="M534.4,227.2c0.3-8.7,0.2,5.7,0.6,3l-0.1-4.8l0.1,0.4V220c-0.2,1.2-0.2,2.1-0.3,1.8c0.1-7.7,0.2-2.4,0.4-8.1
				V205v0.7c0-0.7,0-1.1-0.1-1.3l-0.1-29.2c-0.1-5.3-0.3,2.9-0.5-1c0,6.2-0.2,15.3,0.2,15.8c0-0.2-0.1-0.6-0.2,0.6l0.3,3.6l0.1-3.4
				c0.3,3.6,0.2,15.1,0,17.2c-0.1-6.6-0.4-3.3-0.2-12.4c-0.1,0.4-0.2,2.1-0.3,0C534.2,206.5,534.1,216.1,534.4,227.2z"/>
			<path class="st3" d="M534.2,119.6L534.2,119.6C534.2,119.5,534.2,119.4,534.2,119.6z"/>
			<path class="st3" d="M534.2,123.2l0.3,5.2v-8.2l-0.2-0.6c0.1,0.7,0.2,3.6,0.1,4.7L534.2,123.2z"/>
			<path class="st3" d="M534.7,134.5c-0.1-4.2-0.4-4-0.5-1.7c-0.1-3.9,0.3-2,0-4.7c-0.2,0.1-0.1,4.9,0,5.9L534.7,134.5z"/>
			<polygon class="st3" points="534.6,165.6 534.4,164.4 534.4,167.3 			"/>
			<path class="st3" d="M534.4,164.4v-2.9c-0.1,0.2-0.2,0.4-0.2,0.9L534.4,164.4z"/>
			<path class="st3" d="M534.5,153.9c0-1.2,0-2.6,0-4.2V153.9z"/>
			<path class="st3" d="M534.5,157.2L534.5,157.2l0.1-3.3C534.5,155.1,534.5,156.1,534.5,157.2z"/>
			<path class="st3" d="M534.5,161.5c0.2-0.5,0.4-1,0.3-5.2l-0.3,0.8V161.5z"/>
			<polygon class="st3" points="529.7,283.5 529.6,280.2 529.5,280.5 529.6,283.8 			"/>
			<path class="st3" d="M529.8,264.4c0-0.8-0.1-1.4-0.1-2C529.8,263.3,529.8,263.9,529.8,264.4z"/>
			<path class="st3" d="M528.6,250.2c0.2-3.9,0.2,5.4,0.3-1.8c0.2-0.6,0.4,2.7,0.3,6.1c-0.2-0.3-0.1-3.3-0.3-1.2
				c0.2,2.3,0.1,3.1,0.3,2.3c0.2,3.8,0.3,4.2,0.5,6.8c-0.1-4.6,0.1-14.2-0.2-20c-0.3-3.2-0.7-1.3-1.1-1.3
				C528.3,241.6,528.3,249.9,528.6,250.2z"/>
			<path class="st3" d="M528.2,256.3c0,1.8,0,2.4,0,3.5C528.3,259.5,528.2,257.8,528.2,256.3z"/>
			<path class="st3" d="M531.4,214.9c-0.1-0.3-0.1-3.6-0.2-2.9l0.1,4.9C531.2,215.8,531.3,215.4,531.4,214.9z"/>
			<path class="st3" d="M531.2,219.1v-2.2C531.2,217.5,531.2,218.2,531.2,219.1z"/>
			<path class="st3" d="M531.4,214.7c0,0.1,0,0.1,0,0.2C531.4,215,531.4,215,531.4,214.7z"/>
			<path class="st3" d="M534.7,141.9c0.1,0.1,0-2.1,0-3.2C534.7,139.6,534.6,140.8,534.7,141.9z"/>
			<path class="st3" d="M534.2,59l0.1-1.9C534.2,57.7,534.2,58.1,534.2,59z"/>
			<path class="st3" d="M531,29c0-0.1,0-0.2-0.1-0.4C531,28.8,531,28.9,531,29z"/>
			<path class="st3" d="M531,28.6c-0.1-1.3,0.1-5.4-0.1-6.9v0.2l-0.1-2.7C530.8,21.7,530.8,27.1,531,28.6z"/>
		</g>
		<path d="M1038.2,674.7H711.1c-1.5,0-12.6,1.6-17.9-11.4c-9.9-24.2-15.8-70.7-15.8-73.7l26.1-323.3c0-4.7,3.4-8.5,7.6-8.5
			l329.9-130c4.2,0,4.9,133.8,4.9,138.5v399.9C1045.9,670.9,1042.4,674.7,1038.2,674.7z"/>
		<path class="st4" d="M1007.2,573.9l-321.7,23.9c-4.5,0-8.1-3.6-8.1-8.1V127.8c0-4.5,3.6-8.1,8.1-8.1h347.4c4.5,0,8.1,3.6,8.1,8.1
			l-16.1,437.6C1024.9,569.9,1011.7,573.9,1007.2,573.9z"/>
		<path class="st0" d="M1041,127.8v461.9c0,4.5-3.6,8.1-8.1,8.1H685.5"/>
		<path class="st5" d="M1023.5,588.1H696.4c-4.2,0-7.6-3.4-7.6-7.6V140.9c0-4.2,3.4-7.6,7.6-7.6h327.2c4.2,0,7.6,3.4,7.6,7.6v439.6
			C1031.2,584.7,1027.7,588.1,1023.5,588.1z"/>
		<g>
			<g>
				<g>
					<path class="st0" d="M795.2,299.7h-74.8c-4.2,0-7.7-3.5-7.7-7.7v-43c0-4.2,3.5-7.7,7.7-7.7h74.8c4.2,0,7.7,3.5,7.7,7.7v43
						C802.9,296.3,799.4,299.7,795.2,299.7z"/>
					<path class="st6" d="M795.2,241.3c4.2,0,7.7,3.5,7.7,7.7v43c0,4.2-3.5,7.7-7.7,7.7h-74.8"/>
					<path class="st7" d="M790.3,295.9h-65c-3.7,0-6.7-3-6.7-6.7v-37.4c0-3.7,3-6.7,6.7-6.7h65c3.7,0,6.7,3,6.7,6.7v37.4
						C797,292.9,794,295.9,790.3,295.9z"/>
				</g>
			</g>
			<g>
				<g>
					<path class="st0" d="M995.2,227H720.4c-4.2,0-7.7-3.5-7.7-7.7v-53c0-4.2,3.5-7.7,7.7-7.7h274.8c4.2,0,7.7,3.5,7.7,7.7v53
						C1002.9,223.6,999.4,227,995.2,227z"/>
					<path class="st4" d="M995.2,158.6c4.2,0,7.7,3.5,7.7,7.7v53c0,4.2-3.5,7.7-7.7,7.7H720.4"/>
					<path d="M990.3,223.2h-265c-3.7,0-6.7-3-6.7-6.7v-47.4c0-3.7,3-6.7,6.7-6.7h265c3.7,0,6.7,3,6.7,6.7v47.4
						C997,220.2,994,223.2,990.3,223.2z"/>
				</g>
			</g>
			<g>
				<g>
					<path class="st0" d="M897.3,299.7h-74.8c-4.2,0-7.7-3.5-7.7-7.7v-43c0-4.2,3.5-7.7,7.7-7.7h74.8c4.2,0,7.7,3.5,7.7,7.7v43
						C905,296.3,901.6,299.7,897.3,299.7z"/>
					<path class="st6" d="M897.3,241.3c4.2,0,7.7,3.5,7.7,7.7v43c0,4.2-3.5,7.7-7.7,7.7h-74.8"/>
					<path class="st8" d="M892.5,295.9h-65c-3.7,0-6.7-3-6.7-6.7v-37.4c0-3.7,3-6.7,6.7-6.7h65c3.7,0,6.7,3,6.7,6.7v37.4
						C899.2,292.9,896.2,295.9,892.5,295.9z"/>
				</g>
			</g>
			<g>
				<g>
					<path class="st0" d="M999.5,299.7h-74.8c-4.2,0-7.7-3.5-7.7-7.7v-43c0-4.2,3.5-7.7,7.7-7.7h74.8c4.2,0,7.7,3.5,7.7,7.7v43
						C1007.2,296.3,1003.7,299.7,999.5,299.7z"/>
					<path class="st6" d="M999.5,241.3c4.2,0,7.7,3.5,7.7,7.7v43c0,4.2-3.5,7.7-7.7,7.7h-74.8"/>
					<path class="st4" d="M994.6,295.9h-65c-3.7,0-6.7-3-6.7-6.7v-37.4c0-3.7,3-6.7,6.7-6.7h65c3.7,0,6.7,3,6.7,6.7v37.4
						C1001.3,292.9,998.3,295.9,994.6,295.9z"/>
				</g>
			</g>
			<g>
				<g>
					<path class="st0" d="M795.2,371.9h-74.8c-4.2,0-7.7-3.5-7.7-7.7v-43c0-4.2,3.5-7.7,7.7-7.7h74.8c4.2,0,7.7,3.5,7.7,7.7v43
						C802.9,368.4,799.4,371.9,795.2,371.9z"/>
					<path class="st6" d="M795.2,313.5c4.2,0,7.7,3.5,7.7,7.7v43c0,4.2-3.5,7.7-7.7,7.7h-74.8"/>
					<path class="st4" d="M790.3,368.1h-65c-3.7,0-6.7-3-6.7-6.7V324c0-3.7,3-6.7,6.7-6.7h65c3.7,0,6.7,3,6.7,6.7v37.4
						C797,365,794,368.1,790.3,368.1z"/>
				</g>
			</g>
			<g>
				<g>
					<path class="st0" d="M897.3,371.9h-74.8c-4.2,0-7.7-3.5-7.7-7.7v-43c0-4.2,3.5-7.7,7.7-7.7h74.8c4.2,0,7.7,3.5,7.7,7.7v43
						C905,368.4,901.6,371.9,897.3,371.9z"/>
					<path class="st6" d="M897.3,313.5c4.2,0,7.7,3.5,7.7,7.7v43c0,4.2-3.5,7.7-7.7,7.7h-74.8"/>
					<path class="st7" d="M892.5,368.1h-65c-3.7,0-6.7-3-6.7-6.7V324c0-3.7,3-6.7,6.7-6.7h65c3.7,0,6.7,3,6.7,6.7v37.4
						C899.2,365,896.2,368.1,892.5,368.1z"/>
				</g>
			</g>
			<g>
				<g>
					<path class="st0" d="M999.5,371.9h-74.8c-4.2,0-7.7-3.5-7.7-7.7v-43c0-4.2,3.5-7.7,7.7-7.7h74.8c4.2,0,7.7,3.5,7.7,7.7v43
						C1007.2,368.4,1003.7,371.9,999.5,371.9z"/>
					<path class="st6" d="M999.5,313.5c4.2,0,7.7,3.5,7.7,7.7v43c0,4.2-3.5,7.7-7.7,7.7h-74.8"/>
					<path class="st4" d="M994.6,368.1h-65c-3.7,0-6.7-3-6.7-6.7V324c0-3.7,3-6.7,6.7-6.7h65c3.7,0,6.7,3,6.7,6.7v37.4
						C1001.3,365,998.3,368.1,994.6,368.1z"/>
				</g>
			</g>
			<g>
				<g>
					<path class="st0" d="M795.2,444h-74.8c-4.2,0-7.7-3.5-7.7-7.7v-43c0-4.2,3.5-7.7,7.7-7.7h74.8c4.2,0,7.7,3.5,7.7,7.7v43
						C802.9,440.5,799.4,444,795.2,444z"/>
					<path class="st6" d="M795.2,385.6c4.2,0,7.7,3.5,7.7,7.7v43c0,4.2-3.5,7.7-7.7,7.7h-74.8"/>
					<path class="st4" d="M790.3,440.2h-65c-3.7,0-6.7-3-6.7-6.7v-37.4c0-3.7,3-6.7,6.7-6.7h65c3.7,0,6.7,3,6.7,6.7v37.4
						C797,437.2,794,440.2,790.3,440.2z"/>
				</g>
			</g>
			<g>
				<g>
					<path class="st0" d="M897.3,444h-74.8c-4.2,0-7.7-3.5-7.7-7.7v-43c0-4.2,3.5-7.7,7.7-7.7h74.8c4.2,0,7.7,3.5,7.7,7.7v43
						C905,440.5,901.6,444,897.3,444z"/>
					<path class="st6" d="M897.3,385.6c4.2,0,7.7,3.5,7.7,7.7v43c0,4.2-3.5,7.7-7.7,7.7h-74.8"/>
					<path class="st8" d="M892.5,440.2h-65c-3.7,0-6.7-3-6.7-6.7v-37.4c0-3.7,3-6.7,6.7-6.7h65c3.7,0,6.7,3,6.7,6.7v37.4
						C899.2,437.2,896.2,440.2,892.5,440.2z"/>
				</g>
			</g>
			<g>
				<g>
					<path class="st0" d="M999.5,444h-74.8c-4.2,0-7.7-3.5-7.7-7.7v-43c0-4.2,3.5-7.7,7.7-7.7h74.8c4.2,0,7.7,3.5,7.7,7.7v43
						C1007.2,440.5,1003.7,444,999.5,444z"/>
					<path class="st6" d="M999.5,385.6c4.2,0,7.7,3.5,7.7,7.7v43c0,4.2-3.5,7.7-7.7,7.7h-74.8"/>
					<path class="st7" d="M994.6,440.2h-65c-3.7,0-6.7-3-6.7-6.7v-37.4c0-3.7,3-6.7,6.7-6.7h65c3.7,0,6.7,3,6.7,6.7v37.4
						C1001.3,437.2,998.3,440.2,994.6,440.2z"/>
				</g>
			</g>
			<g>
				<g>
					<path class="st0" d="M795.2,516.1h-74.8c-4.2,0-7.7-3.5-7.7-7.7v-43c0-4.2,3.5-7.7,7.7-7.7h74.8c4.2,0,7.7,3.5,7.7,7.7v43
						C802.9,512.6,799.4,516.1,795.2,516.1z"/>
					<path class="st6" d="M795.2,457.7c4.2,0,7.7,3.5,7.7,7.7v43c0,4.2-3.5,7.7-7.7,7.7h-74.8"/>
					<path class="st4" d="M790.3,512.3h-65c-3.7,0-6.7-3-6.7-6.7v-37.4c0-3.7,3-6.7,6.7-6.7h65c3.7,0,6.7,3,6.7,6.7v37.4
						C797,509.3,794,512.3,790.3,512.3z"/>
				</g>
			</g>
			<g>
				<g>
					<path class="st0" d="M897.3,516.1h-74.8c-4.2,0-7.7-3.5-7.7-7.7v-43c0-4.2,3.5-7.7,7.7-7.7h74.8c4.2,0,7.7,3.5,7.7,7.7v43
						C905,512.6,901.6,516.1,897.3,516.1z"/>
					<path class="st6" d="M897.3,457.7c4.2,0,7.7,3.5,7.7,7.7v43c0,4.2-3.5,7.7-7.7,7.7h-74.8"/>
					<path class="st4" d="M892.5,512.3h-65c-3.7,0-6.7-3-6.7-6.7v-37.4c0-3.7,3-6.7,6.7-6.7h65c3.7,0,6.7,3,6.7,6.7v37.4
						C899.2,509.3,896.2,512.3,892.5,512.3z"/>
				</g>
			</g>
			<g>
				<g>
					<path class="st6" d="M999.5,516.1h-74.8c-4.2,0-7.7-3.5-7.7-7.7v-43c0-4.2,3.5-7.7,7.7-7.7h74.8c4.2,0,7.7,3.5,7.7,7.7v43
						C1007.2,512.6,1003.7,516.1,999.5,516.1z"/>
				</g>
			</g>
			<g id="numbers_00000120554023364711928580000010035541274295052724_">
				<g>
					<path class="st6" d="M956,277.3c0.7,0.4,2.5,1.1,4.2,1.1c2.2,0,3.3-1,3.3-2.4c0-1.8-1.8-2.6-3.6-2.6h-1.7v-3h1.6
						c1.4,0,3.2-0.6,3.2-2.1c0-1.1-0.9-1.9-2.6-1.9c-1.5,0-3,0.6-3.8,1.1l-0.9-3c1.1-0.7,3.2-1.4,5.6-1.4c3.9,0,6,2,6,4.5
						c0,1.9-1.1,3.4-3.3,4.2v0.1c2.2,0.4,3.9,2,3.9,4.4c0,3.2-2.8,5.5-7.4,5.5c-2.3,0-4.3-0.6-5.3-1.3L956,277.3z"/>
				</g>
				<g>
					<path class="st6" d="M854.6,279.9v-2.6l2.3-2.1c3.9-3.5,5.9-5.6,5.9-7.7c0-1.5-0.9-2.6-2.9-2.6c-1.6,0-2.9,0.8-3.9,1.5l-1.2-3
						c1.3-1,3.5-1.9,5.9-1.9c4.1,0,6.3,2.4,6.3,5.6c0,3-2.2,5.5-4.8,7.8l-1.7,1.4v0.1h6.8v3.5L854.6,279.9L854.6,279.9z"/>
				</g>
				<g>
					<path class="st6" d="M757.8,265.6L757.8,265.6l-3.5,1.6l-0.7-3.2l4.8-2.2h3.5v18h-4.1V265.6z"/>
				</g>
				<g>
					<path class="st6" d="M966.8,339.6c-0.5,0-1,0-1.6,0c-3.7,0.3-5.4,2.2-5.9,4.3h0.1c0.9-0.9,2.2-1.4,3.8-1.4c3,0,5.6,2.1,5.6,5.9
						c0,3.6-2.7,6.5-6.6,6.5c-4.8,0-7.2-3.6-7.2-7.9c0-3.4,1.2-6.2,3.2-8c1.8-1.6,4.1-2.5,6.9-2.7c0.8-0.1,1.3,0,1.7,0V339.6z
						 M964.5,348.6c0-1.7-0.9-3.1-2.7-3.1c-1.1,0-2.1,0.7-2.5,1.6c-0.1,0.2-0.2,0.6-0.2,1.1c0.1,1.9,1,3.6,2.9,3.6
						C963.5,351.8,964.5,350.4,964.5,348.6z"/>
				</g>
				<g>
					<path class="st6" d="M866.7,338.5h-7l-0.4,2.8c0.4,0,0.7-0.1,1.2-0.1c1.7,0,3.5,0.4,4.8,1.3c1.4,0.9,2.2,2.4,2.2,4.5
						c0,3.4-2.9,6.3-7.7,6.3c-2.2,0-4-0.5-5-1l0.8-3.2c0.8,0.4,2.4,0.9,4.1,0.9c1.8,0,3.6-0.8,3.6-2.8c0-1.8-1.5-3-5.1-3
						c-1,0-1.7,0.1-2.4,0.2l1.2-9.5h9.9v3.6L866.7,338.5L866.7,338.5z"/>
				</g>
				<g>
					<path class="st6" d="M759.9,353v-4.3h-8V346l6.8-11h5.2v10.6h2.2v3.2h-2.2v4.3h-4V353z M759.9,345.6v-4c0-1.1,0.1-2.2,0.1-3.4
						h-0.1c-0.6,1.2-1.1,2.2-1.7,3.3l-2.4,3.9v0.1h4.1L759.9,345.6L759.9,345.6z"/>
				</g>
				<g>
					<path class="st6" d="M956.6,423.1c0.5,0.1,1,0,1.8,0c1.3-0.1,2.6-0.4,3.5-1.1c1.2-0.8,2-2,2.3-3.3h-0.1c-0.8,0.8-2,1.3-3.6,1.3
						c-3,0-5.6-2.1-5.6-5.6s2.8-6.5,6.8-6.5c4.6,0,6.8,3.6,6.8,7.8c0,3.8-1.2,6.5-3.2,8.3c-1.7,1.6-4.1,2.4-6.9,2.5
						c-0.7,0.1-1.4,0-1.9,0v-3.4L956.6,423.1L956.6,423.1z M959.1,414.1c0,1.6,0.9,2.9,2.6,2.9c1.2,0,2-0.5,2.4-1.2
						c0.1-0.3,0.2-0.5,0.2-1.1c0-1.9-0.7-3.8-2.6-3.8C960.2,410.9,959.1,412.2,959.1,414.1z"/>
				</g>
				<g>
					<path class="st6" d="M854.4,419.9c0-2.2,1.2-3.7,3.2-4.5v-0.1c-1.8-0.9-2.6-2.4-2.6-4c0-3.1,2.7-5.1,6.3-5.1c4.2,0,6,2.4,6,4.6
						c0,1.6-0.8,3.1-2.6,4v0.1c1.8,0.7,3.3,2.2,3.3,4.5c0,3.3-2.7,5.5-6.9,5.5C856.5,424.9,854.4,422.3,854.4,419.9z M863.7,419.8
						c0-1.6-1.2-2.5-2.8-3c-1.4,0.4-2.2,1.4-2.2,2.7c0,1.3,1,2.5,2.6,2.5C862.7,422,863.7,421,863.7,419.8z M858.9,411.2
						c0,1.2,1.1,2,2.5,2.5c1-0.3,1.8-1.2,1.8-2.3c0-1.1-0.6-2.2-2.2-2.2C859.7,409.1,858.9,410.1,858.9,411.2z"/>
				</g>
				<g>
					<path class="st6" d="M868,488.2c0,5.6-2.3,9.4-6.8,9.4c-4.7,0-6.7-4.2-6.7-9.3c0-5.2,2.2-9.4,6.9-9.4
						C866,478.9,868,483.2,868,488.2z M858.6,488.3c0,4.1,1,6.1,2.6,6.1s2.5-2.1,2.5-6.2c0-4-0.9-6.1-2.6-6.1
						C859.6,482.1,858.6,484.1,858.6,488.3z"/>
				</g>
				<g>
					<path class="st6" d="M764.1,406.3h-0.2C764,406.3,764.1,406.3,764.1,406.3z"/>
					<path class="st6" d="M765.1,407.1l0.3,0.1c0.1,0,0.2,0,0.1-0.1c0.1,0,0.1,0,0.1,0V407l0,0C765.2,407,765.4,407.2,765.1,407.1z"
						/>
					<polygon class="st6" points="765.6,409 765.6,408.9 765.5,409 					"/>
					<path class="st6" d="M761.4,406.3h-0.2l0,0C761.3,406.3,761.4,406.3,761.4,406.3z"/>
					<path class="st6" d="M765.6,407.8h-0.4C765.2,407.9,765.5,407.9,765.6,407.8L765.6,407.8z"/>
					<path class="st6" d="M762,416.4c-0.2,0-0.4,0-0.4,0.1c0.1,0,0.3,0.3-0.2,0.3l0.1-0.3c-0.4,0.1-0.8,0.2-1.1,0.3
						c0,0.1,0,0.2,0.1,0.3h-0.3c-0.2,0.2,0.3,0,0.4,0.1c-0.5,0-0.4,0.3-1.1,0.3c0.2,0,0.1,0.1,0.1,0.1s0.1,0,0,0.1c0,0,0,0,0-0.1
						c-0.1,0-0.5,0-0.3,0c0-0.1,0.4-0.1,0.1-0.2c-0.1,0-0.2,0-0.3,0.1v-0.1l-0.6,0.1c0-0.1,0.4-0.1,0.1-0.2h-0.1
						c0-0.1-0.2-0.2-0.1-0.2h0.4c-0.1-0.2,0.6,0,0.6-0.2H759c0.7,0,0.4-0.3,0.6-0.3h-0.1c-0.4-0.4,0.6-0.3,0.6-0.6
						c-0.1,0,0.3-0.3-0.3-0.4c0.4-0.1,0.3-0.3,0.3-0.5l0.2,0.1c0.2,0,0-0.2-0.1-0.2l0,0l0,0l0,0c0.2,0,0.1-0.2,0.3-0.3
						c-0.1,0.1,0.3,0.2,0.1,0.3c0.2,0,0.6,0,0.5,0c0,0,0.4,0.1,0.5,0.2c-0.1,0-0.2,0.1-0.3,0.1l0,0l0,0c0.3-0.1-0.1-0.1,0-0.2
						c-0.2,0.1-0.5,0-0.8,0.2c0.2,0.1,0.2-0.1,0.4,0c-0.4,0-0.2,0.2-0.4,0.3c0.1,0,0.3,0,0.3-0.1l0.3,0.1c-0.1,0.1-0.1,0-0.3,0
						c-0.1,0-0.4,0.1-0.2,0.2c0.2,0,0.4,0,0.3-0.1l0.4,0.1c0.2-0.1,0.6-0.1,0.5-0.2h-0.2c0-0.1,0.3-0.1,0.3-0.1l-0.1,0.1
						c0,0.1,0.2,0.1,0.4,0.1v-0.1l0,0l0.7-1.5c-0.2-0.1-0.4-0.1-0.6-0.1c0,0.1,0.3,0.1,0.5,0.1c-0.3,0-0.2,0.1-0.5,0.2
						c0.1,0,0.2,0.1,0.2,0c-0.1,0.2-0.2,0.5-0.7,0.6v-0.2h-0.1c0.2-0.2,0.1-0.4,0.2-0.7c-0.2,0-0.3,0.1-0.7,0.1
						c-0.1-0.2,0.6-0.3,0.5-0.4c-0.1,0-0.3,0-0.3,0.1c-0.1-0.1-0.2-0.3,0.2-0.3c0.1,0,0,0.3,0.4,0.1c0,0.1-0.2,0.2,0,0.3
						c0.2,0,0.5,0,0.4-0.1s-0.2-0.2-0.1-0.2c-0.1,0.1,0.1,0.1,0.2,0.1c-0.1-0.2,0-0.2-0.2-0.3c0.3-0.1,0-0.2,0.4-0.3l0.2,0.1h-0.3
						c-0.2,0.1,0.1,0.5-0.2,0.6c0.1,0,0.3,0.1,0.4,0.1l2.1-4.3l0,0l0,0l0.2-0.3v-0.1h0.1l0.2-0.3l0,0c0,0,0,0-0.1,0c0,0,0,0,0.1,0
						c0.1-0.1-0.4,0-0.2-0.2c-0.1,0-0.1,0-0.1,0s-0.1,0-0.1,0.1l0,0l0,0c0,0,0,0,0.1-0.1s0.2-0.1,0.4-0.2v-0.1c-0.1,0-0.1,0-0.2,0
						c0.2-0.2-0.4-0.1-0.1-0.4c0,0,0,0-0.1,0s-0.2,0.1-0.2,0.1c0-0.1,0.1-0.1,0.2-0.1c0.1,0,0.1-0.1,0-0.1h0.4v0.1
						c-0.2,0-0.4-0.2-0.6,0c0,0.1,0.4,0.1,0.1,0.2h-0.1c-0.7-0.2,0,0.2-0.4,0.2c0.1,0,0.1,0,0.1,0c0,0.1-0.5,0.1-0.3,0.1
						c0.6-0.3-0.7-0.4-0.2-0.7c0.4,0.1,0.2-0.2,0.4-0.2c0,0,0.1,0.1,0.3,0.2c0.3-0.2,0.3-0.3,0.2-0.4h-0.3c-0.2,0,0.4,0.2-0.1,0.2
						c-0.4-0.1,0.1-0.2,0.1-0.3l-0.1-0.1c0.1,0,0.1,0,0.1,0.1l0.1,0.1c0.4-0.1,0.1-0.3,0.2-0.4c-0.1,0-0.1,0-0.1,0l0,0
						c-0.1,0.1,0,0.2-0.2,0.1c0.1,0,0.1-0.1,0.2-0.1l0,0c0.2,0,0.3-0.1,0.2-0.1s-0.2,0-0.3,0l0.1-0.1h-0.1l0.3-0.1h-0.2
						c0.2-0.1,0.5,0,0.6,0v-0.1l0,0h-0.3c0,0,0,0.1-0.1,0.1s-0.1,0-0.2-0.1h-0.5c-0.1,0.1-0.2,0.3-0.2,0.4H764
						c-0.2,0.1,0.3,0.3-0.3,0.4c0,0.2,0.3,0.1,0.4,0.2c-0.3,0-0.5-0.1-0.7,0c0.5,0.1,0.2,0.3,0.4,0.4l-0.3,0.1l-0.3-0.1v0.1
						c-0.7-0.1,0.3-0.1-0.2-0.3h-0.5v-0.1c-0.2,0-0.5,0-0.5,0.1c0,0,0.4,0.1,0.6,0.2c0,0,0.1,0,0.1-0.1c0.4,0.2-0.3,0-0.2,0.1
						c0.2,0,0.3,0.1,0.4,0.1c-0.3,0-0.4,0.2-0.2,0.3l-0.3,0.1l0.3,0.1c-0.4,0.1,0.6,0.4-0.1,0.5c0.2-0.1,0.2,0.1,0.4,0.1
						c-0.1,0.1-0.4,0-0.4,0.1c0.4,0-0.1,0.1,0.2,0.2c-0.3,0-0.5-0.2-0.5-0.2l0,0l0,0l0.2-0.1c-0.2,0-0.1-0.1-0.4-0.1
						c0.2-0.2,0.2-0.3,0.4-0.5c-0.1,0-0.2,0-0.3,0l0.1-0.2c0,0.1-0.8,0.1-0.6,0.3l-0.2-0.2l0,0l-0.6-0.4c0-0.1,0.2-0.1,0.4,0
						c-0.1-0.1,0.2-0.2,0.1-0.3l0.2,0.1c0.3-0.2-0.3-0.1,0-0.4h-0.3l0.2-0.1c-0.2-0.1-0.6-0.1-0.3-0.2h-0.4c0-0.1,0.4,0,0.4-0.1
						c-0.1-0.1-0.3-0.1-0.4-0.1c0-0.2,0.7-0.4,0.2-0.5c0.2,0,0.2,0,0.2,0h-3.9v0.1c-0.3,0-0.2-0.1-0.6,0l0.2-0.1l0,0
						c0.1,0,0.2,0,0.2,0h-4.8v0.3c0.2,0,0.1-0.1,0.3-0.1l-0.2,0.2h-0.1v0.2h0.1h-0.1v3h2.6c0.1,0,0.1-0.1,0-0.2c0.4,0,0.1,0.1,0,0.1
						c0.2,0,0.4,0,0.6,0h0.6c-0.1-0.2-0.1-0.4-0.2-0.7h0.3c-0.2-0.1,0-0.3-0.2-0.3h0.5c0-0.1-0.2-0.1-0.4-0.1h0.2
						c-0.5,0-0.8-0.2-1.2-0.1l0.1,0.2c-0.1,0.1-0.1-0.1-0.3-0.1c0.1,0.1-0.1,0.2,0,0.3c0,0.1-0.4,0.2-0.6,0.1c0-0.1,0.2-0.3,0.1-0.4
						h-0.1c-0.1-0.3,0.5-0.1,0.6-0.3l0,0c-0.1,0,0-0.1,0-0.1v0.1c0.5,0.1,0.1-0.2,0.6-0.1c0-0.1-0.5-0.2-0.1-0.2l-0.1,0.1
						c0.2,0,0.7-0.1,0.6-0.1h0.5c-0.1,0.1-0.4,0.1-0.6,0.2c0.2,0.3,0.9,0.4,0.8,0.7l0.1-0.1l-0.2,0.2c0.4,0.1,0.2-0.1,0.5-0.2
						c-0.4-0.1,0-0.3,0-0.4c-0.6-0.4,0.8-0.1,0.7-0.4v0.3c-0.2-0.1-0.4,0-0.4,0.1h0.3c-0.3,0-0.1,0.2,0.1,0.2c0.1,0,0.1,0,0.2,0
						c0,0,0,0,0.1-0.1c0-0.1-0.3-0.2,0.1-0.3c-0.1,0.1,0,0.1,0.2,0.1v0.3l-0.2-0.1l0,0c0,0,0,0-0.1,0.1l0,0c0.3,0,0.1,0.1,0.4,0.1
						c0,0.1,0.1,0.3-0.3,0.3c0.1,0,0.2,0.1,0.3,0.1c-0.6,0.1,0.2,0.3-0.1,0.4c-0.1,0-0.3,0-0.4,0.1h1.2c0.2-0.1,0-0.3,0.2-0.3
						c-0.1,0.2,0.4,0.1,0.5,0.1h-0.4c0,0.1,0.1,0.1,0.2,0.1h0.2h0.1c0,0,0,0-0.1,0h0.7v0.1l-4.4,8.5c0.1,0.1,0.5,0,0.4,0.1
						c0.2-0.1,0.3-0.1,0.4-0.2c0,0,0.5,0.1,0.3,0.2c0.1,0,0.2,0,0.3,0l-0.4,0.2H757c-0.3,0.1,0,0.1,0,0.2c-0.1-0.1-0.4-0.2-0.2-0.3
						c-0.2,0.1-0.5,0.2-0.7,0.3l0,0H756c-0.1,0-0.1,0.1-0.2,0.1c0.1,0,0.1-0.1,0.2-0.1l0,0l-0.2-0.1l-0.4,0.8
						c0.1-0.1,0.2-0.2,0.2-0.2v-0.1v0.1c0,0.1,0.1,0.1,0.3,0.2c-0.1,0.1-0.3,0.1-0.3,0.1c0.1,0,0.3,0,0.3-0.1l-0.2,0.1h0.2
						c0.1,0.1,0,0.1-0.2,0.1v-0.2c-0.3,0-0.1,0.2-0.4,0.2c0,0,0,0-0.1,0l-0.2,0.3c0,0.1,0.5,0.2,0.4,0.3c-0.2,0-0.1-0.1-0.3,0
						c0.3,0.2-0.5,0.4-0.2,0.6h-0.4l-1.8,3.6h0.4c-0.3,0,0,0.1-0.3,0.2c0-0.1-0.1-0.1-0.2-0.1l-0.1,0.2h4.6L762,416.4z M761.3,416.9
						l0.2,0.1l-0.2,0.1V416.9z M759.9,419.8c-0.4-0.1,0.1,0.1-0.2,0.2h-0.4c0.4,0,0.3-0.1,0.2-0.3h-0.1c-0.2-0.2,0-0.2-0.1-0.4h0.4
						C759.8,419.4,760.1,419.6,759.9,419.8z M759.4,419.1c0.1,0,0.2,0,0.3-0.1v0.2C759.7,419.1,759.5,419.2,759.4,419.1z
						 M759.7,418.9h0.4C759.8,419,759.9,419,759.7,418.9z M759.4,418.5l0.2-0.1l0.3-0.1L759.4,418.5z M759.7,418
						C759.7,417.9,759.7,417.9,759.7,418c-0.1,0-0.2,0-0.2,0C759.6,417.9,759.6,417.9,759.7,418c0.1,0,0.3,0,0.2-0.1h-0.1h0.2
						l-0.1-0.1c0.6,0.1,0,0.4-0.2,0.5c0.1,0,0.4,0.1,0.4,0.1s-0.4,0-0.5,0.1c-0.1-0.1,0-0.2-0.3-0.2l0,0
						C759.1,418.1,759.6,418,759.7,418z M761.3,415.7l-0.3-0.1L761.3,415.7L761.3,415.7z M765.3,408.8c-0.3,0-0.4,0.1-0.5,0
						C765,408.8,765.1,408.7,765.3,408.8z M764.6,408.3h0.2l-0.1,0.2C764.4,408.5,764.6,408.4,764.6,408.3z M764.5,408.6
						c0,0,0.2,0,0.3,0H764.5C764.5,408.7,764.5,408.7,764.5,408.6z M764.4,408.5c-0.2,0.1-0.5,0-0.6,0.1
						C763.7,408.4,764.2,408.6,764.4,408.5z M763.2,409.7C763.2,409.7,763.1,409.7,763.2,409.7c0.3,0.1,0.6,0,0.5,0
						c0.2,0,0.3,0.3,0,0.3c-0.1-0.1,0.2-0.3-0.3-0.2c0,0.1,0.1,0,0.1,0.1l-0.4-0.1C763.1,409.8,763.1,409.7,763.2,409.7z
						 M763.1,409.4c-0.4,0.1,0.1,0.2-0.2,0.3C762.8,409.6,762.8,409.4,763.1,409.4z M762.8,410c0.1,0,0.2,0,0.2-0.1L762.8,410
						c0,0.1,0,0.1,0,0.1V410c0,0-0.2,0-0.1-0.1l0,0l-0.4,0.1l0.2-0.1c0.1,0,0.2,0,0.2,0h0.1l0,0C762.7,409.9,762.7,409.9,762.8,410z
						 M762.5,409.4L762.5,409.4l-0.3-0.1L762.5,409.4z M762.4,410.6c0.4,0,0.1,0.2,0.3,0.2c0,0,0.1,0,0.2,0c-0.1,0-0.1,0-0.2,0
						c-0.2,0-0.2,0.1-0.4,0.1c0-0.1-0.2-0.1-0.2-0.2C762.2,410.7,762.7,410.7,762.4,410.6z M762.2,408.7c-0.1,0-0.4,0.1-0.4,0H762.2
						z M754.8,409.4l0.3-0.1l-0.1,0.2l0.3,0.1c0,0.1-0.4,0-0.5,0.1C754.7,409.5,755.2,409.4,754.8,409.4z M753.2,407.4
						c-0.1-0.1,0.1-0.4-0.5-0.4h0.6v-0.1C753.4,407,753.3,407.3,753.2,407.4z M754.2,407.5c-0.1-0.2-0.4-0.3,0-0.4
						C754.7,407.3,754.1,407.4,754.2,407.5z M754.4,406.9c-0.2-0.1-0.2-0.3-0.3-0.4h-0.4h0.1c0.1,0,0.5-0.1,0.6,0
						C754,406.7,754.6,406.7,754.4,406.9z M754.9,408.4L754.9,408.4c0.1-0.1,0-0.2,0.1-0.2l0,0l0,0c0-0.1,0.1-0.1,0.4-0.1
						c0,0.2-0.2,0-0.4,0.1l0,0c0.1,0-0.1,0.1,0.1,0.1c0.1,0,0.3,0,0.2-0.1h-0.1h0.1l0,0h0.1C755.2,408.3,755.2,408.3,754.9,408.4z
						 M755.4,408v-0.1l-0.2,0.1c0,0,0.3-0.1,0.5,0H755.4z M756.6,408.5L756.6,408.5l0.1,0.1L756.6,408.5z M761.3,414.9
						c-0.2,0-0.1-0.1-0.2-0.1C761.2,414.8,761.4,414.9,761.3,414.9z M761.4,412.4l0.4-0.1c0,0.1-0.4,0.1-0.1,0.2L761.4,412.4
						C761.4,412.5,761.6,412.5,761.4,412.4z M761.1,414.6v-0.1c0,0,0.2,0,0.3,0.1H761.1z M760.4,407.7c0.1,0,0.2,0,0.3-0.1
						c0.2,0.2-0.2,0.1-0.5,0.1H760c0,0,0.1,0,0.2,0H760.4L760.4,407.7z M760.8,408h-0.2H760.8L760.8,408z M760.3,407.9L760.3,407.9
						L760,408l0,0L760.3,407.9z M759.8,407.9L759.8,407.9L759.8,407.9c-0.1,0-0.3,0-0.3-0.1C759.7,407.7,759.7,407.8,759.8,407.9z
						 M758.6,406.9L758.6,406.9C758.8,406.9,758.7,406.9,758.6,406.9C758.6,406.9,758.5,406.9,758.6,406.9
						C758.5,407,758.5,407,758.6,406.9L758.6,406.9c0.2,0.1,0,0.1-0.2,0.1C758.4,407,758.5,407,758.6,406.9
						C758.5,406.9,758.5,406.9,758.6,406.9z M756.5,406.8l0.2-0.1l0.2,0.1C756.9,406.9,756.5,406.8,756.5,406.8z M757,406.7
						c-0.2,0-0.2-0.1-0.1-0.2c0.2,0,0.5,0,0.5,0L757,406.7z M757.9,408.1h-0.2l0.3-0.1L757.9,408.1z M758.7,408.3
						c-0.2-0.1-0.2-0.1-0.5-0.3h0.2c0.1-0.1,0.5,0,0.5,0C758.4,408,758.8,408.1,758.7,408.3z M758.2,407.9L758.2,407.9H758
						c0.3,0,0.4-0.2,0-0.3l-0.1,0.1l-0.2-0.1h0.1c0.7-0.1,0.3-0.4,0.5-0.5s0.4,0.1,0.3,0.1l0.3-0.1l-0.2,0.1
						c0.8,0.3-0.3,0.2,0.7,0.4C759.1,408,758.6,407.7,758.2,407.9z M759.6,409.5h0.2h0.2H759.6z M760.2,409.6L760.2,409.6
						c0-0.1-0.3-0.2,0.1-0.2C760.3,409.5,760.3,409.6,760.2,409.6L760.2,409.6z M760.6,409.4h-0.4l0.2-0.1
						C760.7,409.2,760.6,409.5,760.6,409.4z M760.8,409.2c0-0.1-0.4-0.1-0.5,0c-0.9,0-0.2-0.4-1.1-0.4c0.2-0.1,0.9,0,0.7-0.2
						l0.4,0.1c0.2,0,0-0.1,0.1-0.1c-0.4,0-0.5,0-0.6-0.1c0.4,0.1,0-0.1,0.4-0.1c0.3,0.1-0.1,0.1,0,0.1c0.2,0,0.3-0.1,0.4-0.1l0,0
						c0.1-0.1,0.3-0.2,0.7-0.2c-0.4,0.1,0.4,0.2-0.1,0.2l-0.1-0.2l-0.3,0.1c0.1,0.1-0.2,0.5,0.5,0.7L760.8,409.2z M759.9,414.2
						c0-0.1,0-0.1,0-0.2C759.9,414,760.1,414.1,759.9,414.2z M760.1,414.1c-0.1-0.1,0.5-0.1,0.2-0.2
						C760.6,414,760.3,414.2,760.1,414.1z M759.9,413.8c0.2-0.1,0.4-0.1,0.2-0.2l0.4,0.2H759.9z M759.8,413.4h0.3H759.8
						C759.7,413.5,759.9,413.5,759.8,413.4z M759.8,415.3v0.1h-0.2L759.8,415.3z M759.9,415.9l-0.1,0.1c-0.1,0-0.1-0.1-0.2-0.1
						H759.9z M759.1,414.1c0.1,0,0.2,0,0.3,0.1C759.3,414.2,759.1,414.2,759.1,414.1z M757.5,417.1c0.1,0,0.2-0.1,0.3-0.1
						c0,0,0,0,0.1,0h-0.1c-0.1,0,0.2,0.1,0.1,0.2C757.8,417.2,757.7,417.1,757.5,417.1z M758.4,418.1l-0.2,0.1h-0.1L758.4,418.1z
						 M754.7,424C754.6,424,754.6,424,754.7,424c-0.1,0-0.4,0-0.3-0.1C754.6,423.8,754.6,424,754.7,424L754.7,424z M757.2,421.5
						c-0.1,0.1-0.1,0.2-0.4,0.2C756.9,421.6,757,421.5,757.2,421.5z M757,421.9l-0.2-0.1L757,421.9L757,421.9z M756.2,423.3
						c0-0.1-0.1-0.3,0.3-0.3C756.5,423.2,756.3,423.2,756.2,423.3z M756.9,422.3c-0.1,0-0.3,0.2-0.5,0.1c0-0.2,0.1-0.5,0.3-0.5
						c0.2,0.1,0.4,0.1,0.4,0.2C756.7,422.1,757,422.3,756.9,422.3z M757.3,423.1h-0.2l0.1-0.1l0,0
						C757.2,423.1,757.2,423.1,757.3,423.1L757.3,423.1C757.4,423.1,757.3,423.1,757.3,423.1z M757.2,423L757.2,423h0.3H757.2z
						 M757.5,422.7v-0.1h-0.1c0.1-0.1-0.1-0.2,0.3-0.2L757.5,422.7z M757.6,422.3C757.7,422.3,757.7,422.3,757.6,422.3
						c0.1-0.1,0.1-0.2,0.4-0.1C757.8,422.2,757.8,422.2,757.6,422.3C757.7,422.3,757.7,422.3,757.6,422.3z"/>
					<path class="st6" d="M756.9,409.9h0.2v-0.1C757,409.8,757,409.8,756.9,409.9z"/>
					<path class="st6" d="M756.1,419.7C756,419.7,756,419.7,756.1,419.7L756.1,419.7C756,419.7,756,419.7,756.1,419.7z"/>
					<path class="st6" d="M753.5,424.6L753.5,424.6l0.2,0.1C753.7,424.7,753.6,424.6,753.5,424.6z"/>
					<path class="st6" d="M757.4,409.9h1l0.1-0.1C758.3,409.9,757.8,409.8,757.4,409.9z"/>
				</g>
			</g>
			<g>
				<rect x="797" y="538.8" class="st9" width="210.2" height="35.1"/>
				<rect x="776" y="538.8" class="st10" width="29.3" height="35.1"/>
				<g>
					<path class="st0" d="M822.1,552.1c0.9-0.2,2.3-0.3,4.1-0.3c1.9,0,3.2,0.4,4.1,1.1c0.9,0.7,1.4,1.8,1.4,3.1s-0.4,2.4-1.2,3.2
						c-1,1-2.6,1.4-4.4,1.4c-0.4,0-0.8,0-1-0.1v4.8h-3L822.1,552.1L822.1,552.1z M825.1,558.2c0.3,0.1,0.6,0.1,1,0.1
						c1.6,0,2.6-0.8,2.6-2.2c0-1.2-0.8-2-2.4-2c-0.6,0-1,0-1.2,0.1L825.1,558.2L825.1,558.2z"/>
					<path class="st0" d="M850,558.5c0,4.4-2.7,7.1-6.6,7.1c-4,0-6.4-3-6.4-6.9c0-4,2.6-7.1,6.6-7.1
						C847.8,551.7,850,554.8,850,558.5z M840.3,558.7c0,2.6,1.2,4.5,3.3,4.5s3.2-1.9,3.2-4.6c0-2.4-1.1-4.5-3.2-4.5
						C841.5,554.1,840.3,556.1,840.3,558.7z"/>
					<path class="st0" d="M856,551.9h3.1v10.9h5.4v2.6H856V551.9z"/>
					<path class="st0" d="M869.4,563.8l6.4-9.2v-0.1H870V552h9.8v1.8l-6.3,9.1v0.1h6.4v2.5h-10.5V563.8z"/>
					<path class="st0" d="M889.1,562l-1,3.5H885l4.1-13.5h4l4.2,13.5H894l-1-3.5H889.1z M892.5,559.7l-0.8-2.9
						c-0.2-0.8-0.5-1.8-0.7-2.6l0,0c-0.2,0.8-0.4,1.8-0.6,2.6l-0.8,2.9H892.5z"/>
					<path class="st0" d="M914.5,560.3c-0.1-1.6-0.1-3.6-0.1-5.6h-0.1c-0.4,1.7-1,3.6-1.5,5.2l-1.7,5.3h-2.4l-1.5-5.2
						c-0.4-1.6-0.9-3.5-1.2-5.3l0,0c-0.1,1.8-0.1,3.9-0.2,5.6l-0.3,5.1h-2.8l0.9-13.5h4.1l1.3,4.5c0.4,1.5,0.8,3.2,1.1,4.8h0.1
						c0.4-1.6,0.8-3.3,1.3-4.8l1.4-4.5h4l0.7,13.5h-3L914.5,560.3z"/>
					<path class="st0" d="M932,559.7h-5v3.2h5.5v2.5H924v-13.5h8.3v2.5H927v2.8h5V559.7z"/>
					<path class="st0" d="M945.8,565.4l-1.2-2.4c-0.5-0.9-0.8-1.6-1.2-2.4l0,0c-0.3,0.8-0.6,1.5-1,2.4l-1.1,2.4h-3.5l3.9-6.8
						l-3.8-6.7h3.5l1.2,2.5c0.4,0.8,0.7,1.5,1,2.2h0.1c0.3-0.9,0.6-1.5,0.9-2.2l1.1-2.5h3.5l-3.8,6.6l4,6.9H945.8z"/>
				</g>
				<g>
					<path class="st4" d="M957,562.1l4.3-8.9c0.2-0.4,0.3-0.8,0.5-1.2c0.1-0.4,0.2-0.8,0.2-1.2l0,0c0-0.5-0.1-0.9-0.3-1.2
						s-0.5-0.4-0.9-0.4s-0.7,0.2-0.9,0.6c-0.2,0.4-0.4,1-0.4,1.7l0,0h-2.4l0,0c0.1-1.2,0.2-2.3,0.6-3.2s0.8-1.6,1.3-2
						c0.6-0.5,1.2-0.7,1.9-0.7c0.8,0,1.4,0.2,2,0.6c0.6,0.4,1,1,1.3,1.8s0.4,1.7,0.4,2.8l0,0c0,0.9-0.1,1.8-0.3,2.7
						s-0.5,1.7-0.8,2.4l-3.1,6.1h4.3v3.6H957V562.1z"/>
					<path class="st4" d="M967.3,564.1c-0.6-1-1-2.4-1-4.1v-8.9c0-1.8,0.3-3.1,1-4.1c0.6-1,1.6-1.5,2.8-1.5s2.2,0.5,2.8,1.5
						s1,2.4,1,4.1v8.9c0,1.8-0.3,3.1-1,4.1c-0.6,1-1.6,1.5-2.8,1.5C968.9,565.6,967.9,565.1,967.3,564.1z M971.1,561.3
						c0.2-0.5,0.3-1.2,0.3-2.2V552c0-1-0.1-1.7-0.3-2.2s-0.6-0.8-1.1-0.8s-0.8,0.3-1.1,0.8c-0.2,0.5-0.3,1.2-0.3,2.2v7.1
						c0,1,0.1,1.7,0.3,2.2s0.6,0.8,1.1,0.8C970.6,562.1,970.9,561.8,971.1,561.3z"/>
					<path class="st4" d="M976.7,564.1c-0.6-1-1-2.4-1-4.1v-8.9c0-1.8,0.3-3.1,1-4.1c0.6-1,1.6-1.5,2.8-1.5s2.2,0.5,2.8,1.5
						s1,2.4,1,4.1v8.9c0,1.8-0.3,3.1-1,4.1c-0.6,1-1.6,1.5-2.8,1.5S977.3,565.1,976.7,564.1z M980.5,561.3c0.2-0.5,0.3-1.2,0.3-2.2
						V552c0-1-0.1-1.7-0.3-2.2s-0.6-0.8-1.1-0.8s-0.8,0.3-1.1,0.8c-0.2,0.5-0.3,1.2-0.3,2.2v7.1c0,1,0.1,1.7,0.3,2.2
						s0.6,0.8,1.1,0.8C980,562.1,980.3,561.8,980.5,561.3z"/>
					<path class="st4" d="M986.1,564.1c-0.6-1-1-2.4-1-4.1v-8.9c0-1.8,0.3-3.1,1-4.1c0.6-1,1.6-1.5,2.8-1.5s2.2,0.5,2.8,1.5
						s1,2.4,1,4.1v8.9c0,1.8-0.3,3.1-1,4.1c-0.6,1-1.6,1.5-2.8,1.5C987.7,565.6,986.7,565.1,986.1,564.1z M989.9,561.3
						c0.2-0.5,0.3-1.2,0.3-2.2V552c0-1-0.1-1.7-0.3-2.2s-0.6-0.8-1.1-0.8s-0.8,0.3-1.1,0.8c-0.2,0.5-0.3,1.2-0.3,2.2v7.1
						c0,1,0.1,1.7,0.3,2.2s0.6,0.8,1.1,0.8C989.4,562.1,989.7,561.8,989.9,561.3z"/>
				</g>
			</g>
		</g>
	</g>
	<g>
		<path class="st6" d="M959.2,214l3.1-17.5l2.3-2l2.8,3.4l-2.6,14.6l-4,3.4L959.2,214z M963.2,218.9l-1.6-1.9l4-3.4h4.9l2,2.4
			l2.9-2.4h4.9l2.8,3.4l-2.3,1.9H963.2z M966.4,173.1l2.3-1.9l2.8,3.4l-2.6,14.5l-4,3.4l-1.6-2L966.4,173.1z M976.5,193.5l-2.9,2.4
			h-5.9l-2-2.4l2.9-2.4h5.8L976.5,193.5z M972.1,168.2h17.5l1.6,2l-4,3.4h-4.9l-2-2.4l-2.9,2.4h-4.9l-2.6-3.4L972.1,168.2z
			 M987.2,193.5l-2.9,2.4h-5.9l-2-2.4l2.9-2.4h5.8L987.2,193.5z M986.5,214l-2.3,2l-2.8-3.4l2.5-14.7l4-3.4l1.6,2L986.5,214z
			 M993.7,173.1l-3.1,17.5l-2.3,1.9l-2.8-3.4l2.6-14.6l4-3.4L993.7,173.1z"/>
		<path class="st6" d="M926,214l3.1-17.5l2.3-2l2.8,3.4l-2.6,14.6l-4,3.4L926,214z M930,218.9l-1.6-1.9l4-3.4h4.9l2,2.4l2.9-2.4h4.9
			l2.8,3.4l-2.3,1.9H930z M933.2,173.1l2.3-1.9l2.8,3.4l-2.6,14.5l-4,3.4l-1.6-2L933.2,173.1z M943.3,193.5l-2.9,2.4h-5.9l-2-2.4
			l2.9-2.4h5.8L943.3,193.5z M938.9,168.2h17.5l1.6,2l-4,3.4h-4.9l-2-2.4l-2.9,2.4h-4.9l-2.6-3.4L938.9,168.2z M954,193.5l-2.9,2.4
			h-5.9l-2-2.4l2.9-2.4h5.8L954,193.5z M953.3,214l-2.3,2l-2.8-3.4l2.5-14.7l4-3.4l1.6,2L953.3,214z M960.5,173.1l-3.1,17.5
			l-2.3,1.9l-2.8-3.4l2.6-14.6l4-3.4L960.5,173.1z"/>
		<path class="st6" d="M892.8,214l3.1-17.5l2.3-2l2.8,3.4l-2.6,14.6l-4,3.4L892.8,214z M896.8,218.9l-1.6-1.9l4-3.4h4.9l2,2.4
			l2.9-2.4h4.9l2.8,3.4l-2.3,1.9H896.8z M900,173.1l2.3-1.9l2.8,3.4l-2.6,14.5l-4,3.4l-1.6-2L900,173.1z M910.1,193.5l-2.9,2.4h-5.9
			l-2-2.4l2.9-2.4h5.8L910.1,193.5z M905.7,168.2h17.5l1.6,2l-4,3.4h-4.9l-2-2.4l-2.9,2.4h-4.9l-2.6-3.4L905.7,168.2z M920.8,193.5
			l-2.9,2.4H912l-2-2.4l2.9-2.4h5.8L920.8,193.5z M920.1,214l-2.3,2l-2.8-3.4l2.5-14.7l4-3.4l1.6,2L920.1,214z M927.3,173.1
			l-3.1,17.5l-2.3,1.9l-2.8-3.4l2.6-14.6l4-3.4L927.3,173.1z"/>
		<path class="st6" d="M859.6,214l3.1-17.5l2.3-2l2.8,3.4l-2.6,14.6l-4,3.4L859.6,214z M863.6,218.9L862,217l4-3.4h4.9l2,2.4
			l2.9-2.4h4.9l2.8,3.4l-2.3,1.9H863.6z M866.8,173.1l2.3-1.9l2.8,3.4l-2.6,14.5l-4,3.4l-1.6-2L866.8,173.1z M876.9,193.5l-2.9,2.4
			h-5.9l-2-2.4l2.9-2.4h5.8L876.9,193.5z M872.5,168.2H890l1.6,2l-4,3.4h-4.9l-2-2.4l-2.9,2.4h-4.9l-2.6-3.4L872.5,168.2z
			 M887.6,193.5l-2.9,2.4h-5.9l-2-2.4l2.9-2.4h5.8L887.6,193.5z M886.9,214l-2.3,2l-2.8-3.4l2.5-14.7l4-3.4l1.6,2L886.9,214z
			 M894.1,173.1l-3.1,17.5l-2.3,1.9l-2.8-3.4l2.6-14.6l4-3.4L894.1,173.1z"/>
		<path class="st6" d="M826.4,214l3.1-17.5l2.3-2l2.8,3.4l-2.6,14.6l-4,3.4L826.4,214z M830.4,218.9l-1.6-1.9l4-3.4h4.9l2,2.4
			l2.9-2.4h4.9l2.8,3.4l-2.3,1.9H830.4z M833.6,173.1l2.3-1.9l2.8,3.4l-2.6,14.5l-4,3.4l-1.6-2L833.6,173.1z M843.7,193.5l-2.9,2.4
			h-5.9l-2-2.4l2.9-2.4h5.8L843.7,193.5z M839.3,168.2h17.5l1.6,2l-4,3.4h-4.9l-2-2.4l-2.9,2.4h-4.9l-2.6-3.4L839.3,168.2z
			 M854.4,193.5l-2.9,2.4h-5.9l-2-2.4l2.9-2.4h5.8L854.4,193.5z M853.7,214l-2.3,2l-2.8-3.4l2.5-14.7l4-3.4l1.6,2L853.7,214z
			 M860.9,173.1l-3.1,17.5l-2.3,1.9l-2.8-3.4l2.6-14.6l4-3.4L860.9,173.1z"/>
		<path class="st6" d="M793.2,214l3.1-17.5l2.3-2l2.8,3.4l-2.6,14.6l-4,3.4L793.2,214z M797.2,218.9l-1.6-1.9l4-3.4h4.9l2,2.4
			l2.9-2.4h4.9l2.8,3.4l-2.3,1.9H797.2z M800.4,173.1l2.3-1.9l2.8,3.4l-2.6,14.5l-4,3.4l-1.6-2L800.4,173.1z M810.5,193.5l-2.9,2.4
			h-5.9l-2-2.4l2.9-2.4h5.8L810.5,193.5z M806.1,168.2h17.5l1.6,2l-4,3.4h-4.9l-2-2.4l-2.9,2.4h-4.9l-2.6-3.4L806.1,168.2z
			 M821.2,193.5l-2.9,2.4h-5.9l-2-2.4l2.9-2.4h5.8L821.2,193.5z M820.5,214l-2.3,2l-2.8-3.4l2.5-14.7l4-3.4l1.6,2L820.5,214z
			 M827.7,173.1l-3.1,17.5l-2.3,1.9l-2.8-3.4l2.6-14.6l4-3.4L827.7,173.1z"/>
		<path class="st6" d="M760,214l3.1-17.5l2.3-2l2.8,3.4l-2.6,14.6l-4,3.4L760,214z M764,218.9l-1.6-1.9l4-3.4h4.9l2,2.4l2.9-2.4h4.9
			l2.8,3.4l-2.3,1.9H764z M767.2,173.1l2.3-1.9l2.8,3.4l-2.6,14.5l-4,3.4l-1.6-2L767.2,173.1z M777.3,193.5l-2.9,2.4h-5.9l-2-2.4
			l2.9-2.4h5.8L777.3,193.5z M772.9,168.2h17.5l1.6,2l-4,3.4h-4.9l-2-2.4l-2.9,2.4h-4.9l-2.6-3.4L772.9,168.2z M788,193.5l-2.9,2.4
			h-5.9l-2-2.4l2.9-2.4h5.8L788,193.5z M787.3,214l-2.3,2l-2.8-3.4l2.5-14.7l4-3.4l1.6,2L787.3,214z M794.5,173.1l-3.1,17.5
			l-2.3,1.9l-2.8-3.4l2.6-14.6l4-3.4L794.5,173.1z"/>
		<path class="st6" d="M726.8,214l3.1-17.5l2.3-2l2.8,3.4l-2.6,14.6l-4,3.4L726.8,214z M730.8,218.9l-1.6-1.9l4-3.4h4.9l2,2.4
			l2.9-2.4h4.9l2.8,3.4l-2.3,1.9H730.8z M734,173.1l2.3-1.9l2.8,3.4l-2.6,14.5l-4,3.4l-1.6-2L734,173.1z M744.1,193.5l-2.9,2.4h-5.9
			l-2-2.4l2.9-2.4h5.8L744.1,193.5z M739.7,168.2h17.5l1.6,2l-4,3.4h-4.9l-2-2.4l-2.9,2.4h-4.9l-2.6-3.4L739.7,168.2z M754.8,193.5
			l-2.9,2.4H746l-2-2.4l2.9-2.4h5.8L754.8,193.5z M754.1,214l-2.3,2l-2.8-3.4l2.5-14.7l4-3.4l1.6,2L754.1,214z M761.3,173.1
			l-3.1,17.5l-2.3,1.9l-2.8-3.4l2.6-14.6l4-3.4L761.3,173.1z"/>
	</g>
</g>
<g id="Layer_2">
</g>
</svg>
